<svg width="14" height="14" viewBox="0 0 14 14" fill="none" xmlns="http://www.w3.org/2000/svg">
<path d="M0.0527344 6.73461C0.0900952 6.46212 0.118834 6.18667 0.167691 5.91715C0.443586 4.39772 1.15057 3.12413 2.26277 2.09045C3.14794 1.27002 4.1768 0.739847 5.3436 0.491052C5.56777 0.443663 5.79768 0.396273 6.02472 0.384426C6.38683 0.366655 6.74895 0.378502 7.12543 0.378502C7.12543 2.46068 7.12543 4.57247 7.12543 6.69907C9.18889 6.69907 11.238 6.69907 13.3158 6.69907C13.2986 7.10188 13.3043 7.48988 13.2641 7.87196C13.1262 9.19887 12.6635 10.3925 11.8473 11.4291C10.7264 12.8567 9.28086 13.7009 7.50766 13.9437C7.37258 13.9615 7.23751 13.9822 7.10244 14C6.82941 14 6.55352 14 6.2805 14C6.18278 13.9882 6.08795 13.9763 5.99023 13.9645C4.71134 13.8105 3.55603 13.3336 2.55304 12.4984C1.27415 11.4321 0.472325 10.0696 0.164817 8.40213C0.118834 8.12964 0.0900952 7.85419 0.0527344 7.5817C0.0527344 7.29736 0.0527344 7.01599 0.0527344 6.73461ZM12.3904 7.6202C12.3531 7.61724 12.3157 7.61132 12.2755 7.61132C10.5138 7.61132 8.74919 7.61132 6.98748 7.61428C6.92138 7.61428 6.83804 7.65575 6.78918 7.7061C5.53615 8.99154 4.286 10.2799 3.03873 11.5683C3.01286 11.595 2.987 11.6246 2.96113 11.6542C4.4182 13.0048 6.81792 13.5854 8.99922 12.5872C11.2351 11.5654 12.3215 9.34992 12.3904 7.6202ZM6.03909 7.1552C4.80043 5.87864 3.56178 4.60209 2.326 3.3285C0.409099 5.54099 0.532677 8.95007 2.31738 10.9908C3.5589 9.71126 4.80043 8.43175 6.03909 7.1552ZM2.98412 2.64431C4.07908 3.77277 5.16255 4.89235 6.24026 6.00304C6.24026 4.44215 6.24026 2.86349 6.24026 1.27298C5.00161 1.38257 3.91814 1.84461 2.98412 2.64431Z" fill="#697586"/>
<path d="M8.05273 0.0104725C11.3218 -0.191282 14.1167 2.54717 13.9394 6.05572C11.9804 6.05572 10.0214 6.05572 8.05273 6.05572C8.05273 4.04556 8.05273 2.03294 8.05273 0.0104725ZM13.185 5.3053C13.039 2.83011 10.9769 0.888842 8.78558 0.787965C8.78558 2.29374 8.78558 3.79952 8.78558 5.3053C10.2561 5.3053 11.7146 5.3053 13.185 5.3053Z" fill="#697586"/>
</svg>
