<svg width="18" height="18" viewBox="0 0 18 18" fill="none" xmlns="http://www.w3.org/2000/svg">
<path d="M0 8.93517C0.0478873 8.59519 0.0847237 8.25152 0.147346 7.91524C0.500975 6.01949 1.40715 4.43047 2.83272 3.14077C3.96728 2.11714 5.28602 1.45567 6.78158 1.14525C7.06891 1.08613 7.3636 1.027 7.6546 1.01222C8.11874 0.990045 8.58288 1.00483 9.06544 1.00483C9.06544 3.6027 9.06544 6.23752 9.06544 8.89082C11.7103 8.89082 14.3367 8.89082 17 8.89082C16.9779 9.3934 16.9853 9.8775 16.9337 10.3542C16.7569 12.0097 16.1638 13.499 15.1177 14.7924C13.681 16.5736 11.8282 17.6268 9.55536 17.9298C9.38223 17.952 9.2091 17.9778 9.03597 18C8.68602 18 8.33239 18 7.98245 18C7.8572 17.9852 7.73564 17.9704 7.6104 17.9557C5.97118 17.7635 4.49036 17.1685 3.20477 16.1264C1.56555 14.7961 0.537811 13.0962 0.143662 11.0157C0.0847237 10.6757 0.0478873 10.332 0 9.99205C0 9.6373 0 9.28623 0 8.93517ZM15.8139 10.0401C15.766 10.0364 15.7181 10.029 15.6665 10.029C13.4084 10.029 11.1467 10.029 8.88862 10.0327C8.8039 10.0327 8.69707 10.0844 8.63445 10.1473C7.02839 11.7511 5.426 13.3586 3.8273 14.9661C3.79415 14.9993 3.761 15.0363 3.72784 15.0732C5.59545 16.7583 8.67129 17.4826 11.4672 16.2373C14.333 14.9624 15.7255 12.1982 15.8139 10.0401ZM7.67302 9.45992C6.08537 7.8672 4.49772 6.27448 2.91376 4.68545C0.456771 7.44592 0.615168 11.6993 2.90271 14.2455C4.49404 12.6491 6.08537 11.0526 7.67302 9.45992ZM3.75731 3.83181C5.16078 5.23976 6.54951 6.63663 7.93088 8.0224C7.93088 6.07492 7.93088 4.10527 7.93088 2.12084C6.34323 2.25757 4.9545 2.83405 3.75731 3.83181Z" fill="white"/>
<path d="M10.0156 1.01259C13.8977 0.77938 17.2166 3.94484 17.0061 8.00049C14.6798 8.00049 12.3534 8.00049 10.0156 8.00049C10.0156 5.67688 10.0156 3.35042 10.0156 1.01259ZM16.1103 7.13304C15.9368 4.2719 13.4881 2.02793 10.8859 1.91132C10.8859 3.6519 10.8859 5.39247 10.8859 7.13304C12.6321 7.13304 14.3641 7.13304 16.1103 7.13304Z" fill="white"/>
</svg>
