<svg width="14" height="14" viewBox="0 0 14 14" fill="none" xmlns="http://www.w3.org/2000/svg">
<g clip-path="url(#clip0_2537_7824)">
<path d="M12.5717 9.28895C12.6741 9.55537 12.7574 9.7893 12.8535 10.0167C12.8695 10.0525 12.9303 10.0915 12.9719 10.0915C13.1416 10.1012 13.3146 10.0915 13.4843 10.0947C13.7949 10.1012 14.003 10.3026 14.003 10.5886C14.003 10.8745 13.7917 11.0662 13.4779 11.0694C13.3114 11.0694 13.1449 11.0662 12.9815 11.0727C12.9367 11.0759 12.8727 11.1084 12.8599 11.1441C12.8086 11.2579 12.783 11.3846 12.735 11.5015C12.6869 11.6185 12.6261 11.729 12.5589 11.8589C12.6997 11.9986 12.847 12.1383 12.9879 12.2813C13.2025 12.5022 13.2153 12.8011 13.02 12.9993C12.8246 13.2008 12.5268 13.1878 12.3091 12.9701C12.197 12.8596 12.0881 12.7492 11.9793 12.6354C11.9024 12.5575 11.832 12.538 11.7231 12.5997C11.5598 12.6939 11.3772 12.7621 11.1979 12.8206C11.1051 12.8499 11.0794 12.8889 11.0826 12.9798C11.089 13.1585 11.089 13.3372 11.0826 13.5127C11.0762 13.7888 10.8809 13.9903 10.6215 13.9968C10.3525 14.0033 10.1412 13.8116 10.122 13.5322C10.1092 13.3502 10.1156 13.165 10.1188 12.9831C10.122 12.8889 10.0964 12.8466 9.99709 12.8141C9.77294 12.7427 9.55839 12.6484 9.29902 12.5477C9.18374 12.6679 9.05245 12.8304 8.89554 12.9603C8.79627 13.0416 8.66498 13.1098 8.54009 13.1293C8.33836 13.1618 8.17825 13.0481 8.09179 12.8629C8.00533 12.6777 8.02454 12.4925 8.16224 12.3365C8.29353 12.1903 8.43762 12.0571 8.57212 11.9109C8.59773 11.8817 8.62335 11.8199 8.61054 11.7874C8.51448 11.5535 8.4088 11.3261 8.29353 11.0662C8.10139 11.0662 7.87404 11.0792 7.65309 11.0629C7.29124 11.0337 7.04467 10.7055 7.22079 10.3644C7.31686 10.1792 7.49618 10.0915 7.70752 10.0915C7.90926 10.0915 8.1078 10.0915 8.29673 10.0915C8.4088 9.84129 8.51768 9.60411 8.61695 9.36368C8.62655 9.33769 8.59773 9.27921 8.57212 9.25321C8.45364 9.1265 8.33195 9.00629 8.21347 8.88283C7.99892 8.66189 7.98932 8.36298 8.18785 8.16479C8.38639 7.9666 8.67779 7.9796 8.89874 8.20053C9.01722 8.3175 9.1357 8.43446 9.25098 8.55793C9.30222 8.61316 9.34064 8.62615 9.4175 8.58717C9.60322 8.49944 9.79215 8.41497 9.98749 8.35324C10.0996 8.32075 10.1252 8.26876 10.122 8.16479C10.1156 8.00234 10.1156 7.83989 10.122 7.67744C10.1316 7.37853 10.3397 7.16085 10.6087 7.1641C10.8809 7.16735 11.0794 7.38503 11.0826 7.68719C11.0858 7.85614 11.089 8.02184 11.0794 8.19079C11.073 8.29476 11.1179 8.324 11.2075 8.35324C11.3836 8.41172 11.5598 8.4767 11.7199 8.56767C11.832 8.63265 11.9024 8.60991 11.9793 8.53193C12.0913 8.41822 12.2034 8.30125 12.3219 8.18754C12.5332 7.98285 12.831 7.97635 13.0232 8.17454C13.2089 8.36623 13.2057 8.66514 13.0072 8.87308C12.8535 9.02253 12.6997 9.16549 12.5717 9.28895ZM10.5863 11.9207C11.3356 11.9499 11.9248 11.3066 11.9376 10.6113C11.9504 9.84129 11.3068 9.26621 10.6407 9.24347C9.94906 9.22072 9.22216 9.83479 9.23817 10.6178C9.25418 11.3391 9.94266 11.9466 10.5863 11.9207Z" fill="#697586"/>
<path d="M10.2759 3.58371C10.2919 5.5656 8.58834 7.18686 6.67022 7.16737C4.68806 7.14787 3.10618 5.5656 3.10938 3.57721C3.11578 1.58881 4.70728 0.00979094 6.68623 4.38958e-05C8.59794 -0.00970315 10.2919 1.60506 10.2759 3.58371ZM6.67983 6.18617C8.12722 6.18617 9.28001 5.03602 9.28321 3.58696C9.28642 2.1379 8.12722 0.974748 6.67342 0.977997C5.31249 0.981246 4.07324 2.07291 4.07324 3.58371C4.07644 5.09775 5.3189 6.18292 6.67983 6.18617Z" fill="#697586"/>
<path d="M3.85228 13.3599C2.94286 13.3599 2.03343 13.3534 1.12401 13.3631C0.662895 13.3664 0.105713 13.0025 0.0192536 12.4827C0.00964699 12.4274 4.04025e-05 12.3722 4.04025e-05 12.317C4.04025e-05 11.9303 -0.00956618 11.5437 0.0032426 11.1571C0.0224558 10.5755 0.32026 10.1206 0.691715 9.71125C1.23929 9.10694 1.92456 8.71705 2.67708 8.43114C3.34313 8.17772 4.0188 7.97303 4.72328 7.88856C5.36372 7.81058 6.01376 7.77484 6.65741 7.73585C6.936 7.71961 7.14094 7.93404 7.15054 8.20046C7.15695 8.47663 6.96161 8.69106 6.67662 8.70406C6.3596 8.7203 6.04258 8.7203 5.72877 8.74305C4.70086 8.82102 3.70498 9.03221 2.75393 9.45133C2.36006 9.62353 1.99181 9.83471 1.66198 10.1109C1.36418 10.3611 1.1112 10.647 1.02154 11.0466C0.999125 11.1441 0.992721 11.248 0.989519 11.3488C0.986317 11.6184 0.986317 11.8881 0.989519 12.1578C0.989519 12.3657 1.00553 12.3819 1.21687 12.3819C2.98128 12.3819 4.74249 12.3819 6.5069 12.3819C6.55814 12.3819 6.60617 12.3819 6.65741 12.3819C6.95201 12.3917 7.15695 12.6029 7.15375 12.8823C7.15054 13.1585 6.9424 13.3566 6.651 13.3566C5.72236 13.3599 4.78732 13.3599 3.85228 13.3599Z" fill="#697586"/>
</g>
<defs>
<clipPath id="clip0_2537_7824">
<rect width="14" height="14" fill="white"/>
</clipPath>
</defs>
</svg>
