<svg width="18" height="18" viewBox="0 0 18 18" fill="none" xmlns="http://www.w3.org/2000/svg">
<g clip-path="url(#clip0_2875_8037)">
<g clip-path="url(#clip1_2875_8037)">
<path d="M16.1635 11.9429C16.2952 12.2855 16.4023 12.5862 16.5258 12.8787C16.5464 12.9246 16.6246 12.9747 16.6781 12.9747C16.8963 12.9873 17.1187 12.9747 17.3369 12.9789C17.7362 12.9873 18.0038 13.2463 18.0038 13.6139C18.0038 13.9815 17.7321 14.2279 17.3286 14.2321C17.1145 14.2321 16.9005 14.2279 16.6905 14.2363C16.6328 14.2405 16.5505 14.2822 16.534 14.3282C16.4682 14.4744 16.4352 14.6373 16.3735 14.7877C16.3117 14.9381 16.2335 15.0801 16.147 15.2472C16.3282 15.4268 16.5176 15.6064 16.6987 15.7902C16.9746 16.0743 16.991 16.4586 16.7399 16.7134C16.4887 16.9724 16.1059 16.9557 15.8259 16.6758C15.6818 16.5338 15.5418 16.3918 15.4018 16.2456C15.303 16.1453 15.2124 16.1202 15.0725 16.1996C14.8625 16.3208 14.6278 16.4085 14.3973 16.4837C14.2779 16.5213 14.2449 16.5714 14.249 16.6884C14.2573 16.9181 14.2573 17.1479 14.249 17.3734C14.2408 17.7285 13.9897 17.9875 13.6562 17.9959C13.3103 18.0042 13.0386 17.7577 13.0139 17.3985C12.9974 17.1646 13.0057 16.9265 13.0098 16.6925C13.0139 16.5714 12.981 16.5171 12.8533 16.4753C12.5651 16.3834 12.2893 16.2623 11.9558 16.1328C11.8076 16.2873 11.6388 16.4962 11.4371 16.6633C11.3094 16.7677 11.1406 16.8554 10.9801 16.8805C10.7207 16.9223 10.5148 16.7761 10.4037 16.538C10.2925 16.2999 10.3172 16.0618 10.4942 15.8613C10.663 15.6733 10.8483 15.502 11.0212 15.314C11.0542 15.2764 11.0871 15.1971 11.0706 15.1553C10.9471 14.8545 10.8112 14.5621 10.663 14.2279C10.416 14.2279 10.1237 14.2446 9.83961 14.2237C9.37438 14.1862 9.05736 13.7642 9.2838 13.3256C9.40732 13.0875 9.63787 12.9747 9.9096 12.9747C10.169 12.9747 10.4242 12.9747 10.6672 12.9747C10.8112 12.6531 10.9512 12.3481 11.0789 12.039C11.0912 12.0056 11.0542 11.9304 11.0212 11.897C10.8689 11.7341 10.7124 11.5795 10.5601 11.4208C10.2843 11.1367 10.2719 10.7524 10.5272 10.4976C10.7824 10.2428 11.1571 10.2595 11.4412 10.5435C11.5935 10.6939 11.7458 10.8443 11.894 11.003C11.9599 11.0741 12.0093 11.0908 12.1081 11.0406C12.3469 10.9279 12.5898 10.8192 12.841 10.7399C12.9851 10.6981 13.018 10.6313 13.0139 10.4976C13.0057 10.2887 13.0057 10.0799 13.0139 9.871C13.0263 9.48669 13.2939 9.20681 13.6397 9.21098C13.9897 9.21516 14.2449 9.49504 14.249 9.88353C14.2532 10.1007 14.2573 10.3138 14.2449 10.531C14.2367 10.6647 14.2943 10.7023 14.4096 10.7399C14.636 10.8151 14.8625 10.8986 15.0683 11.0156C15.2124 11.0991 15.303 11.0699 15.4018 10.9696C15.5459 10.8234 15.69 10.673 15.8424 10.5268C16.1141 10.2637 16.497 10.2553 16.744 10.5101C16.9828 10.7566 16.9787 11.1409 16.7234 11.4082C16.5258 11.6004 16.3282 11.7842 16.1635 11.9429ZM13.6109 15.3266C14.5743 15.3642 15.3318 14.537 15.3483 13.6431C15.3648 12.6531 14.5372 11.9137 13.6809 11.8845C12.7916 11.8552 11.857 12.6447 11.8776 13.6515C11.8982 14.5788 12.7833 15.36 13.6109 15.3266Z" fill="white"/>
<path d="M13.2121 4.60762C13.2327 7.15578 11.0424 9.24025 8.57628 9.21519C6.02779 9.19012 3.99394 7.15578 3.99805 4.59927C4.00629 2.04276 6.05249 0.0125883 8.59686 5.64374e-05C11.0548 -0.0124755 13.2327 2.06364 13.2121 4.60762ZM8.58863 7.95364C10.4496 7.95364 11.9317 6.47488 11.9358 4.6118C11.94 2.74872 10.4496 1.25325 8.5804 1.25742C6.83062 1.2616 5.2373 2.66518 5.2373 4.60762C5.24142 6.55425 6.83886 7.94947 8.58863 7.95364Z" fill="white"/>
<path d="M4.95342 17.1768C3.78416 17.1768 2.6149 17.1685 1.44565 17.181C0.852782 17.1852 0.136405 16.7173 0.0252429 16.049C0.0128916 15.978 0.000540227 15.9069 0.000540227 15.8359C0.000540227 15.3388 -0.0118111 14.8417 0.00465734 14.3446C0.02936 13.5969 0.412251 13.0121 0.889836 12.4857C1.59386 11.7088 2.47492 11.2075 3.44244 10.8399C4.2988 10.5141 5.16751 10.2509 6.07328 10.1423C6.8967 10.042 7.73247 9.99607 8.56001 9.94594C8.9182 9.92505 9.18169 10.2008 9.19404 10.5433C9.20228 10.8984 8.95113 11.1741 8.58471 11.1908C8.17712 11.2117 7.76952 11.2117 7.36605 11.2409C6.04446 11.3412 4.76404 11.6127 3.54125 12.1516C3.03485 12.373 2.56138 12.6445 2.13732 12.9995C1.75443 13.3212 1.42918 13.6888 1.3139 14.2026C1.28508 14.3279 1.27684 14.4616 1.27273 14.5911C1.26861 14.9378 1.26861 15.2845 1.27273 15.6312C1.27273 15.8986 1.29331 15.9195 1.56504 15.9195C3.83357 15.9195 6.09798 15.9195 8.3665 15.9195C8.43238 15.9195 8.49414 15.9195 8.56001 15.9195C8.93878 15.932 9.20228 16.2035 9.19816 16.5628C9.19404 16.9179 8.92643 17.1727 8.55177 17.1727C7.35781 17.1768 6.15562 17.1768 4.95342 17.1768Z" fill="white"/>
</g>
</g>
<defs>
<clipPath id="clip0_2875_8037">
<rect width="18" height="18" fill="white"/>
</clipPath>
<clipPath id="clip1_2875_8037">
<rect width="18" height="18" fill="white"/>
</clipPath>
</defs>
</svg>
