<svg width="57" height="48" viewBox="0 0 57 48" fill="none" xmlns="http://www.w3.org/2000/svg">
<g clip-path="url(#clip0_516_1304)">
<path d="M28.1103 7.74977L7.8903 41.3998C6.1503 44.2998 8.2403 47.9998 11.6203 47.9998H52.0603C55.4503 47.9998 57.5403 44.3098 55.7903 41.3998L35.5703 7.74977C33.8803 4.92977 29.8003 4.92977 28.1103 7.74977Z" fill="#FD985F"/>
<path d="M24.0496 0.669816C24.0496 0.669816 22.0596 0.899816 18.3096 8.48982L0.749647 39.1698C0.749647 39.1698 0.319647 43.0498 3.63965 43.5098H46.1896C46.1896 43.5098 49.0796 43.2198 48.8896 39.3598L27.0296 1.27982C27.0296 1.27982 26.0996 0.139816 24.0496 0.669816Z" fill="white"/>
<path d="M24.47 15.5601H25.07C25.3 15.5601 25.49 15.7501 25.49 15.9801C25.47 20.7601 25.21 25.5401 25.19 30.3501C25.19 30.5801 25 30.7701 24.77 30.7701C24.54 30.7701 24.35 30.5801 24.35 30.3501C24.33 25.5801 24.06 20.8001 24.04 15.9801C24.04 15.7501 24.23 15.5601 24.46 15.5601H24.47Z" fill="black"/>
<path d="M24.7798 34.03C24.3798 34.03 24.0498 33.71 24.0498 33.32C24.0498 32.93 24.3798 32.59 24.7698 32.59C25.1598 32.59 25.4798 32.91 25.4898 33.3C25.4898 33.7 25.1798 34.03 24.7798 34.03Z" fill="black"/>
<path d="M24.7603 43.97C18.8303 43.97 12.9003 43.97 6.98028 43.97C5.94028 43.97 4.91028 43.98 3.87028 43.97C3.12028 43.97 2.40028 43.8 1.76028 43.4C0.930275 42.89 0.450275 42.11 0.180275 41.19C-0.119725 40.2 -0.00972468 39.23 0.490275 38.33C1.38028 36.75 2.29028 35.19 3.19028 33.63C5.93028 28.87 8.68028 24.1 11.4203 19.34C14.2103 14.49 17.0103 9.63998 19.8003 4.78998C20.3103 3.90998 20.8203 3.01998 21.3303 2.13998C21.6403 1.60998 22.0103 1.11998 22.5003 0.739981C23.3103 0.0999807 24.2403 -0.0800193 25.2403 0.0199807C26.5203 0.149981 27.4503 0.819981 28.0803 1.89998C29.2803 3.94998 30.4503 5.99998 31.6303 8.05998C33.2603 10.88 34.8803 13.7 36.5003 16.53C36.6203 16.75 36.7003 16.99 36.7903 17.22C36.8603 17.4 36.7903 17.55 36.6303 17.66C36.4703 17.78 36.3103 17.85 36.1103 17.74C35.9003 17.62 35.7703 17.45 35.6503 17.25C35.2203 16.52 34.8003 15.78 34.3803 15.05C32.0103 10.93 29.6403 6.81998 27.2703 2.69998C26.9603 2.15998 26.5703 1.68998 26.0003 1.38998C24.9503 0.839981 23.3803 0.979981 22.5503 2.28998C22.0603 3.05998 21.6103 3.85998 21.1503 4.64998C17.6603 10.71 14.1603 16.77 10.6703 22.83C7.77028 27.85 4.88028 32.88 1.99028 37.9C1.73028 38.35 1.47028 38.8 1.29028 39.28C0.620275 41.03 1.95028 42.54 3.15028 42.77C3.43028 42.82 3.73028 42.85 4.02028 42.85C17.8503 42.85 31.6803 42.85 45.5103 42.85C46.2303 42.85 46.9003 42.7 47.4703 42.23C48.3803 41.48 48.7003 40.23 48.2103 39.14C47.9303 38.52 47.5803 37.93 47.2503 37.35C44.8003 33.09 42.3503 28.84 39.9003 24.58C39.7903 24.39 39.7103 24.18 39.6603 23.97C39.6003 23.74 39.7203 23.56 39.9203 23.46C40.1103 23.36 40.3303 23.38 40.4903 23.54C40.6103 23.67 40.7203 23.81 40.8103 23.96C42.0503 26.1 43.2803 28.23 44.5103 30.37C45.9603 32.88 47.4103 35.4 48.8603 37.91C49.1203 38.37 49.3603 38.84 49.4803 39.36C49.9803 41.61 48.3903 43.42 46.8703 43.79C46.5203 43.87 46.1603 43.93 45.8103 43.93C43.1703 43.95 40.5303 43.95 37.9003 43.96C36.6603 43.96 35.4203 43.96 34.1903 43.96C33.1303 43.96 32.0803 43.96 31.0203 43.96C29.3903 43.96 27.7503 43.96 26.1203 43.96C25.6803 43.96 25.2303 43.96 24.7903 43.96C24.7903 43.96 24.7903 43.96 24.7903 43.95L24.7603 43.97Z" fill="black"/>
<path d="M38.16 21.0899C38.4085 21.0899 38.61 20.8885 38.61 20.6399C38.61 20.3914 38.4085 20.1899 38.16 20.1899C37.9114 20.1899 37.71 20.3914 37.71 20.6399C37.71 20.8885 37.9114 21.0899 38.16 21.0899Z" fill="black"/>
</g>
<defs>
<clipPath id="clip0_516_1304">
<rect width="56.42" height="48" fill="white"/>
</clipPath>
</defs>
</svg>
