<svg width="46" height="46" viewBox="0 0 46 46" fill="none" xmlns="http://www.w3.org/2000/svg">
<g clip-path="url(#clip0_61_10)">
<path d="M43.6944 40.6338C44.2087 40.6338 44.654 40.6287 45.0992 40.6351C45.7159 40.6453 45.9987 40.9429 45.9885 41.5599C45.9526 43.8719 44.0015 45.8697 41.6562 45.9898C41.4963 45.9974 41.3364 45.9987 41.1777 45.9987C29.0588 45.9987 16.9386 46 4.81966 45.9987C2.50002 45.9987 0.679365 44.6383 0.147114 42.5051C0.066509 42.1832 0.0242872 41.8447 0.0127722 41.5126C-0.00769899 40.9506 0.289133 40.6491 0.848252 40.6364C1.31013 40.6249 1.77201 40.6338 2.30298 40.6338C2.30298 40.4269 2.30298 40.2429 2.30298 40.059C2.30298 32.1867 2.30298 24.3131 2.30298 16.4408C2.30298 14.2667 3.53893 13.0379 5.72295 13.0366C7.3197 13.0366 8.91645 13.0354 10.5132 13.0379C11.1478 13.0392 11.5099 13.3317 11.4971 13.8222C11.4843 14.2961 11.135 14.5682 10.5234 14.5695C8.84736 14.572 7.17 14.5669 5.49393 14.572C4.47293 14.5746 3.8396 15.1966 3.83832 16.207C3.83576 24.2237 3.83704 32.2403 3.83704 40.257C3.83704 40.3656 3.83704 40.4729 3.83704 40.6083C4.34882 40.6083 4.82094 40.6083 5.36982 40.6083C5.36982 40.4346 5.36982 40.2519 5.36982 40.068C5.36982 32.4664 5.36982 24.8649 5.36982 17.2634C5.36982 16.3079 5.57069 16.1036 6.50853 16.1036C7.84939 16.1036 9.19153 16.101 10.5324 16.1048C11.1414 16.1061 11.4907 16.3846 11.4971 16.8597C11.5035 17.3375 11.1491 17.6338 10.5516 17.6351C9.35658 17.6389 8.1603 17.6364 6.93331 17.6364C6.93331 25.3043 6.93331 32.9429 6.93331 40.607C17.6346 40.607 28.327 40.607 39.0577 40.607C39.0577 32.9774 39.0577 25.3401 39.0577 17.6568C38.917 17.6504 38.7634 17.6364 38.6099 17.6364C37.5236 17.6338 36.4387 17.6415 35.3524 17.6325C34.8291 17.6287 34.4965 17.3132 34.5003 16.8623C34.5041 16.4114 34.8368 16.1074 35.3652 16.1048C36.802 16.0984 38.2388 16.0997 39.6769 16.1036C40.3602 16.1048 40.6276 16.3756 40.6276 17.068C40.6301 20.3737 40.6288 23.6795 40.6288 26.9853C40.6288 31.3283 40.6288 35.6726 40.6288 40.0156C40.6288 40.2034 40.6288 40.3924 40.6288 40.607C41.1406 40.607 41.6127 40.607 42.1616 40.607C42.1616 40.4499 42.1616 40.2825 42.1616 40.1152C42.1616 32.1944 42.1616 24.2735 42.1616 16.3526C42.1616 15.1558 41.5692 14.5707 40.3614 14.5695C38.7327 14.5682 37.104 14.5707 35.4752 14.5682C34.8624 14.5669 34.5131 14.2961 34.5003 13.8222C34.4875 13.3304 34.847 13.0379 35.4816 13.0366C37.0937 13.0341 38.7071 13.0354 40.3205 13.0354C42.4354 13.0366 43.6944 14.2859 43.6944 16.3897C43.6957 24.262 43.6944 32.1356 43.6944 40.0079C43.6944 40.1982 43.6944 40.3873 43.6944 40.6338ZM1.66454 42.1807C2.04709 43.6228 3.22419 44.4659 4.80303 44.4672C16.9335 44.4684 29.0626 44.4672 41.1931 44.4672C41.321 44.4672 41.449 44.4684 41.5756 44.462C42.9037 44.3867 44.1192 43.375 44.3047 42.182C30.1003 42.1807 15.8971 42.1807 1.66454 42.1807Z" fill="black"/>
<path d="M26.0649 13.7008C26.0649 14.5643 26.0688 14.5554 26.894 14.8747C27.3239 15.0408 27.7308 15.2707 28.1645 15.424C28.3155 15.4764 28.5624 15.4393 28.6878 15.3422C28.9757 15.12 29.2098 14.8275 29.4785 14.5784C30.1809 13.9282 31.1111 13.9142 31.8058 14.5707C32.4558 15.1838 33.0891 15.8174 33.7032 16.4663C34.3852 17.1867 34.4236 18.2265 33.6585 18.8537C32.8409 19.5243 32.6362 20.163 33.2695 21.0303C33.3514 21.1427 33.3834 21.2921 33.4333 21.4263C33.7339 22.2361 33.7327 22.2361 34.6193 22.2361C34.8112 22.2361 35.0032 22.2297 35.1938 22.2399C36.0753 22.2834 36.7662 22.9553 36.788 23.8405C36.8123 24.7972 36.811 25.7565 36.7893 26.7132C36.7688 27.6355 36.0421 28.4389 35.1375 28.3393C34.0269 28.2179 33.4205 28.5603 33.2222 29.6741C33.1518 30.0663 32.7705 30.4623 32.8319 30.8033C32.8895 31.129 33.3373 31.3858 33.615 31.6706C34.4005 32.4779 34.4133 33.4117 33.6367 34.2074C33.0686 34.7899 32.4942 35.3673 31.9094 35.9344C31.12 36.7008 30.154 36.6855 29.3621 35.9165C29.0665 35.6291 28.794 35.1923 28.4485 35.1195C28.1325 35.0531 27.7333 35.389 27.37 35.5423C27.1934 35.6164 27.0156 35.6853 26.8352 35.7492C26.0649 36.0264 26.0649 36.0251 26.0649 36.8682C26.0649 37.0751 26.0713 37.2833 26.0611 37.4902C26.0176 38.3767 25.351 39.0678 24.4669 39.0908C23.4932 39.1163 22.5196 39.115 21.5459 39.092C20.6401 39.0716 19.9645 38.3691 19.9351 37.4596C19.9223 37.0764 19.9594 36.6906 19.9185 36.3112C19.9031 36.1682 19.7611 35.9804 19.628 35.9178C19.0369 35.6419 18.4343 35.3877 17.8214 35.168C17.6743 35.1156 17.4287 35.168 17.302 35.2664C17.0141 35.4899 16.7813 35.7824 16.51 36.029C15.8012 36.674 14.8762 36.6778 14.1827 36.0175C13.5468 35.412 12.9301 34.7874 12.3185 34.1564C11.6379 33.4538 11.5432 32.4345 12.2942 31.8111C13.1796 31.0754 13.3242 30.3933 12.6857 29.4634C12.4682 29.1466 12.4631 28.6165 12.1906 28.4236C11.9321 28.2409 11.4524 28.3687 11.0698 28.3674C9.86328 28.361 9.20436 27.7057 9.2018 26.5037C9.19924 25.6735 9.19541 24.8432 9.20308 24.0129C9.21204 22.9514 9.92085 22.2476 10.9764 22.2336C11.3909 22.2284 11.9002 22.3651 12.1919 22.1722C12.4759 21.9857 12.5348 21.4595 12.6934 21.0827C12.7676 20.9064 12.8457 20.7314 12.9263 20.5577C13.2692 19.8168 13.2692 19.8168 12.6729 19.2203C12.5156 19.0619 12.3492 18.9112 12.2047 18.7413C11.6468 18.0847 11.6264 17.1855 12.2098 16.5583C12.861 15.857 13.5391 15.1775 14.2441 14.5298C14.9017 13.9244 15.837 13.9589 16.5062 14.5643C16.7659 14.7994 17.0167 15.0484 17.2508 15.309C17.4376 15.5172 17.6027 15.5581 17.8713 15.4304C18.4305 15.1634 19.0075 14.9284 19.5896 14.7138C19.8353 14.6231 19.9594 14.5171 19.9377 14.2399C19.9146 13.9538 19.9325 13.6651 19.9325 13.3777C19.9364 12.1616 20.5851 11.5038 21.7865 11.5C22.5848 11.4974 23.3832 11.4974 24.1803 11.5C25.3894 11.5038 26.0611 12.1859 26.0637 13.4096C26.0649 13.5092 26.0649 13.605 26.0649 13.7008ZM13.2641 17.7385C13.6095 18.0528 13.969 18.3466 14.2889 18.6787C14.8327 19.2458 14.9171 19.9024 14.6075 20.6228C14.3247 21.2806 14.0484 21.9423 13.7886 22.6091C13.502 23.3448 12.9442 23.7523 12.1445 23.7677C11.794 23.774 11.4421 23.7766 11.0915 23.7677C10.8267 23.7613 10.7116 23.8686 10.7333 24.1381C10.7474 24.3131 10.7359 24.4894 10.7359 24.6644C10.7359 25.3758 10.7359 26.086 10.7359 26.8346C11.1952 26.8346 11.5765 26.8333 11.9577 26.8346C13.0018 26.8371 13.502 27.2088 13.8513 28.1796C14.0496 28.7327 14.2799 29.2781 14.532 29.8095C14.9555 30.7024 14.871 31.3628 14.1533 32.0628C13.8705 32.3387 13.5302 32.5546 13.2065 32.8062C14.0496 33.6122 14.7341 34.2662 15.4621 34.9624C15.7065 34.7043 15.9842 34.3965 16.2784 34.1053C16.9399 33.4461 17.6052 33.3555 18.4573 33.754C19.019 34.0171 19.5935 34.2585 20.1756 34.4719C21.0674 34.7976 21.4615 35.3175 21.4679 36.2576C21.4704 36.6817 21.4679 37.1045 21.4679 37.5324C22.5273 37.5324 23.5073 37.5324 24.5347 37.5324C24.5347 37.07 24.5309 36.6421 24.536 36.2142C24.5449 35.3341 24.948 34.7976 25.7796 34.4897C26.3618 34.2739 26.9401 34.0439 27.5005 33.7795C28.405 33.3529 29.0473 33.4398 29.76 34.1372C30.053 34.4233 30.3472 34.7069 30.598 34.9496C31.3068 34.247 31.9709 33.5879 32.7309 32.8343C32.4136 32.5546 32.0489 32.2697 31.729 31.9414C31.1776 31.3756 31.0804 30.6998 31.3823 30.0011C31.6728 29.3292 31.9517 28.6522 32.2204 27.9714C32.5006 27.2625 33.0622 26.8537 33.8337 26.8371C34.2009 26.8295 34.5694 26.8537 34.9341 26.8231C35.0505 26.8129 35.2488 26.6711 35.2501 26.5868C35.2731 25.6671 35.2642 24.7461 35.2642 23.7702C34.7946 23.7702 34.3839 23.7728 33.9732 23.7702C33.0238 23.7638 32.5018 23.3755 32.1769 22.4916C31.9632 21.9091 31.7252 21.3343 31.4604 20.7723C31.0509 19.9011 31.1456 19.2497 31.8263 18.5535C32.1129 18.2597 32.3982 17.9646 32.6195 17.736C31.912 17.0258 31.2441 16.3565 30.52 15.6296C30.2462 15.926 29.9506 16.2836 29.6154 16.6004C29.0448 17.1395 28.3884 17.2199 27.6694 16.9057C27.0271 16.626 26.3822 16.3539 25.7284 16.1023C24.9595 15.8072 24.5501 15.2579 24.536 14.4353C24.5309 14.1326 24.5181 13.8273 24.5398 13.5258C24.5654 13.1631 24.4567 13.0098 24.0588 13.029C23.3576 13.0622 22.6539 13.0366 21.9515 13.0392C21.7993 13.0404 21.6483 13.0583 21.4692 13.0698C21.4692 13.5552 21.4743 13.9844 21.4679 14.4149C21.4564 15.2643 21.0469 15.8136 20.2473 16.1099C19.6805 16.3207 19.1111 16.5327 18.5661 16.7933C17.5784 17.2659 16.9681 17.1829 16.1927 16.419C15.9151 16.1444 15.6285 15.8787 15.3803 15.6399C14.6689 16.3411 14.0151 16.9926 13.2641 17.7385Z" fill="black"/>
<path d="M9.96688 3.83845C8.69894 3.83845 7.48859 3.82695 6.27951 3.85506C6.14772 3.85761 5.97372 4.07348 5.90207 4.22804C5.35447 5.40959 4.4435 6.08659 3.14486 6.12363C1.84622 6.16195 0.872559 5.54755 0.301925 4.37749C-0.442714 2.84978 0.241791 1.00656 1.78353 0.297631C3.35085 -0.422795 5.19326 0.270807 5.85601 1.87005C6.00699 2.2341 6.19378 2.3184 6.55587 2.31329C7.8801 2.29286 9.20561 2.30307 10.5298 2.30563C11.2246 2.30691 11.4971 2.57132 11.4984 3.25087C11.5022 5.69317 11.5022 8.13546 11.4984 10.5778C11.4971 11.1449 11.2079 11.4898 10.7473 11.4987C10.2701 11.5077 9.96944 11.1538 9.96816 10.5586C9.9656 8.51484 9.96688 6.47235 9.96688 4.42859C9.96688 4.25487 9.96688 4.08115 9.96688 3.83845ZM3.08856 4.60103C3.92404 4.59081 4.60343 3.89849 4.59959 3.0631C4.59447 2.20855 3.88182 1.52006 3.02459 1.54049C2.19167 1.56093 1.51996 2.26731 1.53915 3.1027C1.55706 3.93936 2.2518 4.61125 3.08856 4.60103Z" fill="black"/>
<path d="M36.0292 3.8831C36.0292 5.90898 36.0292 7.91826 36.0292 9.92753C36.0292 10.1983 36.0408 10.4717 36.0241 10.7412C35.9947 11.1947 35.6736 11.5025 35.2565 11.4987C34.8406 11.4948 34.5118 11.1857 34.5029 10.7297C34.4862 9.85217 34.4965 8.97335 34.4965 8.09581C34.4965 6.49912 34.4952 4.90371 34.4965 3.30702C34.4977 2.55594 34.7498 2.30557 35.5034 2.3043C36.8276 2.30174 38.1531 2.28897 39.4774 2.31324C39.8369 2.31963 39.9943 2.21233 40.1324 1.87638C40.7171 0.44575 42.2614 -0.290005 43.7482 0.113638C45.1888 0.504508 46.174 1.97602 45.9718 3.43986C45.7582 4.99057 44.4531 6.13891 42.9114 6.12869C41.6729 6.12102 40.5636 5.37377 40.0928 4.18456C39.9853 3.91376 39.8625 3.82562 39.5797 3.83073C38.4461 3.84734 37.3138 3.83967 36.1802 3.84351C36.1521 3.84351 36.1226 3.85883 36.0292 3.8831ZM42.9076 1.54044C42.0746 1.54938 41.3927 2.24298 41.3965 3.07837C41.4004 3.93164 42.1143 4.62269 42.9702 4.60225C43.7981 4.58182 44.4762 3.87033 44.457 3.04005C44.4391 2.20339 43.7443 1.5315 42.9076 1.54044Z" fill="black"/>
<path d="M23.0173 1.9338e-05C24.4861 0.00512875 25.6977 1.01168 26.0009 2.47936C26.2901 3.87806 25.5442 5.30997 24.1944 5.86434C23.8604 6.0023 23.7414 6.1543 23.7542 6.51707C23.7849 7.3614 23.7683 8.20828 23.7619 9.05389C23.7581 9.6172 23.4638 9.96209 23.0019 9.96592C22.5388 9.96975 22.2368 9.62487 22.233 9.06411C22.2266 8.2185 22.2125 7.37162 22.2406 6.52601C22.2522 6.17218 22.1549 6.00102 21.812 5.86307C20.4609 5.32147 19.7048 3.88572 19.9927 2.4883C20.2972 1.00274 21.5229 -0.00509007 23.0173 1.9338e-05ZM24.5283 3.06566C24.5257 2.23028 23.8387 1.54306 23.0045 1.54051C22.1485 1.53795 21.4551 2.24177 21.4666 3.10015C21.4781 3.92788 22.1856 4.61382 23.0134 4.60232C23.8515 4.59082 24.5309 3.90105 24.5283 3.06566Z" fill="black"/>
<path d="M1.66455 42.1807C15.8971 42.1807 30.1003 42.1807 44.3047 42.1807C44.1192 43.3737 42.9024 44.3854 41.5757 44.4607C41.4477 44.4684 41.3198 44.4658 41.1931 44.4658C29.0627 44.4658 16.9335 44.4658 4.80304 44.4658C3.22292 44.4658 2.04583 43.6228 1.66455 42.1807Z" fill="white"/>
<path d="M13.264 17.7386C14.0151 16.9914 14.6689 16.3412 15.3764 15.6374C15.6246 15.875 15.9112 16.142 16.1889 16.4166C16.9642 17.1817 17.5745 17.2635 18.5622 16.7908C19.1073 16.5303 19.6766 16.3182 20.2434 16.1075C21.0418 15.8111 21.4525 15.2619 21.464 14.4124C21.4704 13.9832 21.4653 13.5528 21.4653 13.0674C21.6444 13.0559 21.7954 13.038 21.9477 13.0367C22.6501 13.0342 23.3538 13.0584 24.0549 13.0265C24.4528 13.0073 24.5628 13.1606 24.536 13.5234C24.5142 13.8248 24.527 14.1301 24.5321 14.4329C24.5462 15.2555 24.9556 15.8047 25.7246 16.0998C26.3784 16.3514 27.0245 16.6222 27.6655 16.9033C28.3846 17.2175 29.0409 17.137 29.6115 16.598C29.9468 16.2812 30.2423 15.9235 30.5161 15.6272C31.2403 16.354 31.9082 17.0246 32.6157 17.7335C32.3943 17.9622 32.109 18.2572 31.8224 18.551C31.1418 19.2485 31.0471 19.8986 31.4565 20.7698C31.7201 21.3306 31.9593 21.9066 32.173 22.4891C32.4967 23.373 33.0187 23.7614 33.9693 23.7677C34.3801 23.7703 34.7908 23.7677 35.2603 23.7677C35.2603 24.7436 35.2693 25.6646 35.2462 26.5843C35.2437 26.6699 35.0454 26.8117 34.9302 26.8206C34.5656 26.8526 34.1971 26.827 33.8299 26.8347C33.0584 26.8526 32.4967 27.2613 32.2165 27.969C31.9478 28.6498 31.6689 29.3268 31.3785 29.9987C31.0765 30.6974 31.1738 31.3731 31.7252 31.939C32.0451 32.2672 32.4097 32.5521 32.727 32.8318C31.967 33.5855 31.303 34.2433 30.5942 34.9471C30.3447 34.7044 30.0491 34.4209 29.7561 34.1347C29.0435 33.4373 28.3999 33.3504 27.4966 33.7771C26.9362 34.0415 26.3579 34.2714 25.7758 34.4873C24.9454 34.7951 24.5424 35.3316 24.5321 36.2117C24.527 36.6396 24.5309 37.0675 24.5309 37.5299C23.5035 37.5299 22.5234 37.5299 21.464 37.5299C21.464 37.1033 21.4666 36.6792 21.464 36.2551C21.4576 35.315 21.0636 34.7951 20.1718 34.4694C19.5896 34.2561 19.0152 34.0147 18.4535 33.7515C17.6014 33.353 16.9361 33.4437 16.2746 34.1028C15.9816 34.3953 15.7027 34.7019 15.4583 34.9599C14.7303 34.2637 14.0445 33.6097 13.2026 32.8037C13.5263 32.5521 13.8667 32.3362 14.1494 32.0603C14.8672 31.3603 14.9516 30.6999 14.5281 29.8071C14.2761 29.2757 14.0471 28.7303 13.8475 28.1772C13.4995 27.2064 12.9992 26.8347 11.9539 26.8321C11.5726 26.8308 11.1926 26.8321 10.732 26.8321C10.732 26.0836 10.732 25.3721 10.732 24.6619C10.732 24.4869 10.7435 24.3093 10.7295 24.1356C10.7077 23.8661 10.8229 23.7575 11.0877 23.7652C11.4383 23.7741 11.7901 23.7716 12.1407 23.7652C12.9403 23.7499 13.4982 23.3424 13.7848 22.6066C14.0445 21.9399 14.3209 21.2782 14.6036 20.6203C14.9132 19.8999 14.8301 19.2434 14.285 18.6762C13.969 18.3467 13.6095 18.0529 13.264 17.7386ZM23.0173 32.9647C27.2203 32.9672 30.6466 29.535 30.6633 25.307C30.6786 21.107 27.2215 17.6339 23.0275 17.6365C18.7925 17.639 15.3444 21.0495 15.3355 25.2482C15.324 29.5235 18.7478 32.9621 23.0173 32.9647Z" fill="#F28B24"/>
<path d="M3.08857 4.60107C2.25181 4.61129 1.55707 3.93941 1.53788 3.10146C1.51869 2.26608 2.1904 1.5597 3.02332 1.53926C3.88055 1.51882 4.59448 2.20732 4.59832 3.06187C4.60343 3.89853 3.92277 4.59086 3.08857 4.60107Z" fill="#F28B24"/>
<path d="M42.9076 1.54049C43.7444 1.53155 44.4391 2.20344 44.4583 3.0401C44.4775 3.87038 43.7994 4.58187 42.9716 4.60231C42.1156 4.62274 41.4017 3.9317 41.3979 3.07843C41.3927 2.24304 42.0747 1.54943 42.9076 1.54049Z" fill="#F28B24"/>
<path d="M24.5283 3.06569C24.5309 3.90108 23.8515 4.58957 23.0147 4.60235C22.1857 4.61384 21.4794 3.92791 21.4679 3.10018C21.4551 2.2418 22.1498 1.53798 23.0058 1.54053C23.8387 1.54309 24.5258 2.23158 24.5283 3.06569Z" fill="#F28B24"/>
<path d="M23.0173 32.9646C18.7478 32.962 15.324 29.5234 15.3342 25.2481C15.3444 21.0507 18.7913 17.6389 23.0262 17.6364C27.2203 17.6338 30.6773 21.1069 30.662 25.3069C30.6466 29.5349 27.2203 32.9671 23.0173 32.9646ZM29.1292 25.3247C29.1318 21.9385 26.3937 19.173 23.0326 19.1692C19.6216 19.1653 16.8708 21.9002 16.8657 25.3005C16.8606 28.6714 19.605 31.4215 22.984 31.4343C26.3477 31.4458 29.1279 28.6816 29.1292 25.3247Z" fill="black"/>
</g>
<defs>
<clipPath id="clip0_61_10">
<rect width="46" height="46" fill="white"/>
</clipPath>
</defs>
</svg>
