<svg width="29" height="29" viewBox="0 0 29 29" fill="none" xmlns="http://www.w3.org/2000/svg">
<circle cx="14.5" cy="14.5" r="14.5" fill="#FD985F"/>
<path fill-rule="evenodd" clip-rule="evenodd" d="M11.6111 10.8889C11.6111 10.1227 11.9155 9.38791 12.4572 8.84614C12.999 8.30436 13.7338 8 14.5 8C15.2662 8 16.001 8.30436 16.5428 8.84614C17.0845 9.38791 17.3889 10.1227 17.3889 10.8889C17.3889 11.6551 17.0845 12.3899 16.5428 12.9316C16.001 13.4734 15.2662 13.7778 14.5 13.7778C13.7338 13.7778 12.999 13.4734 12.4572 12.9316C11.9155 12.3899 11.6111 11.6551 11.6111 10.8889ZM11.6111 15.2222C10.6534 15.2222 9.73488 15.6027 9.05767 16.2799C8.38046 16.9571 8 17.8756 8 18.8333C8 19.408 8.22827 19.9591 8.6346 20.3654C9.04093 20.7717 9.59203 21 10.1667 21H18.8333C19.408 21 19.9591 20.7717 20.3654 20.3654C20.7717 19.9591 21 19.408 21 18.8333C21 17.8756 20.6195 16.9571 19.9423 16.2799C19.2651 15.6027 18.3466 15.2222 17.3889 15.2222H11.6111Z" fill="white"/>
</svg>
