<svg width="20" height="15" viewBox="0 0 20 15" fill="none" xmlns="http://www.w3.org/2000/svg">
<path d="M4.50178 6.32294C4.65114 6.32294 4.79732 6.32294 4.94668 6.32294C9.46553 6.32294 13.9844 6.32294 18.5032 6.32294C18.6272 6.32294 18.7543 6.31666 18.8782 6.32608C19.5233 6.37633 20 6.87258 20 7.49761C20 8.12892 19.536 8.62203 18.8846 8.67228C18.7607 8.68171 18.6335 8.67542 18.5096 8.67542C13.9907 8.67542 9.47189 8.67542 4.95303 8.67542C4.80367 8.67542 4.65432 8.67542 4.3842 8.67542C4.56534 8.84189 4.67338 8.94239 4.78461 9.03976C6.275 10.3244 7.7654 11.6058 9.2558 12.8936C9.70387 13.2799 9.84052 13.773 9.64985 14.2567C9.35431 15.0168 8.41368 15.2461 7.75587 14.6995C7.00908 14.0808 6.28136 13.4369 5.54411 12.8025C3.89482 11.3797 2.24235 9.95688 0.593065 8.53409C-0.195034 7.85252 -0.198212 7.14898 0.58671 6.47056C2.94465 4.4353 5.30259 2.40318 7.66053 0.374196C8.24525 -0.131479 8.97615 -0.122056 9.43375 0.38676C9.89454 0.901856 9.80238 1.63367 9.20495 2.14877C7.75269 3.40196 6.30043 4.65201 4.84816 5.90521C4.71787 6.01514 4.59076 6.12821 4.46365 6.24128C4.47636 6.26954 4.48907 6.29781 4.50178 6.32294Z" fill="#4A4A4A"/>
</svg>
