<svg width="32" height="30" viewBox="0 0 32 30" fill="none" xmlns="http://www.w3.org/2000/svg">
<path d="M32 5.43812C32 12.4886 32 19.5286 32 26.5791C31.9895 26.6106 31.9685 26.6316 31.958 26.6631C31.7585 28.0711 30.5512 29.0903 29.0394 29.0798C20.3465 29.0693 11.643 29.0798 2.95013 29.0693C2.66667 29.0693 2.3832 29.0483 2.12073 28.9748C0.766404 28.5965 0 27.5458 0 26.0642C0 19.3184 0 12.5727 0 5.82689C0 5.01782 0.346456 4.68158 1.16535 4.68158C3.80052 4.68158 6.4357 4.68158 9.07087 4.68158C9.18635 4.68158 9.31234 4.68158 9.43832 4.68158C9.43832 4.35585 9.43832 4.09317 9.43832 3.81997C9.45932 2.14929 10.6562 0.940937 12.3255 0.930429C14.7717 0.919922 17.2178 0.909415 19.664 0.940937C20.0945 0.940937 20.5669 1.04601 20.9554 1.23515C22.0262 1.7395 22.5197 2.64314 22.5512 3.81997C22.5617 4.10367 22.5512 4.39788 22.5512 4.69209C22.7297 4.69209 22.8556 4.69209 22.9711 4.69209C25.5748 4.69209 28.1785 4.7026 30.7822 4.68158C31.3911 4.68158 31.811 4.8497 32 5.43812ZM1.93176 11.585C1.91076 11.585 1.88976 11.5955 1.87927 11.5955C1.87927 11.69 1.87927 11.7951 1.87927 11.8897C1.87927 16.597 1.87927 21.3148 1.87927 26.0222C1.87927 26.8838 2.20472 27.2095 3.07611 27.2095C11.6955 27.2095 20.3255 27.2095 28.9449 27.2095C29.8058 27.2095 30.1312 26.8838 30.1312 26.0222C30.1312 21.3254 30.1312 16.618 30.1312 11.9212C30.1312 11.8161 30.1312 11.7005 30.1312 11.5955C30.0472 11.669 30.0262 11.7426 29.9948 11.8161C29.5643 13.1085 29.1339 14.401 28.7034 15.6934C28.2205 17.1329 27.2546 17.8264 25.7323 17.8264C24.168 17.8264 22.6037 17.8264 21.0499 17.8264C20.9344 17.8264 20.8294 17.8264 20.7034 17.8264C20.7034 18.1311 20.7034 18.4043 20.7034 18.6775C20.6929 19.3289 20.3255 19.7072 19.664 19.7072C17.2283 19.7072 14.7927 19.7072 12.357 19.7072C11.706 19.7072 11.3386 19.3289 11.3281 18.6775C11.3281 18.4043 11.3281 18.1206 11.3281 17.8369C11.1706 17.8369 11.0551 17.8369 10.9396 17.8369C9.34383 17.8369 7.74803 17.8369 6.16273 17.8369C4.8294 17.8369 3.83202 17.1329 3.38058 15.872C3.13911 15.1995 2.91863 14.506 2.69816 13.8336C2.4252 13.077 2.17323 12.331 1.93176 11.585ZM2.25722 6.58343C2.27821 6.64647 2.28871 6.69901 2.29921 6.75155C3.24409 9.57805 4.17848 12.394 5.12336 15.2205C5.30184 15.7564 5.6063 15.9561 6.18373 15.9561C7.81102 15.9561 9.42782 15.9561 11.0551 15.9561C11.1391 15.9561 11.2126 15.9456 11.3071 15.935C11.3071 15.6513 11.3071 15.3781 11.3071 15.105C11.3176 14.4535 11.6955 14.0752 12.3465 14.0752C14.7822 14.0752 17.2178 14.0752 19.6535 14.0752C20.3045 14.0752 20.6719 14.4535 20.6824 15.105C20.6824 15.3781 20.6824 15.6619 20.6824 15.9456C22.3937 15.9456 24.063 15.9456 25.7323 15.9456C26.4357 15.9456 26.7087 15.7459 26.9291 15.0839C27.8425 12.352 28.7454 9.62008 29.6588 6.87764C29.6903 6.78307 29.7218 6.678 29.7533 6.57292C20.5669 6.58343 11.4226 6.58343 2.25722 6.58343ZM11.3071 4.67108C14.4567 4.67108 17.5538 4.67108 20.6824 4.67108C20.6824 4.38738 20.6824 4.1352 20.6824 3.87251C20.6824 3.17902 20.3045 2.81126 19.622 2.81126C18.6877 2.81126 17.7533 2.81126 16.8084 2.81126C15.3071 2.81126 13.8163 2.81126 12.315 2.81126C11.706 2.81126 11.3176 3.20004 11.3071 3.79896C11.3071 4.08266 11.3071 4.36636 11.3071 4.67108ZM13.1968 17.8054C15.0761 17.8054 16.9344 17.8054 18.7822 17.8054C18.7822 17.1749 18.7822 16.5655 18.7822 15.9666C16.9029 15.9666 15.0551 15.9666 13.1968 15.9666C13.1968 16.5865 13.1968 17.1854 13.1968 17.8054Z" fill="#F28B24"/>
</svg>
