<svg width="13" height="22" viewBox="0 0 13 22" fill="none" xmlns="http://www.w3.org/2000/svg">
<path d="M9.18958 5.9626C9.64258 5.9626 10.0578 5.96034 10.4731 5.9626C11.8911 5.96712 12.9151 6.89813 12.9929 8.25172C12.9976 8.32403 12.9976 8.39634 12.9976 8.46865C12.9976 11.8402 12.9953 15.214 13 18.5855C13 19.5934 12.5777 20.3707 11.6245 20.8159C11.2965 20.9696 11.0936 21.0893 11.1172 21.4803C11.1361 21.7695 10.8317 21.9887 10.525 21.9977C10.2277 22.0068 9.95874 21.8192 9.89504 21.539C9.86201 21.3989 9.86201 21.2543 9.84549 21.0938C7.62294 21.0938 5.39567 21.0938 3.15425 21.0938C3.14481 21.2226 3.14245 21.3515 3.12358 21.478C3.07403 21.7853 2.81685 22 2.5007 22C2.1869 22 1.87074 21.7831 1.88725 21.4825C1.91321 21.0758 1.67963 20.9673 1.35875 20.8114C0.429148 20.3639 0.00209724 19.6024 0.00209724 18.6126C0.00209724 15.5078 0.00209724 12.4029 0.00209724 9.29798C0.00209724 8.98839 -0.00262155 8.67655 0.00209724 8.36696C0.0233318 7.20998 0.752385 6.30156 1.88253 6.03943C2.09252 5.98971 2.3143 5.97616 2.53137 5.97164C2.94426 5.96034 3.35952 5.96938 3.79836 5.96938C3.80308 5.87447 3.81016 5.79086 3.81016 5.70725C3.81016 4.42145 3.8078 3.13566 3.81252 1.85212C3.81488 0.968563 4.31271 0.304198 5.13142 0.0646652C5.18805 0.048847 5.24939 0.0262495 5.30602 0.0262495C6.09641 0.02173 6.89153 -0.0370233 7.67485 0.0375483C8.54074 0.121159 9.16363 0.842017 9.17778 1.68264C9.19902 3.01815 9.18722 4.35366 9.18722 5.68917C9.18958 5.76826 9.18958 5.85187 9.18958 5.9626ZM1.28797 10.7759C1.28797 10.8911 1.28797 10.9634 1.28797 11.0335C1.28797 13.5463 1.30448 16.0591 1.27853 18.572C1.27145 19.3267 1.80703 19.8578 2.60687 19.8532C5.19984 19.8329 7.79518 19.8465 10.3882 19.8442C11.2611 19.8442 11.7165 19.4126 11.7165 18.581C11.7165 16.0682 11.7165 13.5553 11.7165 11.0425C11.7165 10.9657 11.7165 10.8888 11.7165 10.7759C10.2419 11.4199 8.72242 11.734 7.13691 11.8199C7.13691 11.9735 7.14162 12.1023 7.13691 12.2311C7.11803 12.5678 6.85142 12.8119 6.50695 12.8141C6.16012 12.8141 5.89115 12.5723 5.87227 12.2356C5.86519 12.1001 5.86991 11.9645 5.86991 11.8176C4.27496 11.7362 2.76259 11.4199 1.28797 10.7759ZM6.50931 7.1806C5.17389 7.1806 3.84083 7.17608 2.50541 7.18286C1.78816 7.18512 1.29976 7.6574 1.29033 8.33985C1.28561 8.64265 1.27853 8.94772 1.2974 9.24826C1.30212 9.32736 1.37055 9.43808 1.44133 9.47198C1.7976 9.64146 2.15622 9.81094 2.52901 9.94427C4.36934 10.6041 6.26629 10.751 8.20335 10.5002C9.36889 10.3488 10.4802 10.0211 11.5301 9.50587C11.6787 9.43356 11.7354 9.34769 11.7283 9.18951C11.7141 8.93642 11.7259 8.68333 11.7236 8.4325C11.7212 7.63255 11.2517 7.18286 10.4212 7.1806C9.11644 7.1806 7.81169 7.1806 6.50931 7.1806ZM7.90843 5.95582C7.90843 5.87899 7.90843 5.82249 7.90843 5.766C7.90843 4.45987 7.90843 3.15374 7.90843 1.8476C7.90843 1.41599 7.69608 1.21036 7.24544 1.2081C6.7712 1.20584 6.29696 1.2081 5.82036 1.2081C5.28478 1.2081 5.08895 1.39565 5.08895 1.9154C5.08895 3.18537 5.08895 4.45535 5.08895 5.72532C5.08895 5.80216 5.08895 5.87673 5.08895 5.95808C6.04215 5.95582 6.95995 5.95582 7.90843 5.95582Z" fill="#4A4A4A"/>
</svg>
