<svg width="18" height="20" viewBox="0 0 18 20" fill="none" xmlns="http://www.w3.org/2000/svg">
<g clip-path="url(#clip0_634_5150)">
<path d="M3.41622 20.0006C3.23711 19.9434 3.05138 19.9052 2.88222 19.8257C2.06962 19.4473 1.67824 18.8049 1.67493 17.9463C1.67161 15.682 1.67493 13.4177 1.67493 11.1503C1.67493 11.0676 1.67493 10.9849 1.67493 10.8895C1.14756 11.0103 0.703118 10.9308 0.338275 10.5651C0.106103 10.333 0.0066001 10.0467 0.0066001 9.72873C0.0066001 8.17363 -0.00998365 6.61854 0.00991685 5.06344C0.0364508 3.30799 1.32335 1.90236 3.13429 1.61297C3.32667 1.58117 3.52567 1.56845 3.72136 1.57481C3.86398 1.57799 3.94026 1.52711 4.01987 1.42534C5.28023 -0.21562 7.70478 -0.485933 9.32667 0.840192C9.4328 0.926056 9.51572 0.945137 9.65171 0.903795C10.4776 0.662103 11.3366 0.932417 11.8673 1.59071C11.9005 1.63205 11.9336 1.67021 11.9668 1.71155C12.6865 1.49848 13.3532 1.56845 13.9502 2.01685C14.932 2.75147 14.9884 4.17618 14.0597 4.97757C13.9535 5.0698 13.9071 5.15566 13.9104 5.29241C13.9204 5.61679 13.9137 5.94116 13.9137 6.28462C14.2719 6.28462 14.6102 6.28144 14.9452 6.28462C15.3731 6.2878 15.8076 6.24964 16.2255 6.30688C17.2736 6.45317 17.9767 7.23867 17.9834 8.26586C17.9967 10.4729 18 12.6799 17.9834 14.8838C17.9734 16.0509 17.0812 16.865 15.8607 16.865C15.2238 16.865 14.587 16.865 13.9137 16.865C13.9137 16.9636 13.917 17.0494 13.9137 17.1385C13.8971 17.5742 13.9403 18.0194 13.8507 18.4424C13.6749 19.2692 13.1111 19.778 12.2421 19.9593C12.2189 19.9657 12.1957 19.9816 12.1724 19.9943C9.25702 20.0006 6.33828 20.0006 3.41622 20.0006ZM2.61025 18.436C2.60693 18.471 2.6003 18.4869 2.60362 18.4964C2.61025 18.5219 2.62352 18.5441 2.63347 18.5664C2.88222 19.0116 3.28023 19.2151 3.79764 19.2151C6.46099 19.2151 9.12103 19.2151 11.7844 19.2151C11.9137 19.2151 12.0431 19.2056 12.1658 19.1738C12.5671 19.0688 12.8524 18.8367 13.0049 18.4424C12.9386 18.4392 12.8988 18.4328 12.859 18.4328C12.5273 18.4328 12.1923 18.436 11.8607 18.4296C11.6119 18.4265 11.4428 18.2643 11.4428 18.0417C11.4428 17.8159 11.6086 17.66 11.8573 17.6537C11.9469 17.6505 12.0331 17.6537 12.1227 17.6537C12.4378 17.6537 12.7562 17.6537 13.0646 17.6537C13.0646 13.5735 13.0646 9.5252 13.0646 5.4864C12.786 5.4864 12.524 5.4864 12.2454 5.4864C12.2454 5.55636 12.2454 5.62633 12.2454 5.69629C12.2454 6.51041 12.2454 7.32453 12.2454 8.13865C12.2454 8.61885 12.0497 9.00047 11.602 9.2358C11.4693 9.30577 11.4262 9.37573 11.4262 9.51884C11.4328 11.5096 11.4295 13.5036 11.4295 15.4944C11.4295 15.5898 11.4262 15.6915 11.3996 15.7837C11.3499 15.9587 11.2172 16.0541 11.0248 16.0604C10.8258 16.0668 10.6699 15.9587 10.6235 15.771C10.6003 15.6852 10.6003 15.5898 10.6003 15.5007C10.6003 13.5036 10.6003 11.5033 10.5937 9.50612C10.5937 9.42979 10.5539 9.31531 10.4975 9.28669C9.99333 9.02909 9.77774 8.62203 9.78106 8.08777C9.78438 7.50898 9.78438 6.93019 9.77111 6.34822C9.76448 5.95706 9.58537 5.72809 9.194 5.61679C8.98172 5.55636 8.75619 5.52774 8.53396 5.51502C8.44109 5.50866 8.31837 5.55318 8.24872 5.61361C7.25701 6.46907 5.91041 6.48497 4.89881 5.64859C4.82584 5.58817 4.73629 5.54364 4.64673 5.4864C4.60361 5.55636 4.57376 5.59771 4.54723 5.64223C4.13264 6.33232 3.52899 6.7839 2.7197 6.96517C2.53728 7.00651 2.5008 7.07012 2.5008 7.23231C2.50411 10.6319 2.50411 14.0283 2.50411 17.4279C2.50411 17.4978 2.50411 17.5678 2.50411 17.6569C2.60693 17.6569 2.68653 17.6569 2.76614 17.6569C4.66 17.6569 6.55386 17.6569 8.45104 17.6569C8.51075 17.6569 8.57376 17.6537 8.63347 17.66C8.8391 17.6791 8.99168 17.8413 8.99168 18.0417C8.99499 18.242 8.84574 18.4106 8.64342 18.4328C8.57708 18.4392 8.50743 18.436 8.44109 18.436C6.68322 18.436 4.92202 18.436 3.16415 18.436C2.98504 18.436 2.80262 18.436 2.61025 18.436ZM0.839104 7.28001C0.839104 8.10049 0.835787 8.92097 0.839104 9.74145C0.839104 9.99586 1.00494 10.1549 1.24706 10.158C1.48255 10.1612 1.65834 9.99586 1.67493 9.75099C1.67824 9.68739 1.67824 9.6206 1.67824 9.557C1.67824 8.61885 1.67824 7.68071 1.67824 6.74574C1.67824 6.42773 1.82418 6.26872 2.126 6.256C2.91207 6.22102 3.47592 5.85848 3.87393 5.21291C3.97343 5.0539 4.12269 4.88853 4.29184 4.80903C4.69648 4.6214 5.07128 4.74542 5.39963 5.01574C6.15917 5.64541 7.00494 5.63905 7.73463 4.99666C7.93363 4.82175 8.15917 4.71998 8.43446 4.7327C8.64342 4.74224 8.85569 4.74224 9.06133 4.77723C9.76116 4.89171 10.325 5.19065 10.5273 5.89664C10.597 6.14469 10.6102 6.40865 10.6169 6.66942C10.6301 7.17824 10.6169 7.68389 10.6235 8.19271C10.6268 8.45667 10.8026 8.61885 11.0547 8.60295C11.2802 8.58705 11.4162 8.42804 11.4195 8.16727C11.4229 7.25457 11.4195 6.34504 11.4195 5.43234C11.4195 5.27015 11.4129 5.10796 11.4229 4.94577C11.4428 4.61186 11.7147 4.45285 12.0398 4.58006C12.126 4.61504 12.2156 4.65002 12.3051 4.67546C12.8723 4.83129 13.4527 4.61504 13.7479 4.13801C14.0199 3.69597 13.9469 3.12354 13.5688 2.75147C13.1708 2.35713 12.5937 2.2808 12.0763 2.5543C11.728 2.73875 11.5356 2.67514 11.3698 2.32214C11.0812 1.70519 10.3615 1.44124 9.73794 1.7211C9.34325 1.90236 9.29018 1.88964 8.97841 1.59707C8.36149 1.02146 7.62849 0.732067 6.7794 0.79249C5.79433 0.862453 5.03479 1.3204 4.51738 2.13134C4.40129 2.3126 4.25867 2.39529 4.03313 2.38575C3.78438 2.37303 3.52567 2.36031 3.28023 2.39529C1.82418 2.61472 0.845738 3.72141 0.839104 5.1334C0.835787 5.84894 0.839104 6.56447 0.839104 7.28001ZM13.9237 7.85244C14.0066 7.85244 14.0729 7.85244 14.1393 7.85244C14.6899 7.85244 15.2404 7.85244 15.7877 7.85244C16.2421 7.85244 16.3615 7.9701 16.3615 8.41214C16.3615 10.5269 16.3615 12.6418 16.3615 14.7566C16.3615 14.8074 16.3648 14.8615 16.3582 14.9124C16.3316 15.17 16.1758 15.3099 15.9038 15.3099C15.32 15.3131 14.7363 15.3099 14.1525 15.3099C14.0796 15.3099 14.0066 15.3099 13.9336 15.3099C13.9336 15.5802 13.9336 15.8314 13.9336 16.0763C13.9602 16.0827 13.9734 16.089 13.9867 16.089C14.6169 16.089 15.2504 16.0954 15.8806 16.0922C16.6434 16.089 17.1575 15.5993 17.1575 14.8679C17.1608 12.6736 17.1608 10.4824 17.1575 8.28812C17.1575 7.55668 16.6401 7.0733 15.8739 7.07012C15.2835 7.06694 14.6932 7.07012 14.1028 7.07012C14.0431 7.07012 13.9867 7.07648 13.9237 7.07966C13.9237 7.34043 13.9237 7.57894 13.9237 7.85244ZM13.9336 8.64112C13.9336 10.6128 13.9336 12.5654 13.9336 14.5212C14.4676 14.5212 14.9884 14.5212 15.519 14.5212C15.519 12.5591 15.519 10.6033 15.519 8.64112C14.9884 8.64112 14.4676 8.64112 13.9336 8.64112Z" fill="#525252"/>
<path d="M4.0796 11.9325C4.0796 10.7558 4.0796 9.57919 4.0796 8.39935C4.0796 8.34847 4.07628 8.29441 4.0796 8.24352C4.09618 7.99229 4.26534 7.82056 4.49088 7.81738C4.71973 7.81738 4.88889 7.98593 4.90879 8.23716C4.9121 8.28805 4.90879 8.34211 4.90879 8.39299C4.90879 10.759 4.90879 13.1282 4.90879 15.4943C4.90879 15.5833 4.90547 15.6787 4.88557 15.7646C4.83913 15.9522 4.68325 16.0635 4.48756 16.0603C4.28855 16.054 4.15588 15.9554 4.10613 15.771C4.08292 15.6914 4.08292 15.6024 4.08292 15.5197C4.0796 14.3272 4.0796 13.1282 4.0796 11.9325Z" fill="#525252"/>
<path d="M8.17248 11.9484C8.17248 13.1378 8.17248 14.3303 8.17248 15.5197C8.17248 15.6151 8.16916 15.7169 8.136 15.8091C8.07961 15.9713 7.95026 16.0603 7.76784 16.0635C7.57546 16.0667 7.43948 15.9808 7.37646 15.8091C7.34329 15.7201 7.33998 15.6183 7.33998 15.5197C7.33666 13.1378 7.33998 10.759 7.33998 8.37709C7.33998 8.01455 7.48591 7.81738 7.75457 7.81738C8.02323 7.81738 8.17248 8.01455 8.17248 8.37709C8.17248 9.56647 8.17248 10.759 8.17248 11.9484Z" fill="#525252"/>
<path d="M10.2288 18.4074C9.99663 18.4105 9.81421 18.2452 9.81421 18.0226C9.81421 17.8063 9.99995 17.6219 10.2222 17.625C10.4378 17.625 10.6202 17.7999 10.6268 18.0067C10.6334 18.2293 10.461 18.4042 10.2288 18.4074Z" fill="#525252"/>
</g>
<defs>
<clipPath id="clip0_634_5150">
<rect width="18" height="20" fill="white"/>
</clipPath>
</defs>
</svg>
