<svg width="39" height="50" viewBox="0 0 39 50" fill="none" xmlns="http://www.w3.org/2000/svg">
<g clip-path="url(#clip0_65_10)">
<path d="M19.4811 46.7969C19.0194 47.6589 18.5968 48.423 18.1985 49.1993C17.9238 49.7321 17.527 49.9893 16.9203 49.9878C13.0739 49.9771 9.22898 49.9847 5.38255 49.9801C4.26741 49.9786 3.74982 49.1748 4.19347 48.1305C5.77037 44.419 7.35179 40.709 8.94529 37.0051C9.09317 36.6606 9.07808 36.4569 8.83514 36.1323C8.35075 35.4847 7.92672 34.7742 7.57362 34.0423C7.10734 33.0777 6.45545 32.358 5.48064 31.9216C4.99474 31.7042 4.53148 31.4286 4.07425 31.153C2.74332 30.3491 2.10954 29.1273 2.07785 27.5793C2.06578 27.002 2.10803 26.4217 2.15481 25.846C2.22573 24.9748 2.04164 24.1862 1.54518 23.462C1.21018 22.972 0.908381 22.4576 0.612618 21.9431C-0.208276 20.513 -0.203749 19.0752 0.617145 17.6451C0.876692 17.1934 1.12869 16.7341 1.43351 16.3161C2.07182 15.4387 2.23781 14.4695 2.14425 13.4053C2.0854 12.7408 2.08691 12.061 2.14727 11.398C2.271 10.0521 3.00438 9.08135 4.12556 8.40458C4.69294 8.06159 5.28296 7.75536 5.87449 7.45373C6.52335 7.12299 7.00623 6.64068 7.33218 5.98228C7.62039 5.40044 7.92068 4.82166 8.23908 4.25666C9.05243 2.81891 10.2853 2.11151 11.918 2.1207C12.2304 2.12223 12.5503 2.09008 12.8551 2.14213C14.2705 2.38865 15.5049 2.0028 16.617 1.1132C16.86 0.918738 17.1437 0.773278 17.4138 0.614038C18.8081 -0.208195 20.2054 -0.200539 21.5967 0.6171C22.0419 0.878928 22.49 1.14229 22.9035 1.45005C23.75 2.07936 24.6781 2.26769 25.7148 2.17582C26.4421 2.10998 27.1875 2.12682 27.9134 2.20491C29.1055 2.33506 29.9958 3.00877 30.6205 4.02546C30.9706 4.59352 31.2814 5.18914 31.5697 5.79242C31.9454 6.5825 32.4962 7.16434 33.2854 7.53181C33.7517 7.74924 34.1968 8.01413 34.6495 8.26065C36.2098 9.1135 36.9523 10.4548 36.9311 12.2386C36.9251 12.8174 36.8859 13.3946 36.8421 13.9719C36.7848 14.7298 36.993 15.405 37.4004 16.0343C37.7535 16.5794 38.0961 17.1337 38.4145 17.7002C39.1976 19.0967 39.1992 20.5038 38.4084 21.8987C38.1157 22.4162 37.8169 22.9322 37.4819 23.4207C36.9749 24.1587 36.7848 24.9579 36.8436 25.8521C36.8934 26.5947 36.9251 27.345 36.8708 28.0861C36.7666 29.4978 36.0137 30.5191 34.8291 31.2188C34.2587 31.5572 33.6294 31.8022 33.0922 32.1835C32.6094 32.5265 32.1386 32.9445 31.8005 33.4283C31.1351 34.3807 30.5511 35.3943 29.9701 36.4034C29.8886 36.5457 29.9581 36.826 30.0365 37.0082C31.5742 40.6355 33.1239 44.2597 34.6707 47.884C34.7144 47.9866 34.7642 48.0861 34.805 48.1902C35.1943 49.1748 34.6812 49.974 33.64 49.9771C30.6401 49.9847 27.6418 49.9801 24.6419 49.9801C23.8693 49.9801 23.0936 49.9357 22.324 49.9924C21.4866 50.0536 20.9765 49.703 20.6294 48.9527C20.3005 48.2499 19.9021 47.5808 19.4811 46.7969ZM13.0814 4.57055C12.6378 4.57055 12.2696 4.58127 11.9014 4.56749C11.2133 4.54299 10.6852 4.80482 10.3487 5.42494C10.0484 5.97922 9.74053 6.53197 9.46137 7.0985C8.91662 8.20552 8.10176 9.03235 7.01981 9.59888C6.46601 9.8898 5.92277 10.2037 5.36897 10.4946C4.7201 10.8361 4.47414 11.3995 4.48319 12.1054C4.48923 12.5341 4.48621 12.9659 4.53299 13.3916C4.69143 14.8584 4.39265 16.2043 3.5793 17.4369C3.22167 17.9774 2.9078 18.5485 2.58638 19.112C2.32533 19.5683 2.32986 20.0414 2.59091 20.4946C2.93345 21.0902 3.34541 21.6506 3.6291 22.2723C3.97919 23.0409 4.35191 23.8356 4.48319 24.6578C4.62353 25.526 4.50734 26.4401 4.47565 27.3343C4.44698 28.1841 4.75783 28.8119 5.51836 29.2023C6.02689 29.4626 6.52486 29.7413 7.03189 30.0046C8.09724 30.5604 8.90002 31.3781 9.44477 32.4606C9.63641 32.8419 9.85371 33.2139 10.0167 33.609C10.5011 34.7864 11.3899 35.1891 12.5835 35.0376C12.6936 35.0238 12.8038 35.0146 12.9124 35.0008C14.5452 34.8079 16.03 35.1463 17.4138 36.0971C19.4736 37.5134 19.5128 37.5089 21.6043 36.0879C22.9367 35.183 24.3627 34.837 25.9426 34.9809C28.0447 35.1723 28.3283 35.033 29.2262 33.0823C29.9535 31.5006 31.0642 30.392 32.6199 29.654C34.5303 28.7476 34.6812 28.4061 34.4639 26.2533C34.3145 24.7696 34.5922 23.4007 35.4221 22.1529C35.7617 21.6445 36.0695 21.1132 36.3743 20.5819C36.6655 20.0766 36.6837 19.5545 36.3864 19.0431C36.0785 18.5133 35.7798 17.9774 35.4387 17.469C34.6027 16.2242 34.316 14.8569 34.4594 13.3732C34.6752 11.1484 34.553 10.8667 32.5445 9.90664C31.0234 9.17934 29.8615 8.11978 29.2609 6.53197C28.6724 4.97631 27.6644 4.31026 26.0271 4.57668C24.2375 4.8676 22.6289 4.36844 21.2285 3.23385C20.0424 2.27381 18.9333 2.30137 17.7488 3.24763C16.3665 4.34853 14.7911 4.87985 13.0814 4.57055ZM7.07112 47.5165C7.23862 47.5441 7.30803 47.5655 7.37745 47.5655C10.2476 47.567 13.1192 47.5747 15.9893 47.5533C16.1719 47.5517 16.4284 47.3772 16.5235 47.2087C17.1512 46.091 17.7488 44.9564 18.3448 43.8218C18.5878 43.3609 18.9198 43.0409 19.457 43.0333C20.0168 43.0241 20.3699 43.3395 20.6219 43.8233C21.1908 44.9105 21.7899 45.9808 22.3452 47.074C22.5278 47.4323 22.7285 47.5823 23.1434 47.5793C25.8672 47.5594 28.5894 47.5701 31.3131 47.567C31.4897 47.567 31.6647 47.5471 31.8428 47.5364C31.8428 47.4537 31.8534 47.4139 31.8413 47.3848C30.4741 44.1694 29.107 40.954 27.7232 37.7477C27.6644 37.613 27.4426 37.4966 27.2811 37.4721C25.1866 37.1506 23.3411 37.6405 21.5982 38.9374C20.2582 39.9342 18.7175 39.7887 17.287 38.9037C16.7061 38.5439 16.1538 38.1274 15.5426 37.835C15.0763 37.613 14.5437 37.469 14.0306 37.4308C13.338 37.3772 12.6288 37.5211 11.9376 37.4599C11.4382 37.4154 11.2767 37.6191 11.1077 38.0218C9.9699 40.7289 8.8125 43.4283 7.66114 46.1293C7.47251 46.5687 7.2854 47.0112 7.07112 47.5165Z" fill="black"/>
<path d="M7.07117 47.5165C7.28544 47.0112 7.47256 46.5687 7.65968 46.1278C8.81104 43.4268 9.96844 40.7274 11.1062 38.0203C11.2752 37.6176 11.4367 37.4124 11.9362 37.4583C12.6273 37.5196 13.3365 37.3757 14.0291 37.4292C14.5422 37.4691 15.0749 37.6115 15.5412 37.8335C16.1523 38.1244 16.7061 38.5424 17.2856 38.9022C18.7176 39.7888 20.2568 39.9342 21.5968 38.9359C23.3397 37.639 25.1852 37.149 27.2796 37.4706C27.4411 37.4951 27.6644 37.613 27.7218 37.7462C29.107 40.954 30.4727 44.1694 31.8398 47.3833C31.8519 47.4124 31.8413 47.4522 31.8413 47.5349C31.6633 47.5456 31.4882 47.5655 31.3117 47.5655C28.5879 47.5671 25.8642 47.5563 23.142 47.5778C22.727 47.5808 22.5263 47.4308 22.3437 47.0725C21.7884 45.9792 21.1893 44.909 20.6204 43.8218C20.3669 43.338 20.0138 43.0226 19.4555 43.0318C18.9183 43.0409 18.5863 43.3594 18.3434 43.8203C17.7473 44.9549 17.1497 46.0895 16.522 47.2072C16.4269 47.3757 16.1704 47.5517 15.9878 47.5517C13.1177 47.5732 10.2476 47.5655 7.37598 47.564C7.30808 47.5655 7.23867 47.5441 7.07117 47.5165Z" fill="#F28B24"/>
<path d="M26.8118 13.8034C26.6926 13.9841 26.5176 14.3746 26.2369 14.6594C22.6093 18.3418 18.9666 22.0089 15.3284 25.6791C14.9889 26.0206 14.6554 26.3681 14.3113 26.7065C13.6972 27.3098 13.0272 27.3588 12.5066 26.8443C11.9694 26.3145 12.0071 25.6087 12.6363 24.9748C16.3379 21.2357 20.044 17.5012 23.7501 13.7667C24.1153 13.3992 24.4699 13.0179 24.8532 12.6704C25.2319 12.3259 25.6846 12.2815 26.1388 12.4943C26.5764 12.6979 26.7937 13.07 26.8118 13.8034Z" fill="black"/>
<path d="M14.7791 10.8635C17.0607 10.8651 18.9334 12.7484 18.9364 15.0467C18.9394 17.3434 17.0411 19.2497 14.7761 19.2221C12.4764 19.1946 10.6641 17.3342 10.6701 15.0038C10.6746 12.7009 12.5005 10.862 14.7791 10.8635ZM16.5311 15.1002C16.5522 14.1142 15.7886 13.3119 14.8153 13.295C13.836 13.2782 13.0905 13.9963 13.0604 14.9808C13.0317 15.9638 13.7998 16.783 14.7655 16.7983C15.7102 16.8151 16.5114 16.0434 16.5311 15.1002Z" fill="black"/>
<path d="M24.1636 20.3522C26.4693 20.3537 28.3178 22.2079 28.3209 24.5215C28.3239 26.8412 26.4829 28.6786 24.1606 28.674C21.8518 28.6679 20.0455 26.8244 20.0531 24.4817C20.0606 22.1681 21.8699 20.3506 24.1636 20.3522ZM25.9155 24.5169C25.9125 23.5538 25.1052 22.7377 24.159 22.7408C23.2054 22.7438 22.4252 23.5554 22.4343 24.5368C22.4418 25.4785 23.2189 26.2594 24.1606 26.2747C25.1248 26.2885 25.9185 25.4938 25.9155 24.5169Z" fill="black"/>
<path d="M16.5311 15.1003C16.5114 16.0435 15.7102 16.8152 14.7655 16.7998C13.7998 16.7845 13.0302 15.9654 13.0604 14.9824C13.089 13.9978 13.836 13.2797 14.8153 13.2966C15.7886 13.3119 16.5522 14.1142 16.5311 15.1003Z" fill="#F28B24"/>
<path d="M25.9155 24.5169C25.9185 25.4938 25.1233 26.29 24.1606 26.2747C23.2189 26.2593 22.4418 25.4785 22.4343 24.5368C22.4267 23.5568 23.2054 22.7438 24.159 22.7407C25.1067 22.7361 25.914 23.5538 25.9155 24.5169Z" fill="#F28B24"/>
</g>
<defs>
<clipPath id="clip0_65_10">
<rect width="39" height="50" fill="white"/>
</clipPath>
</defs>
</svg>
