<svg width="30" height="30" viewBox="0 0 30 30" fill="none" xmlns="http://www.w3.org/2000/svg">
<circle cx="15" cy="15" r="15" fill="#EFEDED"/>
<g clip-path="url(#clip0_1660_1534)">
<path d="M22.0003 11.2258C22.0003 13.7414 22.0003 16.257 22.0003 18.7711C21.945 19.033 21.9134 19.3013 21.8314 19.5554C21.3547 21.0263 20.032 21.9921 18.4789 21.9968C16.1603 22.0032 13.8402 22 11.5216 21.9968C10.7766 21.9953 10.09 21.7901 9.48706 21.3498C8.48954 20.6207 8.00025 19.6296 8.00025 18.397C8.00025 16.1418 7.99867 13.8866 8.00341 11.6314C8.00341 11.3994 8.01446 11.1658 8.05549 10.9386C8.29067 9.64446 9.0246 8.74332 10.2399 8.24935C10.5509 8.1231 10.8981 8.08049 11.228 8C13.7439 8 16.2598 8 18.7741 8C18.872 8.01736 18.9698 8.03314 19.0677 8.05208C20.3525 8.29512 21.2521 9.02266 21.7477 10.2268C21.8771 10.5424 21.9182 10.8928 22.0003 11.2258ZM20.826 14.9992C20.8275 14.9992 20.8291 14.9992 20.8307 14.9992C20.8307 13.8598 20.8291 12.7219 20.8323 11.5825C20.8339 11.2179 20.7849 10.8628 20.6208 10.5346C20.1788 9.64446 19.4591 9.17416 18.4632 9.17101C16.1525 9.16312 13.8417 9.16785 11.5326 9.16943C11.3969 9.16943 11.2596 9.18205 11.1254 9.20099C10.0647 9.35092 9.18717 10.3105 9.17928 11.3836C9.1635 13.7667 9.17297 16.1497 9.17139 18.5327C9.17139 18.8563 9.23453 19.1688 9.37658 19.4576C9.82483 20.365 10.5588 20.8274 11.5721 20.829C13.8544 20.8322 16.1382 20.8306 18.4205 20.829C18.5752 20.829 18.7299 20.8164 18.883 20.7959C19.9231 20.6538 20.807 19.6832 20.8212 18.6353C20.8386 17.4233 20.826 16.2113 20.826 14.9992Z" fill="#4B5565"/>
<path d="M18.4986 15.0165C18.4812 16.9545 16.8934 18.5232 14.9757 18.4979C13.039 18.4727 11.4828 16.8977 11.5001 14.9818C11.5191 13.0422 13.1053 11.4751 15.023 11.5003C16.9597 11.5256 18.5175 13.1006 18.4986 15.0165ZM15.0025 12.6697C13.7146 12.6682 12.676 13.7034 12.6697 14.9944C12.665 16.2806 13.6988 17.3222 14.9915 17.3301C16.281 17.338 17.3322 16.2916 17.3306 14.9991C17.329 13.7082 16.2904 12.6713 15.0025 12.6697Z" fill="#4B5565"/>
<path d="M18.7994 12.0781C18.3117 12.0813 17.9219 11.6946 17.9219 11.2069C17.9219 10.7272 18.3054 10.3405 18.7868 10.3326C19.2619 10.3247 19.6691 10.7288 19.6691 11.2069C19.6675 11.6851 19.2777 12.0749 18.7994 12.0781Z" fill="#4B5565"/>
</g>
<defs>
<clipPath id="clip0_1660_1534">
<rect width="14" height="14" fill="white" transform="translate(8 8)"/>
</clipPath>
</defs>
</svg>
