<svg width="30" height="30" viewBox="0 0 30 30" fill="none" xmlns="http://www.w3.org/2000/svg">
<circle cx="15" cy="15" r="15" fill="#EFEDED"/>
<g clip-path="url(#clip0_1660_1533)">
<path d="M10.0056 20.9997C10.2662 20.6729 10.5246 20.3439 10.7872 20.0188C11.9312 18.6004 13.0762 17.1831 14.2212 15.7653C14.2447 15.7359 14.2672 15.7053 14.2944 15.6699C12.8648 13.4534 11.4367 11.2385 10 9.01004C10.0409 9.00676 10.0681 9.00294 10.0952 9.00294C11.125 9.0024 12.1549 9.00349 13.1842 9.00076C13.2574 9.00076 13.2942 9.02967 13.3331 9.08968C14.236 10.4933 15.1404 11.8953 16.0449 13.2973C16.0674 13.3317 16.0909 13.3655 16.1211 13.4103C16.309 13.1784 16.4902 12.9553 16.6708 12.7311C17.6433 11.5266 18.6164 10.3226 19.5863 9.11532C19.6554 9.02913 19.7245 8.99694 19.8284 8.99967C20.094 9.00731 20.3607 9.0024 20.6525 9.0024C19.2761 10.7077 17.9156 12.3929 16.5531 14.0807C16.5767 14.1189 16.5961 14.1516 16.6166 14.1833C18.0579 16.4189 19.4993 18.6544 20.9401 20.8906C20.9626 20.9255 20.9805 20.9637 21.0005 21.0002C19.9082 21.0002 18.8165 21.0002 17.7242 21.0002C17.7114 20.9768 17.6996 20.9528 17.6853 20.9304C16.7174 19.4285 15.749 17.9267 14.7806 16.4249C14.7647 16.4003 14.7453 16.3785 14.7233 16.3501C14.689 16.3916 14.6598 16.426 14.6311 16.4614C13.8501 17.4292 13.0685 18.3964 12.2879 19.3642C11.8488 19.9086 11.4117 20.4547 10.9735 21.0002C10.6506 20.9997 10.3281 20.9997 10.0056 20.9997ZM11.3206 9.77978C11.3533 9.83378 11.3722 9.86652 11.3932 9.89816C13.6377 13.3197 15.8826 16.7413 18.126 20.1639C18.1716 20.2332 18.2192 20.2567 18.297 20.2561C18.7146 20.2517 19.1323 20.2545 19.55 20.2539C19.5848 20.2539 19.6196 20.2501 19.6733 20.2474C19.6359 20.189 19.6083 20.1448 19.5801 20.1017C17.3767 16.7435 15.1727 13.3868 12.9759 10.0247C12.8561 9.84142 12.7399 9.76232 12.527 9.77378C12.1328 9.79505 11.7377 9.77978 11.3206 9.77978Z" fill="#4B5565"/>
</g>
<defs>
<clipPath id="clip0_1660_1533">
<rect width="11" height="12" fill="white" transform="translate(10 9)"/>
</clipPath>
</defs>
</svg>
