<svg width="18" height="18" viewBox="0 0 18 18" fill="none" xmlns="http://www.w3.org/2000/svg">
<g clip-path="url(#clip0_2875_8063)">
<g clip-path="url(#clip1_2875_8063)">
<path d="M2.81401 14.4775C2.99401 15.8135 4.10041 16.8607 5.44761 16.9223C6.58041 16.9743 7.73161 17.0015 8.99961 17.0015C10.2676 17.0015 11.4188 16.9743 12.5516 16.9215C13.8988 16.8607 15.0052 15.8135 15.1852 14.4775C15.3028 13.6055 15.3996 12.7119 15.3996 11.8015C15.3996 10.8912 15.3028 9.99757 15.1852 9.12558C15.0052 7.78959 13.8988 6.74241 12.5516 6.68081C11.3684 6.62673 10.1841 6.60032 8.99961 6.60161C7.73161 6.60161 6.58041 6.62881 5.44761 6.68161C4.10041 6.74241 2.99401 7.78959 2.81401 9.12558C2.69561 9.99757 2.59961 10.8912 2.59961 11.8015C2.59961 12.7119 2.69641 13.6055 2.81401 14.4775Z" stroke="white" stroke-width="1.5"/>
<path d="M5.40039 6.6014V4.60142C5.40039 3.64665 5.77968 2.73099 6.45481 2.05587C7.12994 1.38074 8.04561 1.00146 9.00039 1.00146C9.95517 1.00146 10.8708 1.38074 11.546 2.05587C12.2211 2.73099 12.6004 3.64665 12.6004 4.60142V6.6014" stroke="white" stroke-width="1.5" stroke-linecap="round" stroke-linejoin="round"/>
<path d="M12.1988 11.7935V11.8015M8.99883 11.7935V11.8015M5.79883 11.7935V11.8015" stroke="white" stroke-width="2" stroke-linecap="round" stroke-linejoin="round"/>
</g>
</g>
<defs>
<clipPath id="clip0_2875_8063">
<rect width="18" height="18" fill="white"/>
</clipPath>
<clipPath id="clip1_2875_8063">
<rect width="18" height="18" fill="white"/>
</clipPath>
</defs>
</svg>
