<svg width="15" height="14" viewBox="0 0 15 14" fill="none" xmlns="http://www.w3.org/2000/svg">
<path d="M11.25 12.4444H12.75V6.22222H8.25V12.4444H9.75V7.77778H11.25V12.4444ZM0.75 12.4444V0.777778C0.75 0.571498 0.829018 0.373667 0.96967 0.227806C1.11032 0.0819442 1.30109 0 1.5 0H12C12.1989 0 12.3897 0.0819442 12.5303 0.227806C12.671 0.373667 12.75 0.571498 12.75 0.777778V4.66667H14.25V12.4444H15V14H0V12.4444H0.75ZM3.75 6.22222V7.77778H5.25V6.22222H3.75ZM3.75 9.33333V10.8889H5.25V9.33333H3.75ZM3.75 3.11111V4.66667H5.25V3.11111H3.75Z" fill="#4A4A4A"/>
</svg>
