<svg width="39" height="39" viewBox="0 0 39 39" fill="none" xmlns="http://www.w3.org/2000/svg">
<g clip-path="url(#clip0_1424_1856)">
<circle cx="15" cy="15" r="2" fill="#F28B24"/>
<circle cx="24" cy="24" r="2" fill="#F28B24"/>
<path d="M32.5269 7.21475C32.5269 7.50923 32.5269 7.80371 32.5269 8.09819C32.5448 8.74236 32.6527 8.87119 33.2641 9.03684C33.9294 9.22089 34.5946 9.36813 35.2779 9.55217C35.5117 9.60739 35.7274 9.69941 35.9432 9.79144C37.076 10.3068 37.5255 11.2638 37.1299 12.4601C36.8962 13.1963 36.5366 13.8957 36.2309 14.5951C35.7634 15.6626 35.7814 15.6994 36.6444 16.454C37.04 16.7853 37.4536 17.0982 37.8312 17.4479C39.3775 18.8282 39.3775 20.1534 37.8491 21.5522C37.3996 21.9571 36.8962 22.3436 36.4287 22.7301C35.8353 23.227 35.7993 23.3927 36.105 24.1105C36.3028 24.5706 36.5186 24.9939 36.7164 25.454C36.8602 25.7853 37.004 26.135 37.1119 26.4847C37.5075 27.7914 37.04 28.8037 35.7993 29.2638C35.0981 29.5215 34.3609 29.6687 33.6417 29.8712C33.5158 29.908 33.4079 29.9264 33.2821 29.9632C32.6527 30.1473 32.5628 30.2761 32.5269 30.9387C32.4729 31.8957 32.5089 32.8712 32.365 33.8098C32.1673 35.0614 31.1963 35.7055 29.9736 35.5215C29.0926 35.3927 28.2295 35.1902 27.3664 35.0062C26.9529 34.9141 26.6652 35.043 26.4854 35.4295C26.2157 35.9816 25.9639 36.5522 25.6583 37.0859C25.4245 37.5092 25.1908 37.9325 24.8851 38.2822C24.2917 38.9816 23.4466 39.2025 22.6375 38.7976C22.0442 38.5031 21.5227 38.0614 20.9833 37.6933C20.6237 37.4356 20.3 37.1779 19.9584 36.9019C19.6707 36.681 19.365 36.681 19.0774 36.9019C18.6099 37.27 18.1424 37.6565 17.6569 38.0062C17.2613 38.2822 16.8657 38.5767 16.4342 38.7792C15.5532 39.1841 14.6721 38.9816 14.0967 38.2086C13.7011 37.7485 13.4135 37.1779 13.1258 36.6258C12.91 36.2393 12.7302 35.816 12.5324 35.4111C12.3526 35.0246 12.0469 34.8957 11.6334 34.9878C10.7883 35.1718 9.96117 35.3559 9.11608 35.4847C7.69561 35.7055 6.67072 34.8773 6.56283 33.4049C6.49091 32.5767 6.50889 31.7301 6.47293 30.9019C6.45495 30.2393 6.36505 30.1105 5.71774 29.9264C4.90861 29.7055 4.08151 29.5399 3.29036 29.2454C1.94181 28.7669 1.45633 27.7362 1.92383 26.3559C2.17556 25.6197 2.53517 24.9019 2.85882 24.1841C3.21844 23.3375 3.20045 23.2086 2.51719 22.6381C2.10364 22.2884 1.6721 21.9571 1.25855 21.589C-0.395673 20.1718 -0.395673 18.773 1.24057 17.3559C1.65412 17.0062 2.08565 16.6565 2.49921 16.3068C3.20045 15.7178 3.23642 15.589 2.84084 14.724C2.64305 14.319 2.40931 13.8773 2.2295 13.4172C2.10364 13.1227 1.97777 12.8282 1.88787 12.5154C1.51027 11.227 1.97777 10.2148 3.18247 9.75463C3.88372 9.49696 4.63891 9.34972 5.37611 9.14727C5.53794 9.11046 5.69976 9.05524 5.86159 9.01843C6.29312 8.908 6.47293 8.63193 6.47293 8.19021C6.47293 7.43561 6.50889 6.69941 6.52687 5.94481C6.58081 4.14113 7.56975 3.12886 9.67348 3.57058C10.3388 3.71782 11.0041 3.84665 11.6514 3.99389C12.0469 4.08592 12.3346 3.95708 12.5144 3.58899C12.7302 3.14727 12.946 2.70555 13.1797 2.26383C13.4135 1.82211 13.6472 1.34359 13.9529 0.920274C14.6361 -0.0367813 15.6251 -0.276045 16.632 0.312912C17.2613 0.68101 17.8187 1.14113 18.3761 1.58285C19.4729 2.44788 19.5448 2.44788 20.6417 1.58285C21.1451 1.17794 21.6486 0.75463 22.206 0.404936C23.3567 -0.312855 24.4356 -0.0735912 25.1908 1.08592C25.6043 1.74849 25.928 2.48469 26.2696 3.18408C26.7191 4.08592 26.827 4.12273 27.798 3.92027C28.4992 3.77303 29.2005 3.60739 29.9017 3.49696C31.3042 3.2761 32.3111 4.10432 32.437 5.55831C32.4909 6.11046 32.5089 6.6626 32.5269 7.21475ZM8.32494 31.8589C8.30696 31.8589 8.28897 31.8589 8.27099 31.8589C8.30695 32.3559 8.34292 32.8528 8.3609 33.3313C8.37888 33.6258 8.5407 33.7362 8.79243 33.681C9.42175 33.5706 10.0331 33.4601 10.6624 33.3129C12.6942 32.8528 13.5393 33.2761 14.4563 35.1902C14.7081 35.724 14.9598 36.2577 15.2475 36.773C15.4812 37.2147 15.6071 37.2332 16.0027 36.9571C16.5241 36.589 17.0096 36.1657 17.513 35.7608C18.9875 34.5828 20.0303 34.5828 21.5047 35.7424C21.7924 35.9632 22.0621 36.2025 22.3498 36.4233C22.5476 36.589 22.7454 36.7362 22.9432 36.8835C23.4466 37.2332 23.5366 37.2147 23.8242 36.6626C24.1839 36 24.4715 35.3006 24.8491 34.6197C25.5684 33.2945 26.4494 32.908 27.8879 33.1841C28.661 33.3313 29.4342 33.497 30.2074 33.6442C30.4951 33.6994 30.6569 33.5706 30.6749 33.2577C30.6928 32.4847 30.7288 31.7117 30.7468 30.9203C30.7827 29.3374 31.3941 28.5276 32.8865 28.1043C33.5697 27.9019 34.289 27.773 34.9722 27.5706C35.5296 27.4049 35.6016 27.2761 35.3678 26.724C35.0801 26.0246 34.7205 25.3436 34.4508 24.6442C33.8934 23.2638 34.0912 22.4172 35.17 21.4049C35.3139 21.2761 35.4577 21.1473 35.6195 21.0184C35.9072 20.7792 36.1769 20.5583 36.4646 20.3375C37.4715 19.5092 37.4715 19.3988 36.4826 18.5522C36.105 18.2209 35.6915 17.9264 35.3139 17.5951C34.0732 16.4908 33.8754 15.589 34.5227 14.0614C34.7745 13.454 35.0801 12.8651 35.3318 12.2577C35.6195 11.5767 35.5656 11.4847 34.8643 11.2822C34.1092 11.0614 33.336 10.9141 32.5808 10.6749C31.5379 10.362 30.9086 9.6626 30.8007 8.5215C30.7468 7.89573 30.7648 7.26997 30.7288 6.6626C30.7108 6.31291 30.6749 5.96322 30.6569 5.61352C30.6389 5.31905 30.4771 5.20862 30.2253 5.26383C29.596 5.37426 28.9847 5.48469 28.3554 5.63193C26.3415 6.09205 25.4785 5.66874 24.5794 3.79144C24.3277 3.2577 24.076 2.72395 23.7883 2.20862C23.5366 1.73009 23.4107 1.71168 22.9792 2.02457C22.4397 2.41107 21.9363 2.85279 21.3969 3.2577C19.9584 4.36199 19.0054 4.34359 17.567 3.23929C17.513 3.23929 17.4771 3.18408 17.4052 3.14727C16.9736 2.77917 16.5241 2.41107 16.0566 2.07978C15.5711 1.73009 15.4632 1.74849 15.1756 2.30064C14.8159 2.96322 14.5283 3.6626 14.1507 4.34359C13.4314 5.66874 12.5684 6.05524 11.1119 5.77917C10.3567 5.61352 9.58358 5.44788 8.81041 5.30064C8.52272 5.24543 8.3609 5.37426 8.34292 5.68714C8.32493 6.46015 8.30696 7.23316 8.28897 8.00616C8.25301 9.60739 7.65965 10.3988 6.14928 10.8221C5.44803 11.0246 4.74679 11.1718 4.06352 11.3559C3.48814 11.5215 3.4342 11.6687 3.66795 12.2209C3.95564 12.9203 4.29727 13.6013 4.58496 14.3006C5.14236 15.681 4.94458 16.5276 3.86574 17.5399C3.72189 17.6687 3.57805 17.7976 3.4342 17.9264C2.98469 18.3129 2.51719 18.6994 2.06767 19.1043C1.70806 19.4356 1.72604 19.5644 2.04969 19.8957C2.26546 20.1166 2.49921 20.319 2.73296 20.5215C3.23642 20.9816 3.77583 21.4049 4.26131 21.9019C4.80073 22.4724 5.05246 23.1902 4.80073 23.9632C4.51304 24.8098 4.15343 25.6381 3.79381 26.4663C3.39824 27.4233 3.41622 27.497 4.40516 27.7546C5.16034 27.9571 5.91553 28.1043 6.63476 28.362C7.55177 28.6749 8.09119 29.3559 8.19907 30.3497C8.25301 30.8467 8.28897 31.3436 8.32494 31.8589Z" fill="black"/>
<path d="M13.2873 26.8895C12.9996 26.6686 12.676 26.5214 12.5501 26.2821C12.4422 26.0245 12.5141 25.6748 12.5681 25.3619C12.5861 25.2147 12.7659 25.1042 12.8917 24.9754C16.8834 20.8895 20.8571 16.8036 24.8668 12.7361C25.0646 12.5337 25.3163 12.368 25.5861 12.276C25.9457 12.1656 26.2693 12.3496 26.4671 12.6809C26.6649 13.0122 26.6469 13.3619 26.4311 13.6748C26.3592 13.7852 26.2513 13.8956 26.1614 13.9877C22.1517 18.092 18.1421 22.1962 14.1324 26.2821C13.8986 26.5214 13.6109 26.6502 13.2873 26.8895Z" fill="black"/>
<path d="M20.8223 24.0367C20.8223 22.2699 22.2068 20.8711 23.9329 20.8711C25.6231 20.8711 27.0256 22.2883 27.0256 24.0183C27.0436 25.7484 25.6231 27.2208 23.9149 27.2208C22.2248 27.2208 20.8223 25.7852 20.8223 24.0367ZM23.9329 25.3803C24.6701 25.3803 25.2455 24.7913 25.2455 24.0367C25.2455 23.2821 24.6701 22.6932 23.9329 22.6932C23.2137 22.6932 22.6203 23.3005 22.6203 24.0367C22.6023 24.7729 23.1957 25.3803 23.9329 25.3803Z" fill="black"/>
<path d="M15.0677 18.1472C13.3595 18.1472 11.957 16.7116 11.957 14.9632C11.957 13.2331 13.3955 11.7791 15.0857 11.7975C16.7938 11.8159 18.1604 13.2515 18.1604 15.0184C18.1604 16.7485 16.7758 18.1472 15.0677 18.1472ZM13.7551 14.9632C13.7551 15.7178 14.3305 16.3067 15.0497 16.3251C15.7689 16.3251 16.3623 15.7362 16.3803 14.9816C16.3803 14.227 15.8049 13.638 15.0677 13.638C14.3485 13.6196 13.7551 14.2086 13.7551 14.9632Z" fill="black"/>
</g>
<defs>
<clipPath id="clip0_1424_1856">
<rect width="39" height="39" fill="white"/>
</clipPath>
</defs>
</svg>
