<svg width="48" height="46" viewBox="0 0 48 46" fill="none" xmlns="http://www.w3.org/2000/svg">
<g clip-path="url(#clip0_1424_1840)">
<path d="M20 6.5L19 4.5L20 4L21.5 2.5L22.5 1.5L24 1L25 1.5L26.5 3L28.5 3.5L29 4.5L28.5 5.5L27.5 7.5V9L27 10.5H25.5L24 9.5L22.5 10.5H21.5H20.5L20 8.5V6.5Z" fill="#F28B24"/>
<path d="M0 35.8971C0.0242915 35.8971 0.0242915 35.8733 0.048583 35.8733C0.825911 33.8909 1.7247 33.2938 3.88664 33.2938C7.55466 33.2938 11.2227 33.2938 14.8907 33.2938C15.085 33.2938 15.2551 33.2938 15.5223 33.2938C15.5223 33.0789 15.5223 32.8878 15.5223 32.7206C15.5223 30.8577 15.5223 28.9709 15.5223 27.1079C15.5223 26.9646 15.5223 26.7975 15.5466 26.6542C15.5951 26.2481 15.8866 25.9615 16.251 25.9854C16.6397 26.0093 16.8826 26.2481 16.9555 26.6064C16.9798 26.7736 16.9798 26.9408 16.9798 27.1079C16.9798 32.7206 16.9798 38.3572 16.9798 43.9698C16.9798 44.1609 16.9798 44.3281 16.9798 44.543C21.668 44.543 26.332 44.543 31.0688 44.543C31.0688 44.3759 31.0688 44.2087 31.0688 44.0654C31.0688 35.2762 31.0688 26.5108 31.0688 17.7216C31.0688 16.3603 30.3401 15.6438 28.9312 15.6438C25.6275 15.6438 22.3482 15.6438 19.0445 15.6438C17.7328 15.6438 16.9798 16.3842 16.9798 17.6739C16.9798 19.6323 16.9798 21.5669 16.9798 23.5254C16.9798 23.7165 17.004 23.9792 16.8826 24.0986C16.6883 24.2897 16.3968 24.4807 16.1781 24.4568C15.9838 24.433 15.7652 24.1702 15.5951 23.9553C15.4737 23.8598 15.5223 23.6687 15.5223 23.5493C15.5223 21.5908 15.5223 19.6085 15.5223 17.65C15.5223 15.9304 16.4939 14.6884 18.0972 14.3063C18.413 14.2346 18.753 14.2346 19.0688 14.2346C22.3482 14.2346 25.6275 14.2824 28.9069 14.2107C30.8745 14.1869 32.502 15.6199 32.4534 17.6978C32.4049 19.6562 32.4534 21.6386 32.4534 23.597C32.4534 23.7881 32.4534 23.9553 32.4534 24.1941C32.6721 24.1941 32.8664 24.1941 33.0364 24.1941C36.8259 24.1941 40.6154 24.1941 44.4291 24.1941C46.5911 24.1941 47.9757 25.5316 47.9757 27.6573C47.9757 32.6012 47.9271 37.5451 48 42.489C48.0243 44.1131 46.8583 45.9999 44.502 45.9761C44.4291 45.9761 44.3806 45.9761 44.3077 45.9761C30.7773 45.9761 17.2227 45.9761 3.69231 45.9761C2.35628 45.9761 1.23887 45.57 0.510121 44.4236C0.291498 44.0893 0.17004 43.7071 0.0242915 43.3489C0 40.865 0 38.381 0 35.8971ZM32.4777 25.5794C32.4777 31.9324 32.4777 38.2377 32.4777 44.5669C32.6721 44.5669 32.8178 44.5669 32.9636 44.5669C36.753 44.5669 40.5425 44.543 44.332 44.5908C45.8381 44.6147 46.5425 43.5877 46.5425 42.3935C46.5182 37.5212 46.5182 32.6728 46.5182 27.8006C46.5182 26.2959 45.7895 25.5794 44.2348 25.5794C40.7611 25.5794 37.2632 25.5794 33.7895 25.5794C33.4008 25.5794 32.9636 25.5794 32.4777 25.5794ZM15.4737 34.6791C15.2794 34.6791 15.1336 34.6791 14.9879 34.6791C11.1741 34.6791 7.33603 34.6791 3.52227 34.6791C2.16194 34.6791 1.40891 35.4195 1.40891 36.757C1.40891 38.6438 1.4332 40.5306 1.38462 42.4174C1.36032 43.516 2.06478 44.5908 3.59514 44.5669C7.38461 44.5192 11.1741 44.543 14.9636 44.543C15.1336 44.543 15.3036 44.543 15.4737 44.543C15.4737 41.2471 15.4737 37.975 15.4737 34.6791Z" fill="black"/>
<path d="M19.7242 8.55046C20.0643 7.73842 19.4813 6.90249 18.7768 6.11433C18.2667 5.565 18.0238 4.92014 18.2667 4.15586C18.4853 3.46324 18.9226 2.93779 19.627 2.84226C20.9145 2.65119 21.7404 2.03021 22.372 0.90768C23.0521 -0.310389 24.8254 -0.262621 25.627 0.883796C25.6999 0.979331 25.7728 1.07487 25.8214 1.19428C26.2586 2.12575 26.9874 2.55565 28.0076 2.77061C29.8052 3.12886 30.3882 4.80072 29.125 6.11433C28.3234 6.95025 28.1291 7.85784 28.2748 8.9326C28.372 9.57746 28.1291 10.1507 27.6189 10.5806C27.0359 11.0583 26.3801 11.1777 25.6513 10.9388C25.3841 10.8433 25.0926 10.7239 24.8254 10.6045C24.2424 10.3656 23.6837 10.3656 23.1007 10.6045C22.7849 10.7478 22.4448 10.9149 22.0805 10.9866C20.6473 11.321 19.457 10.1507 19.7242 8.55046ZM21.0845 8.646C21.0602 9.62523 21.3031 9.8163 22.1291 9.50581C22.3963 9.41028 22.6878 9.29086 22.955 9.19532C23.6351 8.95648 24.291 8.9326 24.9712 9.19532C25.3355 9.33862 25.6999 9.48193 26.0643 9.60135C26.5987 9.79241 26.8902 9.57746 26.8902 9.05202C26.8902 8.76542 26.8659 8.5027 26.8416 8.21609C26.7444 7.38016 26.9388 6.592 27.4975 5.94714C27.7404 5.66054 27.9833 5.37393 28.2019 5.08733C28.4934 4.70519 28.3963 4.34693 27.9104 4.20363C27.5946 4.1081 27.2789 4.03644 26.9631 3.96479C26.1372 3.77372 25.4813 3.34382 25.0197 2.62731C24.8497 2.36459 24.6797 2.07798 24.4853 1.81526C24.1453 1.33759 23.7566 1.33759 23.4165 1.83914C23.2465 2.07798 23.0764 2.31682 22.9307 2.57954C22.5177 3.27217 21.8376 3.72596 20.9874 3.91703C20.6959 3.98868 20.4287 4.06033 20.1614 4.13198C19.5542 4.29916 19.4327 4.65742 19.8214 5.13509C20.04 5.39781 20.2586 5.66054 20.4772 5.92326C21.0359 6.592 21.2303 7.35628 21.1331 8.19221C21.1088 8.38328 21.0845 8.57435 21.0845 8.646Z" fill="black"/>
</g>
<defs>
<clipPath id="clip0_1424_1840">
<rect width="48" height="46" fill="white"/>
</clipPath>
</defs>
</svg>
