<svg width="33" height="44" viewBox="0 0 33 44" fill="none" xmlns="http://www.w3.org/2000/svg">
<g clip-path="url(#clip0_1267_1916)">
<path d="M17.7528 0C18.6149 0.145752 19.4871 0.246746 20.337 0.446438C26.3373 1.85461 31.6675 6.84003 32.7675 13.7443C33.4476 18.0159 32.6011 22.0373 30.668 25.8498C29.6495 27.8582 28.2514 29.5843 26.8923 31.3425C23.7989 35.3409 20.7055 39.3405 17.6121 43.3389C16.9275 44.2238 16.0699 44.2215 15.3864 43.3378C11.6978 38.5647 7.99127 33.8065 4.32721 29.0139C2.04792 26.0323 0.610661 22.6501 0.146092 18.8778C-0.750659 11.6017 2.58843 5.30217 8.72498 1.94528C10.6603 0.883695 12.7352 0.271995 14.9229 0.0757453C15.0313 0.0654164 15.1385 0.0263961 15.2457 0C16.081 0 16.9175 0 17.7528 0ZM16.5188 40.6362C16.5824 40.5295 16.607 40.4778 16.6416 40.4331C20.0511 36.0169 23.513 31.642 26.8532 27.1708C29.5591 23.5488 30.9003 19.4401 30.3754 14.8185C30.0795 12.2134 29.109 9.87903 27.4663 7.86948C23.102 2.52714 15.9537 1.01223 9.9266 4.22911C4.52041 7.11432 1.82457 12.6552 2.6465 18.7906C3.06975 21.9466 4.31269 24.7699 6.20894 27.2741C8.51838 30.3234 10.8747 33.3337 13.211 36.36C14.292 37.759 15.3752 39.158 16.5188 40.6362Z" fill="black"/>
<path d="M23.2506 17.5247C23.2506 17.7198 23.2506 17.8736 23.2506 18.0262C23.2506 19.9864 23.2517 21.9466 23.2506 23.9068C23.2495 24.9592 22.7659 25.4722 21.7486 25.4745C18.2542 25.4791 14.7588 25.4791 11.2645 25.4745C10.2427 25.4734 9.75019 24.9615 9.74907 23.9194C9.74684 21.9592 9.74907 19.999 9.74907 18.0388C9.74907 17.8828 9.74907 17.7267 9.74907 17.5545C9.51232 17.6349 9.31019 17.737 9.09689 17.7703C8.51506 17.8598 7.99019 17.5603 7.76125 17.0415C7.52115 16.4975 7.64734 15.9099 8.12196 15.4922C9.34927 14.4146 10.5844 13.3449 11.8162 12.2719C13.0591 11.1896 14.3021 10.1085 15.5439 9.02631C16.2061 8.45018 16.7857 8.44444 17.448 9.01942C19.9026 11.1541 22.355 13.291 24.8073 15.4279C25.3177 15.8732 25.4718 16.3931 25.2697 16.9509C25.0218 17.6372 24.2959 17.97 23.6314 17.7003C23.5175 17.6544 23.4081 17.5981 23.2506 17.5247ZM20.7078 22.8464C20.7078 22.6352 20.7078 22.4654 20.7078 22.2967C20.7078 20.2779 20.6776 18.2592 20.7245 16.2428C20.7413 15.537 20.5626 15.063 20.0064 14.6177C18.8115 13.6617 17.6814 12.6208 16.5132 11.6039C16.4083 11.6877 16.3189 11.7531 16.2363 11.8254C15.0235 12.879 13.8174 13.9383 12.5968 14.9815C12.3712 15.1743 12.2841 15.3728 12.2863 15.6724C12.2975 17.9195 12.2919 20.1666 12.2941 22.4137C12.2941 22.5514 12.3087 22.6903 12.3176 22.8464C15.1117 22.8464 17.8779 22.8464 20.7078 22.8464Z" fill="black"/>
<path d="M20.7077 22.8464C17.8779 22.8464 15.1117 22.8464 12.3164 22.8464C12.3075 22.6903 12.293 22.5514 12.293 22.4137C12.2919 20.1666 12.2975 17.9195 12.2852 15.6724C12.2841 15.3717 12.37 15.1743 12.5956 14.9815C13.8162 13.9383 15.0234 12.879 16.2351 11.8254C16.3189 11.7531 16.4071 11.6877 16.5121 11.6039C17.6802 12.6208 18.8103 13.6617 20.0053 14.6177C20.5625 15.063 20.7401 15.537 20.7233 16.2428C20.6764 18.2604 20.7066 20.2791 20.7066 22.2967C20.7077 22.4665 20.7077 22.6352 20.7077 22.8464Z" fill="#F28B24"/>
</g>
<defs>
<clipPath id="clip0_1267_1916">
<rect width="33" height="44" fill="white"/>
</clipPath>
</defs>
</svg>
