<svg width="50" height="29" viewBox="0 0 50 29" fill="none" xmlns="http://www.w3.org/2000/svg">
<g clip-path="url(#clip0_1267_1953)">
<path d="M9.07177 25.1313C13.1648 21.6088 17.2564 18.0864 21.4219 14.5014C17.2868 10.9412 13.1851 7.40856 8.97762 3.78575C8.94866 4.18877 8.92404 4.46521 8.911 4.7431C8.88493 5.30326 8.91535 5.87214 8.82844 6.42211C8.74444 6.95462 8.22738 7.28635 7.71321 7.25434C7.19181 7.22088 6.69502 6.82077 6.68488 6.30571C6.6675 5.40219 6.61971 4.4783 6.77323 3.59515C7.13677 1.50148 8.89217 0.0698127 11.0068 0.00724999C11.1516 0.00288515 11.2964 -2.47437e-05 11.4398 -2.47437e-05C22.6979 -2.47437e-05 33.9559 -0.00147969 45.2139 -2.47437e-05C47.4632 -2.47437e-05 49.1404 1.11883 49.7473 3.07864C49.9153 3.62279 49.9834 4.21787 49.9848 4.78966C50.0007 11.2685 49.9993 17.7489 49.9921 24.2277C49.9892 26.6677 48.6132 28.4442 46.3755 28.917C46.0438 28.9869 45.6933 28.9942 45.353 28.9942C34.0037 28.9985 22.6559 29.0014 11.3066 28.9942C8.9081 28.9927 7.12953 27.5727 6.73847 25.2739C6.59509 24.4256 6.65447 23.5366 6.68488 22.6695C6.70226 22.1763 7.17587 21.7965 7.6799 21.75C8.17669 21.7034 8.66768 22.0046 8.81106 22.4949C8.88638 22.751 8.89652 23.0303 8.90231 23.2995C8.91535 23.8887 8.90666 24.478 8.90666 25.0673C8.96314 25.0891 9.01673 25.1109 9.07177 25.1313ZM10.6968 2.28133C10.9112 2.47629 11.027 2.58687 11.1473 2.69017C16.5279 7.31399 21.91 11.9378 27.2906 16.5602C28.1031 17.2586 28.5434 17.2615 29.3675 16.5529C34.6946 11.9771 40.0201 7.39983 45.3457 2.82257C45.5195 2.67271 45.6875 2.51558 45.9497 2.28133C34.1659 2.28133 22.5052 2.28133 10.6968 2.28133ZM10.6838 26.7099C22.4907 26.7099 34.1572 26.7099 45.9642 26.7099C41.7393 23.0696 37.6202 19.5224 33.4881 15.9622C32.4438 16.8744 31.4618 17.7576 30.4538 18.6073C29.1575 19.7014 27.4774 19.6883 26.1913 18.6044C25.9277 18.3832 25.6728 18.1533 25.4135 17.9264C24.6662 17.2775 23.9203 16.6271 23.1555 15.9637C19.0031 19.5428 14.8956 23.0812 10.6838 26.7099ZM47.6834 3.77411C43.4672 7.4042 39.3611 10.9383 35.2247 14.5014C39.3814 18.0806 43.4788 21.6059 47.6834 25.2258C47.6834 18.0399 47.6834 10.9805 47.6834 3.77411Z" fill="black"/>
<path d="M6.1007 18.4152C4.5104 18.4152 2.92156 18.4181 1.33127 18.4138C0.518747 18.4123 0.0132727 17.9846 0.000237565 17.3051C-0.0127976 16.6096 0.511506 16.1513 1.34865 16.1499C4.52779 16.1455 7.70836 16.1455 10.8875 16.1499C11.7029 16.1513 12.2012 16.5849 12.2098 17.2687C12.2185 17.9904 11.7319 18.4109 10.8701 18.4138C9.27983 18.4181 7.69099 18.4152 6.1007 18.4152Z" fill="black"/>
<path d="M7.77319 10.5847C8.83918 10.5847 9.90662 10.5789 10.9726 10.5862C11.7185 10.592 12.1878 11.0139 12.2066 11.6701C12.2269 12.3496 11.7504 12.8399 10.9987 12.8457C8.84787 12.8588 6.69707 12.8588 4.54627 12.8457C3.8105 12.8413 3.29054 12.3176 3.31951 11.6716C3.34558 11.0459 3.85975 10.592 4.57378 10.5876C5.64122 10.5789 6.70721 10.5847 7.77319 10.5847Z" fill="black"/>
<path d="M10.6973 2.28137C22.5057 2.28137 34.1649 2.28137 45.9487 2.28137C45.688 2.51562 45.52 2.67275 45.3447 2.82261C40.0191 7.39987 34.6936 11.9771 29.3665 16.5529C28.5424 17.2615 28.1021 17.2586 27.2896 16.5602C21.909 11.9364 16.5269 7.31403 11.1463 2.69021C11.0275 2.58691 10.9116 2.47779 10.6973 2.28137Z" fill="#F28B24"/>
</g>
<defs>
<clipPath id="clip0_1267_1953">
<rect width="50" height="29" fill="white"/>
</clipPath>
</defs>
</svg>
