<svg width="41" height="41" viewBox="0 0 41 41" fill="none" xmlns="http://www.w3.org/2000/svg">
<g clip-path="url(#clip0_1267_1938)">
<path d="M0 19.0682C0.0791361 18.5175 0.149717 17.9657 0.237408 17.4172C1.06941 12.2086 3.52263 7.9197 7.60135 4.58349C10.724 2.02895 14.3258 0.561873 18.3318 0.121323C28.6901 -1.01641 38.2794 5.9137 40.5134 16.1511C41.4759 20.562 40.9989 24.8327 39.1745 28.9592C38.9499 29.4671 38.6056 29.7975 38.0527 29.8616C37.0678 29.9761 36.4037 28.9838 36.7609 28.0192C37.1983 26.8366 37.703 25.6593 37.9629 24.4339C39.1916 18.6458 37.9094 13.4287 34.1098 8.89062C31.462 5.72871 28.0634 3.72057 24.0082 2.94854C18.3189 1.86534 13.2147 3.21159 8.79801 6.95947C5.68604 9.59956 3.7055 12.9646 2.93552 16.9745C1.85007 22.6321 3.17293 27.7177 6.87843 32.1285C9.53055 35.2862 12.9291 37.2858 16.979 38.0685C22.3228 39.1014 27.1843 37.9348 31.5208 34.6339C31.94 34.3153 32.0106 33.8875 31.679 33.5283C31.2 33.0086 30.6866 32.521 30.1872 32.0205C30.1134 31.9468 30.0343 31.8794 29.9402 31.7928C29.2889 32.4119 28.551 32.8279 27.673 32.9979C26.594 33.2075 25.5802 32.9262 24.575 32.6151C21.7293 31.7318 19.2632 30.1685 16.9897 28.2844C13.9718 25.7823 11.4437 22.8663 9.60755 19.3836C8.84079 17.9283 8.25154 16.4056 7.98526 14.7728C7.77994 13.5164 8.06012 12.3605 8.90816 11.4216C9.82785 10.4026 10.8117 9.43916 11.8127 8.49925C12.6329 7.72829 13.9536 7.72401 14.7685 8.50888C16.3534 10.0358 17.9104 11.5927 19.4386 13.1764C20.2567 14.0232 20.2118 15.3363 19.3937 16.2271C18.8526 16.8162 18.2719 17.3691 17.703 17.9315C17.6089 18.0245 17.4837 18.0855 17.3554 18.1742C18.9606 20.2604 20.7379 22.0269 22.7645 23.602C23.3569 23.0085 23.928 22.4343 24.5023 21.8612C25.6786 20.6871 26.9715 20.6817 28.1404 21.8483C29.49 23.1967 30.8396 24.5451 32.1881 25.8946C33.3591 27.0665 33.3602 28.3604 32.187 29.5302C32.0555 29.6606 31.8972 29.7643 31.7079 29.9162C32.3282 30.5332 32.8843 31.0828 33.4371 31.6356C34.2007 32.3991 34.5365 33.3187 34.4199 34.3955C34.3269 35.2573 33.9473 35.9812 33.2757 36.5201C30.7059 38.5817 27.8014 39.944 24.5696 40.5888C23.6981 40.7631 22.8126 40.8647 21.9335 40.9994C20.9999 40.9994 20.0653 40.9994 19.1317 40.9994C18.6451 40.9385 18.1575 40.8861 17.673 40.8144C14.2531 40.3108 11.1208 39.0854 8.34886 37.011C4.00065 33.7582 1.31751 29.4542 0.32403 24.1099C0.190354 23.3945 0.106941 22.6696 0 21.9499C0 20.9886 0 20.0284 0 19.0682ZM26.3074 23.7324C26.3074 23.7324 26.2775 23.7346 26.2614 23.7517C25.6187 24.3911 24.976 25.0316 24.3344 25.6711C23.4414 26.5618 22.5345 26.6377 21.5186 25.8796C19.0772 24.0575 16.9394 21.9285 15.1214 19.4841C14.3632 18.464 14.4359 17.5615 15.33 16.6697C15.9876 16.0121 16.6485 15.3566 17.2688 14.7386C15.9064 13.3774 14.5717 12.045 13.2393 10.7138C12.4853 11.4601 11.6854 12.2236 10.9197 13.0213C10.5529 13.403 10.4406 13.8885 10.5379 14.4296C10.7786 15.7662 11.2576 17.0183 11.8972 18.2063C14.1247 22.3466 17.2838 25.6283 21.2053 28.185C22.8415 29.2521 24.5889 30.0862 26.5309 30.4562C27.1661 30.577 27.6859 30.3941 28.1308 29.9525C28.8034 29.2853 29.4718 28.6148 30.1402 27.9444C30.2118 27.8717 30.2749 27.7904 30.3113 27.7487C28.9649 26.3982 27.6399 25.0701 26.3074 23.7324Z" fill="black"/>
<path d="M26.3077 23.733C27.6402 25.0696 28.9641 26.3988 30.3105 27.7493C30.2741 27.791 30.2121 27.8723 30.1394 27.945C29.471 28.6154 28.8026 29.2859 28.1299 29.9531C27.6851 30.3947 27.1653 30.5776 26.5301 30.4568C24.5881 30.0868 22.8407 29.2527 21.2045 28.1856C17.2819 25.6278 14.1228 22.3472 11.8963 18.2069C11.2579 17.0189 10.7788 15.7678 10.5371 14.4302C10.4398 13.8891 10.5532 13.4036 10.9189 13.0219C11.6846 12.2242 12.4845 11.4607 13.2384 10.7144C14.5709 12.0456 15.9055 13.378 17.268 14.7392C16.6466 15.3572 15.9868 16.0127 15.3291 16.6703C14.4362 17.5621 14.3624 18.4646 15.1206 19.4847C16.9386 21.9302 19.0763 24.0592 21.5178 25.8802C22.5337 26.6383 23.4406 26.5624 24.3335 25.6717C24.9752 25.0312 25.6179 24.3906 26.2606 23.7523C26.2788 23.7362 26.3087 23.733 26.3077 23.733Z" fill="#F28B24"/>
</g>
<defs>
<clipPath id="clip0_1267_1938">
<rect width="41" height="41" fill="white"/>
</clipPath>
</defs>
</svg>
