<svg width="12" height="13" viewBox="0 0 12 13" fill="none" xmlns="http://www.w3.org/2000/svg">
<path d="M2.26611 5.8001C2.26611 4.13473 2.26611 3.30146 2.78374 2.78442C3.30079 2.26678 4.13406 2.26678 5.79943 2.26678H7.56608C9.23145 2.26678 10.0647 2.26678 10.5818 2.78442C11.0994 3.30146 11.0994 4.13473 11.0994 5.8001V8.74452C11.0994 10.4099 11.0994 11.2432 10.5818 11.7602C10.0647 12.2778 9.23145 12.2778 7.56608 12.2778H5.79943C4.13406 12.2778 3.30079 12.2778 2.78374 11.7602C2.26611 11.2432 2.26611 10.4099 2.26611 8.74452V5.8001Z" stroke="#FD985F"/>
<path d="M2.26666 10.5111C1.79811 10.5111 1.34875 10.3249 1.01744 9.99361C0.686129 9.6623 0.5 9.21294 0.5 8.7444V5.21108C0.5 2.9904 0.5 1.87976 1.19017 1.19017C1.88035 0.500589 2.9904 0.5 5.21108 0.5H7.56663C8.03517 0.5 8.48453 0.686129 8.81584 1.01744C9.14715 1.34875 9.33328 1.79811 9.33328 2.26666" stroke="#FD985F"/>
</svg>
