<svg width="16" height="16" viewBox="0 0 16 16" fill="none" xmlns="http://www.w3.org/2000/svg">
<path d="M13.5379 9.13513H10.5979C10.2105 9.13673 9.83948 9.29138 9.56561 9.56539C9.29175 9.8394 9.13729 10.2105 9.13589 10.5979V13.5379C9.13569 13.73 9.17337 13.9202 9.24678 14.0977C9.32018 14.2752 9.42787 14.4364 9.56367 14.5722C9.69948 14.708 9.86073 14.8157 10.0382 14.8891C10.2157 14.9625 10.4059 15.0002 10.5979 15H13.5379C13.9256 14.9998 14.2974 14.8457 14.5716 14.5716C14.8457 14.2974 14.9998 13.9256 15 13.5379V10.5979C15.0002 10.4059 14.9625 10.2157 14.8891 10.0382C14.8157 9.86073 14.708 9.69948 14.5722 9.56367C14.4364 9.42787 14.2752 9.32018 14.0977 9.24678C13.9202 9.17337 13.73 9.13569 13.5379 9.13589M13.5379 1H2.46206C2.27 0.999802 2.07979 1.03748 1.90232 1.11089C1.72484 1.18429 1.56359 1.29198 1.42778 1.42778C1.29198 1.56359 1.18429 1.72484 1.11089 1.90232C1.03748 2.07979 0.999803 2.27 1 2.46205V5.40205C0.999703 5.59417 1.03731 5.78446 1.11067 5.96203C1.18403 6.13959 1.2917 6.30093 1.42752 6.43682C1.56333 6.5727 1.72462 6.68045 1.90214 6.75391C2.07966 6.82736 2.26994 6.86506 2.46206 6.86486H13.5379C13.73 6.86506 13.9202 6.82738 14.0977 6.75398C14.2752 6.68057 14.4364 6.57289 14.5722 6.43708C14.708 6.30128 14.8157 6.14002 14.8891 5.96255C14.9625 5.78508 15.0002 5.59487 15 5.40281V2.46205C15.0002 2.27 14.9625 2.07979 14.8891 1.90232C14.8157 1.72484 14.708 1.56359 14.5722 1.42778C14.4364 1.29198 14.2752 1.18429 14.0977 1.11089C13.9202 1.03748 13.73 0.999802 13.5379 1ZM5.40206 9.13513H2.46206C2.26994 9.13494 2.07966 9.17264 1.90214 9.24609C1.72462 9.31955 1.56333 9.4273 1.42752 9.56318C1.2917 9.69907 1.18403 9.86041 1.11067 10.038C1.03731 10.2155 0.999703 10.4058 1 10.5979V13.5379C0.999803 13.73 1.03748 13.9202 1.11089 14.0977C1.18429 14.2752 1.29198 14.4364 1.42778 14.5722C1.56359 14.708 1.72484 14.8157 1.90232 14.8891C2.07979 14.9625 2.27 15.0002 2.46206 15H5.40206C5.59411 15.0002 5.78432 14.9625 5.96179 14.8891C6.13927 14.8157 6.30052 14.708 6.43633 14.5722C6.57213 14.4364 6.67982 14.2752 6.75322 14.0977C6.82663 13.9202 6.86431 13.73 6.86411 13.5379V10.5979C6.86271 10.2105 6.70825 9.8394 6.43439 9.56539C6.16052 9.29138 5.78946 9.13673 5.40206 9.13513Z" stroke="#697586" stroke-width="1.3" stroke-linecap="round" stroke-linejoin="round"/>
</svg>
