<svg width="18" height="18" viewBox="0 0 18 18" fill="none" xmlns="http://www.w3.org/2000/svg">
<g clip-path="url(#clip0_2875_7999)">
<path d="M15.3291 10.2973H11.9691C11.5263 10.2991 11.1023 10.4759 10.7893 10.789C10.4763 11.1022 10.2998 11.5263 10.2982 11.9691V15.3291C10.2979 15.5486 10.341 15.766 10.4249 15.9688C10.5088 16.1716 10.6319 16.3559 10.7871 16.5111C10.9423 16.6663 11.1266 16.7894 11.3294 16.8733C11.5322 16.9572 11.7496 17.0002 11.9691 17H15.3291C15.7722 16.9998 16.197 16.8237 16.5103 16.5103C16.8237 16.197 16.9998 15.7722 17 15.3291V11.9691C17.0002 11.7496 16.9572 11.5322 16.8733 11.3294C16.7894 11.1266 16.6663 10.9423 16.5111 10.7871C16.3559 10.6319 16.1716 10.5088 15.9688 10.4249C15.766 10.341 15.5486 10.2979 15.3291 10.2982M15.3291 1H2.67092C2.45143 0.999773 2.23405 1.04284 2.03122 1.12673C1.82839 1.21062 1.6441 1.33369 1.4889 1.48889C1.33369 1.6441 1.21062 1.82839 1.12673 2.03122C1.04284 2.23405 0.999774 2.45143 1 2.67092V6.03092C0.999661 6.25048 1.04264 6.46796 1.12648 6.67089C1.21032 6.87381 1.33337 7.05821 1.48859 7.2135C1.6438 7.3688 1.82813 7.49195 2.03102 7.57589C2.2339 7.65984 2.45136 7.70293 2.67092 7.7027H15.3291C15.5486 7.70293 15.766 7.65987 15.9688 7.57597C16.1716 7.49208 16.3559 7.36901 16.5111 7.21381C16.6663 7.05861 16.7894 6.87431 16.8733 6.67149C16.9572 6.46866 17.0002 6.25128 17 6.03178V2.67092C17.0002 2.45143 16.9572 2.23405 16.8733 2.03122C16.7894 1.82839 16.6663 1.6441 16.5111 1.48889C16.3559 1.33369 16.1716 1.21062 15.9688 1.12673C15.766 1.04284 15.5486 0.999773 15.3291 1ZM6.03092 10.2973H2.67092C2.45136 10.2971 2.2339 10.3402 2.03102 10.4241C1.82813 10.5081 1.6438 10.6312 1.48859 10.7865C1.33337 10.9418 1.21032 11.1262 1.12648 11.3291C1.04264 11.532 0.999661 11.7495 1 11.9691V15.3291C0.999774 15.5486 1.04284 15.766 1.12673 15.9688C1.21062 16.1716 1.33369 16.3559 1.4889 16.5111C1.6441 16.6663 1.82839 16.7894 2.03122 16.8733C2.23405 16.9572 2.45143 17.0002 2.67092 17H6.03092C6.25041 17.0002 6.46779 16.9572 6.67062 16.8733C6.87345 16.7894 7.05774 16.6663 7.21295 16.5111C7.36815 16.3559 7.49122 16.1716 7.57511 15.9688C7.659 15.766 7.70207 15.5486 7.70184 15.3291V11.9691C7.70024 11.5263 7.52372 11.1022 7.21073 10.789C6.89774 10.4759 6.47366 10.2991 6.03092 10.2973Z" stroke="white" stroke-width="1.3" stroke-linecap="round" stroke-linejoin="round"/>
</g>
<defs>
<clipPath id="clip0_2875_7999">
<rect width="18" height="18" fill="white"/>
</clipPath>
</defs>
</svg>
