<svg width="21" height="20" viewBox="0 0 21 20" fill="none" xmlns="http://www.w3.org/2000/svg">
<path d="M0.393555 4C0.393555 1.79086 2.18442 0 4.39355 0H16.9996C19.2088 0 20.9996 1.79086 20.9996 4V16C20.9996 18.2091 19.2088 20 16.9996 20H4.39355C2.18441 20 0.393555 18.2091 0.393555 16V4Z" fill="#EEF2F6"/>
<path d="M8.87834 5.4375C8.87834 5.15571 8.98051 4.88546 9.16236 4.6862C9.34422 4.48694 9.59086 4.375 9.84804 4.375H12.7571C13.0143 4.375 13.261 4.48694 13.4428 4.6862C13.6247 4.88546 13.7268 5.15571 13.7268 5.4375V6.5H15.6662C15.7948 6.5 15.9181 6.55597 16.0091 6.6556C16.1 6.75523 16.1511 6.89035 16.1511 7.03125C16.1511 7.17215 16.1 7.30727 16.0091 7.4069C15.9181 7.50653 15.7948 7.5625 15.6662 7.5625H15.1479L14.7276 14.0129C14.7101 14.281 14.6007 14.5319 14.4212 14.715C14.2417 14.8982 14.0055 15 13.7603 15H8.8444C8.59914 15 8.36298 14.8982 8.1835 14.715C8.00402 14.5319 7.89455 14.281 7.87713 14.0129L7.45774 7.5625H6.93895C6.81036 7.5625 6.68704 7.50653 6.59611 7.4069C6.50518 7.30727 6.4541 7.17215 6.4541 7.03125C6.4541 6.89035 6.50518 6.75523 6.59611 6.6556C6.68704 6.55597 6.81036 6.5 6.93895 6.5H8.87834V5.4375ZM9.84804 6.5H12.7571V5.4375H9.84804V6.5ZM8.42937 7.5625L8.84489 13.9375H13.7608L14.1763 7.5625H8.42937ZM10.3329 8.625C10.4615 8.625 10.5848 8.68097 10.6757 8.7806C10.7667 8.88023 10.8177 9.01535 10.8177 9.15625V12.3438C10.8177 12.4846 10.7667 12.6198 10.6757 12.7194C10.5848 12.819 10.4615 12.875 10.3329 12.875C10.2043 12.875 10.081 12.819 9.99005 12.7194C9.89912 12.6198 9.84804 12.4846 9.84804 12.3438V9.15625C9.84804 9.01535 9.89912 8.88023 9.99005 8.7806C10.081 8.68097 10.2043 8.625 10.3329 8.625ZM12.2723 8.625C12.4009 8.625 12.5242 8.68097 12.6151 8.7806C12.7061 8.88023 12.7571 9.01535 12.7571 9.15625V12.3438C12.7571 12.4846 12.7061 12.6198 12.6151 12.7194C12.5242 12.819 12.4009 12.875 12.2723 12.875C12.1437 12.875 12.0204 12.819 11.9294 12.7194C11.8385 12.6198 11.7874 12.4846 11.7874 12.3438V9.15625C11.7874 9.01535 11.8385 8.88023 11.9294 8.7806C12.0204 8.68097 12.1437 8.625 12.2723 8.625Z" fill="#697586"/>
</svg>
