<svg width="29" height="25" viewBox="0 0 29 25" fill="none" xmlns="http://www.w3.org/2000/svg">
<path d="M6.46191 0.918945C6.74254 0.899698 6.99107 1.10305 7.02539 1.40332V1.4043C7.05948 1.70773 7.07123 2.01496 7.08984 2.31445C7.14448 3.17021 7.19779 4.02666 7.25488 4.93262C9.50812 3.04015 12.0944 2.10935 15.04 2.25488C17.9783 2.39982 20.4515 3.56747 22.5166 5.68555C22.5163 5.42157 22.5154 5.1893 22.5166 4.95801C22.5289 3.12244 23.7549 1.50897 25.5723 1.07324C26.2261 0.916243 26.9342 0.948009 27.5957 0.924805C27.7336 0.919992 27.8481 0.971204 27.9307 1.05957C28.0116 1.14613 28.0581 1.26452 28.0752 1.39062L28.0811 1.59473C28.0811 8.4151 28.0816 15.2355 28.0801 22.0566C28.0801 23.095 27.3682 23.896 26.3682 23.9854C25.2772 24.0821 24.3265 23.2483 24.3193 22.1562C24.3088 20.6229 24.3164 19.0891 24.3164 17.5566V17.5234C22.4921 20.9127 19.7047 22.9854 15.8115 23.4502C11.8738 23.9204 8.63563 22.5249 6.02734 19.6084V19.6973C6.02734 20.5042 6.03313 21.3132 6.02637 22.1221C6.01754 23.1815 5.18456 23.996 4.12988 23.9893C3.08894 23.9823 2.26708 23.1684 2.26465 22.1191C2.25939 19.3758 2.26525 16.6277 2.26074 13.8848C2.26034 13.7172 2.29505 13.571 2.38281 13.457C2.45956 13.3575 2.57051 13.2916 2.71191 13.2539L2.70508 9.06543C2.70459 9.06353 2.70374 9.05817 2.69922 9.0498C2.69282 9.03796 2.68185 9.02384 2.66895 9.00977C2.64121 8.97966 2.6123 8.96115 2.59766 8.95703C2.04444 8.80069 1.60714 8.51477 1.31738 8.12012C1.02758 7.72526 0.889203 7.22719 0.922852 6.65625C1.02507 4.93397 1.1446 3.21185 1.25879 1.49023C1.27008 1.31816 1.3309 1.17045 1.43262 1.06738C1.53523 0.963413 1.67495 0.908995 1.83008 0.918945C1.98541 0.929094 2.11635 0.993447 2.2041 1.1084C2.29075 1.22208 2.32835 1.37668 2.31738 1.55566C2.23549 2.89276 2.15499 4.23178 2.05273 5.56836C2.04381 5.68739 2.05668 5.76266 2.08691 5.8125C2.10808 5.84736 2.14282 5.87802 2.2041 5.90137L2.27441 5.92188L3.61426 6.21973V1.61719C3.61426 1.54506 3.60618 1.44297 3.625 1.35254C3.65107 1.22761 3.70663 1.12023 3.79395 1.04297C3.88172 0.965321 3.99574 0.923766 4.12891 0.919922H4.12988C4.27018 0.916265 4.39144 0.953441 4.48535 1.03125C4.57882 1.10876 4.63757 1.22053 4.66602 1.35156C4.68804 1.4514 4.67773 1.56436 4.67773 1.64355V6.17188C5.19721 6.14578 5.67929 6.07085 6.12793 5.86621L6.16113 5.83984C6.17369 5.82646 6.18736 5.8085 6.2002 5.78613C6.22572 5.7416 6.23665 5.69983 6.23535 5.67773C6.16324 4.44173 6.07607 3.20588 5.99414 1.96973C5.98288 1.80514 5.9719 1.6368 5.97266 1.46875C5.97308 1.31819 6.02174 1.18523 6.10938 1.08691C6.19712 0.988639 6.32022 0.929837 6.46191 0.919922V0.918945ZM3.3291 17.0273C3.3291 18.7064 3.33091 20.3851 3.32715 22.0645C3.32679 22.2517 3.36338 22.4107 3.43848 22.542C3.51328 22.6726 3.62961 22.7819 3.79883 22.8643C4.35407 23.1337 4.96415 22.7358 4.96484 22.0752C4.96785 19.5154 4.9656 16.9554 4.96484 14.3955C4.96483 14.3671 4.96172 14.3401 4.95898 14.3086H3.3291V17.0273ZM25.3818 16.6953C25.3818 18.4841 25.3846 20.2744 25.3809 22.0635C25.3806 22.2507 25.4165 22.4096 25.4912 22.541C25.5657 22.6718 25.6815 22.781 25.8506 22.8633C26.4052 23.1334 27.0167 22.7365 27.0176 22.0771C27.0206 19.5174 27.0193 16.9573 27.0186 14.3975C27.0186 14.3683 27.016 14.341 27.0137 14.3096H25.3818V16.6953ZM15.3691 3.33496C12.3635 3.07454 9.77758 4.02455 7.59277 6.05957C7.49878 6.14714 7.43867 6.22946 7.40332 6.31836C7.36794 6.40736 7.35482 6.50921 7.36328 6.63867C7.40224 7.21867 7.27118 7.71726 6.98242 8.11328C6.6939 8.50896 6.25298 8.79421 5.68652 8.95996L5.6875 8.96094C5.67784 8.96382 5.6514 8.98181 5.62402 9.01953C5.59692 9.05699 5.58607 9.09057 5.58594 9.10352C5.57704 10.4789 5.57905 11.8549 5.5791 13.252C5.74546 13.3184 5.86448 13.3807 5.93652 13.4834C6.01631 13.5974 6.02893 13.7462 6.0293 13.9492C6.03005 15.1523 6.02517 16.3535 6.03418 17.5557C6.03486 17.6806 6.07207 17.8216 6.1377 17.918C8.40028 21.2709 11.5896 22.8845 15.6562 22.4072C17.7025 22.1672 19.406 21.4685 20.7695 20.3564C22.1331 19.2443 23.1614 17.7151 23.8516 15.8086C24.0264 15.3257 24.1099 14.8185 24.2324 14.3096C24.2284 14.308 24.2248 14.3068 24.2217 14.3057C24.2072 14.3002 24.2071 14.3011 24.2119 14.3018C23.8852 14.2996 23.5592 14.2986 23.2324 14.2979C22.9833 14.2971 22.7934 14.2662 22.6719 14.1475C22.5497 14.028 22.5176 13.8406 22.5176 13.5957C22.5168 11.5853 22.5207 9.57631 22.5117 7.56641C22.5111 7.43925 22.4648 7.289 22.3906 7.19238C20.6232 4.90683 18.2883 3.58744 15.3691 3.33496ZM3.79102 13.2373H4.49805V9.03027H3.79102V13.2373ZM26.5078 1.97266C26.3173 1.98754 26.1335 2.00767 25.9561 2.04785C24.5325 2.37043 23.5869 3.55586 23.584 5.00879C23.578 7.70753 23.582 10.4054 23.582 13.1045V13.2324H27.0049V1.93457C26.836 1.94923 26.6678 1.96017 26.5078 1.97266ZM1.99805 6.94727C2.0079 7.47432 2.44822 7.93966 3.01465 7.95703C3.77127 7.97978 4.5301 7.981 5.28711 7.95605C5.85537 7.93729 6.29801 7.45493 6.29199 6.94824C4.86158 7.34965 3.42967 7.35475 1.99805 6.94727Z" fill="#828080" stroke="#828080" stroke-width="0.163646"/>
<path d="M25.3003 14.2279C25.9173 14.2279 26.4944 14.2279 27.0903 14.2279C27.0941 14.2919 27.1001 14.3449 27.1001 14.3971C27.1008 16.957 27.1023 19.5169 27.0993 22.0768C27.0986 22.7903 26.4298 23.2361 25.8151 22.9367C25.4506 22.7587 25.2981 22.4579 25.2988 22.0628C25.3026 20.2738 25.3003 18.4841 25.3003 16.6951C25.3003 15.8801 25.3003 15.065 25.3003 14.2279Z" fill="white"/>
<path d="M14.4844 5.7616C18.5255 5.76542 21.7863 8.96276 21.7812 12.9227C21.7759 16.83 18.5018 20.0262 14.5117 20.0262C10.482 20.0247 7.21835 16.8388 7.21582 12.8934C7.21354 8.9657 10.4849 5.75788 14.4844 5.7616ZM14.5459 6.80554C11.0919 6.79334 8.28991 9.50855 8.28027 12.8671C8.27085 16.2132 11.0366 18.9622 14.4365 18.9803C17.9009 18.9985 20.7037 16.2836 20.7178 12.9042C20.7317 9.57308 17.9469 6.81861 14.5459 6.80554Z" fill="#828080" stroke="#828080" stroke-width="0.163646"/>
</svg>
