<svg width="30" height="30" viewBox="0 0 30 30" fill="none" xmlns="http://www.w3.org/2000/svg">
<rect x="0.75" y="0.75" width="28.5" height="28.5" rx="7.25" stroke="#FD985F" stroke-width="1.5"/>
<path d="M14.9995 6C15.6212 6 16.1254 6.576 16.1254 7.28588V8.57175H16.1284C17.9965 8.57175 19.5 10.2975 19.5 12.4282C19.5 13.1381 18.9958 13.7141 18.3751 13.7141C17.7535 13.7141 17.2503 13.1392 17.2503 12.4282C17.2503 11.7127 16.7501 11.1424 16.1284 11.1424H13.5881C13.363 11.1459 13.1485 11.2485 12.9913 11.4275C12.8342 11.6065 12.7473 11.8474 12.7497 12.0975C12.7497 12.5745 12.8419 12.7073 12.8621 12.7354C12.8986 12.786 12.9958 12.8827 13.3178 13.0087L17.3991 14.5545C17.875 14.7379 18.445 15.0315 18.8763 15.6322C19.3238 16.2555 19.5 17.0329 19.5 17.9025C19.5 19.851 18.1139 21.4283 16.4119 21.4283H16.1254V22.7141C16.1254 23.424 15.6212 24 14.9995 24C14.3788 24 13.8756 23.424 13.8756 22.7141V21.4283H13.8716C12.0035 21.4283 10.5 19.7036 10.5 17.5718C10.5 16.8619 11.0032 16.2859 11.6249 16.2859C12.2465 16.2859 12.7497 16.8608 12.7497 17.5718C12.7497 18.2873 13.2499 18.8576 13.8716 18.8576H16.4119C16.637 18.8541 16.8515 18.7515 17.0087 18.5725C17.1658 18.3935 17.2527 18.1526 17.2503 17.9025C17.2503 17.4255 17.1581 17.2927 17.1379 17.2646C17.1014 17.214 17.0042 17.1173 16.6822 16.9913L12.6009 15.4455C12.125 15.2621 11.555 14.9685 11.1237 14.3678C10.6762 13.7445 10.5 12.9671 10.5 12.0975C10.5 10.149 11.8861 8.57175 13.5881 8.57175H13.8746V7.28588C13.8746 6.576 14.3788 6 14.9995 6Z" fill="#FD985F"/>
</svg>
