<svg width="12" height="12" viewBox="0 0 12 12" fill="none" xmlns="http://www.w3.org/2000/svg">
<path d="M6 8.68125C5.9 8.68125 5.80624 8.66575 5.71875 8.63475C5.63125 8.60375 5.55 8.5505 5.475 8.475L2.775 5.775C2.625 5.625 2.553 5.45 2.559 5.25C2.565 5.05 2.637 4.875 2.775 4.725C2.925 4.575 3.10325 4.497 3.30975 4.491C3.51625 4.485 3.69425 4.55675 3.84375 4.70625L5.25 6.1125V0.750002C5.25 0.537502 5.322 0.359503 5.466 0.216003C5.61 0.0725026 5.788 0.000502586 6 2.5862e-06C6.212 -0.000497414 6.39024 0.0715026 6.53474 0.216003C6.67924 0.360503 6.75099 0.538502 6.74999 0.750002V6.1125L8.15624 4.70625C8.30624 4.55625 8.48449 4.48425 8.69099 4.49025C8.89749 4.49625 9.07549 4.5745 9.22499 4.725C9.36249 4.875 9.43449 5.05 9.44099 5.25C9.44749 5.45 9.37549 5.625 9.22499 5.775L6.52499 8.475C6.44999 8.55 6.36874 8.60325 6.28125 8.63475C6.19375 8.66625 6.1 8.68175 6 8.68125ZM1.5 12C1.0875 12 0.734499 11.8532 0.440999 11.5597C0.1475 11.2662 0.0005 10.913 0 10.5V9C0 8.7875 0.072 8.6095 0.216 8.466C0.36 8.3225 0.538 8.2505 0.749999 8.25C0.961999 8.2495 1.14025 8.3215 1.28475 8.466C1.42925 8.6105 1.501 8.7885 1.5 9V10.5H10.5V9C10.5 8.7875 10.572 8.6095 10.716 8.466C10.86 8.3225 11.038 8.2505 11.25 8.25C11.462 8.2495 11.6402 8.3215 11.7847 8.466C11.9292 8.6105 12.001 8.7885 12 9V10.5C12 10.9125 11.8532 11.2657 11.5597 11.5597C11.2662 11.8537 10.913 12.0005 10.5 12H1.5Z" fill="#FD985F"/>
</svg>
