<svg width="21" height="12" viewBox="0 0 21 12" fill="none" xmlns="http://www.w3.org/2000/svg">
<g clip-path="url(#clip0_78_1750)">
<path d="M3.81043 10.3992C5.52951 8.94162 7.24798 7.48407 8.99747 6.00063C7.26075 4.52742 5.53802 3.06565 3.77089 1.56655C3.75872 1.73332 3.74838 1.84771 3.74291 1.9627C3.73196 2.19448 3.74473 2.42988 3.70823 2.65746C3.67295 2.87781 3.45578 3.01507 3.23984 3.00183C3.02084 2.98798 2.81219 2.82242 2.80794 2.60929C2.80064 2.23542 2.78056 1.85312 2.84504 1.48768C2.99773 0.621336 3.735 0.0289217 4.62313 0.00303367C4.68396 0.00122753 4.74479 2.34358e-05 4.80501 2.34358e-05C9.53339 2.34358e-05 14.2618 -0.000578611 18.9901 2.34358e-05C19.9348 2.34358e-05 20.6393 0.462997 20.8941 1.27395C20.9647 1.49912 20.9933 1.74536 20.9939 1.98196C21.0006 4.66288 21 7.34439 20.9969 10.0253C20.9957 11.0349 20.4178 11.77 19.478 11.9657C19.3387 11.9946 19.1915 11.9976 19.0485 11.9976C14.2818 11.9994 9.51575 12.0006 4.74905 11.9976C3.74169 11.997 2.99469 11.4094 2.83044 10.4582C2.77022 10.1072 2.79516 9.73934 2.80794 9.38052C2.81524 9.17642 3.01415 9.01929 3.22584 9.00002C3.43449 8.98076 3.64071 9.10538 3.70093 9.30827C3.73256 9.41423 3.73682 9.52982 3.73926 9.6412C3.74473 9.88503 3.74108 10.1289 3.74108 10.3727C3.7648 10.3817 3.78731 10.3908 3.81043 10.3992ZM4.49295 0.944033C4.58298 1.02471 4.63164 1.07046 4.68213 1.11321C6.942 3.02651 9.20247 4.93982 11.4623 6.85252C11.8036 7.1415 11.9885 7.14271 12.3346 6.84951C14.572 4.95607 16.8087 3.06203 19.0455 1.16799C19.1185 1.10598 19.1891 1.04096 19.2992 0.944033C14.35 0.944033 9.45248 0.944033 4.49295 0.944033ZM4.48747 11.0524C9.4464 11.0524 14.3463 11.0524 19.3052 11.0524C17.5308 9.54608 15.8008 8.07829 14.0653 6.60508C13.6267 6.98256 13.2143 7.34801 12.7909 7.6996C12.2464 8.15234 11.5408 8.14692 11.0006 7.6984C10.8899 7.60689 10.7829 7.51176 10.674 7.41784C10.3601 7.14933 10.0468 6.88022 9.72561 6.60568C7.98159 8.08672 6.25643 9.5509 4.48747 11.0524ZM20.0273 1.56173C18.2565 3.06384 16.532 4.52621 14.7946 6.00063C16.5405 7.48166 18.2614 8.94042 20.0273 10.4383C20.0273 7.4648 20.0273 4.54367 20.0273 1.56173Z" fill="black"/>
<path d="M2.56217 7.62014C1.89425 7.62014 1.22693 7.62134 0.559012 7.61954C0.217752 7.61893 0.00545248 7.44193 -2.22931e-05 7.16078C-0.00549706 6.873 0.21471 6.68335 0.566312 6.68275C1.90155 6.68094 3.23739 6.68094 4.57263 6.68275C4.9151 6.68335 5.12436 6.86276 5.12801 7.14573C5.13166 7.44434 4.92727 7.61833 4.56533 7.61954C3.89741 7.62134 3.23009 7.62014 2.56217 7.62014Z" fill="black"/>
<path d="M3.26477 4.37982C3.71248 4.37982 4.16081 4.37741 4.60852 4.38042C4.9218 4.38283 5.11889 4.55742 5.1268 4.82895C5.13531 5.1101 4.93518 5.31299 4.61947 5.3154C3.71613 5.32082 2.8128 5.32082 1.90946 5.3154C1.60044 5.31359 1.38206 5.09686 1.39422 4.82955C1.40517 4.57067 1.62112 4.38283 1.92102 4.38102C2.36934 4.37741 2.81705 4.37982 3.26477 4.37982Z" fill="black"/>
<path d="M4.49298 0.944092C9.45251 0.944092 14.3494 0.944092 19.2986 0.944092C19.1891 1.04102 19.1185 1.10604 19.0449 1.16805C16.8082 3.06209 14.5714 4.95613 12.3341 6.84957C11.9879 7.14277 11.803 7.14156 11.4618 6.85258C9.20189 4.93928 6.94142 3.02657 4.68156 1.11327C4.63168 1.07052 4.58301 1.02537 4.49298 0.944092Z" fill="#F28B24"/>
</g>
<defs>
<clipPath id="clip0_78_1750">
<rect width="21" height="12" fill="white"/>
</clipPath>
</defs>
</svg>
