<svg width="30" height="30" viewBox="0 0 30 30" fill="none" xmlns="http://www.w3.org/2000/svg">
<g clip-path="url(#clip0_511_827)">
<path d="M14.5342 9.51807C15.7506 9.43657 16.9229 9.67279 18.0625 10.1558C19.7077 10.8532 21.1271 11.9006 22.3984 13.1714L22.3994 13.1724C22.9259 13.6969 23.404 14.267 23.9141 14.856V14.8569C23.9868 14.9418 23.9998 14.9846 24.002 14.9956C24.0011 15.0028 23.9921 15.0523 23.9043 15.1636C22.5851 16.8187 21.0663 18.2259 19.2383 19.272C17.8095 20.0892 16.315 20.5643 14.6934 20.4956C13.7151 20.4531 12.7791 20.2179 11.8779 19.8286L11.4941 19.6528C9.46588 18.6648 7.80564 17.2234 6.36426 15.4897L6.0791 15.1392C6.0704 15.1279 6.05665 15.1065 6.0332 15.0601C6.02805 15.0498 6.01814 15.0305 6.00684 15.0073C6.02906 14.9674 6.0508 14.9315 6.06543 14.9058C6.10494 14.8364 6.1353 14.7883 6.16504 14.7515C7.47299 13.1289 8.97889 11.7488 10.7803 10.7212C11.9598 10.0486 13.1988 9.60505 14.5332 9.51807H14.5342ZM15.3213 9.75732C14.0448 9.69773 12.8692 9.99973 11.7686 10.4995L11.3018 10.7251C9.92371 11.4309 8.74241 12.3805 7.67676 13.4478C7.28689 13.8342 6.91242 14.2595 6.55078 14.647L6.24805 14.9702L6.5332 15.3101C6.57743 15.3627 6.65698 15.4641 6.72656 15.5366L6.73047 15.5405C7.28854 16.1096 7.86965 16.7491 8.49414 17.3149V17.3159C9.70908 18.413 11.0758 19.3229 12.6807 19.8647H12.6816C13.6534 20.1907 14.6597 20.335 15.7051 20.2222C16.8643 20.0962 17.918 19.7077 18.8975 19.1782L19.3135 18.9429C20.7378 18.0975 21.9466 17.0121 23.0322 15.813L23.0332 15.812C23.1753 15.6543 23.3179 15.484 23.459 15.3208L23.7529 14.981L23.4473 14.6528C23.094 14.2735 22.736 13.8717 22.3643 13.4976C21.1126 12.2373 19.7051 11.1351 18.0156 10.4097C17.1698 10.0467 16.2741 9.80173 15.3213 9.75732Z" fill="#FD985F" stroke="#919191"/>
<path d="M15.0186 11.7794C16.828 11.8009 18.2661 13.2508 18.252 15.0109V15.0118C18.24 16.797 16.7697 18.2388 14.9775 18.2198C13.166 18.198 11.731 16.7494 11.7451 14.9894V14.9884C11.7571 13.2035 13.2268 11.761 15.0186 11.7794ZM15.0156 12.0197C13.3631 12.0007 11.9929 13.3578 11.9961 15.005C11.9994 16.6527 13.3445 17.9802 14.9961 17.9835C16.6449 17.9868 17.991 16.6577 18.001 15.0099C18.011 13.3637 16.6688 12.036 15.0156 12.0197Z" fill="#FD985F" stroke="#919191"/>
</g>
<rect x="0.75" y="0.75" width="28.5" height="28.5" rx="7.25" stroke="#919191" stroke-width="1.5"/>
<defs>
<clipPath id="clip0_511_827">
<rect width="19" height="12" fill="white" transform="translate(5.5 9)"/>
</clipPath>
</defs>
</svg>
