<svg width="21" height="16" viewBox="0 0 21 16" fill="none" xmlns="http://www.w3.org/2000/svg">
<g clip-path="url(#clip0_2650_34195)">
<path d="M0 7.83271C1.8795 4.68249 4.466 2.46737 8.05 1.61404C10.402 1.05226 12.705 1.2976 14.9275 2.26826C15.0885 2.33937 15.176 2.31449 15.2915 2.1936C15.932 1.52871 16.583 0.874486 17.2305 0.216708C17.4195 0.0247079 17.6435 -0.0499588 17.906 0.031819C18.151 0.106486 18.3015 0.277152 18.354 0.526041C18.4135 0.796263 18.3085 1.0096 18.1195 1.19804C17.234 2.09404 16.3485 2.9936 15.4665 3.89315C11.592 7.83271 7.7175 11.7687 3.843 15.7083C3.654 15.9003 3.451 16.0389 3.1745 15.9892C2.919 15.9429 2.7405 15.79 2.66 15.534C2.576 15.2709 2.6425 15.0398 2.8315 14.8478C3.3775 14.2932 3.9235 13.7385 4.4695 13.1838C4.522 13.1305 4.585 13.0843 4.6655 13.0167C2.7195 11.758 1.141 10.1758 0 8.16693C0 8.05671 0 7.94293 0 7.83271ZM7.2695 10.2967C6.0375 8.45137 6.5555 6.33582 7.728 5.15537C8.8935 3.9856 10.9585 3.47715 12.7365 4.70026C13.181 4.24871 13.622 3.80071 14.0595 3.35626C14.0665 3.35982 14.049 3.3456 14.0315 3.33849C11.7775 2.47093 9.5095 2.4176 7.238 3.23893C4.816 4.11715 2.975 5.75626 1.512 7.86826C1.4385 7.97493 1.456 8.04604 1.5225 8.13848C2.0755 8.9456 2.709 9.6816 3.4195 10.3465C4.095 10.9794 4.8265 11.534 5.6105 11.982C6.1705 11.4167 6.72 10.8585 7.2695 10.2967ZM8.2495 9.31182C9.436 8.10649 10.612 6.91182 11.788 5.71715C11.053 5.18026 9.6565 5.12337 8.6765 6.08337C7.707 7.03626 7.6825 8.46204 8.2495 9.31182Z" fill="#4B5565"/>
<path d="M20.9991 8.16755C19.1931 11.204 16.7081 13.3693 13.2921 14.308C11.3006 14.852 9.30556 14.7844 7.32456 14.1978C7.30006 14.1907 7.27556 14.1729 7.22656 14.148C7.57306 13.796 7.90906 13.4547 8.25206 13.1204C8.28706 13.0884 8.36756 13.0849 8.42356 13.0956C11.6996 13.7924 14.5696 12.9178 17.1141 10.788C18.0276 10.0236 18.8046 9.13467 19.4801 8.14978C19.5536 8.04311 19.5571 7.96844 19.4801 7.86178C18.7031 6.74178 17.7931 5.75333 16.7256 4.91422C16.6661 4.868 16.6066 4.82178 16.5471 4.772C16.5366 4.76489 16.5331 4.75066 16.5331 4.75066C16.8446 4.43422 17.1491 4.12133 17.4781 3.78711C18.8886 4.90711 20.0961 6.23333 20.9991 7.83689C20.9991 7.94355 20.9991 8.05733 20.9991 8.16755Z" fill="#4B5565"/>
<path d="M9.5 11.8361C9.885 11.4486 10.2595 11.0645 10.641 10.6912C10.6795 10.6521 10.753 10.6379 10.809 10.6308C12.0305 10.4672 12.937 9.54988 13.091 8.31611C13.098 8.25566 13.1085 8.18099 13.147 8.14188C13.518 7.75433 13.896 7.37744 14.274 6.98633C14.638 7.99966 14.407 9.63166 13.343 10.7588C12.23 11.9463 10.5885 12.213 9.5 11.8361Z" fill="#4B5565"/>
<path d="M8.25027 9.31167C7.68327 8.4619 7.70777 7.03612 8.67727 6.08323C9.65727 5.11967 11.0538 5.17656 11.7888 5.71701C10.6128 6.91167 9.43677 8.10634 8.25027 9.31167Z" fill="white"/>
</g>
<defs>
<clipPath id="clip0_2650_34195">
<rect width="21" height="16" fill="white"/>
</clipPath>
</defs>
</svg>
