<svg width="30" height="30" viewBox="0 0 30 30" fill="none" xmlns="http://www.w3.org/2000/svg">
<rect x="0.75" y="0.75" width="28.5" height="28.5" rx="7.25" stroke="#FD985F" stroke-width="1.5"/>
<g clip-path="url(#clip0_511_840)">
<path d="M5.5 14.8895C5.59111 14.7389 5.66565 14.5747 5.77608 14.4379C7.11508 12.7768 8.66667 11.351 10.533 10.2865C11.7616 9.58592 13.0729 9.11249 14.5003 9.01944C15.8062 8.93187 17.0568 9.18638 18.2578 9.69538C19.975 10.4233 21.4465 11.5125 22.7524 12.8178C23.2963 13.3597 23.7905 13.9508 24.2929 14.531C24.5773 14.8621 24.5663 15.133 24.2957 15.4751C22.9457 17.169 21.3803 18.6222 19.4863 19.7059C17.9983 20.557 16.4108 21.0687 14.6715 20.9948C13.476 20.9428 12.3468 20.6226 11.2756 20.1027C9.02833 19.008 7.22828 17.3825 5.68774 15.4505C5.60767 15.3492 5.56074 15.2233 5.5 15.1111C5.5 15.0372 5.5 14.9633 5.5 14.8895ZM6.9163 14.988C6.98532 15.0701 7.03226 15.133 7.08747 15.1905C7.66449 15.7789 8.21941 16.3918 8.82956 16.9446C10.0084 18.0092 11.3171 18.8767 12.841 19.3912C13.7549 19.6977 14.688 19.829 15.6516 19.725C16.8856 19.5909 18.0038 19.1367 19.0584 18.5127C20.4278 17.6999 21.5984 16.6518 22.6613 15.4778C22.7993 15.3246 22.9319 15.1659 23.0809 14.9934C22.7165 14.6021 22.3742 14.2163 22.0097 13.8495C20.7867 12.6181 19.4311 11.5617 17.8188 10.8694C17.0154 10.5246 16.1789 10.2974 15.2982 10.2564C13.9509 10.1934 12.7113 10.5656 11.5296 11.1704C10.21 11.8464 9.06975 12.7604 8.02892 13.803C7.64792 14.1807 7.29178 14.5857 6.9163 14.988Z" fill="#FD985F"/>
<path d="M18.7519 15.0151C18.7381 17.0785 17.0402 18.7423 14.9724 18.7205C12.8935 18.6958 11.2287 17.0292 11.2452 14.985C11.259 12.9216 12.957 11.2577 15.0248 11.2796C17.101 11.3043 18.7685 12.9709 18.7519 15.0151ZM17.5013 15.0069C17.5096 13.6441 16.3969 12.533 15.011 12.5193C13.6361 12.5029 12.4931 13.6358 12.4959 15.0041C12.4987 16.3724 13.6168 17.4808 14.9972 17.4835C16.3721 17.4862 17.493 16.3779 17.5013 15.0069Z" fill="#FD985F"/>
</g>
<defs>
<clipPath id="clip0_511_840">
<rect width="19" height="12" fill="white" transform="translate(5.5 9)"/>
</clipPath>
</defs>
</svg>
