<svg width="53" height="48" viewBox="0 0 53 48" fill="none" xmlns="http://www.w3.org/2000/svg">
<path d="M29.6794 47.4784C42.5587 47.4784 52.9994 36.85 52.9994 23.7392C52.9994 10.6284 42.5587 0 29.6794 0C16.8001 0 6.35938 10.6284 6.35938 23.7392C6.35938 36.85 16.8001 47.4784 29.6794 47.4784Z" fill="#FF4848"/>
<path d="M23.2973 46.981C35.8319 46.981 45.9931 36.6371 45.9931 23.8772C45.9931 11.1174 35.8319 0.773438 23.2973 0.773438C10.7628 0.773438 0.601562 11.1174 0.601562 23.8772C0.601562 36.6371 10.7628 46.981 23.2973 46.981Z" fill="white"/>
<path d="M46.8638 23.0677V25.064C46.8579 25.1059 46.8461 25.1419 46.8461 25.1839C46.8343 25.9212 46.7637 26.6526 46.6694 27.384C46.5517 28.3251 46.375 29.2603 46.1453 30.1835C45.6742 32.0539 44.9734 33.8343 44.0666 35.5308C43.0301 37.4611 41.7581 39.2056 40.2564 40.7882C39.4202 41.6695 38.5251 42.4787 37.5652 43.2161C35.8162 44.5589 33.92 45.62 31.8766 46.4173C30.5987 46.9149 29.2913 47.2985 27.9487 47.5563C27.2597 47.6882 26.5707 47.7961 25.8758 47.856C25.2987 47.904 24.7216 47.94 24.1444 47.9819C24.0384 47.9879 23.9324 47.9999 23.8264 48.0059H23.055C23.055 48.0059 23.002 47.9879 22.9726 47.9879C22.3954 47.952 21.8183 47.928 21.2412 47.88C20.5463 47.8261 19.8514 47.7182 19.1683 47.5923C18.0318 47.3765 16.9129 47.0827 15.8176 46.6931C13.9449 46.0336 12.1782 45.1644 10.5234 44.0494C8.94522 42.9883 7.52011 41.7414 6.24222 40.3326C4.76411 38.708 3.53922 36.9036 2.56167 34.9254C1.908 33.6005 1.38389 32.2277 0.971667 30.807C0.577111 29.4581 0.306222 28.0793 0.153111 26.6826C0.0824444 26.0112 0.0471111 25.3337 0.0235556 24.6563C0.0235556 24.6264 0.0117778 24.5964 0 24.5604V23.7511C0.00588889 23.7212 0.0176667 23.6912 0.0235556 23.6552C0.053 22.9778 0.0824444 22.3004 0.153111 21.629C0.318 20.0704 0.630111 18.5357 1.10122 17.043C1.99044 14.2255 3.32133 11.6477 5.12922 9.33375C5.64156 8.68032 6.18333 8.05686 6.76044 7.46338C7.79689 6.39032 8.91578 5.41917 10.1289 4.56192C11.8779 3.32101 13.7623 2.36185 15.7763 1.66046C16.8599 1.28279 17.9552 0.989047 19.08 0.767241C19.6748 0.653341 20.2813 0.569414 20.882 0.503472C21.5592 0.431535 22.2306 0.377582 22.9078 0.359598C23.7204 0.341613 24.5272 0.341613 25.3399 0.401561C27.0712 0.527451 28.7613 0.851168 30.4161 1.3847C32.3712 2.01415 34.2144 2.89538 35.934 4.04038C36.4463 4.38208 36.9528 4.72977 37.4533 5.08946C37.6241 5.20935 37.7772 5.35323 37.9244 5.4971C38.16 5.7309 38.1777 6.00666 38.001 6.28841C37.8126 6.58215 37.5299 6.68406 37.2296 6.57016C37.047 6.49823 36.8821 6.39632 36.7231 6.27642C35.5689 5.40718 34.3499 4.63985 33.0543 3.99841C31.7647 3.35698 30.4279 2.85342 29.0381 2.48174C28.1783 2.25394 27.3068 2.0741 26.4234 1.9542C25.811 1.87028 25.1986 1.81632 24.5861 1.78635C23.9266 1.75638 23.2729 1.75038 22.6133 1.78035C21.7418 1.81632 20.8761 1.90624 20.0104 2.04412C17.8198 2.39781 15.7351 3.08721 13.7388 4.07635C11.925 4.97556 10.2643 6.10257 8.75678 7.47537C6.784 9.2678 5.17044 11.348 3.93967 13.7339C3.03278 15.5023 2.37911 17.3667 1.94922 19.315C1.75489 20.1843 1.61356 21.0595 1.537 21.9407C1.49578 22.4143 1.47222 22.8879 1.45456 23.3615C1.42511 24.1108 1.44278 24.8602 1.48989 25.6035C1.54878 26.5807 1.66656 27.5518 1.84911 28.517C2.18478 30.2974 2.72656 32.0119 3.49211 33.6485C4.20467 35.1891 5.088 36.6219 6.11856 37.9647C6.73689 38.774 7.40233 39.5353 8.12078 40.2547C9.60478 41.7354 11.2596 42.9703 13.1028 43.9535C15.0049 44.9726 17.0189 45.674 19.1212 46.1236C19.9162 46.2974 20.723 46.4173 21.5357 46.4952C22.4072 46.5792 23.2788 46.5971 24.1503 46.5672C25.0808 46.5312 26.0053 46.4473 26.924 46.2974C28.8673 45.9857 30.74 45.4222 32.5361 44.5889C34.0319 43.8935 35.4393 43.0482 36.7526 42.0471C37.4651 41.5016 38.1482 40.9141 38.7901 40.2787C40.4567 38.6361 41.8406 36.7717 42.93 34.6856C43.725 33.1689 44.3198 31.5743 44.7497 29.9077C44.9793 29.0145 45.1619 28.1153 45.2856 27.2041C45.4033 26.3589 45.4799 25.5076 45.4976 24.6503C45.4976 24.3926 45.5152 24.1348 45.5152 23.883C45.5034 23.0857 45.4681 22.2944 45.3798 21.5031C45.1148 19.1352 44.4611 16.8871 43.4541 14.735C42.7828 13.3023 41.9583 11.9654 41.0338 10.6886C40.8924 10.4907 40.7511 10.2809 40.6216 10.0711C40.5038 9.87327 40.4626 9.66346 40.5627 9.44165C40.6863 9.17189 40.9042 9.02202 41.1928 8.99804C41.3989 8.98006 41.5579 9.08796 41.6875 9.24382C41.8936 9.4956 42.1056 9.74739 42.294 10.0112C43.0242 11.0003 43.6543 12.0494 44.2256 13.1404C45.0441 14.717 45.6742 16.3656 46.1218 18.0921C46.375 19.0692 46.5634 20.0584 46.6871 21.0595C46.7637 21.6889 46.8284 22.3124 46.8343 22.9478C46.8343 22.9898 46.8461 23.0258 46.852 23.0677H46.8638ZM25.9582 22.5402C26.5236 21.9587 27.0889 21.3712 27.6542 20.7897C28.143 20.2862 28.6259 19.7826 29.1147 19.285C29.5622 18.8234 30.0039 18.3618 30.4514 17.9003C30.5398 17.8103 30.5928 17.6964 30.6222 17.5705C30.6222 17.5585 30.6281 17.5406 30.634 17.5286V17.3248C30.634 17.3248 30.6163 17.2828 30.6104 17.2588C30.5398 16.9831 30.3219 16.7912 30.0451 16.7553C30.0333 16.7553 30.0216 16.7493 30.0098 16.7433H29.9097C29.8743 16.7493 29.8449 16.7612 29.8096 16.7672C29.6859 16.7972 29.5799 16.8512 29.4916 16.9471C28.8143 17.6485 28.1312 18.3499 27.454 19.0512C27.1478 19.369 26.8416 19.6867 26.5353 19.9984C25.9347 20.6219 25.3281 21.2393 24.7274 21.8628C24.2976 22.3064 23.8736 22.75 23.4437 23.1876H23.4378C23.3259 23.0737 23.2081 22.9598 23.0962 22.8459C22.8666 22.6121 22.6369 22.3723 22.4072 22.1325C21.8713 21.581 21.3296 21.0235 20.7937 20.472C20.3049 19.9684 19.822 19.4649 19.3332 18.9673C18.7031 18.3139 18.0671 17.6665 17.4429 17.007C17.3016 16.8632 17.1484 16.7672 16.9482 16.7313H16.8481C16.8481 16.7313 16.7951 16.7433 16.7657 16.7493C16.483 16.8152 16.2828 17.025 16.2357 17.3188C16.2357 17.3307 16.2298 17.3367 16.2239 17.3487V17.4866C16.2298 17.5166 16.2416 17.5526 16.2474 17.5825C16.2769 17.7024 16.3358 17.8043 16.4182 17.8943C16.8481 18.3439 17.2839 18.7875 17.7138 19.2371C18.2909 19.8366 18.8739 20.436 19.451 21.0295C19.9339 21.5331 20.4227 22.0306 20.9056 22.5342C21.4238 23.0677 21.942 23.6073 22.4602 24.1408C22.4602 24.1408 22.472 24.1528 22.4779 24.1648C22.4426 24.2067 22.4013 24.2487 22.366 24.2847C21.8242 24.8422 21.2883 25.3997 20.7466 25.9572C20.1164 26.6106 19.4804 27.2641 18.8503 27.9175C18.3616 28.421 17.8787 28.9246 17.3899 29.4222C17.066 29.7579 16.7421 30.0936 16.4182 30.4233C16.3181 30.5252 16.2592 30.6511 16.2357 30.795C16.2357 30.807 16.2298 30.8189 16.2239 30.8309V30.9688C16.2239 30.9688 16.2357 31.0228 16.2416 31.0527C16.3063 31.3285 16.5124 31.5263 16.7833 31.5743C16.7951 31.5743 16.8069 31.5803 16.8187 31.5863H16.9659C16.9659 31.5863 17.0071 31.5743 17.0307 31.5683C17.1602 31.5383 17.2721 31.4784 17.3663 31.3885C17.6549 31.0947 17.9434 30.795 18.2261 30.5012C18.4558 30.2674 18.6796 30.0276 18.9092 29.7938C19.5806 29.0985 20.2578 28.4031 20.9291 27.7077C21.3826 27.2401 21.836 26.7725 22.2894 26.3049C22.6487 25.9332 23.0138 25.5615 23.373 25.1839C23.3907 25.1659 23.3966 25.1479 23.4083 25.1359C23.5673 25.2918 23.7204 25.4417 23.8677 25.5915C24.1032 25.8313 24.3329 26.0771 24.5684 26.3169C25.0984 26.8624 25.6343 27.4139 26.1643 27.9594C26.659 28.469 27.1478 28.9786 27.6424 29.4821C28.2431 30.1056 28.8497 30.729 29.4503 31.3525C29.5681 31.4724 29.6977 31.5503 29.8626 31.5743C29.8626 31.5743 29.8743 31.5803 29.8802 31.5863H30.0274C30.0687 31.5743 30.104 31.5683 30.1452 31.5563C30.3926 31.4724 30.5457 31.3045 30.6104 31.0467C30.6104 31.0348 30.6222 31.0228 30.6222 31.0048V30.801C30.5987 30.735 30.5869 30.6631 30.5516 30.6031C30.5103 30.5252 30.4573 30.4533 30.3984 30.3933C30.0039 29.9797 29.5976 29.566 29.203 29.1584C28.6377 28.5769 28.0782 27.9954 27.5129 27.4139C27.0241 26.9104 26.5412 26.4068 26.0524 25.9092C25.4989 25.3337 24.9453 24.7642 24.3918 24.1887C24.3859 24.1828 24.38 24.1708 24.3564 24.1468C24.4212 24.0868 24.486 24.0329 24.5508 23.9669C25.0219 23.4874 25.4871 23.0018 25.9523 22.5222L25.9582 22.5402Z" fill="black"/>
</svg>
