<svg width="18" height="18" viewBox="0 0 18 18" fill="none" xmlns="http://www.w3.org/2000/svg">
<path d="M9.00048 3.6001C9.37348 3.6001 9.67601 3.9457 9.67601 4.37162V5.14315H9.67783C10.7987 5.14315 11.7008 6.1786 11.7008 7.45705C11.7008 7.88297 11.3982 8.22857 11.0259 8.22857C10.6529 8.22857 10.3509 7.88365 10.3509 7.45705C10.3509 7.02775 10.0508 6.68552 9.67783 6.68552H8.15363C8.01861 6.68766 7.88985 6.74917 7.79557 6.85659C7.70129 6.964 7.64917 7.10856 7.65063 7.2586C7.65063 7.5448 7.70591 7.62445 7.71806 7.64132C7.73993 7.6717 7.79825 7.72975 7.99143 7.80535L10.4402 8.7328C10.7258 8.84282 11.0678 9.019 11.3266 9.37945C11.5951 9.7534 11.7008 10.2198 11.7008 10.7416C11.7008 11.9107 10.8691 12.857 9.84793 12.857H9.67601V13.6286C9.67601 14.0545 9.37348 14.4001 9.00048 14.4001C8.62808 14.4001 8.32616 14.0545 8.32616 13.6286V12.857H8.32373C7.20291 12.857 6.30078 11.8223 6.30078 10.5431C6.30078 10.1172 6.60271 9.77162 6.97571 9.77162C7.34871 9.77162 7.65063 10.1165 7.65063 10.5431C7.65063 10.9724 7.95073 11.3147 8.32373 11.3147H9.84793C9.98295 11.3125 10.1117 11.251 10.206 11.1436C10.3003 11.0362 10.3524 10.8916 10.3509 10.7416C10.3509 10.4554 10.2957 10.3757 10.2835 10.3589C10.2616 10.3285 10.2033 10.2704 10.0101 10.1948L7.56133 9.2674C7.27581 9.15737 6.93379 8.9812 6.675 8.62075C6.40649 8.2468 6.30078 7.78037 6.30078 7.2586C6.30078 6.0895 7.13244 5.14315 8.15363 5.14315H8.32555V4.37162C8.32555 3.9457 8.62808 3.6001 9.00048 3.6001Z" fill="#FD985F"/>
<rect x="0.45" y="0.45" width="17.1" height="17.1" rx="8.55" stroke="#FD985F" stroke-width="0.9"/>
</svg>
