<svg width="32" height="32" viewBox="0 0 32 32" fill="none" xmlns="http://www.w3.org/2000/svg">
<rect x="0.5" y="0.5" width="31" height="31" rx="3.5" fill="white"/>
<rect x="0.5" y="0.5" width="31" height="31" rx="3.5" stroke="#FD985F"/>
<rect width="16" height="14.5506" transform="translate(8 8.72461)" fill="white"/>
<path d="M8.94194 10.9098C8.3222 10.2172 8.01233 9.87084 8.00065 9.57651C7.99049 9.32082 8.10037 9.07508 8.29769 8.91216C8.52483 8.72461 8.98954 8.72461 9.91896 8.72461H22.081C23.0105 8.72461 23.4752 8.72461 23.7023 8.91216C23.8996 9.07508 24.0095 9.32082 23.9994 9.57651C23.9877 9.87084 23.6778 10.2172 23.0581 10.9098L18.3825 16.1355C18.2589 16.2736 18.1972 16.3426 18.1531 16.4212C18.114 16.4908 18.0854 16.5659 18.068 16.6438C18.0485 16.7318 18.0485 16.8244 18.0485 17.0097V21.391C18.0485 21.5512 18.0485 21.6313 18.0226 21.7006C17.9998 21.7618 17.9626 21.8167 17.9143 21.8606C17.8596 21.9103 17.7852 21.9401 17.6364 21.9996L14.8505 23.114C14.5493 23.2344 14.3988 23.2947 14.2779 23.2695C14.1722 23.2476 14.0794 23.1848 14.0198 23.0948C13.9515 22.9919 13.9515 22.8297 13.9515 22.5053V17.0097C13.9515 16.8244 13.9515 16.7318 13.932 16.6438C13.9146 16.5659 13.886 16.4908 13.8469 16.4212C13.8029 16.3426 13.7411 16.2736 13.6175 16.1355L8.94194 10.9098Z" stroke="#FD985F" stroke-width="1.6" stroke-linecap="round" stroke-linejoin="round"/>
<circle cx="20.4844" cy="19.7246" r="4.5" fill="#FD985F" stroke="white"/>
<rect x="21.5" y="18.0254" width="1" height="3.76755" rx="0.5" transform="rotate(45 21.5 18.0254)" fill="white"/>
<rect x="18.8359" y="18.7324" width="1" height="3.76755" rx="0.5" transform="rotate(-45 18.8359 18.7324)" fill="white"/>
</svg>
