<svg width="43" height="23" viewBox="0 0 43 23" fill="none" xmlns="http://www.w3.org/2000/svg">
<path d="M0 5.96468C0.221056 5.577 0.564204 5.39014 0.994484 5.28704C1.82331 5.08944 2.64407 4.85909 3.46483 4.62873C4.17748 4.42845 4.78041 4.59544 5.31718 5.09749C6.49185 6.19557 7.68049 7.27915 8.85462 8.37776C9.03964 8.5512 9.20422 8.59684 9.45217 8.52972C12.1221 7.80698 14.7952 7.09605 17.4667 6.38028C17.5592 6.35558 17.6474 6.31585 17.7808 6.26699C17.6157 6.16711 17.4876 6.08603 17.3569 6.01032C15.3115 4.83009 13.2671 3.64717 11.2179 2.47285C10.8667 2.27149 10.6118 2.01912 10.6032 1.59493C10.5946 1.1761 10.8753 0.772846 11.304 0.718076C13.2978 0.463022 15.2609 -0.0621218 17.2913 0.00392387C18.5408 0.0447326 19.7197 0.381941 20.8218 0.964539C21.7479 1.45424 22.6591 1.97348 23.5734 2.4852C23.9429 2.69193 24.0677 2.9996 23.8827 3.26594C23.6562 3.59079 23.3685 3.52743 23.0705 3.3599C22.2906 2.92228 21.5016 2.4997 20.7271 2.05349C19.0587 1.09287 17.2757 0.81097 15.3857 1.11113C14.2455 1.29208 13.1031 1.46337 11.8822 1.65131C12.0435 1.75709 12.1398 1.82635 12.242 1.88542C14.4574 3.16391 16.6701 4.44617 18.8947 5.70855C19.0743 5.81057 19.3508 5.84655 19.5508 5.79393C23.9279 4.64216 28.3049 3.48985 32.6722 2.30049C34.5084 1.80058 36.2468 1.96167 37.9033 2.87772C38.6859 3.3105 39.4583 3.72557 40.3473 3.928C41.1025 4.09983 41.7726 4.49771 42.3218 5.06474C43.0893 5.85729 43.2103 6.7873 42.6612 7.74791C42.1846 8.58127 41.4666 9.18749 40.6001 9.52578C39.3948 9.99669 38.1502 10.379 36.9024 10.7264C34.1976 11.4792 31.4782 12.1805 28.7707 12.9231C28.5587 12.9811 28.3275 13.1583 28.2118 13.3457C27.3314 14.7713 26.4708 16.2093 25.6162 17.651C24.5588 19.4342 23.0711 20.7068 21.1386 21.4634C19.9548 21.9263 18.7731 22.3945 17.5893 22.8573C16.9934 23.0904 16.6206 23.0361 16.3248 22.6839C16.0408 22.3462 16.0467 21.9735 16.3512 21.4462C17.4688 19.5116 18.5881 17.578 19.7057 15.6439C19.781 15.5134 19.8499 15.3786 19.9531 15.188C16.0258 15.907 12.1543 16.626 8.27267 15.1907C7.97792 15.697 7.68264 16.1862 7.40565 16.685C6.96085 17.4867 6.30521 18.0059 5.41023 18.2229C5.09828 18.2986 4.78579 18.377 4.47975 18.4731C4.0925 18.595 3.75688 18.5214 3.48204 18.2298C3.20128 17.9318 3.19268 17.5823 3.32929 17.2145C3.77194 16.0246 4.16403 14.8127 4.67391 13.6528C4.96435 12.9918 4.84603 12.5714 4.39746 12.0371C3.01303 10.3897 1.6953 8.68651 0.351754 7.00476C0.232351 6.85549 0.117251 6.70246 0 6.55104C0 6.35612 0 6.16013 0 5.96468ZM37.1606 3.64234C35.7767 2.97061 34.4681 2.86859 33.102 3.23479C25.1945 5.3547 17.2849 7.4644 9.37902 9.58914C8.99446 9.69277 8.72338 9.63209 8.43456 9.36039C7.18191 8.18177 5.90882 7.02517 4.65079 5.85246C4.36895 5.58988 4.07905 5.48894 3.69772 5.61083C3.25937 5.75097 2.80757 5.85031 2.36277 5.97166C1.9567 6.08281 1.55223 6.19987 1.11281 6.32337C1.21285 6.45385 1.2704 6.53171 1.33064 6.60742C2.81564 8.46206 4.29365 10.3226 5.79372 12.1655C6.06802 12.5027 6.12449 12.8023 5.96045 13.1969C5.70874 13.8016 5.49306 14.4212 5.26447 15.036C4.98103 15.7996 4.70027 16.5642 4.41037 17.3508C5.40646 17.2537 6.14816 16.888 6.61609 15.9923C7.17814 14.9168 7.82248 13.8837 8.42918 12.8313C8.49318 12.7207 8.54213 12.6015 8.63034 12.4205C8.37163 12.4892 8.19898 12.536 8.02579 12.5805C7.84992 12.6256 7.67243 12.6638 7.49816 12.7142C7.17438 12.8082 6.89954 12.7534 6.78228 12.4125C6.66718 12.0779 6.84736 11.8202 7.24483 11.7064C7.68802 11.5796 8.13498 11.4658 8.57978 11.3439C9.00575 11.2274 9.39354 11.2714 9.67376 11.6468C9.95129 12.0189 9.89159 12.4001 9.66677 12.7819C9.37848 13.2716 9.10364 13.7693 8.7449 14.4008C9.18163 14.4105 9.53016 14.4937 9.83619 14.4137C13.6334 13.4187 17.4247 12.4001 21.2176 11.3874C21.8136 11.2285 22.4558 11.1748 22.7328 10.4574C22.8226 10.2244 23.1501 10.1546 23.3448 10.3436C23.4857 10.4799 23.5347 10.7366 23.567 10.9482C23.582 11.0475 23.4632 11.1689 23.4002 11.2773C21.4441 14.6628 19.4868 18.0478 17.5307 21.4333C17.4597 21.5568 17.3962 21.6846 17.287 21.8892C18.4837 21.421 19.5842 20.9812 20.6916 20.5597C22.4584 19.8869 23.8047 18.7335 24.7696 17.1103C26.4181 14.3374 28.086 11.5759 29.7463 8.81001C30.1309 8.16942 30.4853 8.16298 30.8796 8.79713C30.9285 8.78478 30.9807 8.77243 31.0334 8.75846C33.9356 7.98471 36.8379 7.21042 39.7401 6.4372C39.8477 6.40874 39.9568 6.37975 40.0671 6.36793C40.3699 6.33518 40.5942 6.51399 40.6136 6.7685C40.6275 6.95161 40.464 7.18142 40.3177 7.33123C40.215 7.43648 40.0112 7.44722 39.8493 7.49017C36.776 8.31118 33.7017 9.1295 30.6295 9.95266C30.4724 9.99454 30.2626 10.0364 30.1863 10.1508C29.8808 10.6077 29.6183 11.0926 29.2934 11.6468C29.4742 11.6129 29.5521 11.6033 29.6274 11.5834C31.0436 11.2081 32.4614 10.8408 33.8743 10.4531C35.7444 9.94031 37.6183 9.4404 39.4739 8.87874C40.3532 8.61241 41.1256 8.11788 41.6753 7.34681C42.1115 6.73575 42.0582 6.17194 41.5005 5.67204C41.295 5.48786 41.0632 5.30369 40.8104 5.20596C40.0332 4.9058 39.242 4.64269 38.4514 4.38012C38.3594 4.34951 38.2341 4.40751 38.1276 4.43543C37.1955 4.68243 36.265 4.93372 35.333 5.17911C34.9064 5.29134 34.6273 5.17535 34.5407 4.86392C34.4579 4.56483 34.6547 4.31837 35.0748 4.204C35.732 4.02412 36.3909 3.84907 37.1606 3.64234ZM12.3001 14.8717C15.0657 15.0446 17.756 14.5818 20.4302 13.9836C20.5071 13.9664 20.6056 13.931 20.6432 13.8719C20.9283 13.4203 21.201 12.9607 21.4774 12.5037C21.4532 12.4747 21.4285 12.4463 21.4043 12.4173C18.3692 13.2351 15.3346 14.0534 12.3001 14.8717Z" fill="black"/>
<path d="M12.3 14.8726C15.3346 14.0543 18.3691 13.236 21.4037 12.4182C21.4279 12.4472 21.4526 12.4757 21.4768 12.5047C21.2004 12.9616 20.9277 13.4212 20.6426 13.8728C20.6055 13.9319 20.5066 13.9673 20.4296 13.9845C17.7555 14.5827 15.0657 15.0455 12.3 14.8726Z" fill="#FE9154"/>
<path d="M15.9772 10.3364C15.6594 10.3166 15.4663 10.1539 15.462 9.84242C15.4577 9.5283 15.6583 9.34305 15.9627 9.34305C16.2467 9.34305 16.4403 9.52078 16.4522 9.81235C16.4645 10.1238 16.2827 10.2967 15.9772 10.3364Z" fill="black"/>
<path d="M25.301 7.44815C25.2703 7.78643 25.1009 7.97383 24.79 7.96685C24.477 7.95987 24.2968 7.75475 24.3071 7.45083C24.3167 7.16893 24.4975 6.98153 24.7922 6.97831C25.1095 6.97509 25.2617 7.17215 25.301 7.44815Z" fill="black"/>
<path d="M19.4105 9.01122C19.3793 9.35917 19.205 9.54979 18.899 9.54549C18.5935 9.5412 18.3999 9.3436 18.4085 9.03431C18.4165 8.75026 18.5908 8.56877 18.8899 8.56018C19.2158 8.55051 19.3567 8.75402 19.4105 9.01122Z" fill="black"/>
<path d="M28.2447 6.68512C28.221 7.00729 28.043 7.18234 27.7342 7.17428C27.4212 7.16623 27.2453 6.96594 27.2582 6.65881C27.2706 6.37261 27.447 6.19649 27.7445 6.19702C28.0623 6.19756 28.2221 6.37959 28.2447 6.68512Z" fill="black"/>
<path d="M21.898 8.75564C21.5457 8.74061 21.358 8.56341 21.3569 8.26057C21.3559 7.95396 21.5565 7.76281 21.8641 7.76818C22.146 7.77301 22.3353 7.93947 22.345 8.24016C22.3557 8.56234 22.1637 8.71268 21.898 8.75564Z" fill="black"/>
<path d="M31.1952 5.88507C31.1699 6.1863 31.022 6.38283 30.702 6.38659C30.4067 6.38981 30.2297 6.21959 30.2115 5.9291C30.1916 5.61552 30.3712 5.41738 30.6756 5.40074C30.9833 5.38409 31.1575 5.5731 31.1952 5.88507Z" fill="black"/>
<path d="M40.1204 6.36349C40.3957 6.35597 40.5953 6.52833 40.6136 6.76781C40.6276 6.95092 40.4641 7.18073 40.3178 7.33054C40.215 7.43579 40.0112 7.44653 39.8493 7.48948C36.776 8.31049 33.7017 9.12881 30.6295 9.95197C30.4724 9.99385 30.2627 10.0357 30.1863 10.1501C29.8808 10.6071 29.6183 11.0919 29.2935 11.6461C29.4742 11.6122 29.5522 11.6026 29.6275 11.5827C31.0436 11.2074 32.4614 10.8401 33.8743 10.4524C35.7444 9.93962 37.6183 9.43971 39.4739 8.87805C40.3533 8.61172 41.1256 8.11719 41.6753 7.34612C42.0453 6.82742 42.0631 6.34254 41.7183 5.9017L40.1204 6.36349Z" fill="#FE9154"/>
<path d="M7.4982 12.7151C7.17441 12.8091 6.89957 12.7543 6.78232 12.4134C6.77048 12.3795 6.76188 12.3468 6.7565 12.3146L5.95403 12.4059C6.08257 12.6539 6.08473 12.8988 5.96048 13.1979C5.70877 13.8025 5.49309 14.4221 5.26451 15.0369C4.98106 15.8005 4.7003 16.5651 4.4104 17.3518C5.4065 17.2546 6.14819 16.8889 6.61612 15.9933C7.17817 14.9177 7.82252 13.8846 8.42921 12.8322C8.49322 12.7216 8.54216 12.6024 8.63037 12.4214C8.37166 12.4902 8.19901 12.5369 8.02583 12.5814C7.84995 12.6265 7.67246 12.6647 7.4982 12.7151Z" fill="#FE9154"/>
</svg>
