<svg width="35" height="35" viewBox="0 0 35 35" fill="none" xmlns="http://www.w3.org/2000/svg">
<g clip-path="url(#clip0_24_427)">
<path d="M25.2292 14.2883L30.8409 31.7485L30.5446 32.7384L28.4416 34.4581H27.5816L19.4838 20.2095L25.2292 14.2883Z" fill="#FF9A65"/>
<path d="M35 2.52889C34.6965 3.40317 34.4652 4.31357 34.0786 5.14811C33.2258 6.99421 31.9756 8.57658 30.5518 10.0217C30.0713 10.5094 29.5871 10.9899 29.1028 11.4704C28.8138 11.7594 28.5175 11.7955 28.2934 11.5824C28.0549 11.3548 28.0839 11.0513 28.3802 10.7478C29.0342 10.0831 29.6918 9.41834 30.3459 8.74999C30.4254 8.67051 30.494 8.5838 30.541 8.526C28.9149 7.43496 27.5707 6.09825 26.4686 4.44363C26.2627 4.6351 26.0206 4.85187 25.7929 5.07947C21.9301 8.95591 18.0709 12.8251 14.2154 16.7016C13.742 17.1785 13.3048 17.6915 12.8531 18.1864C12.7772 18.2695 12.705 18.3598 12.6218 18.4357C12.3834 18.6633 12.0979 18.685 11.8883 18.4971C11.6643 18.2984 11.6462 17.9985 11.8811 17.7384C12.4339 17.117 12.9976 16.5065 13.5577 15.8923C13.6408 15.7984 13.7276 15.7081 13.8396 15.5816C13.7095 15.5058 13.5975 15.4371 13.4855 15.3757C9.40225 13.1214 5.31903 10.8634 1.23221 8.6127C0.672119 8.30562 0.231276 7.91184 0.0614433 7.26516C-0.0867087 6.69074 0.0253087 6.17412 0.430017 5.74782C0.961196 5.18424 1.51406 4.63872 2.07053 4.10403C2.5728 3.61993 3.17264 3.55851 3.81583 3.76083C5.74542 4.36776 7.67862 4.97109 9.6046 5.58886C9.88284 5.67918 10.0599 5.64305 10.2478 5.41545C10.8946 4.62427 11.7474 4.10042 12.6291 3.6127C12.9073 3.45736 13.1494 3.49348 13.3734 3.71386C14.0419 4.38221 14.7104 5.05057 15.3789 5.71892C15.6282 5.96458 15.6499 6.2247 15.4656 6.51733C15.3175 6.75577 15.1802 7.00505 15.0212 7.27961C15.6029 7.46025 16.1522 7.63366 16.7014 7.80707C17.8397 8.16473 18.9815 8.51877 20.1162 8.88727C20.351 8.96314 20.4992 8.93424 20.6799 8.7536C22.0819 7.33742 23.4948 5.92846 24.904 4.52311C26.1506 3.28033 27.5165 2.18568 29.0595 1.32586C30.1146 0.736983 31.2059 0.231202 32.42 0.043341C32.4381 0.0397282 32.4561 0.0180519 32.4706 0.00360107C32.7669 0.00360107 33.0632 0.00360107 33.3595 0.00360107C33.8618 0.158948 34.3568 0.335971 34.6423 0.816462C34.7941 1.07297 34.8844 1.36921 35.0036 1.64377C35 1.9364 35 2.23265 35 2.52889ZM19.5416 9.78684C19.4766 9.76516 19.3826 9.72903 19.2887 9.70013C17.3808 9.10042 15.4692 8.4971 13.5613 7.89739C10.2297 6.8497 6.89812 5.80924 3.57012 4.75432C3.18348 4.63149 2.90163 4.69291 2.62339 4.98915C2.18977 5.45519 1.72364 5.89233 1.27557 6.34753C0.957582 6.66906 0.939515 7.04117 1.25389 7.36993C1.3912 7.51444 1.57187 7.62643 1.74893 7.72398C5.92971 10.0361 10.1141 12.3446 14.3021 14.6532C14.3997 14.7074 14.5008 14.7543 14.5478 14.7796C16.2245 13.0997 17.883 11.4451 19.5416 9.78684ZM28.1381 3.11054C29.0414 3.42846 29.775 3.93785 30.4181 4.57369C31.065 5.21314 31.5636 5.95736 31.8961 6.85331C32.1273 6.49927 32.3441 6.19218 32.532 5.86704C33.1535 4.79406 33.7425 3.70302 33.9485 2.45302C34.1219 1.38366 33.6269 0.888717 32.5609 1.05129C32.5392 1.0549 32.5176 1.06213 32.4923 1.06574C30.8771 1.36921 29.5148 2.20736 28.1381 3.11054ZM11.0825 6.04406C12.0907 6.35837 13.0482 6.66184 14.013 6.96169C14.1648 6.69435 14.2985 6.45953 14.4394 6.21386C13.9552 5.73698 13.4963 5.27817 13.0265 4.8338C12.9615 4.77239 12.8134 4.72181 12.7447 4.75432C12.1232 5.0614 11.5667 5.46603 11.0825 6.04406ZM30.6024 7.34103C30.8734 7.10259 30.8879 7.06646 30.7614 6.80996C30.1941 5.66112 29.3305 4.8049 28.1814 4.23048C27.9538 4.11848 27.7984 4.16545 27.6575 4.40028C28.5211 5.50577 29.4967 6.48481 30.6024 7.34103Z" fill="black"/>
<path d="M25.2111 15.4371C23.5381 17.1098 21.8795 18.7644 20.2029 20.4407C20.7666 21.4595 21.3411 22.5036 21.9193 23.5477C22.9419 25.401 23.9645 27.2543 24.9871 29.1076C25.0304 29.1871 25.0774 29.2666 25.1172 29.3497C25.2545 29.6496 25.1858 29.9277 24.9473 30.065C24.6763 30.2204 24.3981 30.1445 24.2246 29.8374C23.8199 29.1257 23.4297 28.4032 23.0358 27.6878C21.8976 25.625 20.7593 23.5657 19.6211 21.5029C19.5633 21.3945 19.4946 21.2933 19.4549 21.2211C17.5144 22.8613 15.5849 24.487 13.63 26.138C14.1467 27.0701 14.6923 28.0527 15.2307 29.039C15.8739 30.2095 15.7041 31.7702 14.8224 32.7782C14.7863 32.8215 14.7465 32.8649 14.7068 32.901C13.7998 33.7391 13.0988 33.9342 12.2063 32.7204C11.3354 31.539 10.3959 30.4082 9.51785 29.2919C8.98667 29.5087 8.50247 29.7688 7.98213 29.9061C6.51506 30.2998 5.25397 29.5412 5.0227 28.1358C4.88901 27.341 5.12027 26.604 5.52136 25.914C5.59363 25.7876 5.67313 25.6611 5.76346 25.5166C4.81312 24.7688 3.87724 24.0318 2.93774 23.2912C2.58723 23.0166 2.23311 22.7493 1.89344 22.4639C1.32613 21.9942 1.26832 21.362 1.72 20.7803C2.83295 19.3497 4.89985 19.151 6.3091 19.888C7.19439 20.3504 8.05079 20.8706 8.9397 21.3728C9.38777 20.7984 9.82861 20.2348 10.2695 19.6712C10.3453 19.5737 10.4248 19.4689 10.5188 19.393C10.7211 19.2341 10.9416 19.2269 11.1439 19.393C11.339 19.5556 11.4041 19.7688 11.2776 20.0036C11.209 20.1337 11.115 20.2493 11.0247 20.3649C9.58651 22.2326 8.1339 24.0896 6.72465 25.979C6.42111 26.3873 6.18624 26.8858 6.067 27.3808C5.81044 28.4248 6.56927 29.1727 7.62078 28.9234C8.06163 28.8186 8.52415 28.6344 8.88188 28.3598C11.8811 26.0585 14.985 23.8837 17.7421 21.2861C19.3609 19.7652 20.9183 18.1828 22.4974 16.6185C23.8416 15.289 25.175 13.9451 26.512 12.6084C26.5842 12.5361 26.6529 12.4602 26.7324 12.3952C26.9853 12.1857 27.2672 12.1893 27.4659 12.4024C27.6538 12.6011 27.661 12.8865 27.4479 13.1105C27.0648 13.5152 26.671 13.9126 26.2626 14.2955C26.0784 14.4653 26.0386 14.617 26.1181 14.8591C26.6348 16.4595 27.1299 18.0672 27.6358 19.6748C27.661 19.7615 27.6972 19.8446 27.7369 19.9566C28.0079 19.8013 28.2609 19.6568 28.5138 19.505C28.7993 19.3316 29.0522 19.3641 29.2835 19.599C29.952 20.2673 30.6205 20.9357 31.289 21.604C31.5383 21.8533 31.5347 22.1098 31.3685 22.4061C30.8698 23.2948 30.3206 24.1438 29.522 24.7977C29.3413 24.9458 29.3305 25.0903 29.3991 25.2998C30.0098 27.2182 30.6024 29.1402 31.2203 31.0549C31.4769 31.8533 31.3468 32.5217 30.7216 33.0997C30.2627 33.526 29.8364 33.9848 29.3883 34.4256C28.568 35.2348 27.3358 35.1589 26.6999 34.198C26.1868 33.4212 25.7604 32.5867 25.3159 31.7666C25.1641 31.4848 25.2762 31.203 25.5399 31.073C25.8001 30.9465 26.0567 31.026 26.2301 31.3259C26.5951 31.9689 26.9456 32.6192 27.3069 33.2659C27.39 33.414 27.4804 33.5657 27.596 33.685C27.9357 34.0354 28.3259 34.0318 28.6692 33.6922C29.1209 33.2442 29.5617 32.7782 30.0279 32.3446C30.3278 32.0665 30.3748 31.7774 30.2519 31.3945C29.3811 28.6524 28.5211 25.9068 27.661 23.1611C26.8769 20.6647 26.0928 18.1719 25.3087 15.6756C25.2689 15.6141 25.24 15.5274 25.2111 15.4371ZM10.2803 28.6091C11.2957 29.9024 12.2894 31.1597 13.2759 32.4205C13.4023 32.5831 13.5071 32.5361 13.648 32.4422C14.5189 31.8569 14.8766 30.6683 14.396 29.6857C13.901 28.6813 13.3228 27.7131 12.7664 26.7052C11.9316 27.3446 11.1222 27.966 10.2803 28.6091ZM6.38498 24.7146C7.02818 23.8728 7.65692 23.0563 8.27843 22.2507C8.2423 22.2037 8.23507 22.1785 8.217 22.1676C7.51599 21.7666 6.80414 21.3837 6.11397 20.9646C5.65145 20.6828 5.1564 20.56 4.62884 20.5202C3.74354 20.4516 2.7679 20.9285 2.43908 21.6113C3.74354 22.6373 5.05161 23.6669 6.38498 24.7146ZM28.774 20.56C28.5969 20.6611 28.456 20.7623 28.3006 20.8273C28.073 20.9212 28.0368 21.0477 28.12 21.2753C28.2717 21.6907 28.3874 22.117 28.5211 22.5397C28.662 22.9877 28.8065 23.4321 28.9583 23.9126C29.5184 23.4248 29.9303 22.8902 30.2302 22.2724C30.2664 22.2001 30.2374 22.0484 30.1832 21.987C29.7279 21.5101 29.2618 21.0477 28.774 20.56Z" fill="black"/>
<path d="M12.0328 23.5224C11.9172 23.7067 11.8558 23.8584 11.7474 23.9668C10.3454 25.3793 8.93611 26.7883 7.52686 28.19C7.2703 28.4429 6.94509 28.4502 6.73912 28.2334C6.54399 28.0239 6.55845 27.7168 6.80416 27.4711C8.21703 26.0513 9.6335 24.6387 11.05 23.2226C11.2234 23.0491 11.4438 22.9516 11.6643 23.0961C11.8124 23.19 11.9028 23.3671 12.0328 23.5224Z" fill="black"/>
<path d="M19.5416 9.78684C17.883 11.4451 16.2281 13.0997 14.5442 14.7832C14.4936 14.7579 14.396 14.711 14.2985 14.6568C10.1141 12.3446 5.9297 10.0361 1.74531 7.72398C1.56825 7.62644 1.38758 7.51444 1.25027 7.36993C0.935899 7.04118 0.953966 6.66907 1.27195 6.34754C1.72002 5.89233 2.18616 5.45519 2.61977 4.98915C2.89801 4.6893 3.18347 4.63149 3.5665 4.75433C6.8945 5.80924 10.2261 6.8497 13.5577 7.89739C15.4656 8.4971 17.3772 9.09681 19.2851 9.70014C19.379 9.72904 19.473 9.76155 19.5416 9.78684Z" fill="#F28B24"/>
<path d="M11.0825 6.04406C11.5703 5.46602 12.1232 5.0614 12.7483 4.75071C12.8134 4.71819 12.9651 4.76877 13.0302 4.83019C13.4999 5.27816 13.9588 5.73698 14.443 6.21024C14.3021 6.45952 14.1684 6.69074 14.0167 6.95808C13.0482 6.66183 12.0907 6.36198 11.0825 6.04406Z" fill="white"/>
<path d="M30.6024 7.34101C29.4967 6.48841 28.5175 5.50575 27.6575 4.40026C27.7984 4.16543 27.9538 4.11846 28.1814 4.23046C29.3305 4.80488 30.1941 5.66109 30.7614 6.80994C30.8915 7.06283 30.8735 7.09895 30.6024 7.34101Z" fill="#51C4F5"/>
<path d="M10.2803 28.6091C11.1223 27.9624 11.9317 27.3446 12.7628 26.7088C13.3193 27.7167 13.8974 28.6813 14.3925 29.6893C14.8767 30.672 14.5153 31.8605 13.6445 32.4458C13.5035 32.5397 13.4024 32.5867 13.2723 32.4241C12.2894 31.1597 11.2957 29.9024 10.2803 28.6091Z" fill="#F28B24"/>
<path d="M6.38499 24.7146C5.05523 23.6669 3.74355 22.6373 2.43909 21.6113C2.76791 20.9285 3.74355 20.4516 4.62885 20.5202C5.15641 20.56 5.65146 20.6864 6.11398 20.9646C6.80415 21.3837 7.516 21.7666 8.21701 22.1676C8.23508 22.1785 8.24231 22.2038 8.27844 22.2507C7.65331 23.0564 7.02818 23.8728 6.38499 24.7146Z" fill="#F28B24"/>
<path d="M28.774 20.5599C29.2583 21.0477 29.728 21.5101 30.1833 21.987C30.2411 22.0448 30.2664 22.2001 30.2303 22.2724C29.9267 22.8901 29.5148 23.4248 28.9583 23.9125C28.8066 23.4357 28.662 22.9877 28.5211 22.5397C28.3874 22.117 28.2682 21.6907 28.12 21.2753C28.0369 21.0477 28.073 20.9212 28.3007 20.8273C28.4561 20.7659 28.597 20.6647 28.774 20.5599Z" fill="white"/>
</g>
<defs>
<clipPath id="clip0_24_427">
<rect width="35" height="35" fill="white"/>
</clipPath>
</defs>
</svg>
