<svg width="43" height="23" viewBox="0 0 43 23" fill="none" xmlns="http://www.w3.org/2000/svg">
<g clip-path="url(#clip0_592_3364)">
<path d="M18.9097 6.68596L11.1383 1.59239L11.3658 1.2133L13.6818 0.796084L17.934 0.416992L20.9713 1.70569L26.3245 4.54887L18.9097 6.68596Z" fill="#B9B6B6"/>
<path d="M0 5.9645C0.221056 5.57681 0.564204 5.38995 0.994484 5.28686C1.82331 5.08926 2.64407 4.8589 3.46483 4.62855C4.17748 4.42826 4.78041 4.59526 5.31718 5.09731C6.49185 6.19539 7.68049 7.27897 8.85462 8.37758C9.03964 8.55102 9.20422 8.59666 9.45217 8.52954C12.1221 7.80679 14.7952 7.09586 17.4667 6.3801C17.5592 6.3554 17.6474 6.31567 17.7808 6.2668C17.6157 6.16693 17.4876 6.08585 17.3569 6.01014C15.3115 4.82991 13.2671 3.64699 11.2179 2.47267C10.8667 2.27131 10.6118 2.01894 10.6032 1.59474C10.5946 1.17592 10.8753 0.772663 11.304 0.717893C13.2978 0.462839 15.2609 -0.0623049 17.2913 0.00374077C18.5408 0.0445495 19.7197 0.381758 20.8218 0.964356C21.7479 1.45406 22.6591 1.9733 23.5734 2.48502C23.9429 2.69175 24.0677 2.99942 23.8827 3.26575C23.6562 3.59061 23.3685 3.52725 23.0705 3.35972C22.2906 2.9221 21.5016 2.49952 20.7271 2.0533C19.0587 1.09269 17.2757 0.810787 15.3857 1.11095C14.2455 1.2919 13.1031 1.46319 11.8822 1.65112C12.0435 1.7569 12.1398 1.82617 12.242 1.88524C14.4574 3.16373 16.6701 4.44598 18.8947 5.70837C19.0743 5.81039 19.3508 5.84637 19.5508 5.79374C23.9279 4.64197 28.3049 3.48966 32.6722 2.3003C34.5084 1.8004 36.2468 1.96148 37.9033 2.87753C38.6859 3.31032 39.4583 3.72539 40.3473 3.92782C41.1025 4.09965 41.7726 4.49753 42.3218 5.06456C43.0893 5.8571 43.2103 6.78711 42.6612 7.74773C42.1846 8.58109 41.4666 9.18731 40.6001 9.52559C39.3948 9.9965 38.1502 10.3788 36.9024 10.7262C34.1976 11.479 31.4782 12.1803 28.7707 12.9229C28.5587 12.9809 28.3275 13.1581 28.2118 13.3455C27.3314 14.7711 26.4708 16.2091 25.6162 17.6508C24.5588 19.4341 23.0711 20.7066 21.1386 21.4632C19.9548 21.9261 18.7731 22.3943 17.5893 22.8572C16.9934 23.0902 16.6206 23.036 16.3248 22.6837C16.0408 22.346 16.0467 21.9733 16.3512 21.446C17.4688 19.5114 18.5881 17.5778 19.7057 15.6437C19.781 15.5132 19.8499 15.3784 19.9531 15.1878C16.0258 15.9068 12.1543 16.6258 8.27267 15.1905C7.97792 15.6968 7.68264 16.186 7.40565 16.6848C6.96085 17.4865 6.30521 18.0058 5.41023 18.2227C5.09828 18.2984 4.78579 18.3768 4.47975 18.4729C4.0925 18.5948 3.75688 18.5212 3.48204 18.2297C3.20128 17.9316 3.19268 17.5821 3.32929 17.2143C3.77194 16.0244 4.16403 14.8125 4.67391 13.6526C4.96435 12.9916 4.84603 12.5712 4.39746 12.0369C3.01303 10.3896 1.6953 8.68633 0.351754 7.00458C0.232351 6.85531 0.117251 6.70227 0 6.55085C0 6.35594 0 6.15995 0 5.9645ZM37.1606 3.64216C35.7767 2.97043 34.4681 2.8684 33.102 3.23461C25.1945 5.35451 17.2849 7.46422 9.37902 9.58895C8.99446 9.69259 8.72338 9.63191 8.43456 9.36021C7.18191 8.18159 5.90882 7.02499 4.65079 5.85227C4.36895 5.5897 4.07905 5.48875 3.69772 5.61064C3.25937 5.75079 2.80757 5.85012 2.36277 5.97148C1.9567 6.08263 1.55223 6.19968 1.11281 6.32318C1.21285 6.45366 1.2704 6.53152 1.33064 6.60723C2.81564 8.46188 4.29365 10.3224 5.79372 12.1653C6.06802 12.5025 6.12449 12.8021 5.96045 13.1968C5.70874 13.8014 5.49306 14.421 5.26447 15.0358C4.98103 15.7994 4.70027 16.564 4.41037 17.3507C5.40646 17.2535 6.14816 16.8878 6.61609 15.9922C7.17814 14.9166 7.82248 13.8835 8.42918 12.8311C8.49318 12.7205 8.54213 12.6013 8.63034 12.4203C8.37163 12.4891 8.19898 12.5358 8.02579 12.5803C7.84992 12.6254 7.67243 12.6636 7.49816 12.714C7.17438 12.808 6.89954 12.7532 6.78228 12.4123C6.66718 12.0777 6.84736 11.82 7.24483 11.7062C7.68802 11.5795 8.13498 11.4656 8.57978 11.3437C9.00575 11.2272 9.39354 11.2712 9.67376 11.6466C9.95129 12.0187 9.89159 12.3999 9.66677 12.7817C9.37848 13.2714 9.10364 13.7692 8.7449 14.4006C9.18163 14.4103 9.53016 14.4935 9.83619 14.4135C13.6334 13.4185 17.4247 12.3999 21.2176 11.3872C21.8136 11.2283 22.4558 11.1746 22.7328 10.4572C22.8226 10.2242 23.1501 10.1544 23.3448 10.3434C23.4857 10.4798 23.5347 10.7364 23.567 10.948C23.582 11.0473 23.4632 11.1687 23.4002 11.2771C21.4441 14.6627 19.4868 18.0476 17.5307 21.4331C17.4597 21.5566 17.3962 21.6844 17.287 21.889C18.4837 21.4208 19.5842 20.981 20.6916 20.5595C22.4584 19.8867 23.8047 18.7333 24.7696 17.1101C26.4181 14.3373 28.086 11.5757 29.7463 8.80983C30.1309 8.16924 30.4853 8.1628 30.8796 8.79694C30.9285 8.78459 30.9807 8.77224 31.0334 8.75828C33.9356 7.98453 36.8379 7.21024 39.7401 6.43702C39.8477 6.40856 39.9568 6.37956 40.0671 6.36775C40.3699 6.335 40.5942 6.5138 40.6136 6.76832C40.6275 6.95142 40.464 7.18124 40.3177 7.33105C40.215 7.43629 40.0112 7.44703 39.8493 7.48999C36.776 8.311 33.7017 9.12932 30.6295 9.95247C30.4724 9.99436 30.2626 10.0362 30.1863 10.1506C29.8808 10.6076 29.6183 11.0924 29.2934 11.6466C29.4742 11.6127 29.5521 11.6031 29.6274 11.5832C31.0436 11.2079 32.4614 10.8406 33.8743 10.4529C35.7444 9.94012 37.6183 9.44022 39.4739 8.87856C40.3532 8.61223 41.1256 8.11769 41.6753 7.34662C42.1115 6.73557 42.0582 6.17176 41.5005 5.67185C41.295 5.48768 41.0632 5.3035 40.8104 5.20578C40.0332 4.90562 39.242 4.64251 38.4514 4.37994C38.3594 4.34933 38.2341 4.40732 38.1276 4.43524C37.1955 4.68224 36.265 4.93354 35.333 5.17893C34.9064 5.29115 34.6273 5.17517 34.5407 4.86374C34.4579 4.56465 34.6547 4.31819 35.0748 4.20382C35.732 4.02393 36.3909 3.84889 37.1606 3.64216ZM12.3001 14.8715C15.0657 15.0444 17.756 14.5816 20.4302 13.9834C20.5071 13.9662 20.6056 13.9308 20.6432 13.8717C20.9283 13.4201 21.201 12.9605 21.4774 12.5036C21.4532 12.4746 21.4285 12.4461 21.4043 12.4171C18.3692 13.2349 15.3346 14.0532 12.3001 14.8715Z" fill="black"/>
<path d="M12.3001 14.8724C15.3347 14.0541 18.3692 13.2358 21.4038 12.418C21.428 12.447 21.4527 12.4754 21.4769 12.5044C21.2004 12.9614 20.9278 13.421 20.6427 13.8726C20.6056 13.9316 20.5066 13.9671 20.4297 13.9843C17.7555 14.5824 15.0657 15.0453 12.3001 14.8724Z" fill="#B9B6B6"/>
<path d="M15.9774 10.3361C15.6595 10.3163 15.4664 10.1536 15.4621 9.84214C15.4578 9.52802 15.6584 9.34277 15.9628 9.34277C16.2468 9.34277 16.4405 9.52051 16.4523 9.81207C16.4647 10.1235 16.2829 10.2964 15.9774 10.3361Z" fill="black"/>
<path d="M25.301 7.44839C25.2703 7.78667 25.1009 7.97407 24.79 7.96709C24.477 7.96011 24.2968 7.75499 24.3071 7.45108C24.3167 7.16917 24.4975 6.98178 24.7922 6.97855C25.1095 6.97533 25.2617 7.1724 25.301 7.44839Z" fill="black"/>
<path d="M19.4104 9.01094C19.3792 9.35889 19.205 9.54951 18.8989 9.54522C18.5934 9.54092 18.3998 9.34332 18.4084 9.03403C18.4165 8.74998 18.5907 8.56849 18.8898 8.5599C19.2157 8.55024 19.3566 8.75374 19.4104 9.01094Z" fill="black"/>
<path d="M28.2447 6.68536C28.221 7.00753 28.043 7.18258 27.7342 7.17453C27.4212 7.16647 27.2453 6.96619 27.2582 6.65905C27.2706 6.37285 27.447 6.19673 27.7445 6.19727C28.0623 6.1978 28.2221 6.37983 28.2447 6.68536Z" fill="black"/>
<path d="M21.898 8.75515C21.5457 8.74012 21.358 8.56292 21.3569 8.26008C21.3559 7.95348 21.5565 7.76232 21.8641 7.76769C22.146 7.77252 22.3353 7.93898 22.345 8.23967C22.3557 8.56185 22.1637 8.7122 21.898 8.75515Z" fill="black"/>
<path d="M31.1953 5.88476C31.17 6.186 31.0221 6.38252 30.7021 6.38628C30.4068 6.3895 30.2299 6.21929 30.2116 5.9288C30.1917 5.61521 30.3713 5.41708 30.6757 5.40043C30.9834 5.38378 31.1577 5.57279 31.1953 5.88476Z" fill="black"/>
<path d="M40.1204 6.36315C40.3957 6.35563 40.5953 6.528 40.6136 6.76748C40.6276 6.95058 40.4641 7.1804 40.3178 7.33021C40.215 7.43545 40.0112 7.44619 39.8493 7.48915C36.776 8.31015 33.7017 9.12848 30.6295 9.95163C30.4724 9.99351 30.2627 10.0354 30.1863 10.1498C29.8808 10.6067 29.6183 11.0916 29.2935 11.6457C29.4742 11.6119 29.5522 11.6022 29.6275 11.5824C31.0436 11.207 32.4614 10.8398 33.8743 10.4521C35.7444 9.93928 37.6183 9.43937 39.4739 8.87772C40.3533 8.61139 41.1256 8.11685 41.6753 7.34578C42.0453 6.82708 42.0631 6.34221 41.7183 5.90137L40.1204 6.36315Z" fill="#B9B6B6"/>
<path d="M7.49813 12.715C7.17435 12.809 6.89951 12.7542 6.78226 12.4133C6.77042 12.3794 6.76182 12.3467 6.75644 12.3145L5.95397 12.4057C6.08251 12.6538 6.08467 12.8987 5.96042 13.1977C5.70871 13.8024 5.49303 14.422 5.26444 15.0368C4.981 15.8004 4.70024 16.565 4.41034 17.3516C5.40644 17.2545 6.14813 16.8888 6.61606 15.9931C7.17811 14.9176 7.82246 13.8845 8.42915 12.8321C8.49316 12.7215 8.5421 12.6023 8.63031 12.4213C8.3716 12.49 8.19895 12.5368 8.02576 12.5813C7.84989 12.6264 7.6724 12.6645 7.49813 12.715Z" fill="#B9B6B6"/>
</g>
<defs>
<clipPath id="clip0_592_3364">
<rect width="43" height="23" fill="white"/>
</clipPath>
</defs>
</svg>
