<svg width="28" height="17" viewBox="0 0 28 17" fill="none" xmlns="http://www.w3.org/2000/svg">
<path d="M11.1932 4.87712L6.13281 1.16239L6.28096 0.88592L7.78903 0.581646L10.5579 0.305176L12.5356 1.24502L16.0214 3.31855L11.1932 4.87712Z" fill="#FE9154"/>
<path d="M0 4.35132C0.143943 4.06858 0.367386 3.9323 0.647567 3.85712C1.18726 3.71301 1.72171 3.54501 2.25615 3.37701C2.7202 3.23095 3.1128 3.35273 3.46233 3.71888C4.22722 4.5197 5.00122 5.30996 5.76576 6.11117C5.88624 6.23766 5.99341 6.27094 6.15486 6.22199C7.89338 5.6949 9.634 5.17642 11.3736 4.65442C11.4338 4.6364 11.4912 4.60742 11.5781 4.57179C11.4706 4.49895 11.3872 4.43982 11.3021 4.3846C9.97021 3.52386 8.63901 2.66117 7.30465 1.80473C7.07595 1.65788 6.90995 1.47383 6.90434 1.16447C6.89874 0.859018 7.08156 0.564925 7.36069 0.524982C8.65897 0.338971 9.93729 -0.0440144 11.2594 0.00415254C12.073 0.0339142 12.8407 0.27984 13.5583 0.704727C14.1614 1.06187 14.7546 1.44055 15.35 1.81374C15.5906 1.96451 15.6719 2.1889 15.5514 2.38313C15.404 2.62005 15.2166 2.57384 15.0226 2.45166C14.5147 2.1325 14.001 1.82431 13.4966 1.49889C12.4102 0.79832 11.2492 0.592729 10.0185 0.811634C9.27607 0.943604 8.53219 1.06852 7.73718 1.20558C7.84225 1.28273 7.90494 1.33325 7.97148 1.37632C9.41406 2.30873 10.8549 3.24387 12.3034 4.16452C12.4204 4.23893 12.6004 4.26516 12.7307 4.22679C15.5808 3.3868 18.431 2.54643 21.2748 1.67903C22.4705 1.31445 23.6024 1.43193 24.6811 2.1C25.1907 2.41563 25.6936 2.71834 26.2725 2.86597C26.7642 2.99129 27.2006 3.28146 27.5582 3.69499C28.058 4.273 28.1368 4.95125 27.7792 5.65182C27.4689 6.25959 27.0013 6.70171 26.4371 6.94841C25.6523 7.29185 24.8418 7.57067 24.0293 7.82403C22.268 8.37306 20.4973 8.88449 18.7343 9.42607C18.5963 9.46837 18.4457 9.5976 18.3704 9.73427C17.7971 10.774 17.2367 11.8227 16.6802 12.8741C15.9916 14.1746 15.0229 15.1027 13.7646 15.6545C12.9937 15.9921 12.2243 16.3335 11.4534 16.6711C11.0654 16.841 10.8227 16.8015 10.63 16.5446C10.4451 16.2983 10.449 16.0265 10.6472 15.642C11.375 14.231 12.1038 12.8209 12.8316 11.4103C12.8806 11.3152 12.9254 11.2169 12.9927 11.0778C10.4353 11.6022 7.91439 12.1266 5.38682 11.0798C5.19489 11.4491 5.00262 11.8058 4.82225 12.1696C4.53262 12.7543 4.10569 13.133 3.52292 13.2912C3.31979 13.3464 3.11631 13.4036 2.91703 13.4737C2.66486 13.5626 2.44632 13.5089 2.26736 13.2963C2.08454 13.0789 2.07894 12.824 2.16789 12.5558C2.45613 11.688 2.71144 10.8041 3.04346 9.95826C3.23258 9.4762 3.15553 9.16958 2.86344 8.77993C1.96196 7.5785 1.10391 6.33634 0.229047 5.10985C0.151297 5.00098 0.0763491 4.88938 0 4.77894C0 4.63679 0 4.49386 0 4.35132ZM24.1974 2.65764C23.2963 2.16775 22.4442 2.09334 21.5546 2.36042C16.4056 3.90646 11.2552 5.44506 6.10723 6.99462C5.85682 7.0702 5.68031 7.02595 5.49223 6.8278C4.67656 5.96824 3.84758 5.12473 3.0284 4.26947C2.84488 4.07798 2.65611 4.00436 2.4078 4.09325C2.12237 4.19546 1.82818 4.26791 1.53854 4.35641C1.27412 4.43747 1.01075 4.52284 0.724616 4.61291C0.789758 4.70807 0.827232 4.76485 0.866458 4.82006C1.83343 6.17265 2.79585 7.52955 3.77263 8.87353C3.95124 9.11945 3.98802 9.33796 3.8812 9.62579C3.71729 10.0667 3.57685 10.5186 3.42801 10.967C3.24344 11.5239 3.06062 12.0815 2.87185 12.6552C3.52047 12.5843 4.00343 12.3177 4.30812 11.6645C4.67411 10.8801 5.09368 10.1266 5.48873 9.35911C5.53041 9.27844 5.56228 9.19151 5.61972 9.05954C5.45126 9.10966 5.33884 9.14373 5.22606 9.17623C5.11154 9.20913 4.99596 9.23693 4.88249 9.27374C4.67166 9.34227 4.49269 9.30233 4.41634 9.05366C4.34139 8.80969 4.45872 8.62173 4.71754 8.53871C5.00612 8.44629 5.29716 8.36327 5.58679 8.27438C5.86417 8.1894 6.11669 8.22151 6.29915 8.49524C6.47987 8.76662 6.44099 9.04466 6.2946 9.32308C6.10688 9.68022 5.92791 10.0432 5.69431 10.5038C5.9787 10.5108 6.20564 10.5715 6.40492 10.5132C8.87751 9.78752 11.3463 9.04465 13.816 8.3061C14.2041 8.19018 14.6223 8.15102 14.8026 7.62784C14.8611 7.45789 15.0744 7.40698 15.2012 7.54482C15.2929 7.64429 15.3248 7.83148 15.3458 7.98577C15.3556 8.05821 15.2782 8.14671 15.2373 8.22582C13.9635 10.6949 12.689 13.1635 11.4152 15.6326C11.369 15.7226 11.3277 15.8158 11.2566 15.965C12.0358 15.6236 12.7524 15.3028 13.4735 14.9954C14.624 14.5048 15.5006 13.6636 16.1289 12.4798C17.2024 10.4576 18.2884 8.44355 19.3696 6.42641C19.62 5.95923 19.8508 5.95453 20.1075 6.41701C20.1394 6.40801 20.1733 6.399 20.2077 6.38882C22.0975 5.82452 23.9873 5.25983 25.8771 4.69593C25.9471 4.67517 26.0182 4.65402 26.09 4.64541C26.2872 4.62152 26.4333 4.75192 26.4459 4.93754C26.455 5.07108 26.3485 5.23868 26.2532 5.34794C26.1863 5.4247 26.0536 5.43253 25.9482 5.46385C23.947 6.06261 21.9451 6.65941 19.9446 7.25974C19.8424 7.29028 19.7058 7.32083 19.656 7.40424C19.4571 7.73749 19.2862 8.09111 19.0747 8.49524C19.1923 8.47057 19.2431 8.46352 19.2922 8.44903C20.2143 8.1753 21.1375 7.90745 22.0575 7.62471C23.2753 7.25073 24.4955 6.88615 25.7037 6.47654C26.2764 6.2823 26.7793 5.92164 27.1372 5.3593C27.4212 4.91366 27.3866 4.50247 27.0234 4.13789C26.8896 4.00357 26.7387 3.86926 26.574 3.79798C26.068 3.57908 25.5528 3.38719 25.038 3.1957C24.9781 3.17338 24.8965 3.21567 24.8271 3.23604C24.2202 3.41617 23.6143 3.59944 23.0074 3.7784C22.7296 3.86025 22.5479 3.77566 22.4915 3.54853C22.4375 3.33041 22.5657 3.15067 22.8392 3.06726C23.2672 2.93607 23.6962 2.80841 24.1974 2.65764ZM8.0093 10.8472C9.81016 10.9733 11.562 10.6357 13.3033 10.1995C13.3534 10.187 13.4175 10.1611 13.442 10.118C13.6276 9.7887 13.8052 9.45349 13.9852 9.12023C13.9694 9.09909 13.9533 9.07833 13.9376 9.05719C11.9612 9.65359 9.98528 10.2504 8.0093 10.8472Z" fill="black"/>
<path d="M6.88965 10.8479C8.86562 10.2511 10.8416 9.6543 12.8176 9.05789C12.8333 9.07904 12.8494 9.09979 12.8652 9.12094C12.6852 9.45419 12.5076 9.7894 12.322 10.1187C12.2978 10.1618 12.2334 10.1877 12.1833 10.2002C10.442 10.6364 8.69051 10.974 6.88965 10.8479Z" fill="#FE9154"/>
<path d="M9.28429 7.53962C9.07731 7.52513 8.95158 7.40647 8.94877 7.17934C8.94597 6.95026 9.07661 6.81516 9.27483 6.81516C9.45975 6.81516 9.58583 6.94478 9.59354 7.15741C9.60159 7.38454 9.48322 7.51064 9.28429 7.53962Z" fill="black"/>
<path d="M15.355 5.43323C15.335 5.67993 15.2247 5.8166 15.0223 5.81151C14.8185 5.80642 14.7011 5.65683 14.7078 5.43518C14.7141 5.22959 14.8318 5.09292 15.0237 5.09057C15.2303 5.08822 15.3294 5.23194 15.355 5.43323Z" fill="black"/>
<path d="M11.5198 6.57317C11.4995 6.82693 11.3861 6.96595 11.1868 6.96282C10.9878 6.95968 10.8618 6.81558 10.8674 6.59001C10.8726 6.38286 10.9861 6.25049 11.1808 6.24423C11.3931 6.23718 11.4848 6.3856 11.5198 6.57317Z" fill="black"/>
<path d="M17.2717 4.87675C17.2562 5.11171 17.1403 5.23937 16.9393 5.2335C16.7355 5.22762 16.6209 5.08156 16.6293 4.85756C16.6374 4.64884 16.7523 4.52039 16.9459 4.52078C17.1529 4.52117 17.2569 4.65393 17.2717 4.87675Z" fill="black"/>
<path d="M13.139 6.38677C12.9096 6.3758 12.7873 6.24658 12.7866 6.02571C12.7859 5.80211 12.9166 5.6627 13.1169 5.66661C13.3004 5.67014 13.4237 5.79154 13.43 6.01083C13.437 6.24579 13.312 6.35544 13.139 6.38677Z" fill="black"/>
<path d="M19.1933 4.29327C19.1768 4.51295 19.0805 4.65628 18.8721 4.65902C18.6799 4.66137 18.5646 4.53723 18.5527 4.32538C18.5398 4.09668 18.6568 3.95218 18.855 3.94004C19.0553 3.9279 19.1688 4.06575 19.1933 4.29327Z" fill="black"/>
<path d="M25.0046 4.6422C25.1839 4.63671 25.3139 4.76242 25.3258 4.93707C25.3349 5.07061 25.2284 5.23821 25.1332 5.34747C25.0663 5.42422 24.9335 5.43206 24.8281 5.46338C22.8269 6.06214 20.825 6.65894 18.8245 7.25927C18.7223 7.28981 18.5857 7.32036 18.536 7.40377C18.337 7.73702 18.1661 8.09064 17.9546 8.49477C18.0723 8.4701 18.123 8.46305 18.1721 8.44856C19.0942 8.17483 20.0174 7.90698 20.9375 7.62424C22.1552 7.25026 23.3754 6.88568 24.5837 6.47606C25.1563 6.28183 25.6592 5.92117 26.0171 5.35883C26.2581 4.98054 26.2696 4.62692 26.0451 4.30542L25.0046 4.6422Z" fill="#FE9154"/>
<path d="M3.76211 9.27443C3.55127 9.34296 3.37231 9.30302 3.29596 9.05435C3.28825 9.02968 3.28265 9.0058 3.27915 8.9823L2.75661 9.04887C2.84032 9.22979 2.84172 9.40836 2.76081 9.62648C2.59691 10.0674 2.45647 10.5193 2.30762 10.9677C2.12305 11.5246 1.94024 12.0822 1.75146 12.6559C2.40008 12.585 2.88304 12.3184 3.18774 11.6652C3.55372 10.8808 3.97329 10.1273 4.36835 9.3598C4.41003 9.27913 4.4419 9.1922 4.49933 9.06023C4.33087 9.11035 4.21845 9.14442 4.10568 9.17693C3.99116 9.20982 3.87558 9.23762 3.76211 9.27443Z" fill="#FE9154"/>
</svg>
