<svg width="31" height="31" viewBox="0 0 31 31" fill="none" xmlns="http://www.w3.org/2000/svg">
<circle cx="15.5" cy="15.5" r="15" fill="white" stroke="#F28B24"/>
<g clip-path="url(#clip0_341_352)">
<path d="M11.5234 12.5121C11.6946 12.6541 11.8446 12.7822 11.9973 12.9075C12.9109 13.6677 13.8218 14.4279 14.7327 15.1881C15.0671 15.4666 15.0355 15.759 14.6485 15.9511C13.7165 16.4162 12.7819 16.8784 11.8499 17.3462C11.7025 17.4187 11.5656 17.4326 11.4102 17.3769C10.6546 17.1068 9.8964 16.8478 9.14344 16.5777C9.03287 16.5387 8.94862 16.5443 8.84857 16.6111C8.58004 16.7949 8.3036 16.9675 8.01136 17.1569C8.36152 17.4103 8.69061 17.647 9.01707 17.8865C9.39092 18.1566 9.7595 18.4295 10.136 18.694C11.0337 19.3261 11.9789 19.4152 12.9609 18.9474C13.7665 18.5631 14.5642 18.1566 15.3672 17.7612C15.4146 17.7389 15.462 17.711 15.512 17.6915C15.7121 17.608 15.9069 17.6804 15.9912 17.867C16.0754 18.0563 16.0096 18.2652 15.8148 18.3682C15.4989 18.5325 15.1803 18.6857 14.8617 18.8444C14.3299 19.1062 13.8034 19.379 13.2689 19.6297C12.0605 20.1977 10.8916 20.1086 9.78583 19.3428C8.91439 18.7386 8.05875 18.1009 7.19785 17.4771C6.92931 17.2822 6.93721 16.9787 7.21101 16.8005C7.7086 16.4719 8.21145 16.1516 8.70904 15.823C8.85121 15.7284 8.98811 15.7284 9.14344 15.7841C9.90957 16.057 10.6783 16.3243 11.4471 16.5888C11.5182 16.6139 11.6156 16.6278 11.6788 16.5944C12.4238 16.2324 13.1636 15.8592 13.9271 15.4805C13.8692 15.4276 13.8218 15.3859 13.7744 15.3441C12.7556 14.4948 11.7367 13.6454 10.7204 12.7961C10.5309 12.6374 10.4651 12.487 10.5414 12.3227C10.5835 12.2308 10.6652 12.1362 10.7494 12.0888C11.3523 11.7547 11.9605 11.4344 12.5634 11.1031C12.7055 11.0251 12.8398 11.0334 12.9846 11.0836C14.8828 11.7212 16.781 12.3589 18.6818 12.9883C18.7687 13.0161 18.8925 13.0078 18.9767 12.966C20.1825 12.3756 21.3857 11.7742 22.5888 11.1755C23.4418 10.7522 24.4423 11.1086 24.8372 11.983C25.2373 12.8657 24.8951 13.8849 24.0315 14.3165C22.2834 15.1909 20.53 16.0514 18.7766 16.9146C18.5449 17.0288 18.3448 16.9703 18.2501 16.7643C18.1527 16.5526 18.2395 16.3521 18.4844 16.2296C20.1641 15.4026 21.849 14.5699 23.5313 13.7401C23.6156 13.6984 23.7025 13.6566 23.7841 13.6092C24.2343 13.3531 24.4107 12.7961 24.1974 12.3199C23.9789 11.8354 23.4234 11.6015 22.96 11.8243C22.2466 12.1668 21.5384 12.5288 20.8275 12.8824C20.2562 13.1693 19.6796 13.4477 19.111 13.7401C18.9451 13.8237 18.7977 13.8292 18.6213 13.7708C16.7362 13.1331 14.8459 12.5065 12.9609 11.8716C12.853 11.8354 12.7661 11.8382 12.6634 11.8967C12.2975 12.1 11.9236 12.2977 11.5234 12.5121Z" fill="#F28B24"/>
<path d="M17.114 17.686C16.9244 17.686 16.7691 17.5244 16.7638 17.3212C16.7585 17.1095 16.9165 16.9369 17.114 16.9397C17.3035 16.9397 17.4641 17.104 17.4694 17.3045C17.4746 17.5077 17.3061 17.686 17.114 17.686Z" fill="#F28B24"/>
</g>
<defs>
<clipPath id="clip0_341_352">
<rect width="18" height="9" fill="white" transform="translate(7.00098 11.0001)"/>
</clipPath>
</defs>
</svg>
