<svg width="38" height="38" viewBox="0 0 38 38" fill="none" xmlns="http://www.w3.org/2000/svg">
<g filter="url(#filter0_d_195_235)">
<circle cx="19" cy="19" r="15" fill="white"/>
</g>
<g clip-path="url(#clip0_195_235)">
<path d="M10.9997 17.4657C11.1289 17.3005 11.2401 17.1187 11.3898 16.973C12.3306 16.0578 13.2802 15.1511 14.2256 14.2403C14.3582 14.1127 14.5037 14.0149 14.6975 14.0022C14.9847 13.9832 15.2052 14.091 15.3504 14.3293C15.4896 14.5579 15.466 14.8365 15.2949 15.0475C15.2534 15.0985 15.205 15.1448 15.1572 15.1908C14.5942 15.7328 14.0306 16.2742 13.4674 16.816C13.4281 16.8537 13.3911 16.8934 13.3268 16.9587C13.4179 16.9587 13.4775 16.9587 13.5371 16.9587C17.7711 16.9587 22.0052 16.9587 26.2392 16.9589C26.6371 16.9589 26.9011 17.1423 26.9824 17.4724C27.067 17.8153 26.8295 18.1786 26.4699 18.2453C26.3686 18.2641 26.2628 18.266 26.1591 18.266C21.3885 18.267 16.6182 18.2647 11.8477 18.2705C11.426 18.2711 11.1327 18.1339 10.9995 17.7362C10.9997 17.646 10.9997 17.5559 10.9997 17.4657Z" fill="#FD985F"/>
<path d="M11 20.2295C11.0205 20.1907 11.0415 20.1522 11.0616 20.1133C11.1678 19.9062 11.3352 19.776 11.5754 19.7426C11.6523 19.7318 11.731 19.7293 11.8087 19.7293C16.599 19.7287 21.3892 19.7285 26.1795 19.7303C26.2979 19.7303 26.4223 19.7352 26.5338 19.7688C26.9809 19.9037 27.1442 20.4279 26.8531 20.782C26.7793 20.872 26.6904 20.9508 26.6058 21.0321C25.66 21.9421 24.714 22.8519 23.7672 23.7609C23.5202 23.9978 23.2298 24.0606 22.9585 23.9405C22.5126 23.7433 22.4231 23.2134 22.7831 22.8638C23.362 22.3018 23.9456 21.7444 24.5281 21.186C24.5686 21.1473 24.617 21.1162 24.6617 21.0814C24.6564 21.0665 24.6509 21.0516 24.6457 21.0366C24.5877 21.0366 24.5297 21.0366 24.4717 21.0366C20.275 21.0366 16.0785 21.0335 11.8817 21.0413C11.4603 21.0423 11.1536 20.9246 11 20.5298C11 20.4297 11 20.3296 11 20.2295Z" fill="#FD985F"/>
</g>
<defs>
<filter id="filter0_d_195_235" x="0" y="0" width="38" height="38" filterUnits="userSpaceOnUse" color-interpolation-filters="sRGB">
<feFlood flood-opacity="0" result="BackgroundImageFix"/>
<feColorMatrix in="SourceAlpha" type="matrix" values="0 0 0 0 0 0 0 0 0 0 0 0 0 0 0 0 0 0 127 0" result="hardAlpha"/>
<feOffset/>
<feGaussianBlur stdDeviation="2"/>
<feComposite in2="hardAlpha" operator="out"/>
<feColorMatrix type="matrix" values="0 0 0 0 0 0 0 0 0 0 0 0 0 0 0 0 0 0 0.25 0"/>
<feBlend mode="normal" in2="BackgroundImageFix" result="effect1_dropShadow_195_235"/>
<feBlend mode="normal" in="SourceGraphic" in2="effect1_dropShadow_195_235" result="shape"/>
</filter>
<clipPath id="clip0_195_235">
<rect width="16" height="10" fill="white" transform="translate(11 14)"/>
</clipPath>
</defs>
</svg>
