<svg width="25" height="14" viewBox="0 0 25 14" fill="none" xmlns="http://www.w3.org/2000/svg">
<g clip-path="url(#clip0_634_5180)">
<path d="M0 5.85028C0.128729 5.61583 0.230956 5.35906 0.397547 5.15066C0.696653 4.77479 1.12828 4.6371 1.60533 4.63338C1.69998 4.63338 1.79464 4.63338 1.88929 4.63338C1.91201 4.16448 1.9158 3.72535 1.95744 3.28994C2.04453 2.37075 2.94184 1.52227 3.8846 1.49622C4.36165 1.48505 4.67969 1.42179 4.92201 0.915676C5.2779 0.175112 6.26609 -0.14493 7.06876 0.0634694C7.93957 0.290476 8.56808 1.01988 8.58701 1.8758C8.60972 2.89175 8.59458 3.9077 8.59836 4.92365C8.59836 5.01669 8.59836 5.11344 8.59836 5.22881C11.2032 5.22881 13.7892 5.22881 16.4016 5.22881C16.4016 5.09111 16.4016 4.96459 16.4016 4.84178C16.4016 3.91514 16.3979 2.98851 16.4016 2.05815C16.4092 1.07942 16.9506 0.361183 17.8707 0.0895194C18.8248 -0.193309 19.8887 0.301641 20.2559 1.21711C20.3392 1.42923 20.449 1.48505 20.6649 1.47389C21.4486 1.4404 22.1187 1.68229 22.6185 2.30377C22.9517 2.71685 23.0804 3.19319 23.088 3.71047C23.0918 4.00446 23.088 4.30217 23.088 4.62221C23.2584 4.63338 23.4174 4.64454 23.5764 4.65571C24.3904 4.72269 24.9886 5.34045 24.9962 6.14428C25.0038 6.70249 25 7.26443 24.9962 7.82264C24.9886 8.69717 24.3677 9.32237 23.4742 9.35959C23.353 9.36331 23.2357 9.35959 23.088 9.35959C23.088 9.69824 23.0918 10.0071 23.088 10.316C23.0728 11.3989 22.4254 12.2251 21.3729 12.4744C21.1154 12.534 20.839 12.5265 20.574 12.534C20.4263 12.5377 20.3468 12.5712 20.29 12.72C19.9341 13.6392 19.0292 14.1267 18.0221 13.9593C17.1286 13.8104 16.4206 12.9991 16.413 12.0539C16.3979 10.1336 16.4054 8.21711 16.4054 6.29686C16.4054 6.20382 16.4054 6.11078 16.4054 6.00286C13.7968 6.00286 11.2146 6.00286 8.6173 6.00286C8.6173 6.669 8.6173 7.32769 8.6173 8.0236C8.71574 8.0236 8.8066 8.0236 8.90126 8.0236C10.9609 8.0236 13.0168 8.0236 15.0765 8.0236C15.1901 8.0236 15.3302 8.00871 15.4059 8.06825C15.5157 8.15013 15.6444 8.29526 15.6406 8.41062C15.6368 8.52227 15.493 8.65252 15.3756 8.72695C15.2923 8.77905 15.156 8.76044 15.0424 8.76044C13.0092 8.76044 10.9761 8.76044 8.94291 8.76044C8.84068 8.76044 8.73467 8.76044 8.60594 8.76044C8.60594 8.87208 8.60594 8.95767 8.60594 9.04327C8.60594 10.0443 8.61351 11.0417 8.59836 12.0427C8.58322 12.9508 8.02287 13.6578 7.14069 13.9183C6.17522 14.2049 5.11131 13.7062 4.74406 12.7759C4.66833 12.5823 4.56989 12.5265 4.37301 12.5377C3.58171 12.5749 2.9002 12.3404 2.39285 11.7115C2.05967 11.2984 1.92715 10.8221 1.91958 10.3086C1.91201 10.0071 1.91958 9.70196 1.91958 9.36331C1.79843 9.36331 1.6962 9.36703 1.59397 9.36331C0.825382 9.3447 0.310465 8.96884 0.0643647 8.25805C0.0416477 8.22083 0.0189308 8.18734 0 8.15385C0 7.38723 0 6.62062 0 5.85028ZM4.56989 11.7897C4.56989 11.6855 4.56989 11.5924 4.56989 11.4957C4.56989 9.33726 4.56989 7.17883 4.56989 5.02041C4.56989 4.91621 4.56989 4.81201 4.58504 4.71153C4.61154 4.52918 4.72134 4.4287 4.91065 4.41381C5.09617 4.39893 5.22868 4.4808 5.28169 4.65943C5.30819 4.75619 5.31577 4.86411 5.31577 4.96459C5.31577 7.30908 5.31198 9.64986 5.31955 11.9944C5.32334 12.9061 6.17901 13.5015 7.03468 13.1964C7.55339 13.0103 7.86385 12.5377 7.86385 11.9125C7.86385 8.78649 7.86385 5.66049 7.86385 2.5345C7.86385 2.35215 7.86764 2.16607 7.86385 1.98372C7.83356 1.18734 7.1672 0.644012 6.36453 0.763097C5.80418 0.844969 5.34606 1.33992 5.32334 1.90185C5.30819 2.2926 5.31955 2.68707 5.31577 3.07782C5.31198 3.35693 5.17189 3.52812 4.95229 3.53556C4.72513 3.54672 4.58125 3.37554 4.56989 3.07782C4.56611 2.96618 4.56989 2.85454 4.56989 2.7429C4.56989 2.56799 4.56989 2.3968 4.56989 2.22934C3.38104 2.05815 2.62759 2.7429 2.64274 3.86677C2.66924 5.97681 2.64652 8.08686 2.65788 10.2006C2.65788 10.4723 2.70332 10.7663 2.81312 11.0119C3.0895 11.6259 3.67257 11.8715 4.56989 11.7897ZM19.6804 7.00393C19.6804 5.32556 19.688 3.6472 19.6767 1.96884C19.6729 1.0943 18.8021 0.517483 17.9653 0.815197C17.4466 1.00127 17.1362 1.47761 17.1362 2.09909C17.1362 5.37022 17.1362 8.63763 17.1362 11.9088C17.1362 11.9497 17.1362 11.9869 17.1362 12.0279C17.1664 12.8242 17.8328 13.3676 18.6355 13.2485C19.2413 13.1592 19.6804 12.6419 19.6804 11.9906C19.6842 10.3309 19.6804 8.6674 19.6804 7.00393ZM20.4453 2.21817C20.4453 5.4186 20.4453 8.60414 20.4453 11.7897C21.6114 11.9199 22.3383 11.3394 22.3421 10.2676C22.3497 8.09058 22.3497 5.91727 22.3383 3.74024C22.3383 3.4909 22.2891 3.22296 22.1831 2.99967C21.8954 2.3782 21.3047 2.12514 20.4453 2.21817ZM1.89687 8.63763C1.89687 7.53609 1.89687 6.4606 1.89687 5.38883C1.18128 5.29207 0.749659 5.58234 0.734515 6.17777C0.723156 6.72854 0.723156 7.28303 0.734515 7.8338C0.745873 8.32131 1.08284 8.63391 1.57883 8.63763C1.67348 8.63763 1.77192 8.63763 1.89687 8.63763ZM23.0993 8.6153C23.902 8.71578 24.2655 8.40318 24.2655 7.63285C24.2655 7.20116 24.2655 6.76948 24.2655 6.33779C24.2655 5.59723 23.8566 5.2623 23.0993 5.39627C23.0993 6.4606 23.0993 7.53237 23.0993 8.6153Z" fill="#525252"/>
</g>
<defs>
<clipPath id="clip0_634_5180">
<rect width="25" height="14" fill="white"/>
</clipPath>
</defs>
</svg>
