<svg width="38" height="34" viewBox="0 0 38 34" fill="none" xmlns="http://www.w3.org/2000/svg">
<path d="M28.1462 2.88025L29.0771 6.01462V9.67228L28.6117 11.5051V12.2506L37.1875 14.326V13.0661V10.988L35.4953 7.71374C35.4953 7.71374 32.6432 4.63072 31.5788 4.13046C30.5144 3.6302 28.1462 2.88025 28.1462 2.88025Z" fill="#B9B6B6"/>
<path d="M28.006 0C28.3646 0.234635 28.416 0.518854 28.2434 0.873021C28.0656 1.23693 27.9321 1.61589 27.7903 1.96297C28.6379 2.3074 29.4907 2.59073 30.2664 2.9874C31.1551 3.44161 31.9832 3.98615 32.8195 4.51297C33.1842 4.74229 33.2233 5.04865 32.989 5.28594C32.763 5.51437 32.4065 5.51083 32.0726 5.26203C31.1951 4.61036 30.2499 4.05078 29.1557 3.59036C29.6273 6.42724 29.6027 9.2225 29.1074 12.0399C31.6883 12.6367 34.2425 13.2281 36.9086 13.8453C36.7668 13.0732 36.6764 12.3516 36.4976 11.6477C36.0785 9.99458 35.2565 8.4938 34.0863 7.13557C34.0401 7.08245 33.9918 7.03109 33.9496 6.97531C33.7565 6.71411 33.7996 6.42901 34.0534 6.26521C34.3103 6.09964 34.6473 6.13771 34.8671 6.38297C35.1178 6.66276 35.3593 6.95052 35.5791 7.24802C37.1727 9.39693 38.0018 11.7451 37.9987 14.3004C37.9987 14.5058 37.9114 14.7369 37.784 14.9122C37.3134 15.5577 36.812 16.1863 36.3148 16.8176C35.8771 17.3736 35.3767 17.5339 34.6236 17.3612C32.8185 16.9469 31.0133 16.5316 29.2092 16.111C28.4561 15.9357 28.1232 15.5718 28.0718 14.9042C28.0492 14.6067 28.0174 14.3092 27.9814 13.9214C27.7605 14.1959 27.5828 14.4119 27.4112 14.6315C26.8646 15.3292 26.4249 15.47 25.4827 15.2504C24.8303 15.0981 24.1779 14.9476 23.4906 14.7882C22.4436 18.1608 21.4049 21.5077 20.3569 24.8864C20.4854 24.9015 20.5789 24.9218 20.6734 24.9227C22.0573 24.9298 23.4423 24.928 24.8262 24.9431C25.267 24.9475 25.6091 24.8191 25.9153 24.5446C27.1615 23.4299 28.4211 22.3267 29.6797 21.2217C31.0236 20.0414 32.6099 19.7129 34.4295 20.2318C34.9031 20.3672 35.3757 20.5045 35.8483 20.6444C36.6487 20.8808 36.7966 21.4395 36.1935 21.9636C33.8192 24.0293 31.4458 26.0968 29.0602 28.1527C28.8321 28.3493 28.8023 28.4945 28.9379 28.7415C29.4588 29.6898 29.9468 30.6514 30.4605 31.6032C30.6989 32.0441 30.8633 32.4859 30.666 33.003C31.4428 33.003 32.1712 33.003 32.9007 33.003C33.8746 33.003 34.8486 33.0074 35.8237 33.0004C36.1463 32.9986 36.4535 33.0128 36.6004 33.3103C36.7463 33.6069 36.5346 33.8079 36.3137 33.9991C24.3413 33.9991 12.3678 33.9991 0.395276 33.9991C0.119929 33.8424 -0.0865815 33.6476 0.0377358 33.3412C0.159998 33.0393 0.457949 32.9977 0.789804 33.0004C1.72373 33.0083 2.65765 33.003 3.65013 33.003C3.40458 32.4248 3.65938 31.9449 3.92342 31.4615C4.24911 30.8656 4.55528 30.2627 4.8933 29.6181C4.40939 29.6181 3.9902 29.6234 3.57205 29.6172C3.02649 29.6092 2.68641 29.3392 2.7121 28.8734C2.73881 28.3785 2.7758 27.8756 2.90731 27.3957C3.30903 25.925 4.77823 24.9209 6.52484 24.9032C7.98582 24.8882 9.44681 24.9006 10.9078 24.9059C11.3845 24.9077 11.6434 25.1007 11.6301 25.4256C11.6177 25.7346 11.365 25.9002 10.8996 25.9002C9.52798 25.8993 8.15637 25.8976 6.78478 25.894C4.97447 25.8896 3.74979 27.0132 3.87102 28.6229C4.00151 28.6229 4.1361 28.6229 4.27069 28.6229C11.5129 28.6229 18.7542 28.6211 25.9964 28.6264C26.5656 28.6264 27.0516 28.4962 27.4564 28.1447C29.9479 25.9764 32.4424 23.8106 34.9349 21.6431C34.9791 21.605 35.0182 21.5617 35.0623 21.5183C33.4483 20.8418 31.9061 20.6594 30.4729 21.9406C29.2266 23.0545 27.9547 24.1489 26.7105 25.2645C26.1978 25.7249 25.5968 25.9409 24.8611 25.9374C21.2087 25.9206 17.5552 25.9135 13.9027 25.902C13.4496 25.9002 13.1845 25.7196 13.1763 25.4168C13.1681 25.1042 13.4476 24.9077 13.9181 24.9077C15.4562 24.9085 16.9942 24.913 18.5322 24.9165C18.7233 24.9165 18.9144 24.9165 19.1518 24.9165C20.2244 21.4607 21.296 18.0103 22.3758 14.5306C21.6967 14.373 21.0576 14.2224 20.4176 14.0764C19.4169 13.8479 19.1353 13.5522 19.0727 12.6685C19.0552 12.4197 19.0223 12.1709 18.9874 11.8407C18.7377 12.1559 18.5405 12.4073 18.3411 12.657C17.9045 13.206 17.4196 13.3778 16.6901 13.2122C14.8469 12.7934 13.0048 12.3675 11.1646 11.9372C10.4979 11.7805 10.1393 11.3856 10.092 10.7835C10.0304 9.9999 9.96052 9.2163 9.92661 8.43182C9.91839 8.23526 9.97696 8.00771 10.0931 7.84036C12.6606 4.15526 16.4158 2.01875 21.3556 1.4512C23.1269 1.24755 24.8817 1.37328 26.6519 1.7301C26.8112 1.34937 26.9499 0.972187 27.1276 0.610052C27.2334 0.394896 27.403 0.20276 27.5437 0C27.6989 0 27.853 0 28.006 0ZM20.2265 9.98573C22.8371 10.5896 25.3964 11.181 27.9814 11.7787C28.4797 8.90552 28.4633 6.0899 27.9177 3.27781C27.9002 3.18927 27.7646 3.07771 27.6578 3.04849C27.1235 2.89885 26.5769 2.78375 26.0427 2.635C25.7848 2.56328 25.6235 2.62083 25.4426 2.78641C24.1769 3.95161 23.057 5.21156 22.1138 6.58661C21.3772 7.65974 20.7453 8.77713 20.2265 9.98573ZM24.1995 2.41453C19.2021 1.95411 13.8801 4.29161 11.4081 7.9351C11.5171 7.96521 11.6218 7.99797 11.7297 8.02276C14.0517 8.55932 16.3767 9.08969 18.6956 9.63776C19.0018 9.71036 19.1312 9.68469 19.2535 9.40578C19.9788 7.75625 20.921 6.20057 22.1107 4.76531C22.7714 3.96844 23.4916 3.20698 24.1995 2.41453ZM17.6826 29.6446C17.6117 29.6331 17.5747 29.6216 17.5377 29.6216C14.6702 29.6207 11.8016 29.6172 8.93413 29.6287C8.81495 29.6296 8.6444 29.7482 8.58686 29.85C8.23035 30.4858 7.89849 31.1312 7.5615 31.7749C7.35191 32.1734 7.14643 32.5736 6.92348 33.0039C7.11458 33.0039 7.2543 33.0039 7.39403 33.0039C10.2492 33.0039 13.1044 33.0039 15.9596 33.0039C16.6439 33.0039 16.6459 33.0048 16.8257 32.4257C17.1124 31.5005 17.3959 30.5752 17.6826 29.6446ZM27.3413 32.9862C27.331 32.9357 27.3321 32.9012 27.3167 32.8737C26.7783 31.8484 26.2451 30.8214 25.6892 29.8031C25.6389 29.711 25.4406 29.6287 25.3111 29.6278C23.2625 29.6172 21.2138 29.6198 19.1662 29.6207C19.0788 29.6207 18.9905 29.6314 18.8826 29.6376C18.5364 30.7558 18.1932 31.8661 17.8459 32.9862C21.0433 32.9862 24.1861 32.9862 27.3413 32.9862ZM29.0776 13.0661C29.1321 13.7151 29.1742 14.3207 29.2431 14.9237C29.2523 15.0016 29.3818 15.1105 29.4783 15.1335C31.2897 15.5621 33.1041 15.9827 34.9206 16.3961C35.0284 16.4209 35.2195 16.4121 35.2668 16.3536C35.686 15.8472 36.0826 15.3266 36.5059 14.7838C34.0062 14.2056 31.5763 13.6434 29.0776 13.0661ZM27.5201 12.7048C25.0255 12.1284 22.5844 11.5635 20.0939 10.988C20.1463 11.6485 20.1854 12.2542 20.2521 12.8571C20.2604 12.9333 20.4021 13.0378 20.5039 13.0617C22.3183 13.4902 24.1347 13.9117 25.9543 14.3198C26.0673 14.3455 26.2718 14.2853 26.3386 14.2056C26.7351 13.7319 27.1029 13.2414 27.5201 12.7048ZM11.1092 8.90995C11.1575 9.55542 11.1873 10.1283 11.2551 10.6985C11.2674 10.803 11.4184 10.9535 11.5376 10.9818C13.3469 11.4139 15.1613 11.8318 16.9778 12.2427C17.0785 12.2657 17.2593 12.2391 17.3096 12.178C17.7216 11.6795 18.111 11.1678 18.5343 10.6259C16.0367 10.0477 13.5986 9.48458 11.1092 8.90995ZM27.9043 29.1692C27.5273 29.3206 27.1975 29.4534 26.8574 29.5897C27.3978 30.6142 27.93 31.6297 28.4694 32.6409C28.6389 32.9587 28.9297 33.0721 29.2369 32.9632C29.5523 32.8516 29.69 32.5745 29.5369 32.277C29.0006 31.241 28.4519 30.2095 27.9043 29.1692ZM7.42588 29.6198C7.05088 29.6198 6.73238 29.5995 6.42004 29.6296C6.29059 29.642 6.11593 29.7367 6.06147 29.8359C5.62585 30.623 5.20975 31.419 4.7957 32.215C4.62104 32.5497 4.71453 32.8171 5.032 32.9508C5.35564 33.0871 5.66695 32.9641 5.85291 32.6125C6.30086 31.7687 6.74368 30.9232 7.18752 30.0776C7.26047 29.9395 7.33136 29.8014 7.42588 29.6198Z" fill="black"/>
<path d="M24.1998 2.41452C23.493 3.20697 22.7717 3.96843 22.1101 4.76619C20.9203 6.20145 19.9782 7.75713 19.2528 9.40666C19.1306 9.68468 19.0011 9.71036 18.6949 9.63864C16.3761 9.09057 14.052 8.5602 11.7291 8.02364C11.6222 7.99885 11.5174 7.96609 11.4075 7.93598C13.8805 4.29161 19.2025 1.95411 24.1998 2.41452Z" fill="#B9B6B6"/>
<path d="M29.0781 13.0661C31.5768 13.6434 34.0077 14.2056 36.5063 14.7838C36.083 15.3266 35.6875 15.8472 35.2673 16.3537C35.219 16.4112 35.0279 16.4201 34.921 16.3962C33.1046 15.9827 31.2902 15.563 29.4788 15.1335C29.3822 15.1105 29.2528 15.0016 29.2435 14.9237C29.1747 14.3207 29.1316 13.7151 29.0781 13.0661Z" fill="#B9B6B6"/>
<path d="M11.1096 8.90994C13.599 9.48458 16.0361 10.0477 18.5348 10.625C18.1115 11.1678 17.7221 11.6795 17.3101 12.1771C17.2597 12.2382 17.0789 12.2648 16.9782 12.2418C15.1617 11.83 13.3473 11.413 11.5381 10.9809C11.4189 10.9526 11.2678 10.8021 11.2555 10.6976C11.1877 10.1283 11.1589 9.55541 11.1096 8.90994Z" fill="#B9B6B6"/>
<path d="M27.9048 29.1692C28.4525 30.2086 29.0021 31.2401 29.5374 32.277C29.6915 32.5745 29.5538 32.8516 29.2374 32.9632C28.9302 33.0721 28.6394 32.9587 28.4699 32.6409C27.9295 31.6297 27.3983 30.6142 26.8579 29.5897C27.197 29.4534 27.5278 29.3206 27.9048 29.1692Z" fill="white"/>
<path d="M7.42626 29.6198C7.33174 29.8022 7.26085 29.9395 7.18893 30.0776C6.74406 30.9223 6.30227 31.7687 5.85432 32.6125C5.66733 32.964 5.35705 33.0871 5.03341 32.9508C4.71491 32.8171 4.62244 32.5497 4.7971 32.215C5.21218 31.419 5.62726 30.623 6.06288 29.8359C6.11733 29.7376 6.29199 29.642 6.42145 29.6296C6.73276 29.5995 7.05126 29.6198 7.42626 29.6198Z" fill="white"/>
</svg>
