<svg width="64" height="64" viewBox="0 0 64 64" fill="none" xmlns="http://www.w3.org/2000/svg">
<circle cx="32" cy="32" r="31.4" stroke="#F28B24" stroke-width="1.2"/>
<g clip-path="url(#clip0_24_470)">
<path d="M46.4992 29.4036C42.7334 29.4036 39.0193 29.4036 35.2807 29.4036C35.2698 29.2696 35.2535 29.1625 35.2535 29.0527C35.2508 27.7109 35.2481 26.369 35.2535 25.0272C35.2562 24.0898 35.7965 23.5434 36.7386 23.5408C39.5025 23.5354 42.2665 23.5354 45.0277 23.5408C45.9562 23.5434 46.4938 24.0818 46.4965 24.9924C46.5019 26.4494 46.4992 27.901 46.4992 29.4036Z" fill="#FF9A65"/>
<path d="M55 46.5822C54.7828 46.9063 54.476 47.0027 54.085 47.0027C40.0374 46.9946 25.9897 46.9973 11.9421 46.9946C11.7846 46.9946 11.6217 46.9973 11.4751 46.9571C11.1629 46.8688 10.9918 46.6465 11.0136 46.3251C11.0353 45.9903 11.2308 45.768 11.5783 45.7385C11.8715 45.7117 12.1702 45.7332 12.4933 45.7332C12.4933 44.7234 12.4933 43.77 12.4933 42.9477C12.048 42.5621 11.6027 42.2808 11.3122 41.8898C11.1032 41.6086 11.0271 41.1801 11.0163 40.8158C10.9837 39.4472 11.0054 38.0759 11.0027 36.7046C11.0027 35.8047 11.4235 35.1834 12.2489 34.803C12.3738 34.7468 12.4933 34.5513 12.5068 34.412C12.5639 33.8388 12.5096 33.2469 12.6182 32.6845C12.8761 31.348 13.6797 30.3865 14.9259 29.816C15.23 29.6768 15.3006 29.5134 15.2952 29.2107C15.2789 27.9546 15.287 26.6958 15.2898 25.4397C15.2898 24.9335 15.5124 24.6469 15.9061 24.6335C16.316 24.6201 16.574 24.9201 16.5767 25.437C16.5794 26.7494 16.5767 28.0618 16.5767 29.4036C17.1007 29.4036 17.5948 29.4036 18.146 29.4036C18.146 29.2429 18.146 29.0929 18.146 28.9429C18.146 27.6439 18.1433 26.345 18.146 25.0433C18.1514 23.3774 19.2537 22.2793 20.9425 22.274C23.6928 22.2659 26.4404 22.2659 29.1908 22.274C30.8823 22.2793 31.9683 23.3747 31.971 25.0513C31.9737 26.4923 31.971 27.9305 31.971 29.4009C32.6606 29.4009 33.3231 29.4009 34.0263 29.4009C34.0263 29.2268 34.0263 29.0742 34.0263 28.9215C34.0263 27.5931 34.0208 26.2646 34.029 24.9389C34.0371 23.4497 35.077 22.3088 36.5784 22.2873C39.4835 22.2445 42.3913 22.2445 45.2991 22.2873C46.7761 22.3088 47.8323 23.439 47.8513 24.9014C47.8703 26.2432 47.8567 27.585 47.8567 28.9268C47.8567 29.0795 47.8567 29.2295 47.8567 29.4063C48.3943 29.4063 48.8884 29.4063 49.426 29.4063C49.426 29.2429 49.426 29.1063 49.426 28.967C49.426 26.0584 49.426 23.1471 49.426 20.2384C49.426 18.5833 48.4377 17.6057 46.7571 17.603C39.9559 17.6003 33.1547 17.603 26.3509 17.595C26.0522 17.595 25.8839 17.678 25.7563 17.9485C25.5825 18.3181 25.3734 18.6743 25.1617 19.0252C24.7381 19.7242 23.8883 19.7189 23.4648 19.0145C23.2476 18.6502 23.0385 18.2806 22.8512 17.8976C22.7344 17.6592 22.5769 17.5896 22.3136 17.595C21.2683 17.611 20.223 17.595 19.1777 17.603C17.584 17.6137 16.5848 18.6074 16.5794 20.1795C16.5767 20.8143 16.5821 21.4517 16.5794 22.0865C16.5767 22.6195 16.3486 22.9194 15.9441 22.9275C15.5368 22.9355 15.2952 22.6355 15.2925 22.1133C15.2898 21.4223 15.2843 20.7286 15.2925 20.0376C15.3169 17.9806 16.8455 16.4246 18.9306 16.3388C19.4872 16.3174 20.0438 16.3362 20.6085 16.3362C20.413 15.447 20.4972 15.1631 21.2982 14.8122C22.2484 14.3944 22.9462 13.7864 23.31 12.8196C23.3534 12.7017 23.4267 12.5946 23.4973 12.4875C23.9073 11.8607 24.8033 11.8206 25.1101 12.4928C25.6477 13.6739 26.4649 14.4881 27.6649 15.0024C28.2161 15.2381 28.1889 15.7844 28.0043 16.3335C28.2052 16.3335 28.3763 16.3335 28.5446 16.3335C34.6154 16.3335 40.6863 16.3308 46.7598 16.3335C48.6386 16.3335 50.0858 17.3352 50.5555 18.985C50.6695 19.3868 50.7048 19.8206 50.7075 20.2384C50.7211 23.2328 50.7184 26.2271 50.7075 29.2215C50.7075 29.5348 50.8025 29.6768 51.0903 29.8187C52.5592 30.5311 53.3655 31.7016 53.4741 33.3219C53.4823 33.4478 53.4904 33.5764 53.4823 33.7023C53.4443 34.2834 53.4388 34.7655 54.1556 35.0789C54.5357 35.245 54.7258 35.8369 55 36.2386C55 37.934 55 39.6293 55 41.3247C54.7855 41.8202 54.5602 42.3585 54.0199 42.5406C53.4741 42.7228 53.4497 43.0656 53.4823 43.5048C53.4986 43.7164 53.485 43.928 53.485 44.1396C53.485 44.6565 53.485 45.1761 53.485 45.6876C54.0524 45.7894 54.6742 45.5216 55 46.1563C55 46.2983 55 46.4402 55 46.5822ZM13.7856 34.6718C26.6224 34.6718 39.3831 34.6718 52.1981 34.6718C52.1981 34.3397 52.2008 34.0344 52.1981 33.7264C52.1872 31.8462 51.0225 30.7052 49.1083 30.7026C47.1046 30.6999 45.0982 30.7052 43.0945 30.6999C42.5461 30.6999 42.2583 30.4722 42.2529 30.0678C42.2474 29.6527 42.5271 29.433 43.0782 29.433C44.0801 29.4304 45.0819 29.433 46.0838 29.4304C46.2358 29.4304 46.3879 29.4143 46.5644 29.4063C46.5644 27.9198 46.5671 26.4816 46.5644 25.0433C46.5616 24.0845 46.0213 23.5542 45.0466 23.5435C44.7887 23.5408 44.5308 23.5435 44.2729 23.5435C41.8402 23.5435 39.4048 23.5435 36.9721 23.5435C35.8073 23.5435 35.3186 24.0202 35.3186 25.1531C35.3186 26.353 35.3186 27.5529 35.3186 28.7554C35.3186 28.9643 35.3186 29.1733 35.3186 29.433C35.5114 29.433 35.6662 29.433 35.8182 29.433C37.0508 29.433 38.2808 29.433 39.5134 29.433C39.641 29.433 39.7713 29.4304 39.8989 29.4384C40.2682 29.4652 40.4854 29.6661 40.5044 30.0276C40.5234 30.3892 40.3252 30.6169 39.9641 30.6785C39.7957 30.7079 39.622 30.7026 39.4509 30.7026C35.3838 30.7026 31.3194 30.7026 27.2522 30.7026C23.758 30.7026 20.2664 30.6972 16.7722 30.7052C15.3142 30.7079 14.1684 31.5516 13.8942 32.8854C13.7748 33.4559 13.8182 34.0558 13.7856 34.6718ZM17.8256 45.701C27.9527 45.701 38.0554 45.701 48.1798 45.701C48.1798 44.7395 48.1798 43.8048 48.1798 42.8245C47.9707 42.8245 47.7861 42.8245 47.6042 42.8245C40.4718 42.8245 33.3394 42.8245 26.207 42.8219C26.0088 42.8219 25.8024 42.8219 25.6096 42.7763C25.2893 42.6987 25.1372 42.463 25.1562 42.1442C25.1752 41.8255 25.3544 41.6166 25.683 41.5711C25.8513 41.547 26.025 41.555 26.1961 41.555C35.0037 41.555 43.8113 41.555 52.6189 41.5523C52.8035 41.5523 52.9936 41.555 53.1755 41.5229C53.4959 41.4666 53.6886 41.2604 53.7022 40.9417C53.7212 40.5078 53.7076 40.0712 53.7076 39.6079C39.8962 39.6079 26.1119 39.6079 12.2951 39.6079C12.2951 39.94 12.2951 40.2507 12.2951 40.5587C12.2951 41.3863 12.4607 41.5497 13.2996 41.5497C16.3351 41.5497 19.3732 41.5497 22.4086 41.5497C22.5661 41.5497 22.7263 41.5443 22.881 41.5657C23.2095 41.6139 23.3887 41.8202 23.4077 42.1389C23.4267 42.4576 23.2747 42.6906 22.957 42.7736C22.7941 42.8165 22.6177 42.8192 22.4466 42.8192C21.0565 42.8219 19.6691 42.8192 18.279 42.8219C18.1297 42.8219 17.9777 42.8379 17.8283 42.846C17.8256 43.8262 17.8256 44.7502 17.8256 45.701ZM12.2951 38.2795C26.1255 38.2795 39.9016 38.2795 53.7103 38.2795C53.7103 37.6983 53.7239 37.1492 53.7049 36.6002C53.6913 36.2091 53.447 35.9949 53.0424 35.9734C52.942 35.9681 52.8415 35.9708 52.7411 35.9708C39.584 35.9708 26.4242 35.9708 13.2671 35.9708C13.153 35.9708 13.039 35.9681 12.9222 35.9734C12.5286 35.9976 12.3141 36.2199 12.2978 36.5948C12.2815 37.1439 12.2951 37.6929 12.2951 38.2795ZM30.6868 29.4036C30.6868 27.9011 30.6895 26.4467 30.6868 24.9924C30.6841 24.0818 30.1465 23.5435 29.2179 23.5408C26.454 23.5354 23.6901 23.5354 20.9289 23.5408C19.9841 23.5435 19.4465 24.0898 19.4438 25.0272C19.4383 26.3691 19.4411 27.7109 19.4438 29.0527C19.4438 29.1625 19.4601 29.2697 19.4709 29.4036C23.2068 29.4036 26.921 29.4036 30.6868 29.4036ZM13.8345 45.6903C14.7576 45.6903 15.6237 45.6903 16.4762 45.6903C16.4762 44.7208 16.4762 43.7807 16.4762 42.8567C15.5748 42.8567 14.7087 42.8567 13.8345 42.8567C13.8345 43.8182 13.8345 44.7449 13.8345 45.6903ZM52.1736 42.8567C51.2532 42.8567 50.3898 42.8567 49.5319 42.8567C49.5319 43.8262 49.5319 44.7636 49.5319 45.6903C50.4333 45.6903 51.2994 45.6903 52.1736 45.6903C52.1736 44.7315 52.1736 43.8048 52.1736 42.8567ZM24.3173 13.7007C23.9263 14.7345 23.2123 15.3854 22.1805 15.7925C23.2503 16.1433 23.8992 16.8638 24.3227 17.8682C24.711 16.829 25.4223 16.1701 26.4486 15.7764C25.4223 15.3854 24.711 14.7399 24.3173 13.7007Z" fill="black"/>
<path d="M12.295 38.2794C12.295 37.6929 12.2788 37.1438 12.3005 36.5975C12.3141 36.2225 12.5313 36.0002 12.9249 35.9761C13.039 35.9681 13.153 35.9734 13.2697 35.9734C26.4269 35.9734 39.5867 35.9734 52.7438 35.9734C52.8442 35.9734 52.9447 35.9707 53.0451 35.9761C53.4524 35.9975 53.6968 36.2118 53.7076 36.6028C53.7239 37.1519 53.713 37.7009 53.713 38.2821C39.9043 38.2794 26.1255 38.2794 12.295 38.2794Z" fill="#FF9A65"/>
<path d="M30.6868 29.4036C26.921 29.4036 23.2068 29.4036 19.4682 29.4036C19.4574 29.2696 19.4411 29.1625 19.4411 29.0527C19.4383 27.7109 19.4356 26.369 19.4411 25.0272C19.4438 24.0898 19.9841 23.5434 20.9262 23.5408C23.6901 23.5354 26.454 23.5354 29.2152 23.5408C30.1438 23.5434 30.6813 24.0818 30.6841 24.9924C30.6895 26.4494 30.6868 27.901 30.6868 29.4036Z" fill="#FF9A65"/>
</g>
<defs>
<clipPath id="clip0_24_470">
<rect width="44" height="35" fill="white" transform="translate(11 12)"/>
</clipPath>
</defs>
</svg>
