<svg width="64" height="64" viewBox="0 0 64 64" fill="none" xmlns="http://www.w3.org/2000/svg">
<circle cx="32" cy="32" r="31.4" stroke="#F28B24" stroke-width="1.2"/>
<g clip-path="url(#clip0_24_468)">
<path d="M40.2292 29.2883L45.8409 46.7485L45.5446 47.7384L43.4416 49.4581H42.5816L34.4838 35.2095L40.2292 29.2883Z" fill="#FF9A65"/>
<path d="M50 17.5289C49.6965 18.4032 49.4652 19.3136 49.0786 20.1481C48.2258 21.9942 46.9756 23.5766 45.5518 25.0217C45.0713 25.5094 44.5871 25.9899 44.1028 26.4704C43.8138 26.7594 43.5175 26.7955 43.2934 26.5824C43.0549 26.3548 43.0839 26.0513 43.3802 25.7478C44.0342 25.0831 44.6918 24.4183 45.3459 23.75C45.4254 23.6705 45.494 23.5838 45.541 23.526C43.9149 22.435 42.5707 21.0983 41.4686 19.4436C41.2627 19.6351 41.0206 19.8519 40.7929 20.0795C36.9301 23.9559 33.0709 27.8251 29.2154 31.7016C28.742 32.1785 28.3048 32.6915 27.8531 33.1864C27.7772 33.2695 27.705 33.3598 27.6218 33.4357C27.3834 33.6633 27.0979 33.685 26.8883 33.4971C26.6643 33.2984 26.6462 32.9985 26.8811 32.7384C27.4339 32.117 27.9976 31.5065 28.5577 30.8923C28.6408 30.7984 28.7276 30.7081 28.8396 30.5816C28.7095 30.5058 28.5975 30.4371 28.4855 30.3757C24.4022 28.1214 20.319 25.8634 16.2322 23.6127C15.6721 23.3056 15.2313 22.9118 15.0614 22.2652C14.9133 21.6907 15.0253 21.1741 15.43 20.7478C15.9612 20.1842 16.5141 19.6387 17.0705 19.104C17.5728 18.6199 18.1726 18.5585 18.8158 18.7608C20.7454 19.3678 22.6786 19.9711 24.6046 20.5889C24.8828 20.6792 25.0599 20.6431 25.2478 20.4155C25.8946 19.6243 26.7474 19.1004 27.6291 18.6127C27.9073 18.4574 28.1494 18.4935 28.3734 18.7139C29.0419 19.3822 29.7104 20.0506 30.3789 20.7189C30.6282 20.9646 30.6499 21.2247 30.4656 21.5173C30.3175 21.7558 30.1802 22.005 30.0212 22.2796C30.6029 22.4602 31.1522 22.6337 31.7014 22.8071C32.8397 23.1647 33.9815 23.5188 35.1162 23.8873C35.351 23.9631 35.4992 23.9342 35.6799 23.7536C37.0819 22.3374 38.4948 20.9285 39.904 19.5231C41.1506 18.2803 42.5165 17.1857 44.0595 16.3259C45.1146 15.737 46.2059 15.2312 47.42 15.0433C47.4381 15.0397 47.4561 15.0181 47.4706 15.0036C47.7669 15.0036 48.0632 15.0036 48.3595 15.0036C48.8618 15.1589 49.3568 15.336 49.6423 15.8165C49.7941 16.073 49.8844 16.3692 50.0036 16.6438C50 16.9364 50 17.2326 50 17.5289ZM34.5416 24.7868C34.4766 24.7652 34.3826 24.729 34.2887 24.7001C32.3808 24.1004 30.4692 23.4971 28.5613 22.8974C25.2297 21.8497 21.8981 20.8092 18.5701 19.7543C18.1835 19.6315 17.9016 19.6929 17.6234 19.9892C17.1898 20.4552 16.7236 20.8923 16.2756 21.3475C15.9576 21.6691 15.9395 22.0412 16.2539 22.3699C16.3912 22.5144 16.5719 22.6264 16.7489 22.724C20.9297 25.0361 25.1141 27.3446 29.3021 29.6532C29.3997 29.7074 29.5008 29.7543 29.5478 29.7796C31.2245 28.0997 32.883 26.4451 34.5416 24.7868ZM43.1381 18.1105C44.0414 18.4285 44.775 18.9378 45.4181 19.5737C46.065 20.2131 46.5636 20.9574 46.8961 21.8533C47.1273 21.4993 47.3441 21.1922 47.532 20.867C48.1535 19.7941 48.7425 18.703 48.9485 17.453C49.1219 16.3837 48.6269 15.8887 47.5609 16.0513C47.5392 16.0549 47.5176 16.0621 47.4923 16.0657C45.8771 16.3692 44.5148 17.2074 43.1381 18.1105ZM26.0825 21.0441C27.0907 21.3584 28.0482 21.6618 29.013 21.9617C29.1648 21.6944 29.2985 21.4595 29.4394 21.2139C28.9552 20.737 28.4963 20.2782 28.0265 19.8338C27.9615 19.7724 27.8134 19.7218 27.7447 19.7543C27.1232 20.0614 26.5667 20.466 26.0825 21.0441ZM45.6024 22.341C45.8734 22.1026 45.8879 22.0665 45.7614 21.81C45.1941 20.6611 44.3305 19.8049 43.1814 19.2305C42.9538 19.1185 42.7984 19.1655 42.6575 19.4003C43.5211 20.5058 44.4967 21.4848 45.6024 22.341Z" fill="black"/>
<path d="M40.2111 30.4371C38.5381 32.1098 36.8795 33.7644 35.2029 35.4407C35.7666 36.4595 36.3411 37.5036 36.9193 38.5477C37.9419 40.401 38.9645 42.2543 39.9871 44.1076C40.0304 44.1871 40.0774 44.2666 40.1172 44.3497C40.2545 44.6496 40.1858 44.9277 39.9473 45.065C39.6763 45.2204 39.3981 45.1445 39.2246 44.8374C38.8199 44.1257 38.4297 43.4032 38.0358 42.6878C36.8976 40.625 35.7593 38.5657 34.6211 36.5029C34.5633 36.3945 34.4946 36.2933 34.4549 36.2211C32.5144 37.8613 30.5849 39.487 28.63 41.138C29.1467 42.0701 29.6923 43.0527 30.2307 44.039C30.8739 45.2095 30.7041 46.7702 29.8224 47.7782C29.7863 47.8215 29.7465 47.8649 29.7068 47.901C28.7998 48.7391 28.0988 48.9342 27.2063 47.7204C26.3354 46.539 25.3959 45.4082 24.5179 44.2919C23.9867 44.5087 23.5025 44.7688 22.9821 44.9061C21.5151 45.2998 20.254 44.5412 20.0227 43.1358C19.889 42.341 20.1203 41.604 20.5214 40.914C20.5936 40.7876 20.6731 40.6611 20.7635 40.5166C19.8131 39.7688 18.8772 39.0318 17.9377 38.2912C17.5872 38.0166 17.2331 37.7493 16.8934 37.4639C16.3261 36.9942 16.2683 36.362 16.72 35.7803C17.8329 34.3497 19.8998 34.151 21.3091 34.888C22.1944 35.3504 23.0508 35.8706 23.9397 36.3728C24.3878 35.7984 24.8286 35.2348 25.2695 34.6712C25.3453 34.5737 25.4248 34.4689 25.5188 34.393C25.7211 34.2341 25.9416 34.2269 26.1439 34.393C26.339 34.5556 26.4041 34.7688 26.2776 35.0036C26.209 35.1337 26.115 35.2493 26.0247 35.3649C24.5865 37.2326 23.1339 39.0896 21.7246 40.979C21.4211 41.3873 21.1862 41.8858 21.067 42.3808C20.8104 43.4248 21.5693 44.1727 22.6208 43.9234C23.0616 43.8186 23.5241 43.6344 23.8819 43.3598C26.8811 41.0585 29.985 38.8837 32.7421 36.2861C34.3609 34.7652 35.9183 33.1828 37.4974 31.6185C38.8416 30.289 40.175 28.9451 41.512 27.6084C41.5842 27.5361 41.6529 27.4602 41.7324 27.3952C41.9853 27.1857 42.2672 27.1893 42.4659 27.4024C42.6538 27.6011 42.661 27.8865 42.4479 28.1105C42.0648 28.5152 41.671 28.9126 41.2626 29.2955C41.0784 29.4653 41.0386 29.617 41.1181 29.8591C41.6348 31.4595 42.1299 33.0672 42.6358 34.6748C42.661 34.7615 42.6972 34.8446 42.7369 34.9566C43.0079 34.8013 43.2609 34.6568 43.5138 34.505C43.7993 34.3316 44.0522 34.3641 44.2835 34.599C44.952 35.2673 45.6205 35.9357 46.289 36.604C46.5383 36.8533 46.5347 37.1098 46.3685 37.4061C45.8698 38.2948 45.3206 39.1438 44.522 39.7977C44.3413 39.9458 44.3305 40.0903 44.3991 40.2998C45.0098 42.2182 45.6024 44.1402 46.2203 46.0549C46.4769 46.8533 46.3468 47.5217 45.7216 48.0997C45.2627 48.526 44.8364 48.9848 44.3883 49.4256C43.568 50.2348 42.3358 50.1589 41.6999 49.198C41.1868 48.4212 40.7604 47.5867 40.3159 46.7666C40.1641 46.4848 40.2762 46.203 40.5399 46.073C40.8001 45.9465 41.0567 46.026 41.2301 46.3259C41.5951 46.9689 41.9456 47.6192 42.3069 48.2659C42.39 48.414 42.4804 48.5657 42.596 48.685C42.9357 49.0354 43.3259 49.0318 43.6692 48.6922C44.1209 48.2442 44.5617 47.7782 45.0279 47.3446C45.3278 47.0665 45.3748 46.7774 45.2519 46.3945C44.3811 43.6524 43.5211 40.9068 42.661 38.1611C41.8769 35.6647 41.0928 33.1719 40.3087 30.6756C40.2689 30.6141 40.24 30.5274 40.2111 30.4371ZM25.2803 43.6091C26.2957 44.9024 27.2894 46.1597 28.2759 47.4205C28.4023 47.5831 28.5071 47.5361 28.648 47.4422C29.5189 46.8569 29.8766 45.6683 29.396 44.6857C28.901 43.6813 28.3228 42.7131 27.7664 41.7052C26.9316 42.3446 26.1222 42.966 25.2803 43.6091ZM21.385 39.7146C22.0282 38.8728 22.6569 38.0563 23.2784 37.2507C23.2423 37.2037 23.2351 37.1785 23.217 37.1676C22.516 36.7666 21.8041 36.3837 21.114 35.9646C20.6514 35.6828 20.1564 35.56 19.6288 35.5202C18.7435 35.4516 17.7679 35.9285 17.4391 36.6113C18.7435 37.6373 20.0516 38.6669 21.385 39.7146ZM43.774 35.56C43.5969 35.6611 43.456 35.7623 43.3006 35.8273C43.073 35.9212 43.0368 36.0477 43.12 36.2753C43.2717 36.6907 43.3874 37.117 43.5211 37.5397C43.662 37.9877 43.8065 38.4321 43.9583 38.9126C44.5184 38.4248 44.9303 37.8902 45.2302 37.2724C45.2664 37.2001 45.2374 37.0484 45.1832 36.987C44.7279 36.5101 44.2618 36.0477 43.774 35.56Z" fill="black"/>
<path d="M27.0328 38.5224C26.9172 38.7067 26.8558 38.8584 26.7474 38.9668C25.3454 40.3793 23.9361 41.7883 22.5269 43.19C22.2703 43.4429 21.9451 43.4502 21.7391 43.2334C21.544 43.0239 21.5584 42.7168 21.8042 42.4711C23.217 41.0513 24.6335 39.6387 26.05 38.2226C26.2234 38.0491 26.4438 37.9516 26.6643 38.0961C26.8124 38.19 26.9028 38.3671 27.0328 38.5224Z" fill="black"/>
<path d="M34.5416 24.7868C32.883 26.4451 31.2281 28.0997 29.5442 29.7832C29.4936 29.7579 29.396 29.711 29.2985 29.6568C25.1141 27.3446 20.9297 25.0361 16.7453 22.724C16.5683 22.6264 16.3876 22.5144 16.2503 22.3699C15.9359 22.0412 15.954 21.6691 16.272 21.3475C16.72 20.8923 17.1862 20.4552 17.6198 19.9892C17.898 19.6893 18.1835 19.6315 18.5665 19.7543C21.8945 20.8092 25.2261 21.8497 28.5577 22.8974C30.4656 23.4971 32.3772 24.0968 34.2851 24.7001C34.379 24.729 34.473 24.7616 34.5416 24.7868Z" fill="#F28B24"/>
<path d="M26.0825 21.0441C26.5703 20.466 27.1232 20.0614 27.7483 19.7507C27.8134 19.7182 27.9651 19.7688 28.0302 19.8302C28.4999 20.2782 28.9588 20.737 29.443 21.2102C29.3021 21.4595 29.1684 21.6907 29.0167 21.9581C28.0482 21.6618 27.0907 21.362 26.0825 21.0441Z" fill="white"/>
<path d="M45.6024 22.341C44.4967 21.4884 43.5175 20.5057 42.6575 19.4003C42.7984 19.1654 42.9538 19.1185 43.1814 19.2305C44.3305 19.8049 45.1941 20.6611 45.7614 21.8099C45.8915 22.0628 45.8735 22.099 45.6024 22.341Z" fill="#51C4F5"/>
<path d="M25.2803 43.6091C26.1223 42.9624 26.9317 42.3446 27.7628 41.7088C28.3193 42.7167 28.8974 43.6813 29.3925 44.6893C29.8767 45.672 29.5153 46.8605 28.6445 47.4458C28.5035 47.5397 28.4024 47.5867 28.2723 47.4241C27.2894 46.1597 26.2957 44.9024 25.2803 43.6091Z" fill="#F28B24"/>
<path d="M21.385 39.7146C20.0552 38.6669 18.7435 37.6373 17.4391 36.6113C17.7679 35.9285 18.7435 35.4516 19.6288 35.5202C20.1564 35.56 20.6515 35.6864 21.114 35.9646C21.8042 36.3837 22.516 36.7666 23.217 37.1676C23.2351 37.1785 23.2423 37.2038 23.2784 37.2507C22.6533 38.0564 22.0282 38.8728 21.385 39.7146Z" fill="#F28B24"/>
<path d="M43.774 35.5599C44.2583 36.0477 44.728 36.5101 45.1833 36.987C45.2411 37.0448 45.2664 37.2001 45.2303 37.2724C44.9267 37.8901 44.5148 38.4248 43.9583 38.9125C43.8066 38.4357 43.662 37.9877 43.5211 37.5397C43.3874 37.117 43.2682 36.6907 43.12 36.2753C43.0369 36.0477 43.073 35.9212 43.3007 35.8273C43.4561 35.7659 43.597 35.6647 43.774 35.5599Z" fill="white"/>
</g>
<defs>
<clipPath id="clip0_24_468">
<rect width="35" height="35" fill="white" transform="translate(15 15)"/>
</clipPath>
</defs>
</svg>
