<svg width="27" height="27" viewBox="0 0 27 27" fill="none" xmlns="http://www.w3.org/2000/svg">
<path d="M8.48507 8.40167H1.20801V26.1617H8.48507V8.40167Z" fill="#B9B6B6"/>
<path d="M12.0481 25.5981C12.0481 25.4892 12.0481 25.3945 12.0481 25.2998C12.0481 23.6469 12.0481 21.994 12.0481 20.3412C12.0481 19.2424 12.7019 18.5936 13.801 18.5936C15.9377 18.5936 18.0744 18.5936 20.2111 18.5936C21.3007 18.5936 21.964 19.2566 21.9688 20.3459C21.9688 21.9893 21.9688 23.6327 21.9688 25.2761C21.9688 25.3803 21.9688 25.4845 21.9688 25.6171C22.0919 25.6171 22.1914 25.6171 22.2862 25.6171C23.608 25.6171 24.9298 25.6123 26.2563 25.6171C26.7822 25.6171 27.1139 26.0339 26.9717 26.498C26.9007 26.7395 26.7396 26.9005 26.4932 26.9574C26.3558 26.9858 26.209 26.9953 26.0668 26.9953C17.6906 26.9953 9.31443 26.9953 0.938223 26.9953C0.838732 26.9953 0.739241 27 0.644487 26.9905C0.284424 26.9479 0.0238522 26.6827 0.000163875 26.3464C-0.0235245 26.0149 0.213359 25.7165 0.568685 25.636C0.630274 25.6218 0.691864 25.6171 0.777142 25.6029C0.777142 25.4845 0.777142 25.3708 0.777142 25.2571C0.777142 20.0475 0.777142 14.8379 0.772405 9.63305C0.772405 9.16418 0.871896 8.74741 1.20353 8.40642C1.53517 8.06543 1.94261 7.92808 2.41164 7.92808C4.08404 7.93282 5.75644 7.92808 7.4241 7.92808C7.52359 7.92808 7.61834 7.92808 7.76047 7.92808C7.76047 7.81442 7.76047 7.71023 7.76047 7.61077C7.76047 5.64533 7.76047 3.67988 7.76047 1.71444C7.76995 0.629889 8.4048 0 9.48972 0C14.4974 0 19.5004 0 24.5081 0C25.6025 0 26.2279 0.615681 26.2279 1.70496C26.2279 8.48693 26.2279 15.2689 26.2279 22.0461C26.2279 22.6002 25.9768 22.9081 25.5315 22.8986C25.1809 22.8939 24.9014 22.6334 24.8682 22.2829C24.8587 22.1693 24.8635 22.0509 24.8635 21.9325C24.8635 15.231 24.8635 8.52956 24.8635 1.83284C24.8635 1.37818 24.8635 1.37818 24.4039 1.37818C19.4625 1.37818 14.5164 1.37818 9.575 1.37818C9.15335 1.37818 9.15335 1.37818 9.15335 1.78548C9.15335 9.61884 9.15335 17.4569 9.15335 25.2903C9.15335 25.385 9.15335 25.4845 9.15335 25.5981C10.1198 25.5981 11.0674 25.5981 12.0481 25.5981ZM7.75573 25.6029C7.75573 20.1659 7.75573 14.7479 7.75573 9.30626C7.64677 9.30626 7.55201 9.30626 7.45252 9.30626C5.81803 9.30626 4.18353 9.30626 2.54903 9.30626C2.15107 9.30626 2.14633 9.311 2.14633 9.70882C2.14633 14.9042 2.14633 20.1044 2.14633 25.2998C2.14633 25.3945 2.14633 25.4892 2.14633 25.6029C4.02245 25.6029 5.87962 25.6029 7.75573 25.6029ZM20.5854 25.6076C20.5854 25.4892 20.5854 25.404 20.5854 25.314C20.5854 23.6706 20.5854 22.0272 20.5854 20.3838C20.5854 20.0002 20.5569 19.967 20.1779 19.967C18.0602 19.967 15.9424 19.967 13.8247 19.967C13.4504 19.967 13.4125 20.0049 13.4125 20.3838C13.4125 22.0367 13.4125 23.6895 13.4125 25.3377C13.4125 25.4229 13.4125 25.5082 13.4125 25.6029C15.8193 25.6076 18.1834 25.6076 20.5854 25.6076Z" fill="black"/>
<path d="M17.0034 9.99299C15.3216 9.99299 13.6444 9.99299 11.9626 9.99299C11.5362 9.99299 11.2424 9.76092 11.1998 9.39625C11.1572 9.03631 11.3798 8.719 11.7351 8.64322C11.8583 8.61954 11.9815 8.61481 12.1094 8.61481C15.3737 8.61481 18.6332 8.61481 21.8975 8.61481C21.9969 8.61481 22.0964 8.61481 22.1912 8.62901C22.5749 8.68111 22.8355 8.97948 22.8166 9.33942C22.7976 9.70409 22.5134 9.98351 22.1296 9.99299C21.7174 10.0025 21.3052 9.99772 20.8978 9.99772C19.5949 9.99299 18.2968 9.99299 17.0034 9.99299Z" fill="black"/>
<path d="M16.9988 12.7541C18.6807 12.7541 20.3578 12.7541 22.0397 12.7541C22.4708 12.7541 22.7503 12.9767 22.8024 13.3508C22.8498 13.6918 22.6319 14.0186 22.2955 14.0944C22.1676 14.1228 22.0302 14.1275 21.8975 14.1275C18.6333 14.1275 15.3738 14.1275 12.1095 14.1275C12.0195 14.1275 11.9295 14.1275 11.8442 14.1181C11.4368 14.0707 11.1809 13.7865 11.1951 13.4029C11.2094 13.0288 11.5031 12.7541 11.9058 12.7541C12.5501 12.7494 13.1944 12.7541 13.834 12.7541C14.8905 12.7541 15.947 12.7541 16.9988 12.7541Z" fill="black"/>
<path d="M4.96038 16.2019C4.73771 16.2019 4.51504 16.2066 4.29237 16.2019C3.8944 16.1877 3.60067 15.9083 3.58646 15.5389C3.57224 15.1742 3.85177 14.8521 4.24499 14.8379C4.71876 14.819 5.19253 14.8143 5.66156 14.8379C6.069 14.8569 6.32957 15.1552 6.32009 15.5389C6.31062 15.913 6.02636 16.1924 5.62366 16.2066C5.40572 16.2114 5.18305 16.2019 4.96038 16.2019Z" fill="black"/>
<path d="M4.95074 17.959C5.18288 17.959 5.41503 17.9542 5.64717 17.959C6.02145 17.9684 6.30097 18.2337 6.31992 18.5889C6.34361 18.9677 6.10673 19.285 5.72298 19.3087C5.21605 19.3371 4.70438 19.3371 4.19745 19.3087C3.83265 19.2898 3.57207 18.9725 3.58155 18.6267C3.59102 18.2668 3.88002 17.9779 4.2543 17.9637C4.48644 17.9495 4.71859 17.959 4.95074 17.959Z" fill="black"/>
</svg>
