<svg width="27" height="27" viewBox="0 0 27 27" fill="none" xmlns="http://www.w3.org/2000/svg">
<g clip-path="url(#clip0_592_3391)">
<path d="M8.48513 8.40137H1.20807V26.1614H8.48513V8.40137Z" fill="#F28B24"/>
<path d="M12.0481 25.5981C12.0481 25.4892 12.0481 25.3945 12.0481 25.2998C12.0481 23.6469 12.0481 21.994 12.0481 20.3412C12.0481 19.2424 12.7019 18.5936 13.801 18.5936C15.9377 18.5936 18.0744 18.5936 20.2111 18.5936C21.3007 18.5936 21.964 19.2566 21.9688 20.3459C21.9688 21.9893 21.9688 23.6327 21.9688 25.2761C21.9688 25.3803 21.9688 25.4845 21.9688 25.6171C22.0919 25.6171 22.1914 25.6171 22.2862 25.6171C23.608 25.6171 24.9298 25.6123 26.2563 25.6171C26.7822 25.6171 27.1139 26.0339 26.9717 26.498C26.9007 26.7395 26.7396 26.9005 26.4932 26.9574C26.3558 26.9858 26.209 26.9953 26.0668 26.9953C17.6906 26.9953 9.31443 26.9953 0.938223 26.9953C0.838732 26.9953 0.739241 27 0.644487 26.9905C0.284424 26.9479 0.0238522 26.6827 0.000163875 26.3464C-0.0235245 26.0149 0.213359 25.7165 0.568685 25.636C0.630274 25.6218 0.691864 25.6171 0.777142 25.6029C0.777142 25.4845 0.777142 25.3708 0.777142 25.2571C0.777142 20.0475 0.777142 14.8379 0.772405 9.63305C0.772405 9.16418 0.871896 8.74741 1.20353 8.40642C1.53517 8.06543 1.94261 7.92808 2.41164 7.92808C4.08404 7.93282 5.75644 7.92808 7.4241 7.92808C7.52359 7.92808 7.61834 7.92808 7.76047 7.92808C7.76047 7.81442 7.76047 7.71023 7.76047 7.61077C7.76047 5.64533 7.76047 3.67988 7.76047 1.71444C7.76995 0.629889 8.4048 0 9.48972 0C14.4974 0 19.5004 0 24.5081 0C25.6025 0 26.2279 0.615681 26.2279 1.70496C26.2279 8.48693 26.2279 15.2689 26.2279 22.0461C26.2279 22.6002 25.9768 22.9081 25.5315 22.8986C25.1809 22.8939 24.9014 22.6334 24.8682 22.2829C24.8587 22.1693 24.8635 22.0509 24.8635 21.9325C24.8635 15.231 24.8635 8.52956 24.8635 1.83284C24.8635 1.37818 24.8635 1.37818 24.4039 1.37818C19.4625 1.37818 14.5164 1.37818 9.575 1.37818C9.15335 1.37818 9.15335 1.37818 9.15335 1.78548C9.15335 9.61884 9.15335 17.4569 9.15335 25.2903C9.15335 25.385 9.15335 25.4845 9.15335 25.5981C10.1198 25.5981 11.0674 25.5981 12.0481 25.5981ZM7.75573 25.6029C7.75573 20.1659 7.75573 14.7479 7.75573 9.30626C7.64677 9.30626 7.55201 9.30626 7.45252 9.30626C5.81803 9.30626 4.18353 9.30626 2.54903 9.30626C2.15107 9.30626 2.14633 9.311 2.14633 9.70882C2.14633 14.9042 2.14633 20.1044 2.14633 25.2998C2.14633 25.3945 2.14633 25.4892 2.14633 25.6029C4.02245 25.6029 5.87962 25.6029 7.75573 25.6029ZM20.5854 25.6076C20.5854 25.4892 20.5854 25.404 20.5854 25.314C20.5854 23.6706 20.5854 22.0272 20.5854 20.3838C20.5854 20.0002 20.5569 19.967 20.1779 19.967C18.0602 19.967 15.9424 19.967 13.8247 19.967C13.4504 19.967 13.4125 20.0049 13.4125 20.3838C13.4125 22.0367 13.4125 23.6895 13.4125 25.3377C13.4125 25.4229 13.4125 25.5082 13.4125 25.6029C15.8193 25.6076 18.1834 25.6076 20.5854 25.6076Z" fill="black"/>
<path d="M17.0035 9.99341C15.3216 9.99341 13.6445 9.99341 11.9626 9.99341C11.5362 9.99341 11.2425 9.76135 11.1999 9.39668C11.1572 9.03674 11.3799 8.71943 11.7352 8.64365C11.8584 8.61997 11.9816 8.61523 12.1095 8.61523C15.3737 8.61523 18.6333 8.61523 21.8975 8.61523C21.997 8.61523 22.0965 8.61523 22.1913 8.62944C22.575 8.68154 22.8356 8.97991 22.8166 9.33984C22.7977 9.70452 22.5134 9.98394 22.1297 9.99341C21.7175 10.0029 21.3053 9.99815 20.8979 9.99815C19.595 9.99341 18.2969 9.99341 17.0035 9.99341Z" fill="black"/>
<path d="M16.9987 12.7541C18.6806 12.7541 20.3577 12.7541 22.0396 12.7541C22.4707 12.7541 22.7503 12.9767 22.8024 13.3508C22.8498 13.6918 22.6318 14.0186 22.2955 14.0943C22.1675 14.1228 22.0301 14.1275 21.8975 14.1275C18.6332 14.1275 15.3737 14.1275 12.1095 14.1275C12.0194 14.1275 11.9294 14.1275 11.8441 14.118C11.4367 14.0707 11.1809 13.7865 11.1951 13.4029C11.2093 13.0287 11.503 12.7541 11.9057 12.7541C12.5501 12.7493 13.1944 12.7541 13.834 12.7541C14.8905 12.7541 15.947 12.7541 16.9987 12.7541Z" fill="black"/>
<path d="M4.96032 16.2023C4.73765 16.2023 4.51498 16.207 4.29231 16.2023C3.89434 16.1881 3.60061 15.9086 3.58639 15.5392C3.57218 15.1746 3.8517 14.8525 4.24493 14.8383C4.7187 14.8194 5.19247 14.8146 5.6615 14.8383C6.06894 14.8572 6.32951 15.1556 6.32003 15.5392C6.31056 15.9134 6.0263 16.1928 5.62359 16.207C5.40566 16.2117 5.18299 16.2023 4.96032 16.2023Z" fill="black"/>
<path d="M4.95086 17.9591C5.183 17.9591 5.41515 17.9544 5.6473 17.9591C6.02157 17.9686 6.3011 18.2338 6.32005 18.589C6.34373 18.9679 6.10685 19.2852 5.7231 19.3089C5.21617 19.3373 4.7045 19.3373 4.19757 19.3089C3.83277 19.29 3.5722 18.9727 3.58167 18.6269C3.59115 18.267 3.88014 17.9781 4.25442 17.9639C4.48657 17.9497 4.71871 17.9591 4.95086 17.9591Z" fill="black"/>
</g>
<defs>
<clipPath id="clip0_592_3391">
<rect width="27" height="27" fill="white"/>
</clipPath>
</defs>
</svg>
