<svg width="7" height="10" viewBox="0 0 7 10" fill="none" xmlns="http://www.w3.org/2000/svg">
<path d="M3.5 10C3.5 10 0 5.435 0 3.5C-6.84897e-09 3.04037 0.0905302 2.58525 0.266422 2.16061C0.442313 1.73597 0.700121 1.35013 1.02513 1.02513C1.35013 0.700121 1.73597 0.442313 2.16061 0.266422C2.58525 0.0905302 3.04037 0 3.5 0C3.95963 0 4.41475 0.0905302 4.83939 0.266422C5.26403 0.442313 5.64987 0.700121 5.97487 1.02513C6.29988 1.35013 6.55769 1.73597 6.73358 2.16061C6.90947 2.58525 7 3.04037 7 3.5C7 5.435 3.5 10 3.5 10ZM3.5 4.5C3.76522 4.5 4.01957 4.39464 4.20711 4.20711C4.39464 4.01957 4.5 3.76522 4.5 3.5C4.5 3.23478 4.39464 2.98043 4.20711 2.79289C4.01957 2.60536 3.76522 2.5 3.5 2.5C3.23478 2.5 2.98043 2.60536 2.79289 2.79289C2.60536 2.98043 2.5 3.23478 2.5 3.5C2.5 3.76522 2.60536 4.01957 2.79289 4.20711C2.98043 4.39464 3.23478 4.5 3.5 4.5Z" fill="#7D7A7A"/>
</svg>
