<svg width="44" height="35" viewBox="0 0 44 35" fill="none" xmlns="http://www.w3.org/2000/svg">
<g clip-path="url(#clip0_55_179)">
<path d="M35.4992 17.4036C31.7334 17.4036 28.0193 17.4036 24.2807 17.4036C24.2698 17.2696 24.2535 17.1625 24.2535 17.0527C24.2508 15.7109 24.2481 14.369 24.2535 13.0272C24.2562 12.0898 24.7965 11.5434 25.7386 11.5408C28.5025 11.5354 31.2665 11.5354 34.0277 11.5408C34.9562 11.5434 35.4938 12.0818 35.4965 12.9924C35.5019 14.4494 35.4992 15.901 35.4992 17.4036Z" fill="#FF9A65"/>
<path d="M44.0001 34.5822C43.7828 34.9063 43.4761 35.0027 43.0851 35.0027C29.0374 34.9946 14.9898 34.9973 0.942174 34.9946C0.784702 34.9946 0.621799 34.9973 0.475187 34.9571C0.162957 34.8688 -0.00809097 34.6465 0.0136294 34.3251C0.0353497 33.9903 0.230833 33.768 0.578358 33.7385C0.871583 33.7117 1.17024 33.7332 1.49333 33.7332C1.49333 32.7234 1.49333 31.77 1.49333 30.9477C1.04806 30.5621 0.602794 30.2808 0.312284 29.8898C0.103226 29.6086 0.0272046 29.1801 0.0163444 28.8158C-0.0162361 27.4472 0.00548424 26.0759 0.0027692 24.7046C0.0027692 23.8047 0.423601 23.1834 1.24897 22.803C1.37387 22.7468 1.49333 22.5513 1.5069 22.412C1.56392 21.8388 1.50962 21.2469 1.61822 20.6845C1.87615 19.348 2.6798 18.3865 3.92601 17.816C4.23009 17.6768 4.30068 17.5134 4.29525 17.2107C4.27896 15.9546 4.28711 14.6958 4.28982 13.4397C4.28982 12.9335 4.51246 12.6469 4.90614 12.6335C5.31611 12.6201 5.57404 12.9201 5.57675 13.437C5.57947 14.7494 5.57675 16.0618 5.57675 17.4036C6.10076 17.4036 6.59489 17.4036 7.14605 17.4036C7.14605 17.2429 7.14605 17.0929 7.14605 16.9429C7.14605 15.6439 7.14333 14.345 7.14605 13.0433C7.15148 11.3774 8.25379 10.2793 9.94254 10.274C12.6929 10.2659 15.4405 10.2659 18.1908 10.274C19.8823 10.2793 20.9683 11.3747 20.9711 13.0513C20.9738 14.4923 20.9711 15.9305 20.9711 17.4009C21.6607 17.4009 22.3231 17.4009 23.0263 17.4009C23.0263 17.2268 23.0263 17.0742 23.0263 16.9215C23.0263 15.5931 23.0209 14.2646 23.0291 12.9389C23.0372 11.4497 24.0771 10.3088 25.5785 10.2873C28.4836 10.2445 31.3914 10.2445 34.2992 10.2873C35.7762 10.3088 36.8323 11.439 36.8513 12.9014C36.8703 14.2432 36.8568 15.585 36.8568 16.9268C36.8568 17.0795 36.8568 17.2295 36.8568 17.4063C37.3944 17.4063 37.8885 17.4063 38.4261 17.4063C38.4261 17.2429 38.4261 17.1063 38.4261 16.967C38.4261 14.0584 38.4261 11.1471 38.4261 8.23845C38.4261 6.58326 37.4378 5.60568 35.7572 5.603C28.956 5.60033 22.1548 5.603 15.3509 5.59497C15.0523 5.59497 14.8839 5.678 14.7563 5.9485C14.5826 6.31811 14.3735 6.67432 14.1617 7.02518C13.7382 7.72422 12.8884 7.71886 12.4648 7.01447C12.2476 6.65022 12.0386 6.28061 11.8512 5.89762C11.7345 5.65925 11.577 5.58961 11.3136 5.59497C10.2683 5.61104 9.22306 5.59497 8.17777 5.603C6.58404 5.61372 5.5849 6.60737 5.57947 8.17953C5.57675 8.81428 5.58218 9.45172 5.57947 10.0865C5.57675 10.6195 5.34869 10.9194 4.94415 10.9275C4.53689 10.9355 4.29525 10.6355 4.29254 10.1133C4.28982 9.42226 4.28439 8.72858 4.29254 8.03758C4.31697 5.98064 5.84554 4.42455 7.9307 4.33885C8.48728 4.31742 9.04386 4.33617 9.60859 4.33617C9.41311 3.44697 9.49728 3.16307 10.2982 2.81222C11.2485 2.3944 11.9462 1.78643 12.3101 0.819563C12.3535 0.701718 12.4268 0.594586 12.4974 0.487454C12.9074 -0.139267 13.8033 -0.179442 14.1101 0.492811C14.6477 1.67394 15.4649 2.48814 16.665 3.00238C17.2161 3.23807 17.189 3.78444 17.0044 4.33349C17.2053 4.33349 17.3763 4.33349 17.5447 4.33349C23.6155 4.33349 29.6863 4.33081 35.7599 4.33349C37.6387 4.33349 39.0858 5.33517 39.5555 6.98501C39.6696 7.38675 39.7049 7.82063 39.7076 8.23845C39.7211 11.2328 39.7184 14.2271 39.7076 17.2215C39.7076 17.5348 39.8026 17.6768 40.0904 17.8187C41.5592 18.5311 42.3656 19.7016 42.4742 21.3219C42.4823 21.4478 42.4905 21.5764 42.4823 21.7023C42.4443 22.2834 42.4389 22.7655 43.1557 23.0789C43.5358 23.245 43.7258 23.8369 44.0001 24.2386C44.0001 25.934 44.0001 27.6293 44.0001 29.3247C43.7856 29.8202 43.5602 30.3585 43.0199 30.5406C42.4742 30.7228 42.4498 31.0656 42.4823 31.5048C42.4986 31.7164 42.4851 31.928 42.4851 32.1396C42.4851 32.6565 42.4851 33.1761 42.4851 33.6876C43.0525 33.7894 43.6742 33.5216 44.0001 34.1563C44.0001 34.2983 44.0001 34.4402 44.0001 34.5822ZM2.78569 22.6718C15.6224 22.6718 28.3831 22.6718 41.1981 22.6718C41.1981 22.3397 41.2008 22.0344 41.1981 21.7264C41.1873 19.8462 40.0225 18.7052 38.1084 18.7026C36.1047 18.6999 34.0983 18.7052 32.0946 18.6999C31.5461 18.6999 31.2584 18.4722 31.2529 18.0678C31.2475 17.6527 31.5271 17.433 32.0783 17.433C33.0801 17.4304 34.082 17.433 35.0839 17.4304C35.2359 17.4304 35.3879 17.4143 35.5644 17.4063C35.5644 15.9198 35.5671 14.4816 35.5644 13.0433C35.5617 12.0845 35.0214 11.5542 34.0467 11.5435C33.7888 11.5408 33.5308 11.5435 33.2729 11.5435C30.8402 11.5435 28.4048 11.5435 25.9722 11.5435C24.8074 11.5435 24.3187 12.0202 24.3187 13.1531C24.3187 14.353 24.3187 15.5529 24.3187 16.7554C24.3187 16.9643 24.3187 17.1733 24.3187 17.433C24.5115 17.433 24.6662 17.433 24.8183 17.433C26.0509 17.433 27.2808 17.433 28.5134 17.433C28.641 17.433 28.7714 17.4304 28.899 17.4384C29.2682 17.4652 29.4854 17.6661 29.5044 18.0276C29.5234 18.3892 29.3252 18.6169 28.9641 18.6785C28.7958 18.7079 28.622 18.7026 28.451 18.7026C24.3839 18.7026 20.3194 18.7026 16.2523 18.7026C12.758 18.7026 9.2665 18.6972 5.77224 18.7052C4.31426 18.7079 3.16851 19.5516 2.89429 20.8854C2.77483 21.4559 2.81827 22.0558 2.78569 22.6718ZM6.82567 33.701C16.9528 33.701 27.0555 33.701 37.1799 33.701C37.1799 32.7395 37.1799 31.8048 37.1799 30.8245C36.9708 30.8245 36.7862 30.8245 36.6043 30.8245C29.4719 30.8245 22.3394 30.8245 15.207 30.8219C15.0088 30.8219 14.8025 30.8219 14.6097 30.7763C14.2893 30.6987 14.1373 30.463 14.1563 30.1442C14.1753 29.8255 14.3545 29.6166 14.683 29.5711C14.8513 29.547 15.0251 29.555 15.1962 29.555C24.0038 29.555 32.8114 29.555 41.619 29.5523C41.8036 29.5523 41.9936 29.555 42.1755 29.5229C42.4959 29.4666 42.6887 29.2604 42.7023 28.9417C42.7213 28.5078 42.7077 28.0712 42.7077 27.6079C28.8963 27.6079 15.112 27.6079 1.29513 27.6079C1.29513 27.94 1.29513 28.2507 1.29513 28.5587C1.29513 29.3863 1.46075 29.5497 2.2997 29.5497C5.33512 29.5497 8.37325 29.5497 11.4087 29.5497C11.5661 29.5497 11.7263 29.5443 11.8811 29.5657C12.2096 29.6139 12.3888 29.8202 12.4078 30.1389C12.4268 30.4576 12.2748 30.6906 11.9571 30.7736C11.7942 30.8165 11.6177 30.8192 11.4467 30.8192C10.0566 30.8219 8.66919 30.8192 7.27909 30.8219C7.12976 30.8219 6.97772 30.8379 6.82839 30.846C6.82567 31.8262 6.82567 32.7502 6.82567 33.701ZM1.29513 26.2795C15.1256 26.2795 28.9017 26.2795 42.7104 26.2795C42.7104 25.6983 42.724 25.1492 42.705 24.6002C42.6914 24.2091 42.447 23.9949 42.0425 23.9734C41.9421 23.9681 41.8416 23.9708 41.7411 23.9708C28.584 23.9708 15.4242 23.9708 2.26712 23.9708C2.15308 23.9708 2.03905 23.9681 1.92231 23.9734C1.52862 23.9976 1.31414 24.2199 1.29785 24.5948C1.28155 25.1439 1.29513 25.6929 1.29513 26.2795ZM19.6868 17.4036C19.6868 15.9011 19.6896 14.4467 19.6868 12.9924C19.6841 12.0818 19.1465 11.5435 18.218 11.5408C15.4541 11.5354 12.6902 11.5354 9.92897 11.5408C8.98413 11.5435 8.44656 12.0898 8.44384 13.0272C8.43841 14.3691 8.44112 15.7109 8.44384 17.0527C8.44384 17.1625 8.46013 17.2697 8.47099 17.4036C12.2069 17.4036 15.9211 17.4036 19.6868 17.4036ZM2.83456 33.6903C3.75767 33.6903 4.62377 33.6903 5.4763 33.6903C5.4763 32.7208 5.4763 31.7807 5.4763 30.8567C4.5749 30.8567 3.7088 30.8567 2.83456 30.8567C2.83456 31.8182 2.83456 32.7449 2.83456 33.6903ZM41.1737 30.8567C40.2533 30.8567 39.3899 30.8567 38.532 30.8567C38.532 31.8262 38.532 32.7636 38.532 33.6903C39.4333 33.6903 40.2994 33.6903 41.1737 33.6903C41.1737 32.7315 41.1737 31.8048 41.1737 30.8567ZM13.3173 1.70072C12.9264 2.73455 12.2123 3.38537 11.1806 3.79247C12.2503 4.14333 12.8992 4.86379 13.3228 5.86816C13.711 4.82898 14.4224 4.17011 15.4487 3.7764C14.4224 3.38537 13.711 2.7399 13.3173 1.70072Z" fill="black"/>
<path d="M1.29505 26.2794C1.29505 25.6929 1.27876 25.1438 1.30048 24.5975C1.31405 24.2225 1.53126 24.0002 1.92494 23.9761C2.03897 23.9681 2.153 23.9734 2.26975 23.9734C15.4269 23.9734 28.5867 23.9734 41.7438 23.9734C41.8442 23.9734 41.9447 23.9707 42.0451 23.9761C42.4524 23.9975 42.6968 24.2118 42.7076 24.6028C42.7239 25.1519 42.713 25.7009 42.713 26.2821C28.9043 26.2794 15.1255 26.2794 1.29505 26.2794Z" fill="#FF9A65"/>
<path d="M19.6868 17.4036C15.9211 17.4036 12.2069 17.4036 8.46827 17.4036C8.45741 17.2696 8.44112 17.1625 8.44112 17.0527C8.43841 15.7109 8.43569 14.369 8.44112 13.0272C8.44384 12.0898 8.98413 11.5434 9.92625 11.5408C12.6902 11.5354 15.4541 11.5354 18.2153 11.5408C19.1438 11.5434 19.6814 12.0818 19.6841 12.9924C19.6895 14.4494 19.6868 15.901 19.6868 17.4036Z" fill="#FF9A65"/>
</g>
<defs>
<clipPath id="clip0_55_179">
<rect width="44" height="35" fill="white"/>
</clipPath>
</defs>
</svg>
