<svg width="33" height="33" viewBox="0 0 33 33" fill="none" xmlns="http://www.w3.org/2000/svg">
<circle cx="16.5" cy="16.5" r="16.5" fill="#FE8C50"/>
<g clip-path="url(#clip0_79_3674)">
<path d="M16 9.62C18.4023 9.62 18.6862 9.62692 19.6346 9.67538C20.5138 9.71692 20.9915 9.86231 21.3031 9.98692C21.7254 10.1531 22.0231 10.3469 22.3346 10.6585C22.6531 10.9769 22.8469 11.2746 23.0062 11.69C23.1308 12.0085 23.2762 12.4862 23.3177 13.3585C23.3592 14.3069 23.3731 14.5908 23.3731 16.9931C23.3731 19.3954 23.3662 19.6792 23.3177 20.6277C23.2762 21.5069 23.1308 21.9846 23.0062 22.2962C22.84 22.7185 22.6462 23.0162 22.3346 23.3346C22.0231 23.6462 21.7185 23.8469 21.3031 24.0062C20.9846 24.1308 20.5069 24.2762 19.6346 24.3177C18.6862 24.3592 18.4023 24.3731 16 24.3731C13.5977 24.3731 13.3138 24.3662 12.3654 24.3177C11.4862 24.2762 11.0085 24.1308 10.6969 24.0062C10.2746 23.84 9.97692 23.6462 9.65846 23.3346C9.34692 23.0162 9.14615 22.7185 8.98692 22.2962C8.86231 21.9777 8.71692 21.5 8.67538 20.6277C8.63385 19.6931 8.62 19.4023 8.62 17C8.62 14.5977 8.62692 14.3138 8.67538 13.3654C8.71692 12.4862 8.86231 12.0085 8.98692 11.6969C9.14615 11.2746 9.34 10.97 9.65846 10.6585C9.97692 10.34 10.2746 10.1462 10.6969 9.98692C11.0154 9.86231 11.4931 9.71692 12.3654 9.67538C13.3138 9.63385 13.5977 9.62 16 9.62ZM16 8C13.5562 8 13.2515 8.01385 12.2892 8.05538C11.3338 8.09692 10.6762 8.24923 10.1015 8.47077C9.50615 8.69923 9.00769 9.01077 8.50923 9.50923C8.01077 10.0077 7.69923 10.5131 7.47077 11.1015C7.24923 11.6762 7.09692 12.3269 7.05538 13.2892C7.00692 14.2515 7 14.5562 7 17C7 19.4438 7.00692 19.7485 7.05538 20.7108C7.09692 21.6662 7.24923 22.3238 7.47077 22.8985C7.69923 23.4869 8.01077 23.9923 8.50923 24.4908C9.00769 24.9892 9.51308 25.3008 10.1015 25.5292C10.6762 25.7508 11.3269 25.9031 12.2892 25.9446C13.2515 25.9931 13.5562 26 16 26C18.4438 26 18.7485 25.9931 19.7108 25.9446C20.6662 25.9031 21.3238 25.7508 21.8985 25.5292C22.4938 25.3008 22.9923 24.9892 23.4908 24.4908C23.9892 23.9923 24.3008 23.4869 24.5292 22.8985C24.7508 22.3238 24.9031 21.6731 24.9446 20.7108C24.9931 19.7554 25 19.4438 25 17C25 14.5562 24.9931 14.2515 24.9446 13.2892C24.9031 12.3338 24.7508 11.6762 24.5292 11.1015C24.3008 10.5131 23.9892 10.0077 23.4908 9.50923C22.9923 9.01077 22.4869 8.69923 21.8985 8.47077C21.3238 8.24923 20.6731 8.09692 19.7108 8.05538C18.7554 8.01385 18.4438 8 16 8Z" fill="white"/>
<path d="M16 12.3823C13.4454 12.3823 11.3754 14.4523 11.3754 17.0069C11.3754 19.5616 13.4454 21.6316 16 21.6316C18.5546 21.6316 20.6246 19.5616 20.6246 17.0069C20.6246 14.4523 18.5546 12.3823 16 12.3823ZM16 20.0046C14.3454 20.0046 13.0023 18.6616 13.0023 17.0069C13.0023 15.3523 14.3454 14.0092 16 14.0092C17.6546 14.0092 18.9977 15.3523 18.9977 17.0069C19.0046 18.6616 17.6615 20.0046 16 20.0046Z" fill="white"/>
<path d="M21.8846 12.1952C21.8846 12.7906 21.4 13.2752 20.8046 13.2752C20.2092 13.2752 19.7246 12.7906 19.7246 12.1952C19.7246 11.5998 20.2092 11.1152 20.8046 11.1152C21.4 11.1152 21.8846 11.5998 21.8846 12.1952Z" fill="white"/>
</g>
<defs>
<clipPath id="clip0_79_3674">
<rect width="18" height="18" fill="white" transform="translate(7 8)"/>
</clipPath>
</defs>
</svg>
