<svg width="17" height="29" viewBox="0 0 17 29" fill="none" xmlns="http://www.w3.org/2000/svg">
<path d="M12.0171 7.85979C12.6095 7.85979 13.1526 7.85681 13.6956 7.85979C15.5499 7.86574 16.8889 9.09299 16.9907 10.8773C16.9969 10.9726 16.9969 11.0679 16.9969 11.1632C16.9969 15.6075 16.9938 20.0548 17 24.4991C17 25.8276 16.4477 26.8523 15.2012 27.4391C14.7724 27.6417 14.507 27.7996 14.5379 28.3149C14.5626 28.6962 14.1646 28.9851 13.7635 28.997C13.3747 29.0089 13.023 28.7617 12.9397 28.3923C12.8965 28.2077 12.8965 28.017 12.8749 27.8055C9.96846 27.8055 7.05588 27.8055 4.12479 27.8055C4.11244 27.9753 4.10936 28.1451 4.08468 28.3119C4.01988 28.717 3.68358 29 3.27014 29C2.85979 29 2.44635 28.714 2.46795 28.3179C2.50189 27.7817 2.19643 27.6387 1.77683 27.4332C0.561193 26.8434 0.00274254 25.8395 0.00274254 24.5348C0.00274254 20.442 0.00274254 16.3492 0.00274254 12.2564C0.00274254 11.8483 -0.00342818 11.4373 0.00274254 11.0292C0.0305108 9.50406 0.983888 8.3066 2.46178 7.96106C2.73637 7.89553 3.0264 7.87766 3.31025 7.8717C3.85019 7.85681 4.39321 7.86872 4.96709 7.86872C4.97326 7.74362 4.98252 7.6334 4.98252 7.52319C4.98252 5.82828 4.97943 4.13337 4.9856 2.44143C4.98869 1.27674 5.6397 0.400988 6.71032 0.0852405C6.78437 0.0643892 6.86459 0.0346017 6.93864 0.0346017C7.97223 0.0286442 9.012 -0.0488034 10.0363 0.0494954C11.1687 0.159709 11.9832 1.10993 12.0017 2.21803C12.0295 3.97847 12.0141 5.73891 12.0141 7.49936C12.0171 7.60361 12.0171 7.71383 12.0171 7.85979ZM1.68426 14.2045C1.68426 14.3564 1.68426 14.4518 1.68426 14.5441C1.68426 17.8565 1.70586 21.1689 1.67192 24.4812C1.66267 25.4761 2.36304 26.1761 3.40898 26.1702C6.79979 26.1434 10.1937 26.1612 13.5845 26.1583C14.7261 26.1583 15.3216 25.5893 15.3216 24.4931C15.3216 21.1808 15.3216 17.8684 15.3216 14.556C15.3216 14.4547 15.3216 14.3535 15.3216 14.2045C13.3932 15.0535 11.4062 15.4675 9.33288 15.5807C9.33288 15.7833 9.33905 15.9531 9.33288 16.1228C9.30819 16.5667 8.95955 16.8884 8.50908 16.8914C8.05554 16.8914 7.7038 16.5726 7.67912 16.1288C7.66987 15.9501 7.67604 15.7714 7.67604 15.5777C5.59033 15.4705 3.61262 15.0535 1.68426 14.2045ZM8.51217 9.46533C6.76586 9.46533 5.02263 9.45938 3.27631 9.46831C2.33836 9.47129 1.69969 10.0939 1.68735 10.9934C1.68118 11.3926 1.67192 11.7947 1.69661 12.1909C1.70278 12.2951 1.79225 12.4411 1.88481 12.4858C2.3507 12.7092 2.81968 12.9326 3.30717 13.1084C5.71375 13.9781 8.19438 14.1718 10.7275 13.8411C12.2516 13.6415 13.7048 13.2096 15.0778 12.5305C15.2722 12.4352 15.3462 12.322 15.337 12.1134C15.3185 11.7798 15.3339 11.4462 15.3308 11.1156C15.3277 10.0611 14.7137 9.46831 13.6277 9.46533C11.9215 9.46533 10.2153 9.46533 8.51217 9.46533ZM10.3418 7.85085C10.3418 7.74957 10.3418 7.6751 10.3418 7.60064C10.3418 5.87892 10.3418 4.1572 10.3418 2.43548C10.3418 1.86654 10.0641 1.59547 9.4748 1.59249C8.85464 1.58951 8.23449 1.59249 7.61124 1.59249C6.91087 1.59249 6.65478 1.83973 6.65478 2.52484C6.65478 4.1989 6.65478 5.87296 6.65478 7.54702C6.65478 7.6483 6.65478 7.74659 6.65478 7.85383C7.90127 7.85085 9.10147 7.85085 10.3418 7.85085Z" fill="#4A4A4A"/>
</svg>
