<svg width="33" height="33" viewBox="0 0 33 33" fill="none" xmlns="http://www.w3.org/2000/svg">
<circle cx="16.5" cy="16.5" r="16.5" fill="#269A59"/>
<g clip-path="url(#clip0_79_3684)">
<path d="M11.8477 10.6689H8.33612V21.9999H11.8477V10.6689Z" fill="white"/>
<path d="M10.074 9.18209C11.2183 9.18209 12.1481 8.24558 12.1481 7.08747C12.1481 5.92935 11.2255 5 10.074 5C8.92974 5 8 5.9365 8 7.09462C8 8.25273 8.92974 9.18209 10.074 9.18209Z" fill="white"/>
<path d="M17.4548 16.0522C17.4548 14.458 18.1914 13.5072 19.5932 13.5072C20.8805 13.5072 21.5027 14.4151 21.5027 16.0522C21.5027 17.6822 21.5027 22.0001 21.5027 22.0001H24.9928C24.9928 22.0001 24.9928 17.8609 24.9928 14.8226C24.9928 11.7844 23.2692 10.3188 20.8662 10.3188C18.4632 10.3188 17.4476 12.1919 17.4476 12.1919V10.6691H14.0934V22.0001H17.4619C17.4548 22.0001 17.4548 17.7966 17.4548 16.0522Z" fill="white"/>
</g>
<defs>
<clipPath id="clip0_79_3684">
<rect width="17" height="17" fill="white" transform="translate(8 5)"/>
</clipPath>
</defs>
</svg>
