<svg width="18" height="24" viewBox="0 0 18 24" fill="none" xmlns="http://www.w3.org/2000/svg">
<g clip-path="url(#clip0_78_1737)">
<path d="M9.68325 0C10.1535 0.0795013 10.6292 0.134589 11.0928 0.243512C14.3657 1.01161 17.2731 3.73093 17.8731 7.49691C18.2441 9.82686 17.7823 12.0203 16.7279 14.0999C16.1724 15.1954 15.4098 16.1369 14.6684 17.0959C12.9811 19.2769 11.2938 21.4585 9.6065 23.6394C9.2331 24.1221 8.76528 24.1208 8.39249 23.6388C6.38051 21.0353 4.35879 18.4399 2.36021 15.8258C1.11696 14.1994 0.332999 12.3546 0.079598 10.297C-0.409539 6.32818 1.41178 2.89209 4.75899 1.06106C5.81462 0.482016 6.9464 0.148361 8.1397 0.0413156C8.19879 0.0356817 8.25726 0.0143979 8.31574 0C8.77137 0 9.22762 0 9.68325 0ZM9.01016 22.1652C9.04488 22.107 9.05828 22.0788 9.07716 22.0544C10.9369 19.6456 12.8252 17.2593 14.6471 14.8204C16.1231 12.8448 16.8546 10.6037 16.5683 8.08284C16.4069 6.66183 15.8776 5.38856 14.9815 4.29244C12.601 1.37844 8.70193 0.552127 5.41442 2.30679C2.46559 3.88054 0.995131 6.90284 1.44346 10.2494C1.67432 11.9709 2.35229 13.5108 3.3866 14.8768C4.6463 16.54 5.93158 18.182 7.20589 19.8328C7.79554 20.5958 8.3864 21.3589 9.01016 22.1652Z" fill="black"/>
<path d="M12.6816 9.55886C12.6816 9.66528 12.6816 9.74916 12.6816 9.83242C12.6816 10.9016 12.6822 11.9708 12.6816 13.04C12.681 13.6141 12.4172 13.8939 11.8623 13.8951C9.95634 13.8976 8.04974 13.8976 6.14375 13.8951C5.58639 13.8945 5.31776 13.6153 5.31715 13.0469C5.31593 11.9777 5.31715 10.9085 5.31715 9.83931C5.31715 9.75417 5.31715 9.66904 5.31715 9.57514C5.18801 9.61896 5.07776 9.67467 4.96141 9.69282C4.64405 9.74165 4.35776 9.57827 4.23288 9.29532C4.10192 8.9986 4.17075 8.67809 4.42963 8.45023C5.09908 7.86242 5.77278 7.27899 6.44466 6.69368C7.12263 6.10337 7.8006 5.51369 8.47796 4.92337C8.83918 4.60912 9.15532 4.60599 9.51654 4.91962C10.8554 6.08397 12.1931 7.24957 13.5308 8.41517C13.8091 8.65805 13.8932 8.94163 13.7829 9.24586C13.6477 9.62021 13.2518 9.80175 12.8893 9.65464C12.8272 9.6296 12.7675 9.59892 12.6816 9.55886ZM11.2946 12.4616C11.2946 12.3464 11.2946 12.2538 11.2946 12.1617C11.2946 11.0606 11.2782 9.9595 11.3037 8.85962C11.3129 8.47464 11.2154 8.2161 10.9121 7.97322C10.2603 7.45176 9.64385 6.88399 9.00669 6.32936C8.94943 6.37505 8.9007 6.41074 8.85562 6.45017C8.1941 7.02484 7.53623 7.60263 6.87045 8.17166C6.7474 8.27682 6.69989 8.38512 6.70111 8.54851C6.7072 9.7742 6.70415 10.9999 6.70537 12.2256C6.70537 12.3007 6.71329 12.3765 6.71816 12.4616C8.24222 12.4616 9.75106 12.4616 11.2946 12.4616Z" fill="black"/>
<path d="M11.2946 12.4616C9.75106 12.4616 8.24223 12.4616 6.71756 12.4616C6.71269 12.3765 6.70477 12.3007 6.70477 12.2256C6.70416 10.9999 6.70721 9.77419 6.70051 8.5485C6.6999 8.38449 6.7468 8.27681 6.86985 8.17165C7.53563 7.60262 8.19411 7.02483 8.85502 6.45016C8.90071 6.41072 8.94883 6.37504 9.00609 6.32935C9.64325 6.88398 10.2597 7.45175 10.9115 7.97321C11.2154 8.21609 11.3123 8.47463 11.3031 8.85962C11.2776 9.96011 11.294 11.0612 11.294 12.1617C11.2946 12.2544 11.2946 12.3464 11.2946 12.4616Z" fill="#F28B24"/>
</g>
<defs>
<clipPath id="clip0_78_1737">
<rect width="18" height="24" fill="white"/>
</clipPath>
</defs>
</svg>
