<svg width="13" height="16" viewBox="0 0 13 16" fill="none" xmlns="http://www.w3.org/2000/svg">
<path d="M0.75 8.60756C0.75 8.19079 0.915561 7.79109 1.21026 7.49639C1.50496 7.20169 1.90466 7.03613 2.32143 7.03613H10.1786C10.5953 7.03613 10.995 7.20169 11.2897 7.49639C11.5844 7.79109 11.75 8.19079 11.75 8.60756V13.3218C11.75 13.7386 11.5844 14.1383 11.2897 14.433C10.995 14.7277 10.5953 14.8933 10.1786 14.8933H2.32143C1.90466 14.8933 1.50496 14.7277 1.21026 14.433C0.915561 14.1383 0.75 13.7386 0.75 13.3218V8.60756Z" stroke="#4B5565" stroke-width="1.5" stroke-linecap="round" stroke-linejoin="round"/>
<path d="M3.10547 7.03571V3.89286C3.10547 3.05932 3.43659 2.25992 4.02599 1.67052C4.61539 1.08112 5.41479 0.75 6.24833 0.75C7.08186 0.75 7.88126 1.08112 8.47066 1.67052C9.06006 2.25992 9.39118 3.05932 9.39118 3.89286V7.03571M5.46261 10.9643C5.46261 11.1727 5.54539 11.3725 5.69274 11.5199C5.84009 11.6672 6.03994 11.75 6.24833 11.75C6.45671 11.75 6.65656 11.6672 6.80391 11.5199C6.95126 11.3725 7.03404 11.1727 7.03404 10.9643C7.03404 10.7559 6.95126 10.5561 6.80391 10.4087C6.65656 10.2614 6.45671 10.1786 6.24833 10.1786C6.03994 10.1786 5.84009 10.2614 5.69274 10.4087C5.54539 10.5561 5.46261 10.7559 5.46261 10.9643Z" stroke="#4B5565" stroke-width="1.5" stroke-linecap="round" stroke-linejoin="round"/>
</svg>
