<svg width="18" height="18" viewBox="0 0 18 18" fill="none" xmlns="http://www.w3.org/2000/svg">
<g clip-path="url(#clip0_2875_8078)">
<g clip-path="url(#clip1_2875_8078)">
<path d="M10.827 5.41895V3.65527C10.827 3.18752 10.6411 2.73892 10.3104 2.40817C9.97965 2.07742 9.53106 1.8916 9.06332 1.8916H2.89059C2.42284 1.8916 1.97426 2.07742 1.64351 2.40817C1.31276 2.73892 1.12695 3.18752 1.12695 3.65527V14.2373C1.12695 14.7051 1.31276 15.1537 1.64351 15.4844C1.97426 15.8152 2.42284 16.001 2.89059 16.001H9.06332C9.53106 16.001 9.97965 15.8152 10.3104 15.4844C10.6411 15.1537 10.827 14.7051 10.827 14.2373V12.4736" stroke="white" stroke-width="1.2" stroke-linecap="round" stroke-linejoin="round"/>
<path d="M6.41797 8.9458H16.9998M16.9998 8.9458L14.3543 6.30029M16.9998 8.9458L14.3543 11.5913" stroke="white" stroke-width="1.2" stroke-linecap="round" stroke-linejoin="round"/>
</g>
</g>
<defs>
<clipPath id="clip0_2875_8078">
<rect width="18" height="18" fill="white"/>
</clipPath>
<clipPath id="clip1_2875_8078">
<rect width="18" height="18" fill="white"/>
</clipPath>
</defs>
</svg>
