<svg width="16" height="14" viewBox="0 0 16 14" fill="none" xmlns="http://www.w3.org/2000/svg">
<path d="M9.15567 3.72369V2.16183C9.15567 1.7476 8.99178 1.35034 8.70006 1.05743C8.40834 0.764528 8.01267 0.599976 7.60011 0.599976H2.15566C1.7431 0.599976 1.34743 0.764528 1.05571 1.05743C0.763986 1.35034 0.600098 1.7476 0.600098 2.16183V11.533C0.600098 11.9472 0.763986 12.3445 1.05571 12.6374C1.34743 12.9303 1.7431 13.0948 2.15566 13.0948H7.60011C8.01267 13.0948 8.40834 12.9303 8.70006 12.6374C8.99178 12.3445 9.15567 11.9472 9.15567 11.533V9.97113" stroke="#697586" stroke-width="1.2" stroke-linecap="round" stroke-linejoin="round"/>
<path d="M5.2666 6.84743H14.6M14.6 6.84743L12.2666 4.50464M14.6 6.84743L12.2666 9.19022" stroke="#697586" stroke-width="1.2" stroke-linecap="round" stroke-linejoin="round"/>
</svg>
