<svg width="11" height="16" viewBox="0 0 11 16" fill="none" xmlns="http://www.w3.org/2000/svg">
<path d="M5.5 16C5.5 16 0 8.696 0 5.6C-1.07627e-08 4.8646 0.142262 4.1364 0.418663 3.45697C0.695063 2.77755 1.10019 2.16021 1.61091 1.6402C2.12163 1.12019 2.72795 0.707701 3.39524 0.426275C4.06253 0.144848 4.77773 0 5.5 0C6.22227 0 6.93747 0.144848 7.60476 0.426275C8.27205 0.707701 8.87836 1.12019 9.38909 1.6402C9.89981 2.16021 10.3049 2.77755 10.5813 3.45697C10.8577 4.1364 11 4.8646 11 5.6C11 8.696 5.5 16 5.5 16ZM5.5 7.2C5.91677 7.2 6.31647 7.03143 6.61117 6.73137C6.90587 6.43131 7.07143 6.02435 7.07143 5.6C7.07143 5.17565 6.90587 4.76869 6.61117 4.46863C6.31647 4.16857 5.91677 4 5.5 4C5.08323 4 4.68353 4.16857 4.38883 4.46863C4.09413 4.76869 3.92857 5.17565 3.92857 5.6C3.92857 6.02435 4.09413 6.43131 4.38883 6.73137C4.68353 7.03143 5.08323 7.2 5.5 7.2Z" fill="#4A4A4A"/>
</svg>
