<svg width="18" height="18" viewBox="0 0 18 18" fill="none" xmlns="http://www.w3.org/2000/svg">
<path d="M3.07914 9.00762H7.11725C8.37929 9.00762 9.5638 8.60728 10.4134 7.92971C10.902 7.55006 11.2766 7.05945 11.501 6.5055H3.07807C2.79247 6.5055 2.51858 6.40006 2.31664 6.21236C2.11469 6.02467 2.00124 5.7701 2.00124 5.50466C2.00124 5.23922 2.11469 4.98465 2.31664 4.79695C2.51858 4.60926 2.79247 4.50381 3.07807 4.50381H11.501C11.2766 3.94987 10.902 3.45926 10.4134 3.07961C9.56272 2.40303 8.37929 2.00169 7.11725 2.00169H3.07807C2.79247 2.00169 2.51858 1.89625 2.31664 1.70855C2.11469 1.52086 2.00124 1.26629 2.00124 1.00085C2.00124 0.735406 2.11469 0.480836 2.31664 0.293141C2.51858 0.105446 2.79247 0 3.07807 0H7.11617L7.31 0.00200179L7.38538 0H14.9232C15.2088 0 15.4827 0.105446 15.6846 0.293141C15.8866 0.480836 16 0.735406 16 1.00085C16 1.26629 15.8866 1.52086 15.6846 1.70855C15.4827 1.89625 15.2088 2.00169 14.9232 2.00169H12.3119C13.0241 2.69871 13.5166 3.56427 13.7354 4.50381H14.9232C15.2088 4.50381 15.4827 4.60926 15.6846 4.79695C15.8866 4.98465 16 5.23922 16 5.50466C16 5.7701 15.8866 6.02467 15.6846 6.21236C15.4827 6.40006 15.2088 6.5055 14.9232 6.5055H13.7354C13.4813 7.63346 12.804 8.66133 11.8154 9.449C10.5448 10.4609 8.85309 11.0093 7.11617 11.0093H5.99842L12.608 16.2538C12.8174 16.4282 12.9452 16.6718 12.9638 16.9326C12.9825 17.1934 12.8907 17.4507 12.708 17.6494C12.5253 17.8481 12.2662 17.9725 11.9861 17.996C11.7061 18.0194 11.4272 17.9401 11.2092 17.775L2.38244 10.7721L2.37167 10.7631C2.18145 10.6105 2.05493 10.4006 2.01419 10.1701C1.97345 9.93966 2.02108 9.70321 2.14876 9.50204C2.2439 9.35131 2.37985 9.22635 2.54308 9.13961C2.7063 9.05287 2.89112 9.00737 3.07914 9.00762Z" fill="white"/>
</svg>
