<svg width="14" height="14" viewBox="0 0 14 14" fill="none" xmlns="http://www.w3.org/2000/svg">
<path d="M2.3479 7.00593H5.5207C6.5123 7.00593 7.44299 6.69455 8.11054 6.16755C8.49442 5.87227 8.78879 5.49068 8.96508 5.05984H2.34705C2.12266 5.05984 1.90746 4.97782 1.74878 4.83184C1.59011 4.68585 1.50097 4.48785 1.50097 4.2814C1.50097 4.07495 1.59011 3.87695 1.74878 3.73096C1.90746 3.58498 2.12266 3.50296 2.34705 3.50296H8.96508C8.78879 3.07212 8.49442 2.69053 8.11054 2.39525C7.44214 1.86903 6.5123 1.55687 5.5207 1.55687H2.34705C2.12266 1.55687 1.90746 1.47486 1.74878 1.32887C1.59011 1.18289 1.50097 0.984891 1.50097 0.778436C1.50097 0.571982 1.59011 0.373984 1.74878 0.227999C1.90746 0.0820136 2.12266 0 2.34705 0H5.51985L5.67214 0.00155695L5.73137 0H11.6539C11.8783 0 12.0935 0.0820136 12.2522 0.227999C12.4109 0.373984 12.5 0.571982 12.5 0.778436C12.5 0.984891 12.4109 1.18289 12.2522 1.32887C12.0935 1.47486 11.8783 1.55687 11.6539 1.55687H9.60218C10.1618 2.09899 10.5488 2.77221 10.7207 3.50296H11.6539C11.8783 3.50296 12.0935 3.58498 12.2522 3.73096C12.4109 3.87695 12.5 4.07495 12.5 4.2814C12.5 4.48785 12.4109 4.68585 12.2522 4.83184C12.0935 4.97782 11.8783 5.05984 11.6539 5.05984H10.7207C10.521 5.93713 9.98884 6.73659 9.21214 7.34922C8.21376 8.13622 6.88457 8.5628 5.51985 8.5628H4.64162L9.83485 12.6418C9.99941 12.7775 10.0998 12.967 10.1144 13.1698C10.1291 13.3727 10.057 13.5727 9.91344 13.7273C9.76989 13.8818 9.56632 13.9786 9.34625 13.9969C9.12619 14.0151 8.90709 13.9534 8.73579 13.825L1.80049 8.37831L1.79202 8.37131C1.64257 8.2526 1.54316 8.08937 1.51115 7.91011C1.47914 7.73085 1.51656 7.54694 1.61689 7.39048C1.69164 7.27324 1.79845 7.17605 1.9267 7.10859C2.05495 7.04112 2.20017 7.00573 2.3479 7.00593Z" fill="#697586"/>
</svg>
