<svg width="14" height="14" viewBox="0 0 14 14" fill="none" xmlns="http://www.w3.org/2000/svg">
<g clip-path="url(#clip0_2875_8092)">
<mask id="mask0_2875_8092" style="mask-type:luminance" maskUnits="userSpaceOnUse" x="0" y="0" width="14" height="14">
<path d="M14 0H0V14H14V0Z" fill="white"/>
</mask>
<g mask="url(#mask0_2875_8092)">
</g>
<path d="M13.9998 7.41568C14.0048 7.21345 13.9271 7.08547 13.7543 6.98307C12.5819 6.29449 11.4094 5.60335 10.237 4.91221C10.0416 5.07092 9.81365 5.19123 9.56815 5.2629C10.45 5.78254 11.3343 6.30473 12.2161 6.82437C12.5693 7.03171 12.92 7.24161 13.2758 7.44639C13.3409 7.48479 13.371 7.52575 13.366 7.6051C13.361 7.77404 13.3635 7.94299 13.3635 8.12985C13.0228 8.02234 12.6971 7.91995 12.3714 7.81756C11.1765 7.43615 9.9815 7.05731 8.78654 6.6759C8.4759 6.57607 8.31306 6.7015 8.28801 7.03427C8.21536 8.03002 8.1377 9.02578 8.06255 10.0215C8.04251 10.2929 8.02497 10.5668 7.99992 10.8381C7.98489 11.0045 8.05002 11.1197 8.18029 11.2144C8.68884 11.583 9.19238 11.9567 9.69842 12.3253C9.78109 12.3842 9.82367 12.4456 9.81616 12.5557C9.80614 12.6991 9.81365 12.8424 9.81365 13.0037C9.74351 12.9832 9.68589 12.9704 9.62827 12.9525C8.97944 12.7477 8.33311 12.5429 7.68427 12.333C7.55651 12.2921 7.44127 12.2921 7.31351 12.3356C6.64713 12.5531 5.97575 12.7605 5.30687 12.973C5.27431 12.9832 5.24174 12.9909 5.18663 13.0037C5.18663 12.8117 5.18162 12.6299 5.19164 12.4508C5.19414 12.4149 5.24675 12.3765 5.28182 12.3484C5.78285 11.9772 6.28138 11.606 6.78742 11.2451C6.95026 11.1299 7.01038 10.9917 6.99535 10.7895C6.89514 9.52237 6.80245 8.25272 6.70475 6.98563C6.68471 6.71686 6.50434 6.58887 6.24631 6.67078C4.76326 7.14178 3.2777 7.61278 1.79464 8.08378C1.75206 8.09658 1.70195 8.10938 1.63682 8.12985C1.63682 7.92507 1.63181 7.73821 1.64183 7.5539C1.64433 7.51551 1.69945 7.47199 1.73953 7.44639C2.75412 6.84485 3.77121 6.24586 4.78831 5.64431C5.28433 5.34994 5.78035 5.053 6.27888 4.76631C6.45424 4.66648 6.52438 4.53593 6.50685 4.32858C6.45424 3.74751 6.41415 3.169 6.37407 2.58794C6.34652 2.19117 6.37658 1.79952 6.52689 1.4258C6.67469 1.05719 6.90517 0.765374 7.30349 0.670662C7.69179 0.57851 8.00242 0.732096 8.24543 1.03415C8.36317 1.18006 8.44584 1.3362 8.50596 1.50259C8.67631 1.45139 8.85668 1.42324 9.04206 1.42324C9.07213 1.42324 9.10219 1.4258 9.13476 1.42836C8.96441 0.849846 8.65878 0.381407 8.09261 0.127989C7.96234 0.069114 7.81704 0.0409564 7.67926 0C7.55651 0 7.43375 0 7.311 0C7.29848 0.00511956 7.28845 0.0153587 7.27593 0.0179184C6.6772 0.12031 6.27387 0.491477 6.01082 1.03415C5.77534 1.52051 5.71522 2.0427 5.74528 2.5777C5.77534 3.09221 5.82043 3.60417 5.86302 4.11868C5.87054 4.22107 5.85049 4.27739 5.7578 4.33114C4.24719 5.21683 2.73658 6.11019 1.22597 6.99843C1.07316 7.08802 1.00051 7.20833 1.00301 7.39008C1.00802 7.75357 1.01804 8.11706 1.00051 8.47798C0.987983 8.78516 1.20844 8.95154 1.49653 8.85683C2.72656 8.45239 3.9616 8.06842 5.19414 7.67677C5.49476 7.58206 5.79288 7.48735 6.09349 7.39264C6.0985 7.41824 6.10351 7.43103 6.10602 7.44383C6.18619 8.51894 6.26886 9.59661 6.34652 10.6743C6.34902 10.7229 6.31144 10.792 6.26886 10.8202C5.76281 11.199 5.25427 11.5728 4.74321 11.9439C4.61295 12.0386 4.55032 12.1538 4.55282 12.3151C4.55783 12.6658 4.55533 13.0139 4.55533 13.3646C4.55533 13.6948 4.73319 13.8305 5.04133 13.7332C5.82795 13.4849 6.61206 13.2341 7.40119 12.9883C7.46632 12.9678 7.54899 12.9704 7.61413 12.9909C8.40576 13.2392 9.19488 13.4926 9.984 13.7409C10.2571 13.8279 10.4424 13.6846 10.445 13.3928C10.4475 13.0395 10.4399 12.6837 10.4475 12.3304C10.45 12.1564 10.3848 12.0361 10.247 11.9362C9.7385 11.5702 9.23496 11.1965 8.73143 10.8202C8.69134 10.7895 8.65126 10.7203 8.65377 10.6743C8.71639 9.77067 8.78403 8.86963 8.84917 7.96603C8.8642 7.77661 8.88174 7.58718 8.89677 7.39008C8.93935 7.40288 8.96441 7.41056 8.98946 7.41824C10.4976 7.89691 12.0082 8.37815 13.5163 8.85683C13.8169 8.95154 13.9948 8.81843 13.9948 8.49334C13.9998 8.13497 13.9923 7.77404 13.9998 7.41568Z" fill="#697586"/>
<path d="M9.04671 5.35538C7.98202 5.35538 7.11523 4.4697 7.11523 3.38179C7.11523 2.29389 7.98202 1.4082 9.04671 1.4082C10.1114 1.4082 10.9782 2.29389 10.9782 3.38179C10.9782 4.4697 10.1114 5.35538 9.04671 5.35538ZM9.04671 1.92272C8.25759 1.92272 7.61627 2.57802 7.61627 3.38435C7.61627 4.19068 8.25759 4.84599 9.04671 4.84599C9.83584 4.84599 10.4772 4.19068 10.4772 3.38435C10.4772 2.57802 9.83584 1.92272 9.04671 1.92272Z" fill="#697586"/>
<path d="M8.7304 4.37715L8.00391 3.63737L8.35964 3.27388L8.7304 3.65273L9.79509 2.56738L10.1483 2.92831L8.7304 4.37715Z" fill="#697586"/>
</g>
<defs>
<clipPath id="clip0_2875_8092">
<rect width="14" height="14" fill="white"/>
</clipPath>
</defs>
</svg>
