<svg width="18" height="18" viewBox="0 0 18 18" fill="none" xmlns="http://www.w3.org/2000/svg">
<g clip-path="url(#clip0_2875_8048)">
<g clip-path="url(#clip1_2875_8048)">
<g clip-path="url(#clip2_2875_8048)">
<path d="M18.0007 9.69797C18.0076 9.43351 17.9001 9.26613 17.6608 9.13223C16.0373 8.23173 14.4139 7.32788 12.7905 6.42403C12.5199 6.63158 12.2042 6.78892 11.8643 6.88265C13.0853 7.56221 14.3098 8.24512 15.5309 8.92468C16.02 9.19583 16.5056 9.47034 16.9982 9.73814C17.0884 9.78836 17.13 9.84192 17.1231 9.94569C17.1161 10.1666 17.1196 10.3876 17.1196 10.632C16.6478 10.4914 16.1969 10.3574 15.7459 10.2235C14.0913 9.72475 12.4366 9.22931 10.782 8.73052C10.3518 8.59996 10.1264 8.76399 10.0917 9.19918C9.99107 10.5014 9.88353 11.8036 9.77947 13.1058C9.75172 13.4607 9.72744 13.8189 9.69275 14.1737C9.67193 14.3913 9.76212 14.5419 9.94251 14.6658C10.6467 15.1479 11.3439 15.6366 12.0446 16.1187C12.1591 16.1956 12.2181 16.276 12.2077 16.4199C12.1938 16.6074 12.2042 16.7949 12.2042 17.0058C12.1071 16.979 12.0273 16.9622 11.9475 16.9388C11.0491 16.671 10.1541 16.4032 9.25567 16.1287C9.07876 16.0751 8.91919 16.0751 8.74227 16.132C7.81955 16.4166 6.88989 16.6877 5.9637 16.9656C5.91861 16.979 5.87351 16.989 5.7972 17.0058C5.7972 16.7547 5.79026 16.517 5.80414 16.2827C5.8076 16.2358 5.88045 16.1856 5.92901 16.1488C6.62279 15.6634 7.3131 15.178 8.01381 14.706C8.23929 14.5553 8.32254 14.3746 8.30173 14.1101C8.16297 12.453 8.03462 10.7926 7.89934 9.13558C7.87159 8.78408 7.62183 8.6167 7.26453 8.72382C5.21096 9.33978 3.15391 9.95574 1.10034 10.5717C1.04137 10.5884 0.971989 10.6052 0.881799 10.632C0.881799 10.3641 0.874861 10.1198 0.888736 9.87874C0.892205 9.82853 0.968521 9.77162 1.02402 9.73814C2.42892 8.95146 3.83728 8.16812 5.24565 7.38144C5.93248 6.99647 6.61932 6.60815 7.30963 6.23322C7.55245 6.10266 7.64958 5.93193 7.6253 5.66078C7.55245 4.90087 7.49695 4.14432 7.44145 3.38441C7.40329 2.86554 7.44491 2.35336 7.65305 1.86461C7.85771 1.38256 8.17685 1.00093 8.7284 0.877069C9.26607 0.756556 9.69622 0.957411 10.0327 1.35243C10.1957 1.54324 10.3102 1.74744 10.3935 1.96504C10.6293 1.89808 10.8791 1.86126 11.1358 1.86126C11.1774 1.86126 11.2191 1.86461 11.2641 1.86796C11.0283 1.1114 10.6051 0.498791 9.82109 0.16738C9.64071 0.090385 9.43952 0.0535615 9.24873 0C9.07876 0 8.90878 0 8.73881 0C8.72146 0.00669518 8.70759 0.0200855 8.69024 0.0234331C7.86118 0.157337 7.30269 0.642738 6.93846 1.35243C6.61238 1.98847 6.52913 2.67138 6.57076 3.37102C6.61238 4.04389 6.67482 4.71341 6.73379 5.38627C6.7442 5.52018 6.71645 5.59383 6.5881 5.66412C4.49637 6.82239 2.40464 7.9907 0.312903 9.15232C0.101301 9.26948 0.000703883 9.42682 0.00417276 9.6645C0.0111105 10.1399 0.024986 10.6152 0.000703883 11.0872C-0.0166405 11.4889 0.288621 11.7065 0.687542 11.5827C2.39076 11.0537 4.10092 10.5516 5.8076 10.0394C6.22387 9.91557 6.63667 9.7917 7.05293 9.66784C7.05987 9.70132 7.06681 9.71806 7.07028 9.7348C7.18128 11.1408 7.29575 12.5501 7.40329 13.9595C7.40676 14.0231 7.35472 14.1134 7.29575 14.1503C6.59504 14.6457 5.89086 15.1345 5.18321 15.6199C5.00282 15.7437 4.9161 15.8944 4.91957 16.1053C4.92651 16.5639 4.92304 17.0192 4.92304 17.4778C4.92304 17.9096 5.16933 18.087 5.596 17.9598C6.68523 17.6351 7.77099 17.307 8.86368 16.9857C8.95388 16.9589 9.06835 16.9622 9.15854 16.989C10.2547 17.3137 11.3474 17.6452 12.4401 17.9699C12.8182 18.0837 13.0749 17.8962 13.0784 17.5146C13.0818 17.0526 13.0714 16.5873 13.0818 16.1253C13.0853 15.8977 12.9951 15.7404 12.8043 15.6098C12.1001 15.1311 11.4029 14.6424 10.7057 14.1503C10.6502 14.1101 10.5947 14.0197 10.5981 13.9595C10.6848 12.7778 10.7785 11.5994 10.8687 10.4177C10.8895 10.17 10.9138 9.92226 10.9346 9.6645C10.9936 9.68123 11.0283 9.69128 11.063 9.70132C13.1512 10.3273 15.2429 10.9567 17.3312 11.5827C17.7475 11.7065 17.9938 11.5325 17.9938 11.1073C18.0007 10.6386 17.9903 10.1666 18.0007 9.69797Z" fill="white"/>
<path d="M11.1413 7.0033C9.66703 7.0033 8.4668 5.84503 8.4668 4.4223C8.4668 2.99958 9.66703 1.84131 11.1413 1.84131C12.6156 1.84131 13.8158 2.99958 13.8158 4.4223C13.8158 5.84503 12.6156 7.0033 11.1413 7.0033ZM11.1413 2.51417C10.0486 2.51417 9.16057 3.37116 9.16057 4.42565C9.16057 5.48014 10.0486 6.33712 11.1413 6.33712C12.234 6.33712 13.122 5.48014 13.122 4.42565C13.122 3.37116 12.234 2.51417 11.1413 2.51417Z" fill="white"/>
<path d="M10.7052 5.72417L9.69922 4.75672L10.1918 4.28136L10.7052 4.7768L12.1795 3.35742L12.6686 3.82943L10.7052 5.72417Z" fill="white"/>
</g>
</g>
</g>
<defs>
<clipPath id="clip0_2875_8048">
<rect width="18" height="18" fill="white"/>
</clipPath>
<clipPath id="clip1_2875_8048">
<rect width="18" height="18" fill="white"/>
</clipPath>
<clipPath id="clip2_2875_8048">
<rect width="18" height="18" fill="white"/>
</clipPath>
</defs>
</svg>
