<svg width="54" height="48" viewBox="0 0 54 48" fill="none" xmlns="http://www.w3.org/2000/svg">
<g clip-path="url(#clip0_2478_7518)">
<path d="M30.5992 47.1834C43.5227 47.1834 53.9992 36.621 53.9992 23.5917C53.9992 10.5624 43.5227 0 30.5992 0C17.6758 0 7.19922 10.5624 7.19922 23.5917C7.19922 36.621 17.6758 47.1834 30.5992 47.1834Z" fill="#F28B24"/>
<path d="M23.8876 46.9899C11.3056 46.9959 1.02164 36.537 1.22564 23.7007C1.42364 11.3483 11.3896 1.18574 23.9176 1.17969C36.5416 1.17969 46.6876 11.5963 46.5796 24.3116C46.4716 36.8031 36.3736 46.9899 23.8816 46.9899H23.8876Z" fill="white"/>
<path d="M25.1637 11.0941C25.4337 11.2634 25.5177 11.5115 25.4997 11.82C25.4817 12.1224 25.4997 12.4249 25.4997 12.7273C25.4937 13.0842 25.3017 13.302 25.0077 13.3141C24.7077 13.3201 24.5037 13.0903 24.4977 12.7213C24.4977 12.3946 24.5097 12.0619 24.4977 11.7353C24.4857 11.4328 24.5937 11.215 24.8757 11.088H25.1757L25.1637 11.0941ZM19.2777 35.6476C19.3377 35.6778 19.3977 35.708 19.4577 35.7383C20.9517 36.4884 22.5297 37.0026 24.1977 37.0449C26.6697 37.1115 29.1417 37.0752 31.6197 37.057C32.6937 37.051 33.5817 36.1194 33.5637 35.0305C33.5577 34.6373 33.4197 34.2502 33.3357 33.8389C34.0197 33.5969 34.5237 33.1009 34.7037 32.3205C34.8837 31.5281 34.6317 30.8566 34.0617 30.2941C34.5177 29.8646 34.7577 29.3443 34.7577 28.7334C34.7577 28.1103 34.4997 27.5961 34.0617 27.1666C34.5477 26.6948 34.7997 26.1443 34.7517 25.491C34.6737 24.3477 33.8037 23.5372 32.6517 23.5311C30.7377 23.5311 28.8297 23.5311 26.9157 23.5311C26.8197 23.5311 26.7237 23.5311 26.6097 23.5311C26.6337 23.4222 26.6457 23.3557 26.6637 23.2952C26.8617 22.527 27.0597 21.7587 27.2697 20.9965C27.5517 19.9561 27.5517 18.9217 27.1737 17.9115C26.7537 16.7803 26.0457 15.9455 24.8277 15.643C24.0117 15.4374 23.3337 15.7761 23.0097 16.5564C22.9257 16.7682 22.8537 16.9859 22.8057 17.2037C22.6437 17.9901 22.5177 18.7825 22.3437 19.5629C22.0257 20.9723 21.4977 22.285 20.5617 23.398C20.1657 23.8699 19.7277 24.2933 19.2177 24.6623C18.9237 23.888 18.3657 23.6098 17.5917 23.6279C16.5837 23.6521 15.5817 23.6279 14.5737 23.6279C13.6497 23.6279 13.0617 24.2147 13.0617 25.1462C13.0617 28.4793 13.0617 31.8063 13.0617 35.1394C13.0617 36.071 13.6497 36.6517 14.5737 36.6578C15.5937 36.6578 16.6197 36.6457 17.6397 36.6578C18.3957 36.6699 18.9297 36.3674 19.2057 35.6355C19.2477 35.6355 19.2657 35.6355 19.2777 35.6415V35.6476ZM19.2537 26.1141C19.2537 26.0052 19.3077 25.854 19.3917 25.7995C21.5757 24.3236 22.8057 22.2245 23.3457 19.6778C23.4957 18.9701 23.6097 18.2502 23.7537 17.5425C23.8017 17.3126 23.8797 17.0888 23.9697 16.871C24.0597 16.6472 24.2397 16.5625 24.4797 16.6048C24.9777 16.6956 25.3977 16.9254 25.7097 17.3307C26.4297 18.2684 26.6097 19.333 26.3397 20.4702C26.0757 21.5712 25.7757 22.66 25.4877 23.7549C25.3497 24.2812 25.5477 24.5474 26.0937 24.5474C28.2657 24.5474 30.4377 24.5474 32.6097 24.5474C33.3657 24.5474 33.8637 25.1341 33.7197 25.8358C33.6237 26.3198 33.2037 26.6585 32.6817 26.6646C32.0217 26.6706 31.3557 26.6646 30.6957 26.6646C30.2997 26.6646 30.0837 26.8521 30.0897 27.1787C30.0897 27.4933 30.3117 27.6808 30.6897 27.6808C31.3437 27.6808 31.9977 27.6808 32.6517 27.6808C33.2817 27.6808 33.7437 28.1224 33.7497 28.7213C33.7617 29.308 33.2997 29.7799 32.6697 29.792C31.9917 29.8041 31.3137 29.792 30.6297 29.792C30.2997 29.792 30.0957 29.9795 30.0837 30.2638C30.0717 30.5844 30.2817 30.7961 30.6477 30.8022C31.2837 30.8082 31.9197 30.8022 32.5617 30.8022C32.7117 30.8022 32.8677 30.8082 33.0057 30.8506C33.4857 30.9897 33.7917 31.4676 33.7377 31.9576C33.6777 32.4899 33.2757 32.8891 32.7537 32.9012C32.0577 32.9194 31.3617 32.9073 30.6657 32.9073C30.4197 32.9073 30.2217 32.992 30.1197 33.2339C29.9877 33.5546 30.2037 33.8994 30.5637 33.9175C30.8577 33.9296 31.1517 33.9175 31.4457 33.9235C32.1057 33.9296 32.5677 34.3833 32.5617 35.0003C32.5557 35.6052 32.0877 36.0408 31.4337 36.0408C29.1297 36.0408 26.8197 36.071 24.5157 36.0287C22.7457 35.9984 21.0837 35.4782 19.5357 34.6132C19.3257 34.4982 19.2357 34.3591 19.2357 34.0929C19.2537 32.7742 19.2417 31.4555 19.2417 30.1368C19.2417 28.7939 19.2417 27.451 19.2417 26.102L19.2537 26.1141ZM14.0577 25.2491C14.0577 24.7591 14.1657 24.6502 14.6457 24.6502C15.6657 24.6502 16.6917 24.6502 17.7117 24.6502C18.1077 24.6502 18.2397 24.7772 18.2397 25.1825C18.2397 28.4975 18.2397 31.8063 18.2397 35.1213C18.2397 35.5205 18.1077 35.6476 17.7057 35.6476C16.6677 35.6476 15.6297 35.6476 14.5857 35.6476C14.1897 35.6476 14.0577 35.5145 14.0577 35.1152C14.0577 33.4517 14.0577 31.7882 14.0577 30.1186C14.0577 28.4975 14.0577 26.8763 14.0577 25.2491ZM20.7837 13.6649C20.4777 13.3685 20.1597 13.0842 19.8297 12.812C19.6197 12.6366 19.3257 12.685 19.1577 12.8907C18.9897 13.0903 18.9837 13.3685 19.1757 13.5561C19.4877 13.8585 19.8057 14.161 20.1537 14.4211C20.2737 14.5058 20.5197 14.5118 20.6577 14.4453C20.7957 14.3848 20.8797 14.1852 20.9877 14.046C20.9037 13.8827 20.8677 13.7496 20.7837 13.671V13.6649ZM29.8077 14.4392C30.1557 14.1368 30.5097 13.8404 30.8337 13.5137C31.0077 13.3443 30.9777 13.0721 30.8217 12.8907C30.6657 12.7031 30.3777 12.6305 30.1917 12.7818C29.8317 13.0721 29.4897 13.3806 29.1597 13.7012C29.0097 13.8464 28.9797 14.0642 29.1057 14.2396C29.2077 14.3787 29.3697 14.4634 29.4897 14.5602C29.6397 14.5058 29.7417 14.4997 29.8077 14.4453V14.4392ZM18.2097 18.1534C18.4017 18.1534 18.5937 18.1534 18.7857 18.1534C19.0677 18.1474 19.2717 17.9659 19.2957 17.6997C19.3197 17.4336 19.1577 17.1916 18.8757 17.1614C18.4377 17.119 17.9937 17.1009 17.5497 17.1069C17.2737 17.1069 17.0937 17.3489 17.1057 17.6211C17.1117 17.8812 17.2917 18.0748 17.5617 18.099C17.7777 18.1232 17.9937 18.1292 18.2097 18.1413C18.2097 18.1413 18.2097 18.1474 18.2097 18.1534ZM31.7397 18.1474C31.9677 18.1353 32.1897 18.1232 32.4177 18.099C32.6877 18.0687 32.8617 17.8691 32.8677 17.609C32.8677 17.3489 32.6997 17.113 32.4357 17.1069C31.9857 17.1009 31.5297 17.119 31.0797 17.1614C30.8097 17.1856 30.6657 17.4215 30.6837 17.6876C30.7017 17.9477 30.8937 18.1353 31.1637 18.1413C31.3557 18.1474 31.5477 18.1413 31.7397 18.1413C31.7397 18.1413 31.7397 18.1413 31.7397 18.1353V18.1474ZM15.7677 26.9428C15.7617 27.215 15.9957 27.4631 16.2717 27.4631C16.5477 27.4631 16.7757 27.2271 16.7697 26.9428C16.7697 26.6646 16.5537 26.4529 16.2717 26.4529C15.9957 26.4529 15.7737 26.6706 15.7677 26.9428ZM47.5197 22.8052C47.5197 22.6358 47.5197 22.4665 47.5077 22.2971C47.4657 21.6498 47.3937 21.0026 47.2917 20.3553C47.0997 19.091 46.8057 17.851 46.4157 16.6351C45.6597 14.2941 44.5497 12.1285 43.1277 10.1322C42.8637 9.7572 42.5637 9.40635 42.2757 9.04945C42.1677 8.91032 42.0237 8.82563 41.8437 8.82563C41.5557 8.82563 41.3277 8.95266 41.1837 9.21277C41.0457 9.46079 41.0757 9.70276 41.2317 9.92657C41.3877 10.1564 41.5377 10.3924 41.6997 10.6162C42.5937 11.8502 43.3977 13.1447 44.0517 14.5239C45.0897 16.7077 45.7677 18.9942 46.0377 21.4018C46.1217 22.1459 46.1637 22.8899 46.1757 23.64C46.1817 24.1058 46.1637 24.5776 46.1457 25.0494C46.1217 25.739 46.0497 26.4226 45.9537 27.1062C45.8277 27.9954 45.6537 28.8725 45.4317 29.7375C45.0477 31.2196 44.5377 32.6532 43.8657 34.0264C43.2357 35.3209 42.4857 36.5368 41.6157 37.6861C40.5897 39.0411 39.4257 40.2691 38.1237 41.358C36.6957 42.5496 35.1417 43.5417 33.4737 44.3583C31.0017 45.5621 28.3977 46.2578 25.6677 46.4937C24.7677 46.5723 23.8677 46.5965 22.9677 46.5602C22.3677 46.536 21.7737 46.4876 21.1737 46.415C20.4357 46.3243 19.6977 46.1852 18.9717 46.0218C16.9977 45.5682 15.1077 44.8846 13.3077 43.9349C11.2017 42.8218 9.33572 41.3821 7.70372 39.646C6.70772 38.5874 5.81972 37.4442 5.03372 36.2222C3.69572 34.1474 2.72972 31.9152 2.14772 29.5077C1.88972 28.437 1.70972 27.3542 1.61372 26.2593C1.54772 25.5697 1.51172 24.874 1.51172 24.1844C1.51172 23.7428 1.51772 23.3073 1.54772 22.8657C1.57772 22.3092 1.61972 21.7527 1.68572 21.1961C1.78172 20.3493 1.94972 19.5084 2.15372 18.6797C2.59172 16.9073 3.20972 15.2075 4.04972 13.5863C5.24372 11.2816 6.80972 9.26117 8.70572 7.50087C10.3377 5.98858 12.1557 4.7606 14.1537 3.79879C16.5657 2.63735 19.0917 1.91145 21.7557 1.65739C22.6317 1.5727 23.5137 1.53036 24.3957 1.5606C24.8997 1.57875 25.3977 1.60899 25.9017 1.64529C26.6697 1.70578 27.4317 1.82071 28.1877 1.97194C30.1197 2.35909 31.9677 2.9882 33.7257 3.87743C34.9737 4.50049 36.1497 5.23848 37.2657 6.07327C37.3737 6.15795 37.4937 6.23054 37.6137 6.29708C37.7157 6.35153 37.8297 6.39992 37.9437 6.41807C38.2197 6.46041 38.4597 6.31523 38.6097 6.04302C38.7537 5.77686 38.7237 5.5107 38.5077 5.30503C38.3337 5.1417 38.1537 4.99047 37.9677 4.85134C37.6857 4.64567 37.3977 4.4521 37.1097 4.25247C36.1257 3.57497 35.1057 2.95795 34.0317 2.43168C32.5737 1.71788 31.0617 1.16741 29.4897 0.774212C28.6077 0.556443 27.7197 0.393116 26.8197 0.284231C26.2257 0.211641 25.6377 0.163248 25.0377 0.145101C25.0077 0.145101 24.9837 0.133002 24.9537 0.126953H23.2197C23.1357 0.133002 23.0577 0.145101 22.9737 0.15115C22.4277 0.193494 21.8757 0.21769 21.3297 0.278182C20.7717 0.338673 20.2137 0.417312 19.6617 0.50805C18.6957 0.665327 17.7537 0.907293 16.8177 1.19765C15.5457 1.5848 14.3157 2.07478 13.1337 2.67364C11.3157 3.59312 9.64772 4.74245 8.12372 6.10351C6.90572 7.19236 5.80172 8.39009 4.82372 9.70276C3.35372 11.6808 2.21372 13.8404 1.39772 16.1753C0.941719 17.482 0.593719 18.8188 0.371719 20.1799C0.215719 21.1296 0.119719 22.0914 0.0837187 23.0532C0.0837187 23.2045 0.0717187 23.3557 0.0597187 23.5069C0.0597187 23.5493 0.0297187 23.5916 0.0117188 23.6279C0.0117188 23.9062 0.0117188 24.1844 0.0117188 24.4627C0.0657187 24.4869 0.0597187 24.5353 0.0597187 24.5837C0.0837187 25.0373 0.107719 25.485 0.131719 25.9387C0.167719 26.5375 0.245719 27.1304 0.341719 27.7232C0.533719 28.927 0.815719 30.1065 1.18772 31.268C1.87172 33.4215 2.81372 35.4479 4.06172 37.3353C4.82972 38.5028 5.69972 39.5916 6.66572 40.6079C7.88972 41.8963 9.23372 43.0396 10.7097 44.0196C12.3537 45.1145 14.1117 45.9795 15.9717 46.6389C17.1057 47.0381 18.2697 47.3527 19.4517 47.5704C20.2737 47.7277 21.1077 47.8426 21.9417 47.885C22.3737 47.9092 22.8057 47.9334 23.2317 47.9636C23.2617 47.9636 23.2857 47.9757 23.3157 47.9818H24.4257C24.4617 47.9757 24.4977 47.9636 24.5337 47.9576C25.1577 47.9152 25.7877 47.8729 26.4117 47.8245C27.0117 47.7761 27.6117 47.6793 28.2057 47.5704C29.3157 47.3708 30.4077 47.0865 31.4757 46.7175C32.4477 46.3848 33.3957 45.9916 34.3197 45.5379C36.2817 44.57 38.0817 43.3542 39.7017 41.8721C41.8317 39.9304 43.5717 37.6801 44.9097 35.1213C45.7017 33.6029 46.3257 32.0241 46.7637 30.3666C47.0277 29.3685 47.2377 28.3523 47.3577 27.3239C47.4237 26.7674 47.4717 26.2048 47.5257 25.6483C47.5437 25.4729 47.5257 25.2914 47.5377 25.116C47.5377 25.0736 47.5497 25.0373 47.5617 24.995V22.8899C47.5557 22.8597 47.5437 22.8294 47.5377 22.7992L47.5197 22.8052Z" fill="black"/>
</g>
<defs>
<clipPath id="clip0_2478_7518">
<rect width="54" height="48" fill="white"/>
</clipPath>
</defs>
</svg>
