<svg width="18" height="18" viewBox="0 0 18 18" fill="none" xmlns="http://www.w3.org/2000/svg">
<g clip-path="url(#clip0_2875_8004)">
<path d="M4.50032 1.27142C4.50032 1.06312 4.49778 0.863713 4.50032 0.664305C4.50667 0.284542 4.77714 0.00384799 5.13524 3.76549e-05C5.50095 -0.00377268 5.77905 0.282002 5.78413 0.671926C5.78667 0.866253 5.78413 1.05931 5.78413 1.27015C7.92254 1.27015 10.0546 1.27015 12.2133 1.27015C12.2133 1.08344 12.2121 0.891655 12.2133 0.699868C12.2159 0.289623 12.4813 0.00130777 12.8546 3.76549e-05C13.2267 -0.00123246 13.4959 0.288353 13.4984 0.696058C13.4997 0.882764 13.4984 1.06947 13.4984 1.28412C13.5797 1.28412 13.6508 1.28412 13.7206 1.28412C14.4775 1.28412 15.2343 1.28285 15.9911 1.28412C17.1708 1.28666 17.9975 2.1135 17.9987 3.29724C18 7.52925 18 11.7613 17.9987 15.9933C17.9987 17.1732 17.1683 17.9988 15.9848 17.9988C11.3308 18 6.67683 18 2.02286 17.9988C0.827937 17.9988 0 17.1732 0 15.9818C0 11.7574 0 7.53179 0.00126984 3.30613C0.00126984 2.11223 0.827936 1.28793 2.02032 1.28539C2.82413 1.28412 3.62794 1.28412 4.43048 1.28412C4.44317 1.28412 4.45714 1.27904 4.50032 1.27142ZM1.28635 6.43569C1.28635 6.52332 1.28635 6.58937 1.28635 6.65542C1.28635 9.75575 1.28635 12.8561 1.28635 15.9564C1.28635 16.4734 1.52889 16.7147 2.05079 16.7147C6.68444 16.7147 11.3168 16.7147 15.9505 16.7147C16.4724 16.7147 16.7149 16.4746 16.7149 15.9564C16.7149 12.8561 16.7149 9.75575 16.7149 6.65542C16.7149 6.58429 16.7149 6.51316 16.7149 6.43569C11.5632 6.43569 6.43683 6.43569 1.28635 6.43569ZM16.7136 5.13509C16.7136 4.49115 16.7162 3.87006 16.7124 3.24771C16.7098 2.83873 16.4406 2.57201 16.0279 2.57201C11.341 2.57074 6.65397 2.57074 1.96825 2.57201C1.55429 2.57201 1.28762 2.83746 1.28635 3.24898C1.28254 3.83831 1.28508 4.42764 1.28635 5.01697C1.28635 5.05508 1.29397 5.09318 1.29905 5.13636C6.43682 5.13509 11.5632 5.13509 16.7136 5.13509Z" fill="white"/>
<path d="M7.74275 11.9859C8.54021 11.3026 9.31735 10.6371 10.0932 9.97152C10.652 9.49269 11.2094 9.01259 11.7694 8.53502C12.078 8.27084 12.478 8.28608 12.7167 8.56678C12.9554 8.8462 12.9148 9.24248 12.605 9.50793C11.1281 10.7768 9.65005 12.0431 8.17068 13.3081C7.8456 13.5863 7.51545 13.5672 7.20814 13.2611C6.59608 12.6527 5.98656 12.0418 5.37703 11.4309C5.08497 11.1375 5.06973 10.7514 5.33513 10.4846C5.60053 10.2179 5.9891 10.2306 6.28243 10.5215C6.76751 11.0041 7.24751 11.488 7.74275 11.9859Z" fill="white"/>
</g>
<defs>
<clipPath id="clip0_2875_8004">
<rect width="18" height="18" fill="white"/>
</clipPath>
</defs>
</svg>
