<svg width="14" height="14" viewBox="0 0 14 14" fill="none" xmlns="http://www.w3.org/2000/svg">
<g clip-path="url(#clip0_2537_7797)">
<path d="M3.50025 0.988881C3.50025 0.826871 3.49827 0.671776 3.50025 0.516682C3.50518 0.221311 3.71556 0.00299288 3.99407 2.92872e-05C4.27852 -0.0029343 4.49481 0.219335 4.49877 0.522609C4.50074 0.673752 4.49877 0.823907 4.49877 0.987893C6.16197 0.987893 7.82025 0.987893 9.49926 0.987893C9.49926 0.842677 9.49827 0.693509 9.49926 0.544342C9.50123 0.225262 9.70765 0.00101715 9.99802 2.92872e-05C10.2874 -0.000958576 10.4968 0.224274 10.4988 0.541378C10.4998 0.686594 10.4988 0.83181 10.4988 0.998759C10.562 0.998759 10.6173 0.998759 10.6716 0.998759C11.2602 0.998759 11.8489 0.997771 12.4375 0.998759C13.3551 1.00073 13.998 1.64383 13.999 2.56452C14 5.85608 14 9.14764 13.999 12.4392C13.999 13.3569 13.3531 13.999 12.4326 13.999C8.81284 14 5.19309 14 1.57333 13.999C0.643951 13.999 0 13.3569 0 12.4303C0 9.14468 0 5.85806 0.000987654 2.57144C0.000987654 1.64285 0.643951 1.00172 1.57136 0.999747C2.19654 0.998759 2.82173 0.998759 3.44593 0.998759C3.4558 0.998759 3.46667 0.994808 3.50025 0.988881ZM1.00049 5.00553C1.00049 5.0737 1.00049 5.12506 1.00049 5.17643C1.00049 7.58781 1.00049 9.99918 1.00049 12.4106C1.00049 12.8126 1.18914 13.0003 1.59506 13.0003C5.19901 13.0003 8.80197 13.0003 12.4059 13.0003C12.8119 13.0003 13.0005 12.8136 13.0005 12.4106C13.0005 9.99918 13.0005 7.58781 13.0005 5.17643C13.0005 5.12111 13.0005 5.06579 13.0005 5.00553C8.99358 5.00553 5.00642 5.00553 1.00049 5.00553ZM12.9995 3.99396C12.9995 3.49311 13.0015 3.01005 12.9985 2.526C12.9965 2.2079 12.7872 2.00045 12.4662 2.00045C8.82074 1.99946 5.17531 1.99946 1.53086 2.00045C1.20889 2.00045 1.00148 2.20692 1.00049 2.52698C0.997531 2.98535 0.999506 3.44372 1.00049 3.90209C1.00049 3.93173 1.00642 3.96136 1.01037 3.99495C5.00642 3.99396 8.99358 3.99396 12.9995 3.99396Z" fill="#697586"/>
<path d="M6.02273 9.32247C6.64298 8.791 7.24743 8.27336 7.85088 7.75572C8.28545 7.3833 8.71903 7.00988 9.15459 6.63845C9.39459 6.43297 9.7057 6.44483 9.89138 6.66314C10.0771 6.88047 10.0454 7.18869 9.80446 7.39515C8.65582 8.38203 7.50619 9.36693 6.35557 10.3508C6.10273 10.5672 5.84594 10.5524 5.60693 10.3143C5.13088 9.8411 4.65681 9.36594 4.18273 8.89078C3.95557 8.66258 3.94372 8.36227 4.15014 8.15482C4.35656 7.94737 4.65878 7.95724 4.88693 8.18347C5.26422 8.55885 5.63755 8.93523 6.02273 9.32247Z" fill="#697586"/>
</g>
<defs>
<clipPath id="clip0_2537_7797">
<rect width="14" height="14" fill="white"/>
</clipPath>
</defs>
</svg>
