<svg width="35" height="34" viewBox="0 0 35 34" fill="none" xmlns="http://www.w3.org/2000/svg">
<path d="M18.7264 0.000203602C19.3428 0.0880064 19.9624 0.159841 20.5746 0.265996C24.2849 0.911725 27.4536 2.55996 30.0726 5.18437C32.5889 7.70582 34.1847 10.7086 34.7518 14.1766C35.5489 19.0471 34.4288 23.4898 31.3201 27.4049C28.7208 30.6774 25.3137 32.8029 21.1408 33.6147C15.2364 34.7625 9.99595 33.3481 5.54853 29.3867C2.6444 26.7998 0.90964 23.56 0.23086 19.791C0.135535 19.261 0.0763689 18.7247 -5.86025e-05 18.1915C-5.86722e-05 17.3949 -5.87418e-05 16.5983 -5.88115e-05 15.8009C0.0747245 15.267 0.132246 14.7298 0.228396 14.199C0.914572 10.3829 2.70603 7.13991 5.63317 4.50752C8.13053 2.26145 11.0626 0.840689 14.4187 0.262808C15.0318 0.157446 15.6505 0.0864084 16.2661 -0.000593455C17.0862 0.000203745 17.9063 0.000203673 18.7264 0.000203602ZM17.5069 32.2793C26.2128 32.2729 33.234 25.4405 33.2274 16.9806C33.2208 8.54231 26.193 1.71629 17.5077 1.7139C8.81096 1.7115 1.7651 8.55348 1.7651 17.0014C1.76511 25.4565 8.80192 32.2857 17.5069 32.2793Z" fill="#9C9C9C"/>
<path d="M14.4632 16.9989C15.4493 17.8378 16.4066 18.6519 17.364 19.4669C18.443 20.3848 19.5236 21.3011 20.601 22.2206C21.0538 22.6069 21.1228 23.1209 20.7817 23.5032C20.4399 23.8864 19.9016 23.8928 19.4497 23.5088C17.1775 21.582 14.9069 19.6528 12.6364 17.7236C12.1055 17.2727 12.1006 16.7243 12.6273 16.2765C14.8971 14.3465 17.1684 12.4181 19.4406 10.4913C19.8983 10.1026 20.4243 10.1026 20.7735 10.4826C21.1277 10.8681 21.0554 11.3861 20.5837 11.7868C18.632 13.4486 16.6787 15.1088 14.7261 16.7698C14.6505 16.8353 14.5757 16.9023 14.4632 16.9989Z" fill="#9C9C9C"/>
</svg>
