<svg width="30" height="24" viewBox="0 0 30 24" fill="none" xmlns="http://www.w3.org/2000/svg">
<path d="M1.21016 7.18886C1.3994 7.18886 1.52888 7.18886 1.65837 7.18886C6.02092 7.18886 10.3835 7.18886 14.746 7.18886C15.3237 7.18886 15.5876 7.37332 15.5926 7.77216C15.5976 8.18595 15.3187 8.38038 14.7311 8.38038C10.3685 8.38038 6.00598 8.38038 1.64343 8.38038C1.51394 8.38038 1.38446 8.38038 1.20518 8.38038C1.20518 8.51499 1.20518 8.62966 1.20518 8.74931C1.20518 13.0368 1.20518 17.3293 1.20518 21.6168C1.20518 22.4344 1.56375 22.7884 2.39044 22.7884C9.99004 22.7884 17.5896 22.7884 25.1892 22.7884C26.0408 22.7884 26.4044 22.4244 26.4044 21.5669C26.4044 19.5428 26.4044 17.5187 26.4044 15.4946C26.4044 15.385 26.4044 15.2803 26.4044 15.1058C26.2649 15.1805 26.1604 15.2254 26.0657 15.2852C25.3237 15.7289 24.5817 16.1677 23.8496 16.6213C23.5309 16.8208 23.257 16.8108 22.9382 16.6114C21.8177 15.9134 20.6374 15.2952 19.5618 14.5324C17.7092 13.2163 16.8177 11.3467 16.7978 9.07835C16.7829 7.10909 16.7928 5.13983 16.7928 3.17058C16.7928 2.67203 16.8874 2.53742 17.3406 2.35296C19.238 1.59517 21.1305 0.842369 23.0229 0.0746079C23.2869 -0.0300867 23.5159 -0.0251013 23.7799 0.0795934C25.6723 0.842369 27.5697 1.60016 29.4671 2.35296C29.7809 2.4776 29.995 2.66206 29.995 3.02101C29.9851 5.22957 30.0299 7.44312 29.9502 9.65168C29.8904 11.4165 29.0986 12.8872 27.7988 14.0738C27.6444 14.2134 27.5896 14.348 27.5896 14.5474C27.5946 16.9005 27.5946 19.2537 27.5946 21.6068C27.5946 23.0925 26.6882 23.9948 25.1992 23.9948C17.5996 23.9948 10 23.9948 2.4004 23.9948C0.911355 23.9998 0 23.0975 0 21.6168C0 16.397 0 11.1772 0 5.95745C0 4.72106 0.672311 3.84362 1.78287 3.62425C1.93227 3.58936 2.08665 3.58437 2.24104 3.58437C6.4492 3.58437 10.6624 3.58437 14.8705 3.58437C15.2938 3.58437 15.5478 3.76883 15.5926 4.09787C15.6374 4.4319 15.4084 4.73103 15.0697 4.77091C14.9502 4.78587 14.8307 4.7759 14.7112 4.7759C10.6225 4.7759 6.53386 4.7759 2.44522 4.7759C1.56374 4.7759 1.21514 5.12488 1.21514 6.0073C1.21016 6.3862 1.21016 6.76509 1.21016 7.18886ZM18.003 6.63049C18.008 6.63049 18.008 6.63049 18.003 6.63049C18.008 7.52787 17.9831 8.42525 18.0129 9.32264C18.0777 11.2022 18.9044 12.6828 20.4731 13.7148C21.3645 14.3031 22.3008 14.8316 23.2221 15.375C23.3167 15.4298 23.496 15.4199 23.5906 15.365C24.4323 14.8764 25.2689 14.3829 26.0956 13.8694C27.8586 12.7726 28.7749 11.1872 28.7849 9.10328C28.7948 7.29854 28.7799 5.4938 28.7948 3.68907C28.7948 3.44478 28.7102 3.35005 28.496 3.2653C26.8725 2.62218 25.254 1.96908 23.6255 1.32596C23.491 1.27112 23.3018 1.2761 23.1673 1.32596C21.5339 1.96908 19.9054 2.62716 18.2669 3.27527C18.0627 3.35504 17.988 3.45475 17.993 3.6791C18.0129 4.65624 18.003 5.64337 18.003 6.63049Z" fill="#F28B24"/>
</svg>
