<svg width="16" height="21" viewBox="0 0 16 21" fill="none" xmlns="http://www.w3.org/2000/svg">
<g clip-path="url(#clip0_369_12641)">
<path d="M10.7652 16.8569L1.70062 16.8569C0.902532 16.8569 0.254883 16.2498 0.254883 15.5016L0.254882 5.23462C0.254882 4.4888 0.902532 3.87924 1.70062 3.87924L10.7652 3.87924L10.7652 16.8569Z" fill="white"/>
<path d="M0.50996 5.23704C0.50996 4.6227 1.04287 4.12071 1.70072 4.12071L10.5103 4.12071L10.5103 16.6179L1.70072 16.6179C1.04542 16.6179 0.50996 16.1183 0.50996 15.5016L0.50996 5.23704ZM-5.18372e-07 5.23704L-6.96944e-08 15.5016C-3.12423e-08 16.3813 0.759841 17.096 1.70072 17.096L11.0202 17.096L11.0202 3.64262L1.70072 3.64262C0.75984 3.64262 -5.56928e-07 4.35497 -5.18372e-07 5.23704Z" fill="#686868"/>
<path d="M15.7454 14.9565C15.7454 15.7023 15.0977 16.3119 14.2996 16.3119L10.7656 16.3119L10.7656 4.38838L14.2996 4.38838C15.0952 4.38838 15.7454 4.99555 15.7454 5.74376L15.7454 14.9565Z" fill="white"/>
<path d="M11.0207 4.62746L14.2997 4.62746C14.955 4.62746 15.4905 5.12706 15.4905 5.74379L15.4905 14.9565C15.4905 15.5709 14.9576 16.0729 14.2997 16.0729L11.0207 16.0729L11.0207 4.62746ZM10.5107 4.14937L10.5107 16.551L14.2997 16.551C15.2381 16.551 16.0005 15.8362 16.0005 14.9565L16.0005 5.7414C16.0005 4.86172 15.2406 4.14698 14.2997 4.14698L10.5107 4.14698L10.5107 4.14937Z" fill="#686868"/>
<path d="M13.3827 17.9326C13.3827 18.5087 12.8829 18.9796 12.2659 18.9796C12.2531 18.9796 12.2378 18.9796 12.2251 18.982L4.12181 20.2418C3.51495 20.2322 3.02539 19.7661 3.02539 19.1947L3.02539 17.3876C3.02539 16.8115 3.52515 16.3406 4.1422 16.3406L12.2684 16.3406C12.8829 16.3406 13.3852 16.8091 13.3852 17.3876L13.3852 17.9326L13.3827 17.9326Z" fill="white"/>
<path d="M3.28047 17.39C3.28047 16.9454 3.66549 16.582 4.1423 16.582L12.2685 16.582C12.7428 16.582 13.1303 16.943 13.1303 17.39L13.1304 17.9326C13.1304 18.3772 12.7453 18.7406 12.2685 18.7406C12.2405 18.7406 12.2124 18.743 12.1844 18.7478L4.10405 20.0027C3.64764 19.9836 3.28047 19.6298 3.28047 19.1972L3.28047 17.39ZM2.77051 17.39L2.77051 19.1948C2.77051 19.9047 3.38501 20.4808 4.1423 20.4808L12.2685 19.2163C13.0258 19.2163 13.6403 18.6402 13.6403 17.9302L13.6403 17.3876C13.6403 16.6776 13.0258 16.1016 12.2685 16.1016L4.1423 16.1016C3.38501 16.1039 2.77051 16.68 2.77051 17.39Z" fill="#686868"/>
<path d="M13.3827 3.33183C13.3827 3.90793 12.8829 4.37884 12.2659 4.37884L4.1422 4.37885C3.5277 4.37885 3.02539 3.91032 3.02539 3.33183L3.02539 1.52466C3.02539 0.953347 3.51495 0.489603 4.12181 0.480041L12.2251 1.7398C12.2378 1.74219 12.2531 1.74219 12.2659 1.74219C12.8804 1.74219 13.3827 2.21072 13.3827 2.7892L13.3827 3.33183Z" fill="white"/>
<path d="M3.28047 1.52469C3.28047 1.09202 3.64764 0.735848 4.10405 0.719115L12.1844 1.97648C12.2124 1.98126 12.2405 1.98366 12.2685 1.98366C12.7428 1.98366 13.1304 2.34461 13.1304 2.79162L13.1304 3.33425C13.1304 3.77887 12.7453 4.14222 12.2685 4.14222L4.1423 4.14222C3.66804 4.14222 3.28047 3.78127 3.28047 3.33425L3.28047 1.52469ZM2.77051 1.52469L2.77051 3.33186C2.77051 4.04182 3.38501 4.61792 4.1423 4.61792L12.2685 4.61792C13.0258 4.61792 13.6403 4.04182 13.6403 3.33186L13.6403 2.78923C13.6403 2.07927 13.0258 1.50318 12.2685 1.50318L4.1423 0.238636C3.38501 0.241027 2.77051 0.814732 2.77051 1.52469Z" fill="#686868"/>
</g>
<defs>
<clipPath id="clip0_369_12641">
<rect width="20.2398" height="16" fill="white" transform="translate(0 20.4808) rotate(-90)"/>
</clipPath>
</defs>
</svg>
