<svg width="20" height="20" viewBox="0 0 20 20" fill="none" xmlns="http://www.w3.org/2000/svg">
<g clip-path="url(#clip0_634_5254)">
<path d="M9.34129 0C9.7852 0 10.2291 0 10.6683 0C10.9117 0.0286328 11.1551 0.0572656 11.3986 0.0906705C13.3317 0.372226 15.0644 1.12622 16.5251 2.42424C19.2172 4.81508 20.3437 7.82629 19.9093 11.3958C19.6754 13.3286 18.8926 15.0513 17.599 16.5068C15.0597 19.3605 11.8711 20.4724 8.11933 19.8187C5.62768 19.3844 3.61814 18.0816 2.06683 16.0869C1.06921 14.8031 0.429594 13.3524 0.157518 11.7442C0.0954654 11.3863 0.052506 11.0236 0 10.6657C0 10.2219 0 9.7781 0 9.33906C0.0143198 9.27702 0.0286396 9.21498 0.0381862 9.14818C0.0859188 8.79981 0.109785 8.45144 0.176611 8.10785C0.596659 5.97471 1.59905 4.1613 3.18854 2.68194C4.63007 1.3362 6.31981 0.486757 8.26253 0.152708C8.62052 0.0906705 8.98329 0.0524934 9.34129 0ZM18.8353 10.0072C18.8401 5.14436 14.8878 1.18349 10.0095 1.17394C5.15513 1.15963 1.18854 5.11095 1.17422 9.98807C1.15513 14.8509 5.13604 18.8356 10.0095 18.8308C14.8735 18.8308 18.8305 14.8747 18.8353 10.0072Z" fill="#525252"/>
<path d="M7.44141 4.84863C8.62995 4.84863 9.80895 4.84863 10.9879 4.84863C11.1311 4.84863 11.2743 4.86295 11.4175 4.88204C12.9879 5.07292 14.2004 6.26596 14.4247 7.84076C14.6538 9.44897 13.8805 10.8949 12.4199 11.5821C11.9426 11.8064 11.4319 11.8923 10.9068 11.8875C10.2147 11.8828 9.52732 11.8875 8.8352 11.8875C8.7636 11.8875 8.692 11.8875 8.60131 11.8875C8.60131 12.9803 8.60131 14.0588 8.60131 15.1469C8.20513 15.1469 7.83281 15.1469 7.44141 15.1469C7.44141 11.7205 7.44141 8.29888 7.44141 4.84863ZM8.61086 6.02735C8.61086 7.60692 8.61086 9.15309 8.61086 10.7088C9.3889 10.7088 10.1574 10.7088 10.9211 10.7088C12.1813 10.7088 13.1073 9.89755 13.2743 8.64248C13.4462 7.33969 12.5058 6.14188 11.1932 6.05121C10.5202 6.00349 9.84236 6.03212 9.16456 6.02735C8.98317 6.02258 8.80179 6.02735 8.61086 6.02735Z" fill="#525252"/>
</g>
<defs>
<clipPath id="clip0_634_5254">
<rect width="20" height="20" fill="white"/>
</clipPath>
</defs>
</svg>
