<svg width="51" height="32" viewBox="0 0 51 32" fill="none" xmlns="http://www.w3.org/2000/svg">
<g clip-path="url(#clip0_1424_1866)">
<path d="M10.5 2L5 1L0.5 20L7 21L10.5 2Z" fill="#F28B24"/>
<path d="M8.03872 20.3808C7.50318 21.702 6.86724 22.044 5.61925 21.8097C4.2326 21.5474 2.84595 21.2803 1.4593 21.0086C0.402582 20.7977 -0.171203 19.9357 0.0391848 18.8955C1.2011 13.1936 2.36302 7.48705 3.52015 1.78515C3.74967 0.665379 4.56731 0.11721 5.70054 0.332729C7.12066 0.599787 8.54078 0.876214 9.95612 1.14796C10.6399 1.27914 11.1372 1.62585 11.4097 2.28178C11.4623 2.40359 11.6631 2.53946 11.797 2.54415C14.9481 2.55821 18.0991 2.55821 21.2454 2.54883C21.4079 2.54883 21.5944 2.45513 21.7283 2.35206C22.2256 1.96787 22.7037 1.56026 23.1914 1.1667C25.0467 -0.332571 27.337 -0.393478 29.2449 1.05425C30.5789 2.06626 31.9512 3.0033 33.5817 3.51867C35.5757 4.15586 37.5457 4.03405 39.5061 3.38749C39.5061 3.19071 39.5061 3.01736 39.5061 2.83932C39.5061 2.08968 39.9842 1.40096 40.7302 1.24166C42.3511 0.89027 43.9816 0.562305 45.6169 0.281192C46.4871 0.131265 47.2809 0.805936 47.4769 1.7664C47.8164 3.42965 48.1511 5.08822 48.4906 6.75147C49.3083 10.7808 50.1211 14.8054 50.9388 18.8346C51.1731 19.9731 50.6184 20.8071 49.466 21.0273C48.0794 21.2944 46.6928 21.5614 45.3061 21.8332C44.1298 22.0627 43.4461 21.6692 43.0588 20.5401C43.0397 20.4838 43.0014 20.4323 42.9392 20.3105C42.3224 20.9336 41.7199 21.5193 41.1414 22.1283C41.0457 22.2267 40.9931 22.4282 41.0218 22.5594C41.5239 24.7802 39.7069 26.7386 37.6174 26.6261C37.5696 26.6215 37.5217 26.6449 37.4405 26.6589C37.4548 28.116 36.8619 29.2639 35.4896 29.9058C34.1412 30.5336 32.8693 30.2853 31.6835 29.3482C31.6309 29.4841 31.5926 29.5825 31.5496 29.6809C30.6411 31.9767 27.8056 32.6138 25.9743 30.9272C25.4675 30.4633 25.018 29.9386 24.5016 29.3998C23.7748 31.2223 22.6081 32.0563 20.968 32.0048C20.0213 31.972 19.2514 31.5597 18.5916 30.9084C15.2015 27.5772 11.8066 24.2507 8.41168 20.9242C8.29692 20.7884 8.21085 20.6244 8.03872 20.3808ZM19.4188 4.25425C19.4092 4.21677 19.3949 4.18397 19.3853 4.15118C16.7698 4.15118 14.1591 4.14649 11.5436 4.16992C11.4241 4.16992 11.2376 4.41823 11.2041 4.57753C10.2669 9.09408 9.34886 13.6153 8.42124 18.1365C8.34952 18.4786 8.44037 18.7081 8.69379 18.9518C11.5197 21.702 14.3312 24.4663 17.1476 27.2305C18.0417 28.1067 18.9406 28.9875 19.8348 29.8636C20.2604 30.2806 20.772 30.4961 21.3697 30.4071C22.0869 30.304 22.6033 29.9245 22.828 29.2358C23.0528 28.5564 22.9141 27.9427 22.4025 27.432C21.4318 26.4668 20.4516 25.5111 19.4714 24.5553C19.1797 24.2695 18.998 23.9603 19.1797 23.5526C19.4236 22.9998 20.0834 22.9201 20.5759 23.4027C21.9721 24.7614 23.3588 26.1248 24.7502 27.4882C25.5296 28.2519 26.2899 29.025 27.0884 29.7699C28.0782 30.6976 29.637 30.3368 30.0482 29.0906C30.292 28.3503 30.0673 27.7225 29.5079 27.1743C28.0543 25.7594 26.6055 24.3351 25.1567 22.9155C24.602 22.372 24.0426 21.8379 23.4975 21.285C23.0528 20.8305 23.1484 20.2168 23.6792 19.9778C24.1143 19.7857 24.4442 19.9731 24.7454 20.273C26.003 21.5146 27.2653 22.7468 28.5277 23.9837C29.9286 25.3564 31.3249 26.7433 32.7354 28.102C33.7634 29.0906 35.3844 28.6876 35.7526 27.357C35.9486 26.6449 35.7048 26.0545 35.174 25.5392C32.7067 23.131 30.2442 20.7134 27.7865 18.2958C27.6574 18.1693 27.5187 18.0428 27.4327 17.8882C27.2319 17.5462 27.2988 17.2182 27.5809 16.9512C27.863 16.6841 28.2025 16.6373 28.542 16.8387C28.695 16.9324 28.8241 17.0683 28.9532 17.1948C31.3679 19.5608 33.7826 21.9316 36.202 24.2976C36.3646 24.4569 36.5367 24.6209 36.728 24.7474C37.4835 25.2487 38.4972 25.1081 39.0757 24.4335C39.6973 23.7026 39.6495 22.8686 38.9419 22.1658C35.4466 18.6847 31.9704 15.1849 28.4368 11.7412C27.667 10.9916 26.7107 10.4247 25.8022 9.82965C25.4531 9.60008 24.9893 9.53917 24.5351 9.38456C24.4155 10.4247 24.3151 11.3477 24.2004 12.2706C23.813 15.3114 22.1682 17.1854 19.1845 17.9866C18.3238 18.2162 18.0082 18.0147 17.8122 17.1433C17.2671 14.6742 16.7698 12.1957 16.153 9.74532C15.7322 8.07738 16.1865 6.80769 17.5492 5.78163C18.1899 5.29437 18.7972 4.76494 19.4188 4.25425ZM40.2472 20.779C40.8688 20.1605 41.6865 19.3734 42.4706 18.5535C42.5758 18.4458 42.5806 18.1928 42.5472 18.0241C41.9064 14.81 41.2561 11.596 40.6058 8.38661C40.3715 7.24342 40.1325 6.10023 39.8934 4.95235C36.4985 5.94093 33.9882 5.6317 31.4205 4.3339C30.3064 3.76699 29.2879 3.00799 28.2599 2.29115C26.9211 1.35411 25.4961 1.36816 24.229 2.38954C23.9852 2.58632 23.7413 2.7831 23.4975 2.98456C21.757 4.40886 20.0213 5.83317 18.2808 7.25747C17.7118 7.72599 17.4823 8.28822 17.6544 9.03785C18.0943 10.9119 18.4864 12.7954 18.9072 14.6742C19.0267 15.2036 19.1558 15.733 19.2897 16.2812C20.858 15.7518 21.9196 14.796 22.2829 13.292C22.5746 12.0926 22.7276 10.8557 22.8376 9.62351C22.9811 8.04459 24.2386 7.71662 25.3049 7.97431C26.4142 8.24137 27.4088 8.75674 28.236 9.48763C29.7517 10.837 31.1814 12.28 32.6541 13.6715C35.1644 16.0188 37.67 18.3614 40.2472 20.779ZM49.4182 19.4109C48.2276 13.545 47.0418 7.72131 45.8464 1.83668C44.2446 2.15059 42.6906 2.45513 41.1079 2.76435C42.3081 8.65835 43.4891 14.4774 44.6797 20.3386C46.2911 20.0247 47.8308 19.7201 49.4182 19.4109ZM6.3317 20.3386C7.52231 14.4727 8.70813 8.65367 9.89396 2.82526C9.81267 2.77841 9.76007 2.72687 9.69791 2.7175C8.31126 2.44576 6.9294 2.1787 5.54275 1.90696C5.25585 1.85074 5.14588 1.93507 5.08372 2.23493C4.16566 6.78895 3.23326 11.3383 2.30564 15.8923C2.07134 17.0543 1.84183 18.2162 1.60275 19.4156C3.17588 19.7201 4.70598 20.02 6.3317 20.3386Z" fill="black"/>
<path d="M46 1L40.5 2L44 21L50 20L46 1Z" fill="#F28B24" stroke="black"/>
</g>
<defs>
<clipPath id="clip0_1424_1866">
<rect width="51" height="32" fill="white"/>
</clipPath>
</defs>
</svg>
