<svg width="12" height="13" viewBox="0 0 12 13" fill="none" xmlns="http://www.w3.org/2000/svg">
<path d="M0.75 11.2786V1.22143C0.75 1.0964 0.802678 0.976488 0.896447 0.888078C0.990215 0.799668 1.11739 0.75 1.25 0.75H3.58333C3.71594 0.75 3.84312 0.799668 3.93689 0.888078C4.03066 0.976488 4.08333 1.0964 4.08333 1.22143V11.2786C4.08333 11.4036 4.03066 11.5235 3.93689 11.6119C3.84312 11.7003 3.71594 11.75 3.58333 11.75H1.25C1.11739 11.75 0.990215 11.7003 0.896447 11.6119C0.802678 11.5235 0.75 11.4036 0.75 11.2786ZM7.41667 11.2786V1.22143C7.41667 1.0964 7.46934 0.976488 7.56311 0.888078C7.65688 0.799668 7.78406 0.75 7.91667 0.75H10.25C10.3826 0.75 10.5098 0.799668 10.6036 0.888078C10.6973 0.976488 10.75 1.0964 10.75 1.22143V11.2786C10.75 11.4036 10.6973 11.5235 10.6036 11.6119C10.5098 11.7003 10.3826 11.75 10.25 11.75H7.91667C7.78406 11.75 7.65688 11.7003 7.56311 11.6119C7.46934 11.5235 7.41667 11.4036 7.41667 11.2786Z" stroke="#F44336" stroke-width="1.5"/>
</svg>
