<svg width="17" height="20" viewBox="0 0 17 20" fill="none" xmlns="http://www.w3.org/2000/svg">
<path d="M4.25 19.25H12.666C13.5943 19.25 14.4845 18.8813 15.1409 18.2249C15.7973 17.5685 16.166 16.6783 16.166 15.75V10.22C16.1663 9.29186 15.798 8.40159 15.142 7.745L9.173 1.775C8.84797 1.45 8.46211 1.19221 8.03745 1.01634C7.61278 0.840469 7.15764 0.749967 6.698 0.75H4.25C3.32174 0.75 2.4315 1.11875 1.77513 1.77513C1.11875 2.4315 0.75 3.32174 0.75 4.25V15.75C0.75 16.6783 1.11875 17.5685 1.77513 18.2249C2.4315 18.8813 3.32174 19.25 4.25 19.25Z" stroke="#EF5350" stroke-width="1.5" stroke-linecap="round" stroke-linejoin="round"/>
<path fill-rule="evenodd" clip-rule="evenodd" d="M6.89479 5.14101C6.65579 5.21901 6.50279 5.37701 6.45879 5.55201C6.36879 5.90401 6.45879 6.28201 6.71179 6.75501C6.83779 6.98901 6.99179 7.22601 7.16179 7.48001L7.25379 7.61701L7.39879 7.83201L7.41779 7.76401L7.50379 7.45801C7.60246 7.12268 7.67913 6.78268 7.73379 6.43801C7.82279 5.79601 7.72279 5.42001 7.42479 5.17801C7.34479 5.11301 7.14679 5.05901 6.89479 5.14101ZM6.94979 9.29301L6.67979 8.93101L6.64779 8.88301C6.53279 8.69301 6.40479 8.50301 6.26579 8.29801L6.16579 8.14901C5.98179 7.88149 5.81092 7.60516 5.65379 7.32101C5.34379 6.74301 5.09579 6.03501 5.29579 5.25401C5.46579 4.59001 5.99379 4.17301 6.52279 4.00001C7.03979 3.83201 7.69679 3.85301 8.18279 4.24701C8.97479 4.89101 9.03079 5.82001 8.92179 6.60401C8.86107 7.00073 8.77387 7.39294 8.66079 7.77801L8.56479 8.11801C8.49013 8.37268 8.42079 8.62901 8.35679 8.88701L8.28979 9.08101L9.68179 10.945C10.3318 10.867 11.0458 10.82 11.7118 10.868C12.4808 10.922 13.3068 11.11 13.8698 11.644C14.0509 11.832 14.182 12.0624 14.251 12.3141C14.32 12.5659 14.3248 12.831 14.2648 13.085C14.1478 13.565 13.8108 13.965 13.3458 14.208C12.3608 14.723 11.4438 14.313 10.7628 13.792C10.2298 13.385 9.71779 12.817 9.28679 12.339L9.18279 12.225C8.81279 12.282 8.46279 12.346 8.17879 12.4C7.87379 12.457 7.49479 12.528 7.08279 12.62L6.93179 13.063C6.84846 13.255 6.76913 13.4483 6.69379 13.643L6.57179 13.946C6.44868 14.258 6.30606 14.5619 6.14479 14.856C5.81479 15.434 5.28779 16.048 4.40379 16.097C3.21979 16.163 2.41779 15.112 2.64779 13.989L2.65379 13.962C2.85379 13.171 3.54779 12.652 4.21879 12.309C4.81579 12.003 5.51279 11.777 6.15979 11.608L6.94979 9.29301ZM7.81979 10.458L7.53279 11.301L7.95379 11.221L7.95779 11.22L8.33779 11.15L7.81979 10.458ZM10.6598 12.062C10.9338 12.352 11.2068 12.622 11.4908 12.839C12.0408 13.259 12.4308 13.332 12.7898 13.144C12.9898 13.039 13.0738 12.903 13.0988 12.802C13.1109 12.7479 13.11 12.6916 13.0961 12.6379C13.0822 12.5841 13.0557 12.5345 13.0188 12.493C12.7618 12.265 12.2968 12.113 11.6268 12.065C11.3048 12.0445 10.9819 12.0435 10.6598 12.062ZM5.65479 13.009C5.33679 13.118 5.03479 13.239 4.76479 13.377C4.17779 13.677 3.89479 13.981 3.82079 14.244C3.74279 14.659 4.01279 14.917 4.33679 14.899C4.60679 14.884 4.84279 14.715 5.10279 14.26C5.23879 14.012 5.35813 13.7563 5.46079 13.493L5.56779 13.227L5.65479 13.009Z" fill="#EF5350"/>
</svg>
