<svg width="20" height="20" viewBox="0 0 20 20" fill="none" xmlns="http://www.w3.org/2000/svg">
<g clip-path="url(#clip0_78_1746)">
<path d="M0 9.30142C0.038603 9.03279 0.0730327 8.76364 0.115809 8.49605C0.521662 5.9553 1.71835 3.86314 3.70797 2.23572C5.23123 0.989599 6.98818 0.273953 8.94233 0.0590511C13.9951 -0.495939 18.6729 2.8846 19.7626 7.87847C20.2321 10.0301 19.9995 12.1134 19.1095 14.1263C19 14.374 18.832 14.5352 18.5623 14.5665C18.0818 14.6223 17.7579 14.1383 17.9321 13.6678C18.1455 13.0909 18.3917 12.5166 18.5185 11.9188C19.1179 9.09538 18.4924 6.55046 16.6389 4.33675C15.3473 2.79436 13.6895 1.81478 11.7113 1.43818C8.93607 0.909793 6.44618 1.5665 4.29171 3.39473C2.77368 4.68258 1.80756 6.32408 1.43196 8.28011C0.902475 11.0399 1.54777 13.5207 3.35533 15.6723C4.64905 17.2126 6.30689 18.188 8.28243 18.5699C10.8892 19.0737 13.2606 18.5047 15.376 16.8945C15.5805 16.739 15.6149 16.5304 15.4532 16.3551C15.2195 16.1016 14.9691 15.8638 14.7255 15.6196C14.6895 15.5837 14.6509 15.5508 14.605 15.5085C14.2873 15.8106 13.9273 16.0135 13.499 16.0964C12.9727 16.1986 12.4782 16.0614 11.9878 15.9097C10.5996 15.4788 9.3967 14.7162 8.28764 13.7972C6.81551 12.5766 5.5823 11.1542 4.68661 9.45529C4.31258 8.74538 4.02514 8.00261 3.89525 7.20612C3.79509 6.59323 3.93177 6.02937 4.34544 5.5714C4.79407 5.07431 5.274 4.60434 5.76228 4.14585C6.16239 3.76977 6.80665 3.76768 7.20415 4.15054C7.97726 4.8954 8.7368 5.65486 9.48225 6.42736C9.88132 6.84047 9.85941 7.48101 9.46034 7.9155C9.19638 8.20291 8.91312 8.47258 8.63559 8.74695C8.58969 8.79233 8.52865 8.82206 8.46605 8.86535C9.24907 9.88301 10.1161 10.7447 11.1046 11.513C11.3936 11.2235 11.6722 10.9434 11.9523 10.6639C12.5261 10.0911 13.1568 10.0885 13.727 10.6576C14.3854 11.3153 15.0437 11.9731 15.7015 12.6314C16.2727 13.203 16.2732 13.8342 15.701 14.4048C15.6368 14.4685 15.5596 14.5191 15.4673 14.5931C15.7698 14.8941 16.0411 15.1622 16.3108 15.4319C16.6833 15.8043 16.8471 16.2529 16.7902 16.7781C16.7448 17.1986 16.5596 17.5517 16.232 17.8146C14.9785 18.8202 13.5616 19.4848 11.9852 19.7993C11.56 19.8843 11.1281 19.9339 10.6993 19.9996C10.2439 19.9996 9.78794 19.9996 9.33253 19.9996C9.09518 19.9699 8.8573 19.9443 8.62099 19.9093C6.95271 19.6637 5.42476 19.0659 4.07262 18.054C1.95154 16.4673 0.642688 14.3678 0.158064 11.7608C0.0928558 11.4118 0.0521662 11.0582 0 10.7071C0 10.2382 0 9.76982 0 9.30142ZM12.8329 11.5767C12.8329 11.5767 12.8183 11.5777 12.8105 11.5861C12.4969 11.898 12.1834 12.2104 11.8704 12.5223C11.4348 12.9568 10.9925 12.9939 10.4969 12.6241C9.30593 11.7352 8.26313 10.6967 7.3763 9.50432C7.00644 9.00671 7.04192 8.56647 7.47802 8.13145C7.79885 7.81066 8.12123 7.49092 8.4238 7.18943C7.7592 6.52542 7.10817 5.8755 6.45818 5.2261C6.0904 5.59018 5.7002 5.96261 5.32669 6.35172C5.14776 6.53794 5.09299 6.77475 5.14046 7.03868C5.25783 7.69069 5.49154 8.30149 5.80349 8.881C6.89011 10.9007 8.4311 12.5015 10.344 13.7486C11.1422 14.2692 11.9946 14.6761 12.9419 14.8565C13.2518 14.9155 13.5053 14.8263 13.7223 14.6109C14.0504 14.2854 14.3765 13.9583 14.7025 13.6313C14.7375 13.5958 14.7683 13.5562 14.786 13.5358C14.1292 12.877 13.4829 12.2292 12.8329 11.5767Z" fill="black"/>
<path d="M12.8329 11.5771C13.4829 12.2291 14.1287 12.8775 14.7855 13.5363C14.7677 13.5566 14.7375 13.5963 14.702 13.6317C14.3759 13.9588 14.0499 14.2858 13.7218 14.6113C13.5048 14.8267 13.2512 14.9159 12.9414 14.857C11.994 14.6765 11.1416 14.2697 10.3435 13.7491C8.43004 12.5014 6.88905 10.9011 5.80295 8.88147C5.49152 8.30196 5.25782 7.69168 5.13992 7.03915C5.09245 6.77522 5.14775 6.53841 5.32616 6.35219C5.69967 5.96307 6.08987 5.59064 6.45764 5.22656C7.10763 5.87596 7.75867 6.52589 8.42326 7.18989C8.12018 7.49138 7.79831 7.81113 7.47749 8.13192C7.0419 8.56694 7.00591 9.00717 7.37577 9.50479C8.26259 10.6977 9.30539 11.7362 10.4963 12.6245C10.9919 12.9943 11.4343 12.9573 11.8699 12.5228C12.1829 12.2104 12.4964 11.8979 12.8099 11.5865C12.8188 11.5787 12.8334 11.5771 12.8329 11.5771Z" fill="#F28B24"/>
</g>
<defs>
<clipPath id="clip0_78_1746">
<rect width="20" height="20" fill="white"/>
</clipPath>
</defs>
</svg>
