<svg width="35" height="30" viewBox="0 0 35 30" fill="none" xmlns="http://www.w3.org/2000/svg">
<path d="M7.80078 0.904785C8.08946 0.941351 8.32667 1.17128 8.36328 1.49268C8.40498 1.86368 8.41865 2.23978 8.44141 2.60596C8.50819 3.65195 8.57377 4.69878 8.64355 5.80615C11.3974 3.49319 14.5581 2.35483 18.1582 2.53271C21.7493 2.70985 24.772 4.13732 27.2959 6.72607C27.2955 6.40341 27.2944 6.11913 27.2959 5.83643C27.3111 3.59324 28.8093 1.62088 31.0303 1.08838C31.8293 0.8966 32.6946 0.93607 33.5029 0.907715C33.6715 0.901814 33.8111 0.96471 33.9121 1.07275C34.011 1.17856 34.068 1.32291 34.0889 1.47705L34.0967 1.60791C34.0968 1.65067 34.0957 1.69131 34.0957 1.72607C34.0957 10.0618 34.0966 18.3982 34.0947 26.7349C34.0945 28.0036 33.2249 28.981 32.0029 29.0903C30.6697 29.2086 29.507 28.1904 29.498 26.856C29.4852 24.982 29.4951 23.1068 29.4951 21.2339V21.1938C27.2656 25.3359 23.8586 27.87 19.1006 28.438C14.2887 29.0124 10.3311 27.3065 7.14355 23.7427V23.8501C7.14355 24.8362 7.14987 25.8246 7.1416 26.813C7.13105 28.108 6.11334 29.1045 4.82422 29.0962C3.55197 29.0877 2.5478 28.0925 2.54492 26.8101C2.5385 23.4573 2.54555 20.0989 2.54004 16.7466C2.53955 16.5417 2.58199 16.3625 2.68945 16.2231C2.78344 16.1015 2.91958 16.023 3.09277 15.9771C3.09281 15.1308 3.09355 14.2887 3.09277 13.4487L3.08301 10.8569C3.08249 10.8549 3.08078 10.8488 3.0752 10.8384C3.06739 10.8239 3.0548 10.8067 3.03906 10.7896C3.00501 10.7524 2.96916 10.7302 2.95117 10.7251C2.27519 10.534 1.74181 10.1839 1.3877 9.70166C1.03335 9.21903 0.86414 8.61053 0.905273 7.9126C1.0302 5.80762 1.17489 3.70329 1.31445 1.59912C1.32816 1.38862 1.40393 1.20858 1.52832 1.08252C1.65373 0.955453 1.82408 0.888718 2.01367 0.900879L2.15039 0.922363C2.28045 0.956207 2.39033 1.02693 2.4707 1.13232C2.57655 1.2712 2.62272 1.4596 2.60938 1.67822C2.50928 3.3124 2.41111 4.94898 2.28613 6.58252C2.27519 6.72815 2.29017 6.8204 2.32715 6.88135C2.36159 6.93802 2.42617 6.98542 2.55664 7.01514C3.08507 7.13606 3.61389 7.25003 4.19434 7.37842V1.75342C4.19434 1.66533 4.18507 1.54161 4.20801 1.43115C4.23985 1.27833 4.30727 1.14674 4.41406 1.05225C4.52136 0.957377 4.66047 0.906513 4.82324 0.901855C4.99501 0.897284 5.14388 0.943287 5.25879 1.03857C5.37283 1.13329 5.44476 1.26921 5.47949 1.4292C5.50639 1.5512 5.49414 1.68886 5.49414 1.78564V7.32178C6.12899 7.28987 6.71831 7.19691 7.2666 6.94678L7.30664 6.91455C7.32197 6.89822 7.33881 6.87641 7.35449 6.84912C7.38569 6.79467 7.39906 6.74331 7.39746 6.71631C7.30933 5.20558 7.20268 3.695 7.10254 2.18408C7.08878 1.98297 7.07524 1.77712 7.07617 1.57178C7.0768 1.38799 7.13616 1.226 7.24316 1.10596C7.35052 0.985571 7.50129 0.912899 7.6748 0.900879L7.80078 0.904785ZM3.8457 20.5864C3.8457 22.6387 3.84834 24.691 3.84375 26.7437C3.84333 26.9726 3.88761 27.1672 3.97949 27.3276C4.07091 27.4872 4.21324 27.6196 4.41992 27.7202C5.09851 28.0495 5.8429 27.5637 5.84375 26.7563C5.84742 23.6281 5.84564 20.4999 5.84473 17.3716V17.3706C5.8447 17.3362 5.8412 17.3034 5.83789 17.2651H3.8457V20.5864ZM30.7979 20.1812C30.7979 22.3674 30.8005 24.5552 30.7959 26.7417C30.7955 26.9708 30.8392 27.1659 30.9307 27.3267C31.0216 27.4863 31.1637 27.6187 31.3701 27.7192H31.3711C32.049 28.0493 32.796 27.5643 32.7969 26.7583C32.8005 23.6299 32.7978 20.5011 32.7969 17.3726C32.7969 17.3372 32.7939 17.3043 32.791 17.2661H30.7979V20.1812ZM18.5605 3.85303C14.8871 3.53469 11.7269 4.69595 9.05664 7.18311C8.94169 7.29018 8.86842 7.39082 8.8252 7.49951C8.782 7.60816 8.76609 7.73217 8.77637 7.89014L8.78418 8.15186C8.78052 8.7499 8.61929 9.26938 8.31055 9.69287C8.00202 10.116 7.55108 10.4367 6.97949 10.646L6.72754 10.729C6.71556 10.7327 6.68284 10.7551 6.64941 10.8013C6.6165 10.8469 6.60367 10.8871 6.60352 10.9028C6.59265 12.5835 6.59466 14.265 6.59473 15.9722C6.79863 16.0536 6.94405 16.1306 7.03223 16.2563C7.12968 16.3956 7.14504 16.5769 7.14551 16.8247V16.8257C7.14643 18.296 7.14035 19.7646 7.15137 21.2339C7.15225 21.3865 7.19718 21.5586 7.27734 21.6763H7.27832C10.0435 25.7739 13.9412 27.7458 18.9111 27.1626C21.4119 26.8692 23.4938 26.0157 25.1602 24.6567C26.8268 23.2975 28.0832 21.4284 28.9268 19.0981C29.1405 18.5079 29.2428 17.8881 29.3926 17.2661C29.3876 17.2642 29.3828 17.2627 29.3789 17.2612C29.3628 17.2552 29.3617 17.2556 29.3662 17.2563C28.9672 17.2537 28.5689 17.2524 28.1699 17.2515C27.8654 17.2506 27.6338 17.2121 27.4854 17.0669C27.3363 16.9209 27.2969 16.6931 27.2969 16.394C27.296 13.9367 27.3011 11.4807 27.29 9.02393C27.2894 8.90736 27.2574 8.77503 27.2031 8.6665L27.1416 8.56787C24.9815 5.77445 22.1283 4.16161 18.5605 3.85303ZM4.41016 15.9546H5.27344V10.814H4.41016V15.9546ZM32.1729 2.18896C31.94 2.20715 31.7158 2.23164 31.499 2.28076C29.7592 2.67501 28.6032 4.12322 28.5996 5.89893C28.5923 9.19728 28.5986 12.4947 28.5986 15.7935V15.7944C28.598 15.8435 28.5977 15.893 28.5977 15.9497H32.7812V2.14209C32.5746 2.16003 32.3686 2.17368 32.1729 2.18896ZM2.21973 8.26807C2.23183 8.91213 2.76877 9.48019 3.46094 9.50146C4.38572 9.52928 5.31303 9.53098 6.23828 9.50049C6.93255 9.47765 7.47364 8.889 7.4668 8.27002C5.71894 8.76049 3.96907 8.76582 2.21973 8.26807Z" fill="#F28B24" stroke="#F28B24" stroke-width="0.2"/>
<path d="M30.6981 17.166C31.4521 17.166 32.1575 17.166 32.8858 17.166C32.8904 17.2442 32.8977 17.309 32.8977 17.3728C32.8986 20.5014 32.9005 23.63 32.8968 26.7586C32.8959 27.6306 32.0785 28.1754 31.3272 27.8095C30.8818 27.592 30.6954 27.2243 30.6963 26.7415C30.7009 24.5551 30.6981 22.3677 30.6981 20.1813C30.6981 19.1852 30.6981 18.1891 30.6981 17.166Z" fill="white"/>
<path d="M17.4795 6.81958C22.4184 6.82436 26.404 10.7316 26.3975 15.5715C26.3909 20.3468 22.3892 24.2522 17.5127 24.2522C12.5876 24.2503 8.59947 20.3565 8.59668 15.5344C8.59397 10.7342 12.5916 6.81504 17.4795 6.81958ZM17.5547 8.09497C13.3333 8.07995 9.90839 11.3976 9.89648 15.5022C9.88471 19.5919 13.2656 22.9517 17.4209 22.9739C21.6549 22.996 25.0804 19.6782 25.0977 15.5481C25.1147 11.4771 21.7111 8.11095 17.5547 8.09497Z" fill="#F28B24" stroke="#F28B24" stroke-width="0.2"/>
</svg>
