<svg width="13" height="14" viewBox="0 0 13 14" fill="none" xmlns="http://www.w3.org/2000/svg">
<path d="M1.52119 0.816699C1.44365 0.77376 1.35533 0.750753 1.26518 0.750018C1.17504 0.749283 1.0863 0.770845 1.00797 0.812513C0.929636 0.854181 0.864508 0.914472 0.819199 0.987259C0.773891 1.06005 0.750016 1.14274 0.75 1.22693V12.2731C0.750016 12.3573 0.773891 12.44 0.819199 12.5127C0.864508 12.5855 0.929636 12.6458 1.00797 12.6875C1.0863 12.7292 1.17504 12.7507 1.26518 12.75C1.35533 12.7492 1.44365 12.7262 1.52119 12.6833L11.4999 7.16023C11.5761 7.118 11.6392 7.05797 11.6831 6.98604C11.7269 6.91412 11.75 6.83277 11.75 6.75C11.75 6.66723 11.7269 6.58589 11.6831 6.51396C11.6392 6.44203 11.5761 6.382 11.4999 6.33977L1.52119 0.816699Z" stroke="#269A59" stroke-width="1.5" stroke-linecap="round" stroke-linejoin="round"/>
</svg>
