<svg width="14" height="14" viewBox="0 0 14 14" fill="none" xmlns="http://www.w3.org/2000/svg">
<path fill-rule="evenodd" clip-rule="evenodd" d="M11.7054 8.11001C12.4571 8.20693 13.1493 8.56932 13.6567 9.13167C14.1091 7.75881 14.1145 6.27812 13.6721 4.90201C13.3804 5.22054 13.0268 5.47637 12.6328 5.65385C12.2388 5.83132 11.8128 5.92672 11.3806 5.93424C10.9485 5.94176 10.5193 5.86123 10.1194 5.69756C9.71946 5.53389 9.35712 5.29052 9.05452 4.98232C8.75191 4.67412 8.51539 4.30757 8.35939 3.90502C8.20338 3.50247 8.13116 3.07237 8.14717 2.64102C8.16317 2.20967 8.26705 1.78611 8.45246 1.39619C8.63786 1.00628 8.90089 0.658201 9.2255 0.373209C7.80999 -0.113637 6.27383 -0.124451 4.85158 0.342416C5.18148 0.61372 5.45093 0.950907 5.64266 1.33234C5.83438 1.71378 5.94414 2.13103 5.96489 2.55732C5.99726 3.00869 5.93255 3.46176 5.7751 3.88609C5.61764 4.31042 5.37108 4.69618 5.05199 5.01748C4.64378 5.4188 4.13623 5.70469 3.58116 5.84594C3.02608 5.98718 2.44341 5.97871 1.89269 5.8214C1.29466 5.62624 0.759481 5.27549 0.342213 4.80523C-0.116315 6.22266 -0.114006 7.74864 0.348817 9.16468C0.638601 8.84536 0.99018 8.58799 1.38232 8.40814C1.77447 8.22829 2.19904 8.12969 2.6304 8.11827C3.06177 8.10685 3.49099 8.18284 3.89212 8.34169C4.29326 8.50054 4.65799 8.73894 4.96431 9.04248C5.27063 9.34602 5.51217 9.70841 5.67435 10.1078C5.83653 10.5071 5.91599 10.9352 5.90792 11.3661C5.89986 11.7969 5.80443 12.2217 5.62742 12.6147C5.4504 13.0078 5.19548 13.3609 4.87801 13.6528C6.26545 14.1297 7.77499 14.1149 9.15281 13.611C8.83526 13.322 8.57996 12.9715 8.40243 12.5808C8.22491 12.1901 8.1289 11.7674 8.12025 11.3384C8.11159 10.9094 8.19047 10.4832 8.35209 10.0857C8.51371 9.68813 8.75468 9.32762 9.06031 9.0261C9.40426 8.68583 9.82023 8.42689 10.2776 8.26836C10.735 8.10982 11.2221 8.05572 11.7032 8.11001H11.7054Z" fill="#FD985F"/>
</svg>
