<svg width="23" height="18" viewBox="0 0 23 18" fill="none" xmlns="http://www.w3.org/2000/svg">
<path d="M7.82904 8.17309C7.50006 7.6156 7.18602 7.07955 6.87199 6.5435C6.19158 5.37849 6.60282 4.13485 7.85895 3.56307C10.3413 2.43379 12.8162 1.31166 15.306 0.196674C16.465 -0.325081 17.7136 0.232411 17.9977 1.38313C18.1921 2.16934 17.7809 2.96269 16.9734 3.36294C15.8967 3.8847 14.82 4.3993 13.7359 4.91391C13.0031 5.26413 12.2629 5.6215 11.5152 5.97886C11.5601 6.05034 11.59 6.10752 11.6274 6.16469C12.9807 8.05159 14.3265 9.93849 15.6799 11.8182C15.7472 11.9111 15.8818 11.9826 16.0014 12.0327C16.4126 12.2042 16.8538 12.3185 17.2276 12.5258C18.2594 13.1048 19.2763 13.1548 20.3006 12.5687C20.9437 12.197 21.6241 11.9612 22.3718 11.9469C22.7531 11.9397 23.0073 12.147 22.9998 12.4543C22.9998 12.7474 22.7606 12.9547 22.3867 12.9618C21.8559 12.969 21.3848 13.119 20.9362 13.3835C19.5006 14.2126 18.08 14.1911 16.6444 13.3621C15.6574 12.7974 14.6481 12.7974 13.6536 13.3692C12.218 14.1911 10.7974 14.2126 9.36183 13.3835C8.35991 12.8046 7.33556 12.7974 6.33365 13.3763C4.90554 14.1983 3.48492 14.2126 2.06429 13.3906C1.61567 13.1333 1.14462 12.969 0.613756 12.969C0.23243 12.969 -0.0143101 12.7331 0.00064388 12.4401C0.0155978 12.1327 0.269815 11.9183 0.658618 11.9683C1.00256 12.0112 1.26425 11.8969 1.5409 11.7396C3.55221 10.596 5.57099 9.46676 7.58978 8.33033C7.66455 8.2803 7.73932 8.23027 7.82904 8.17309ZM2.44562 12.39C2.46805 12.4186 2.46805 12.4401 2.483 12.4472C3.55969 13.119 4.64385 13.1762 5.7654 12.5258C7.16359 11.7182 8.56927 11.7396 9.96746 12.5473C10.9918 13.1333 12.0087 13.119 13.048 12.5544C13.4517 12.3328 13.9078 12.2042 14.3415 12.0327C14.3864 12.0112 14.4387 11.9969 14.4985 11.9755C14.4163 11.8611 14.349 11.7682 14.2817 11.6681C13.0928 10.01 11.8965 8.35178 10.7077 6.6936C10.2142 6.00745 10.3862 5.39278 11.1638 5.02112C12.9134 4.18488 14.663 3.34865 16.4051 2.51241C16.5397 2.44808 16.6818 2.36946 16.7865 2.26225C17.0407 2.00495 17.0482 1.59755 16.8388 1.31166C16.5995 0.997175 16.1958 0.911407 15.792 1.09724C13.2798 2.23366 10.7675 3.36294 8.26271 4.50651C7.63464 4.79241 7.43276 5.41422 7.76923 6.00031C8.06831 6.50777 8.37486 7.01523 8.67394 7.52269C9.08518 8.21598 8.95059 8.73059 8.2328 9.13084C6.43833 10.1458 4.63637 11.1535 2.8419 12.1685C2.69983 12.2399 2.57273 12.3114 2.44562 12.39Z" fill="#525252"/>
<path d="M18.8061 17.9843C18.0288 17.9843 17.3262 17.6499 16.6535 17.0962C15.6519 16.2708 14.6503 16.3021 13.6337 17.0962C13.2525 17.3887 12.8489 17.6813 12.4303 17.8276C11.3465 18.2037 10.3225 17.9634 9.3583 17.1171C8.34924 16.229 7.31028 16.2499 6.28627 17.1275C5.8079 17.535 5.3071 17.838 4.74651 17.9425C3.85704 18.0992 2.99747 17.9425 2.22759 17.2634C1.68943 16.7827 1.12884 16.4902 0.486027 16.4797C0.216943 16.4797 0.0076561 16.1454 0.000181563 15.7693C-0.00729298 15.3827 0.216943 15.0483 0.500976 15.0379C1.29328 14.9856 2.00336 15.32 2.66859 15.9155C3.46089 16.6156 4.30552 16.6887 5.18004 16.2708C5.35943 16.1872 5.53881 16.0409 5.70325 15.9051C7.13089 14.7035 8.55105 14.6931 9.97122 15.9051C10.771 16.5947 11.6081 16.6783 12.4827 16.2708C12.6695 16.1872 12.8414 16.0514 13.0059 15.9051C14.4036 14.7349 15.8088 14.6931 17.2215 15.8424C18.3128 16.7305 19.3817 16.7305 20.4505 15.8006C21.041 15.2782 21.6913 15.0065 22.3939 15.017C22.7452 15.017 22.9844 15.2991 22.9993 15.717C23.0143 16.1454 22.7751 16.4588 22.4088 16.4693C21.8856 16.4902 21.3998 16.6887 20.9513 17.0857C20.2338 17.7335 19.5835 17.9843 18.8061 17.9843Z" fill="#525252"/>
<path d="M18.972 12C16.7743 11.992 14.9841 10.1698 15.0001 7.95603C15.0161 5.7982 16.8302 4 18.988 4C21.2097 4 23.0159 5.81418 22.9999 8.03595C22.9839 10.2258 21.1778 12.008 18.972 12ZM18.996 10.8651C20.5864 10.8731 21.8571 9.61037 21.8651 8.01997C21.8731 6.42157 20.6103 5.14285 19.036 5.13486C17.4136 5.12687 16.1429 6.3896 16.1429 8.00398C16.1349 9.59439 17.3976 10.8571 18.996 10.8651Z" fill="#525252"/>
</svg>
