<svg width="12" height="17" viewBox="0 0 12 17" fill="none" xmlns="http://www.w3.org/2000/svg">
<path d="M3.8 13.3181H8M2.12 1.4751H9.68C10.072 1.4751 10.2681 1.4751 10.4178 1.55333C10.5495 1.62214 10.6566 1.73195 10.7237 1.867C10.8 2.02054 10.8 2.22153 10.8 2.62351V4.11251C10.8 4.46362 10.8 4.63918 10.7613 4.80439C10.727 4.95086 10.6705 5.09089 10.5937 5.21933C10.5071 5.36419 10.3861 5.48833 10.1439 5.73661L8.09196 7.84062C7.81475 8.12486 7.67614 8.26698 7.62421 8.43087C7.57853 8.57503 7.57853 8.73031 7.62421 8.87447C7.67614 9.03835 7.81475 9.18047 8.09196 9.46472L10.1439 11.5687C10.3861 11.817 10.5071 11.9411 10.5937 12.086C10.6705 12.2144 10.727 12.3545 10.7613 12.5009C10.8 12.6662 10.8 12.8417 10.8 13.1928V14.6818C10.8 15.0838 10.8 15.2848 10.7237 15.4383C10.6566 15.5734 10.5495 15.6832 10.4178 15.752C10.2681 15.8302 10.072 15.8302 9.68 15.8302H2.12C1.72796 15.8302 1.53194 15.8302 1.38221 15.752C1.25049 15.6832 1.14341 15.5734 1.0763 15.4383C1 15.2848 1 15.0838 1 14.6818V13.1928C1 12.8417 1 12.6662 1.03868 12.5009C1.07298 12.3545 1.12954 12.2144 1.2063 12.086C1.29288 11.9411 1.41395 11.817 1.65608 11.5687L3.70804 9.46472C3.98525 9.18047 4.12386 9.03835 4.17579 8.87447C4.22147 8.73031 4.22147 8.57503 4.17579 8.43087C4.12386 8.26699 3.98525 8.12486 3.70804 7.84062L1.65608 5.73661C1.41395 5.48833 1.29288 5.36419 1.2063 5.21933C1.12954 5.09089 1.07298 4.95086 1.03868 4.80439C1 4.63918 1 4.46362 1 4.11251V2.62351C1 2.22153 1 2.02054 1.0763 1.867C1.14341 1.73195 1.25049 1.62214 1.38221 1.55333C1.53194 1.4751 1.72796 1.4751 2.12 1.4751Z" stroke="white" stroke-width="1.2" stroke-linecap="round" stroke-linejoin="round"/>
</svg>
