<svg width="26" height="22" viewBox="0 0 26 22" fill="none" xmlns="http://www.w3.org/2000/svg">
<path d="M10.6056 12.4213V22H0V14.4378C0 10.3439 0.586189 7.37918 1.75857 5.54576C3.29719 3.10223 5.73299 1.2533 9.06701 0L11.4854 3.20874C9.47008 3.91192 7.9867 4.9584 7.03427 6.3482C6.08082 7.73904 5.5509 9.76273 5.44143 12.4213H10.6056Z" fill="#CCCBCB"/>
<path d="M25.1213 12.4213V22H14.5156V14.4378C14.5156 10.3439 15.1008 7.37918 16.2742 5.54576C17.8118 3.10223 20.2476 1.2533 23.5816 0L26 3.20874C23.9847 3.91192 22.5013 4.9584 21.5489 6.3482C20.5954 7.73904 20.0655 9.76273 19.955 12.4213H25.1213Z" fill="#CCCBCB"/>
</svg>
