<svg width="42" height="42" viewBox="0 0 42 42" fill="none" xmlns="http://www.w3.org/2000/svg">
<g clip-path="url(#clip0_65_19)">
<path d="M0.00111699 21.4014C0.00862459 11.3824 6.48142 3.06065 15.8321 0.655329C27.0335 -2.22656 38.5964 4.67046 41.383 15.9003C41.7897 17.5401 42.0086 19.205 41.9974 20.8973C41.9924 21.7391 41.4956 22.3095 40.7323 22.3433C39.9591 22.3771 39.4022 21.8767 39.3159 21.0374C39.2033 19.938 39.1995 18.8197 38.9931 17.739C37.887 11.9427 34.7263 7.57236 29.516 4.82931C19.407 -0.492923 7.13083 4.55413 3.56597 15.4087C0.700575 24.1345 4.9699 33.8308 13.3459 37.6358C15.6457 38.6802 18.0494 39.2581 20.5794 39.2944C20.7659 39.2969 20.9548 39.3069 21.1388 39.3344C21.9083 39.4507 22.3725 40.0086 22.33 40.7541C22.2874 41.4846 21.7394 41.9899 20.9586 41.9961C18.4535 42.0137 16.0136 41.6071 13.6875 40.6903C6.93313 38.0285 2.57247 33.1879 0.643017 26.187C0.177545 24.4972 -0.0201545 22.7623 0.00111699 21.4014Z" fill="black"/>
<path d="M31.7158 21.464C37.4228 21.4577 42.0112 26.0445 41.9987 31.7457C41.9862 37.437 37.4253 41.9949 31.7346 41.9999C26.0276 42.0049 21.4379 37.4182 21.4492 31.7195C21.4604 26.0295 26.0263 21.469 31.7158 21.464ZM31.7421 24.157C27.5441 24.142 24.1582 27.5105 24.1469 31.717C24.1356 35.9185 27.5028 39.2957 31.7096 39.3044C35.9213 39.3132 39.291 35.9585 39.301 31.7482C39.311 27.5417 35.9564 24.172 31.7421 24.157Z" fill="black"/>
<path d="M19.6549 21.4541C19.6549 21.1952 19.6549 21.0113 19.6549 20.8274C19.6549 16.257 19.6536 11.6865 19.6574 7.11597C19.6574 6.85204 19.6574 6.57937 19.7212 6.3267C19.8676 5.73882 20.4907 5.3348 21.1163 5.38233C21.722 5.42861 22.2325 5.90142 22.3151 6.50682C22.3426 6.70695 22.3463 6.91083 22.3463 7.11347C22.3476 12.2143 22.3476 17.3151 22.3463 22.4172C22.3463 22.6036 22.3413 22.7925 22.3188 22.9776C22.2462 23.573 21.8333 24.0921 21.2452 24.0983C18.1108 24.1296 14.9751 24.1309 11.8395 24.1008C11.2288 24.0946 10.7771 23.523 10.7158 22.9063C10.6595 22.3422 11.0274 21.7393 11.5917 21.5567C11.852 21.4729 12.1435 21.4604 12.42 21.4604C14.636 21.4529 16.8533 21.4566 19.0693 21.4566C19.2382 21.4541 19.4071 21.4541 19.6549 21.4541Z" fill="black"/>
<path d="M31.7421 24.157C35.9564 24.172 39.311 27.5417 39.3022 31.7483C39.2922 35.9585 35.9226 39.3132 31.7108 39.3045C27.5041 39.2957 24.1369 35.9185 24.1482 31.717C24.1582 27.5105 27.5428 24.142 31.7421 24.157ZM30.5184 33.6082C29.4886 32.8315 28.5151 32.0797 27.5228 31.353C26.8622 30.8702 26.0739 30.9853 25.6134 31.5919C25.1467 32.2061 25.248 32.9928 25.8974 33.4931C27.2313 34.5188 28.5751 35.5332 29.9265 36.5364C30.6147 37.048 31.3755 36.9341 31.8998 36.2462C33.5614 34.0648 35.2156 31.8771 36.8635 29.6844C37.3966 28.9752 37.299 28.1772 36.6571 27.7006C36.0515 27.2503 35.2456 27.3916 34.7226 28.0533C34.3748 28.4936 34.0457 28.9477 33.7066 29.3942C32.6555 30.7864 31.6032 32.176 30.5184 33.6082Z" fill="#F28B24"/>
<path d="M30.5184 33.6083C31.602 32.1761 32.6543 30.7864 33.7066 29.3955C34.0444 28.9477 34.3748 28.4937 34.7226 28.0546C35.2469 27.393 36.0515 27.2516 36.6571 27.7019C37.299 28.1785 37.3966 28.9765 36.8635 29.6857C35.2169 31.8784 33.5614 34.0648 31.8998 36.2475C31.3755 36.9355 30.6147 37.048 29.9265 36.5377C28.5751 35.5345 27.2313 34.5201 25.8974 33.4944C25.248 32.9941 25.1467 32.2074 25.6134 31.5932C26.0739 30.9853 26.8622 30.8702 27.5228 31.3543C28.5151 32.0798 29.4886 32.8315 30.5184 33.6083Z" fill="black"/>
</g>
<defs>
<clipPath id="clip0_65_19">
<rect width="42" height="42" fill="white"/>
</clipPath>
</defs>
</svg>
