<svg width="18" height="19" viewBox="0 0 18 19" fill="none" xmlns="http://www.w3.org/2000/svg">
<g clip-path="url(#clip0_634_5165)">
<path d="M18.0001 3.70243C17.9215 3.79745 17.8461 3.89612 17.7641 3.98748C16.4627 5.43834 15.158 6.88189 13.8665 8.34005C13.1682 9.12944 12.3553 9.41083 11.3882 9.12578C11.3391 9.11116 11.2571 9.1404 11.2243 9.1806C10.8998 9.57529 10.5851 9.97729 10.2573 10.3903C10.2901 10.4305 10.3196 10.4707 10.3524 10.5035C12.057 12.1883 13.7583 13.8803 15.4662 15.5578C15.8628 15.9488 16.1415 16.391 16.1906 17.0013C16.2759 18.0794 15.417 19.0735 14.4434 19.004C13.9353 18.9675 13.5288 18.7263 13.1945 18.306C11.7783 16.5226 10.3589 14.7392 8.93949 12.9557C8.82476 12.8096 8.70675 12.6634 8.5789 12.5026C8.33632 12.8059 8.10686 13.0946 7.87411 13.387C6.55304 15.0461 5.23197 16.709 3.90762 18.3681C3.42247 18.9784 2.67178 19.1648 1.99977 18.8615C1.35399 18.5691 0.937673 17.8492 0.96062 17.0488C0.97701 16.5372 1.15731 16.095 1.49823 15.7515C2.77013 14.487 4.0453 13.2262 5.32376 11.969C5.39916 11.8959 5.53028 11.8228 5.61551 11.8448C5.71713 11.8703 5.82531 11.9763 5.88103 12.0823C5.95643 12.2175 5.89415 12.3637 5.78925 12.466C5.53356 12.7255 5.27459 12.9777 5.01562 13.2335C3.99941 14.2385 2.97992 15.2398 1.97027 16.2522C1.36382 16.8625 1.55723 17.9332 2.31775 18.2073C2.74718 18.3608 3.12088 18.2402 3.41591 17.8711C4.42884 16.6103 5.43194 15.3458 6.43831 14.0813C7.92984 12.2066 9.42465 10.3318 10.9162 8.457C11.067 8.27062 11.1686 8.24869 11.3849 8.34371C12.1127 8.66531 12.7683 8.52278 13.3223 7.90882C14.6696 6.41776 16.0071 4.91939 17.3511 3.42103C17.6133 3.12867 17.7576 3.13232 18.0034 3.42103C18.0001 3.5197 18.0001 3.61107 18.0001 3.70243ZM9.81474 10.9421C9.54266 11.282 9.28042 11.6109 9.01489 11.9434C9.04767 11.9909 9.0739 12.0238 9.10012 12.0604C9.99504 13.1823 10.8867 14.3079 11.7816 15.4299C12.4274 16.2412 13.0699 17.0525 13.719 17.8602C14.1648 18.4156 14.886 18.412 15.3023 17.8565C15.6727 17.3668 15.6104 16.6761 15.1449 16.2156C13.778 14.8634 12.411 13.5112 11.044 12.1591C10.6408 11.7571 10.2343 11.3551 9.81474 10.9421Z" fill="#525252"/>
<path d="M5.90401 9.14374C5.48442 9.37398 5.04515 9.5092 4.58622 9.53112C3.71753 9.57132 2.93406 9.28992 2.29484 8.63576C1.27207 7.58325 0.498441 6.33705 0.137851 4.8131C-0.0129408 4.17356 -0.055556 3.5267 0.0952362 2.87985C0.354205 1.75425 1.22618 0.997754 2.27189 0.957554C2.98979 0.931972 3.66508 1.10374 4.31414 1.42534C5.34018 1.93332 6.25149 2.63499 6.95956 3.60345C7.80203 4.75463 7.92332 6.05199 7.39227 7.42245C7.37916 7.45169 7.36932 7.48092 7.35293 7.53209C7.75286 7.93043 8.15934 8.32878 8.57566 8.74174C8.88052 8.44207 9.16899 8.13143 9.48041 7.861C9.7361 7.63807 9.84756 7.43707 9.76561 7.02776C9.59842 6.16529 9.84428 5.38321 10.4048 4.75463C11.7718 3.21606 13.1519 1.68846 14.5254 0.153553C14.65 0.0146802 14.7876 -0.0474472 14.9515 0.0475711C15.0958 0.127971 15.1548 0.277808 15.1122 0.442262C15.0859 0.540935 15.0171 0.635953 14.9483 0.709044C13.6338 2.17817 12.3192 3.65096 10.9982 5.11278C10.3917 5.78156 10.2049 6.53074 10.5392 7.42245C10.6114 7.6198 10.5491 7.77329 10.4114 7.9085C9.65087 8.65403 8.89363 9.40687 8.13639 10.1561C7.96593 10.3242 7.79547 10.4959 7.62501 10.664C7.43161 10.8504 7.26442 10.8431 7.09068 10.6275C6.77271 10.2328 6.46129 9.83811 6.14659 9.43976C6.06464 9.34109 5.98597 9.24607 5.90401 9.14374ZM8.08395 9.2278C7.64468 8.79291 7.22181 8.37629 6.80221 7.95967C6.57275 7.72943 6.55635 7.6198 6.71042 7.31647C7.2677 6.19452 7.13985 4.86061 6.35639 3.92139C5.69094 3.1247 4.91075 2.49246 4.00928 2.06488C3.43233 1.79079 2.83572 1.6373 2.19977 1.69212C1.48843 1.76155 0.927871 2.26223 0.737742 3.02968C0.596784 3.6071 0.652512 4.18087 0.79347 4.74732C1.10161 5.95698 1.72117 6.95832 2.49808 7.85369C3.39955 8.89523 4.60917 9.09623 5.75322 8.40552C5.97613 8.27031 6.09414 8.28858 6.2646 8.50054C6.60225 8.91716 6.93334 9.34109 7.2677 9.75771C7.30704 9.80887 7.35293 9.85638 7.39882 9.9112C7.63157 9.68096 7.84792 9.46169 8.08395 9.2278Z" fill="#525252"/>
<path d="M12.4305 5.54413C12.1617 5.49662 12.0142 5.20426 12.1388 4.96671C12.1683 4.91189 12.2109 4.86438 12.2502 4.81687C13.3222 3.62184 14.3908 2.42314 15.4693 1.23542C15.5545 1.1404 15.6988 1.05269 15.8135 1.06C16.0561 1.07096 16.1675 1.39256 16.0299 1.61914C16.0004 1.66665 15.961 1.71051 15.925 1.75071C14.8563 2.94209 13.7909 4.13347 12.719 5.31755C12.6403 5.41256 12.5289 5.46738 12.4305 5.54413Z" fill="#525252"/>
<path d="M12.9585 6.15033C13.0339 6.02242 13.0732 5.92009 13.1388 5.847C14.2271 4.62638 15.322 3.40941 16.4136 2.19245C16.5742 2.01338 16.7742 2.00241 16.9086 2.1559C17.0496 2.3167 17.0364 2.5177 16.8693 2.70774C15.9186 3.77121 14.968 4.83103 14.014 5.89085C13.86 6.06262 13.7092 6.23438 13.5518 6.40249C13.4437 6.51578 13.306 6.55964 13.1847 6.46096C13.0962 6.39153 13.0404 6.26727 12.9585 6.15033Z" fill="#525252"/>
</g>
<defs>
<clipPath id="clip0_634_5165">
<rect width="18" height="19" fill="white"/>
</clipPath>
</defs>
</svg>
