<svg width="21" height="20" viewBox="0 0 21 20" fill="none" xmlns="http://www.w3.org/2000/svg">
<path d="M4 0.5H16.6064C18.5393 0.500206 20.1064 2.06713 20.1064 4V16C20.1064 17.9329 18.5393 19.4998 16.6064 19.5H4C2.067 19.5 0.5 17.933 0.5 16V4C0.5 2.067 2.067 0.5 4 0.5Z" stroke="#BABABA"/>
<path d="M15.9922 4.69372C15.787 4.47798 15.5408 4.30548 15.2679 4.18637C14.995 4.06726 14.7011 4.00395 14.4034 4.00018C14.1057 3.9964 13.8102 4.05224 13.5345 4.16439C13.2587 4.27654 13.0081 4.44275 12.7975 4.65321L5.76534 11.685C5.51961 11.9308 5.34893 12.2414 5.27327 12.5806L4.61543 15.5434C4.60171 15.6049 4.60373 15.669 4.62132 15.7295C4.63891 15.7901 4.6715 15.8453 4.71607 15.8899C4.76064 15.9346 4.81575 15.9673 4.87631 15.9849C4.93686 16.0026 5.0009 16.0048 5.06249 15.9912L8.00813 15.3363C8.35903 15.259 8.68031 15.0825 8.93376 14.8278L15.9532 7.80872C16.3646 7.39712 16.599 6.84107 16.6063 6.25915C16.6136 5.67723 16.3932 5.11549 15.9922 4.69372ZM13.3278 5.18351C13.465 5.04433 13.6284 4.93367 13.8086 4.85792C13.9887 4.78216 14.1821 4.7428 14.3776 4.7421C14.573 4.7414 14.7666 4.77937 14.9473 4.85384C15.128 4.9283 15.2922 5.03778 15.4304 5.17597C15.5686 5.31416 15.6781 5.47833 15.7526 5.65902C15.827 5.8397 15.865 6.03334 15.8643 6.22877C15.8636 6.4242 15.8242 6.61756 15.7485 6.79771C15.6727 6.97786 15.5621 7.14123 15.4229 7.27843L14.9196 7.78172L12.8245 5.68755L13.3278 5.18351ZM12.2942 6.21859L14.3892 8.31277L8.40344 14.2983C8.25084 14.4521 8.05705 14.5587 7.84536 14.605L5.47505 15.1316L6.00612 12.7441C6.05037 12.5439 6.15089 12.3609 6.29566 12.2161L12.2942 6.21859Z" fill="#BABABA"/>
</svg>
