<svg width="21" height="20" viewBox="0 0 21 20" fill="none" xmlns="http://www.w3.org/2000/svg">
<path d="M4 0.5H16.6064C18.5393 0.500206 20.1064 2.06713 20.1064 4V16C20.1064 17.9329 18.5393 19.4998 16.6064 19.5H4C2.067 19.5 0.5 17.933 0.5 16V4C0.5 2.067 2.067 0.5 4 0.5Z" stroke="#BABABA"/>
<path d="M10.6064 10.8517L7.62546 13.8327C7.51392 13.9442 7.37197 14 7.1996 14C7.02723 14 6.88528 13.9442 6.77375 13.8327C6.66221 13.7212 6.60645 13.5792 6.60645 13.4068C6.60645 13.2345 6.66221 13.0925 6.77375 12.981L9.75473 10L6.77375 7.01901C6.66221 6.90748 6.60645 6.76553 6.60645 6.59316C6.60645 6.42079 6.66221 6.27883 6.77375 6.1673C6.88528 6.05577 7.02723 6 7.1996 6C7.37197 6 7.51392 6.05577 7.62546 6.1673L10.6064 9.14829L13.5874 6.1673C13.699 6.05577 13.8409 6 14.0133 6C14.1857 6 14.3276 6.05577 14.4391 6.1673C14.5507 6.27883 14.6064 6.42079 14.6064 6.59316C14.6064 6.76553 14.5507 6.90748 14.4391 7.01901L11.4582 10L14.4391 12.981C14.5507 13.0925 14.6064 13.2345 14.6064 13.4068C14.6064 13.5792 14.5507 13.7212 14.4391 13.8327C14.3276 13.9442 14.1857 14 14.0133 14C13.8409 14 13.699 13.9442 13.5874 13.8327L10.6064 10.8517Z" fill="#BABABA"/>
</svg>
