<svg width="20" height="21" viewBox="0 0 20 21" fill="none" xmlns="http://www.w3.org/2000/svg">
<g clip-path="url(#clip0_634_5158)">
<path d="M4.11827 21.0006C4.00553 20.887 3.88575 20.7835 3.78711 20.6634C3.33969 20.1091 2.89932 19.5516 2.45894 18.994C2.2229 18.6969 2.26518 18.4799 2.59282 18.2729C2.92398 18.0659 3.24809 17.8489 3.58982 17.6586C3.78006 17.5518 3.847 17.4215 3.86814 17.2212C3.93507 16.5535 4.16759 15.9258 4.74888 15.5285C5.12232 15.2715 5.23506 14.9676 5.30199 14.5837C5.3795 14.133 5.49224 13.689 5.5944 13.2115C5.50633 13.2115 5.42178 13.2115 5.34075 13.2115C3.99144 13.2115 2.64566 13.2149 1.29636 13.2115C0.65165 13.2082 0.0914952 12.7475 0.0139894 12.1732C-0.0776082 11.5222 0.316966 10.9513 0.975765 10.7843C1.09907 10.7543 1.22942 10.7443 1.40557 10.7209C1.24351 8.54746 1.76139 6.5543 3.1882 4.82488C4.61149 3.09547 6.48924 2.07719 8.78623 1.72329C8.58542 1.07226 8.73691 0.531402 9.364 0.167491C9.81142 -0.0895835 10.3962 -0.0495199 10.8014 0.26765C11.2946 0.648254 11.4038 1.14237 11.2136 1.71996C13.4929 2.07051 15.3742 3.08212 16.801 4.80819C18.2349 6.5376 18.7598 8.53077 18.6013 10.7176C18.6999 10.7309 18.7704 10.7409 18.8408 10.7476C19.5384 10.8144 20.0281 11.3619 20.0034 12.043C19.9788 12.6773 19.4186 13.2015 18.7351 13.2049C17.4951 13.2115 16.255 13.2082 15.0149 13.2082C14.9374 13.2082 14.8599 13.2082 14.7647 13.2082C14.7964 13.7424 14.4759 14.0295 14.046 14.2899C12.7989 15.0378 11.5659 15.809 10.3328 16.5769C10.2483 16.6303 10.1743 16.7171 10.125 16.8006C9.54719 17.8355 8.70168 18.5934 7.53557 19.0074C7.47568 19.0274 7.41579 19.0575 7.36294 19.0909C6.38355 19.7252 5.40416 20.3629 4.42477 20.9972C4.31908 21.0006 4.22044 21.0006 4.11827 21.0006ZM17.7205 9.08832C17.3577 6.56431 16.0894 4.61455 13.7501 3.41598C10.9599 1.98371 8.15914 2.11725 5.55213 3.83665C3.04728 5.48593 2.08551 7.87305 2.2687 10.7242C7.42988 10.7242 12.5805 10.7242 17.7346 10.7242C17.7346 10.4572 17.7346 10.2001 17.7346 9.92965C17.643 9.92965 17.5655 9.92965 17.488 9.92965C16.6214 9.92965 15.7582 9.92965 14.8916 9.92965C14.8211 9.92965 14.7471 9.93299 14.6767 9.92298C14.4441 9.88625 14.2821 9.70596 14.2891 9.49563C14.2962 9.29197 14.4512 9.13506 14.6837 9.10167C14.7612 9.09166 14.8422 9.09166 14.9197 9.09166C15.7617 9.09166 16.6073 9.09166 17.4493 9.09166C17.5303 9.08832 17.6078 9.08832 17.7205 9.08832ZM4.37192 20.0257C5.12937 19.5382 5.86215 19.0642 6.59493 18.5934C6.78517 18.4732 6.97189 18.3297 7.18327 18.2562C8.06754 17.939 8.76861 17.4049 9.20899 16.6169C9.4415 16.1963 9.75857 15.8958 10.1778 15.6688C10.1849 15.6654 10.1884 15.6621 10.1954 15.6587C11.3686 14.9376 12.5417 14.2198 13.7114 13.4987C13.7783 13.4552 13.8171 13.3718 13.8699 13.3083C13.7853 13.275 13.7008 13.2215 13.6162 13.2182C13.3591 13.2049 13.0948 13.1982 12.8377 13.2182C12.6721 13.2316 12.4959 13.2649 12.3515 13.3384C10.8965 14.0963 9.44503 14.8675 7.99356 15.6354C7.81741 15.7289 7.64478 15.7689 7.46511 15.6654C7.28191 15.5586 7.24668 15.3917 7.27487 15.2014C7.3418 14.7339 7.40874 14.2699 7.46511 13.8025C7.50034 13.5187 7.33123 13.2983 7.05996 13.2282C6.73233 13.1481 6.45049 13.3584 6.36946 13.739C6.24263 14.34 6.11228 14.9409 5.98898 15.5419C5.95375 15.7188 5.84453 15.8257 5.68952 15.9158C5.50633 16.0227 5.31961 16.1362 5.17869 16.2831C4.82287 16.657 4.70661 17.1177 4.71718 17.6118C4.72422 17.8489 4.6291 18.0125 4.41772 18.136C4.07247 18.3397 3.73426 18.56 3.38197 18.7804C3.71313 19.1944 4.03724 19.605 4.37192 20.0257ZM10.0052 11.5656C7.13747 11.5656 4.26624 11.5656 1.39852 11.5656C1.07089 11.5656 0.880644 11.7091 0.873598 11.9562C0.866552 12.2066 1.06736 12.3735 1.395 12.3802C1.41614 12.3802 1.43728 12.3802 1.45841 12.3802C7.15156 12.3802 12.8447 12.3802 18.5414 12.3802C18.6189 12.3802 18.6999 12.3769 18.7774 12.3635C19.0029 12.3201 19.1473 12.1432 19.1332 11.9395C19.1156 11.7325 18.9465 11.5789 18.7211 11.5656C18.6506 11.5622 18.5766 11.5656 18.5061 11.5656C15.6701 11.5656 12.8377 11.5656 10.0052 11.5656ZM10.6992 13.2516C10.6957 13.2416 10.6922 13.2282 10.6886 13.2182C9.8854 13.2182 9.08216 13.2182 8.31063 13.2182C8.31063 13.6556 8.31063 14.0796 8.31063 14.5169C9.09977 14.0963 9.89949 13.6756 10.6992 13.2516ZM10.435 1.23252C10.4315 1.01884 10.2271 0.828541 10.0017 0.831879C9.77619 0.831879 9.57538 1.02552 9.57185 1.23585C9.56833 1.4562 9.78323 1.65318 10.0158 1.64651C10.2412 1.63983 10.4385 1.44619 10.435 1.23252Z" fill="#525252"/>
<path d="M7.6343 4.65749C7.63782 4.79771 7.48633 4.91122 7.29257 5.00137C6.46819 5.38531 5.81643 5.95288 5.34083 6.69071C5.18582 6.93443 5.06251 7.19819 4.93921 7.4586C4.80886 7.73571 4.59748 7.85256 4.35087 7.75908C4.10074 7.66559 4.00914 7.43857 4.12188 7.1648C4.66794 5.8427 5.6121 4.86114 6.95788 4.23348C7.29609 4.07657 7.62725 4.24684 7.6343 4.65749Z" fill="#525252"/>
<path d="M12.7673 9.85984C12.5207 9.8565 12.3375 9.67956 12.341 9.44251C12.3445 9.22216 12.5348 9.03854 12.7638 9.0352C12.9998 9.03186 13.2006 9.22216 13.2041 9.44919C13.2041 9.68289 13.0139 9.85984 12.7673 9.85984Z" fill="#525252"/>
</g>
<defs>
<clipPath id="clip0_634_5158">
<rect width="20" height="21" fill="white"/>
</clipPath>
</defs>
</svg>
