<svg width="30" height="30" viewBox="0 0 30 30" fill="none" xmlns="http://www.w3.org/2000/svg">
<path d="M2.83934 1C3.2614 1.10264 3.69719 1.16809 4.10249 1.31387C5.3687 1.76757 6.26312 2.62587 6.78727 3.83226C7.12401 4.61023 7.08287 5.41499 6.80403 6.20933C6.77965 6.27775 6.7507 6.34469 6.72633 6.41312C6.72328 6.42056 6.72785 6.42948 6.72937 6.46072C7.58722 6.87723 8.21652 7.52133 8.57611 8.40641C8.73763 8.80358 8.90066 9.20075 9.06065 9.59941C9.92155 11.737 10.499 13.9445 10.7703 16.2249C10.9668 17.8805 11.1238 19.5406 11.299 21.1992C11.3203 21.4059 11.3462 21.6127 11.3736 21.8447C11.9085 21.7778 12.4235 21.7153 12.9385 21.6499C15.0199 21.3836 17.0998 21.1159 19.1812 20.8496C20.781 20.6443 22.384 20.4584 23.9808 20.2338C26.0714 19.9392 27.8755 21.1783 28.6145 22.9306C28.8689 23.5361 29.003 24.1653 29 24.8198C28.9969 25.7956 28.4164 26.6019 27.4976 26.8176C27.1151 26.9068 26.7022 26.8771 26.3015 26.8845C26.1338 26.8875 26.0546 26.9232 26.0318 27.1047C25.8992 28.1861 25.052 28.9388 23.9199 28.9968C23.8361 29.0013 23.7523 28.9998 23.6685 28.9998C18.4025 28.9998 13.1381 28.9998 7.87216 28.9998C7.04935 28.9998 6.67909 28.7142 6.48863 27.9377C6.17627 26.6629 5.86086 25.3895 5.54697 24.1162C5.15233 22.5112 6.27074 21.0891 7.90873 21.1292C8.53192 21.1441 9.07894 21.3762 9.50253 21.8209C9.6869 22.0143 9.85146 22.0872 10.1044 22.0114C10.2263 21.9757 10.3604 21.9756 10.5249 21.9548C10.4823 21.5443 10.4442 21.1486 10.4015 20.7529C10.2446 19.2579 10.0998 17.7615 9.9246 16.268C9.61681 13.6529 8.84886 11.1583 7.80664 8.73813C7.46533 7.94676 6.91527 7.37853 6.0757 7.10333C5.84867 7.02896 5.60487 6.98284 5.36565 6.96648C4.94663 6.93673 4.52608 6.93078 4.10554 6.93078C3.43054 6.92929 3.05723 7.38894 3.2035 8.03453C3.57681 9.67825 3.95317 11.3205 4.328 12.9642C4.8933 15.4424 5.4586 17.9206 6.02389 20.3989C6.03608 20.4524 6.04675 20.506 6.05589 20.5595C6.10313 20.8198 5.99342 21.0162 5.76943 21.0787C5.52716 21.1456 5.31537 21.0311 5.24528 20.7589C5.10357 20.2114 4.98168 19.6611 4.85216 19.1107C3.5951 13.7541 2.33956 8.396 1.07945 3.0394C0.837177 2.01003 1.12973 1.48345 2.22376 1C2.42946 1 2.63363 1 2.83934 1ZM25.1831 26.889C25.0673 26.889 24.9652 26.889 24.8646 26.889C24.0997 26.889 23.3333 26.889 22.5684 26.889C22.0732 26.889 21.8827 26.7759 21.8796 26.4844C21.8766 26.1898 22.0777 26.0634 22.5592 26.0634C23.9976 26.0634 25.4345 26.0649 26.8728 26.0634C27.6819 26.0619 28.2046 25.5695 28.1451 24.7767C28.1055 24.2575 28.005 23.7235 27.8176 23.2386C27.2446 21.7659 25.759 20.857 24.2582 21.034C22.5272 21.2378 20.7993 21.4714 19.0699 21.693C16.8407 21.9786 14.6131 22.2642 12.3839 22.5513C11.6372 22.648 10.8891 22.7447 10.1212 22.8444C10.3543 23.8306 10.5905 24.793 10.8053 25.7614C10.8586 26.0009 10.9546 26.0738 11.2106 26.0723C14.1514 26.0619 17.0921 26.0664 20.0329 26.0664C20.1259 26.0664 20.2203 26.0619 20.3133 26.0723C20.5799 26.1006 20.749 26.2657 20.746 26.4873C20.743 26.7149 20.5769 26.8681 20.3041 26.8875C20.2112 26.8949 20.1182 26.8919 20.0238 26.8919C17.1577 26.8919 14.2916 26.8919 11.4255 26.8934C11.3203 26.8934 11.2137 26.9038 11.0918 26.9113C11.1756 27.2683 11.2639 27.5851 11.3188 27.9064C11.3569 28.1325 11.459 28.1876 11.6891 28.1876C15.6934 28.1801 19.6992 28.1816 23.7035 28.1816C23.8148 28.1816 23.929 28.1816 24.0387 28.1667C24.7046 28.0745 25.1983 27.545 25.1831 26.889ZM10.5188 28.1742C10.4 27.6744 10.2903 27.1954 10.1745 26.7194C9.87889 25.4892 9.60462 24.2545 9.27702 23.0333C9.0637 22.2375 8.2668 21.809 7.47599 21.9905C6.67452 22.175 6.14884 22.9232 6.33016 23.7309C6.64404 25.1248 7.00059 26.5082 7.35714 27.8916C7.38609 28.0016 7.54608 28.1593 7.64817 28.1608C8.59744 28.1831 9.54672 28.1742 10.5188 28.1742ZM2.83629 6.56782C3.22941 6.23015 3.65757 6.09628 4.1284 6.10669C4.7135 6.11859 5.29861 6.14388 5.90504 6.1647C6.22502 5.44474 6.29359 4.70395 5.92028 3.9706C5.23918 2.63182 4.10402 1.94309 2.59097 1.82855C2.079 1.78988 1.74379 2.1811 1.86264 2.67347C2.06834 3.52285 2.2847 4.36925 2.4965 5.21715C2.60773 5.65448 2.71744 6.0933 2.83629 6.56782Z" fill="#F28B24" stroke="#F28B24" stroke-width="0.5"/>
</svg>
