<svg width="44" height="48" viewBox="0 0 44 48" fill="none" xmlns="http://www.w3.org/2000/svg">
<g clip-path="url(#clip0_65_26)">
<path d="M21.3832 48C16.496 46.203 12.3882 43.2692 8.89813 39.4799C4.83449 35.0683 2.14598 29.9251 0.820852 24.0911C0.304624 21.816 0.0207719 19.5119 0.00753531 17.1785C-0.00275984 15.2416 0.000181633 13.3033 0.00459384 11.3664C0.00753531 9.79819 0.903213 8.40344 2.38424 7.86128C5.08599 6.87316 6.90529 5.0747 7.88038 2.38577C8.41426 0.910866 9.84676 0.00289615 11.4484 0.00143874C18.4344 -0.00147609 25.4189 -1.86776e-05 32.4034 0.00143874C34.258 0.00143874 35.5743 0.906494 36.2229 2.64519C37.0171 4.78031 38.4349 6.3616 40.4837 7.38179C40.8057 7.54211 41.1484 7.66162 41.4867 7.78987C43.0118 8.37138 43.9869 9.75447 43.9914 11.3664C43.9958 13.2566 44.0134 15.1484 43.9869 17.0386C43.8855 24.5545 41.5338 31.314 36.9436 37.2909C33.4579 41.8278 29.0575 45.244 23.804 47.573C23.4202 47.7435 23.0113 47.8601 22.6127 48.0014C22.2024 48 21.7921 48 21.3832 48ZM21.9862 2.80988C18.5491 2.80988 15.112 2.80842 11.6764 2.80988C10.9601 2.80988 10.6836 2.99789 10.4321 3.65664C9.19081 6.91105 6.92441 9.1511 3.65055 10.3957C3.04755 10.6245 2.84017 10.916 2.8387 11.5617C2.83576 13.312 2.82694 15.0609 2.84164 16.8113C2.86076 19.0965 3.07402 21.3672 3.62996 23.5853C6.10815 33.4695 11.972 40.6196 21.2906 44.9671C21.7935 45.2017 22.2259 45.1872 22.723 44.9598C29.8914 41.6952 35.1111 36.4966 38.3937 29.4019C39.9968 25.9376 40.9131 22.2868 41.0661 18.4742C41.1558 16.2283 41.1337 13.9766 41.1543 11.7278C41.1631 10.8723 40.9881 10.6362 40.1939 10.3287C37.0083 9.09426 34.8125 6.88336 33.5859 3.72368C33.2976 2.98185 33.055 2.80988 32.2475 2.80988C28.8281 2.80988 25.4071 2.80988 21.9862 2.80988Z" fill="black"/>
<path d="M16.0634 18.1724C16.0634 16.9001 16.0722 15.638 16.0604 14.3758C16.0516 13.4067 16.2398 12.487 16.6737 11.6169C17.7871 9.38273 20.402 7.99381 22.767 8.38586C25.5143 8.84203 27.566 10.8212 27.8734 13.4256C27.994 14.4443 27.9204 15.4849 27.9307 16.5153C27.9366 17.0604 27.9322 17.6055 27.9322 18.1622C28.3028 18.2351 28.647 18.2773 28.9749 18.3692C30.353 18.7597 31.3502 19.9053 31.4149 21.3175C31.484 22.8303 31.4575 24.3475 31.4546 25.8617C31.4531 27.3454 31.484 28.8319 31.4031 30.3127C31.2399 33.2814 28.544 35.9048 25.554 35.9879C23.2861 36.0505 21.0124 36.0505 18.7445 36.0024C15.2692 35.9296 12.613 33.2363 12.5527 29.721C12.5071 27.0495 12.5233 24.3781 12.5498 21.7066C12.5689 19.8018 13.744 18.5251 15.6545 18.2409C15.7736 18.2234 15.8972 18.2001 16.0634 18.1724ZM21.9978 21.0625C20.074 21.0625 18.1518 21.061 16.2281 21.0639C15.5383 21.0654 15.4074 21.1995 15.4074 21.8917C15.4059 24.4684 15.4 27.0466 15.4089 29.6233C15.4162 31.7045 16.9223 33.1882 19.0181 33.1925C20.9727 33.1969 22.9273 33.1954 24.8819 33.1925C27.1027 33.1911 28.5823 31.7307 28.5867 29.5286C28.5911 26.9825 28.5881 24.4364 28.5867 21.8903C28.5867 21.1995 28.4543 21.0625 27.766 21.0625C25.8437 21.0595 23.92 21.0625 21.9978 21.0625ZM25.079 18.1928C25.079 16.8316 25.0878 15.5243 25.0775 14.2155C25.0643 12.5322 23.6979 11.1768 22.0184 11.1608C20.33 11.1447 18.9298 12.5205 18.9166 14.2213C18.9078 15.4223 18.9136 16.6246 18.9166 17.8255C18.9166 17.945 18.9386 18.0646 18.9504 18.1928C20.9933 18.1928 23.0052 18.1928 25.079 18.1928Z" fill="black"/>
<path d="M21.9978 21.0625C23.9215 21.0625 25.8438 21.061 27.7675 21.064C28.4573 21.0654 28.5882 21.201 28.5882 21.8918C28.5897 24.4379 28.5926 26.984 28.5882 29.5301C28.5838 31.7322 27.1042 33.1926 24.8834 33.194C22.9288 33.1955 20.9742 33.1984 19.0196 33.194C16.9238 33.1897 15.4177 31.706 15.4104 29.6248C15.4016 27.0481 15.4075 24.4699 15.4089 21.8932C15.4089 21.1995 15.5398 21.0654 16.2296 21.0654C18.1504 21.0596 20.0741 21.0625 21.9978 21.0625ZM23.4362 27.0947C23.4362 26.7042 23.4436 26.3136 23.4347 25.9244C23.4141 25.0223 22.817 24.3854 22.0022 24.3825C21.186 24.3796 20.5756 25.0165 20.5609 25.9142C20.5477 26.726 20.5462 27.5378 20.5609 28.3496C20.5771 29.2415 21.2095 29.893 22.0155 29.8769C22.817 29.8609 23.4068 29.2357 23.4333 28.3598C23.4465 27.9386 23.4362 27.5159 23.4362 27.0947Z" fill="#F28B24"/>
<path d="M23.4362 27.0948C23.4362 27.516 23.4465 27.9387 23.4332 28.3584C23.4068 29.2343 22.817 29.8595 22.0155 29.8756C21.2095 29.8916 20.5771 29.2401 20.5609 28.3482C20.5462 27.5364 20.5477 26.7246 20.5609 25.9129C20.5756 25.0151 21.186 24.3782 22.0022 24.3811C22.8185 24.384 23.4141 25.0209 23.4347 25.9231C23.4435 26.3136 23.4362 26.7042 23.4362 27.0948Z" fill="black"/>
</g>
<defs>
<clipPath id="clip0_65_26">
<rect width="44" height="48" fill="white"/>
</clipPath>
</defs>
</svg>
