<svg width="16" height="21" viewBox="0 0 16 21" fill="none" xmlns="http://www.w3.org/2000/svg">
<g clip-path="url(#clip0_372_13802)">
<path d="M10.7652 16.616L1.70062 16.616C0.902532 16.616 0.254883 16.0088 0.254883 15.2606L0.254882 4.99366C0.254882 4.24784 0.902532 3.63828 1.70062 3.63828L10.7652 3.63828L10.7652 16.616Z" fill="#3B8B68"/>
<path d="M0.50996 4.99608C0.50996 4.38173 1.04287 3.87974 1.70072 3.87974L10.5103 3.87974L10.5103 16.377L1.70072 16.377C1.04542 16.377 0.50996 15.8774 0.50996 15.2606L0.50996 4.99608ZM-5.18372e-07 4.99608L-6.96944e-08 15.2606C-3.12423e-08 16.1403 0.759841 16.855 1.70072 16.855L11.0202 16.855L11.0202 3.40165L1.70072 3.40165C0.75984 3.40165 -5.56928e-07 4.114 -5.18372e-07 4.99608Z" fill="white"/>
<path d="M15.7454 14.7155C15.7454 15.4614 15.0977 16.0709 14.2996 16.0709L10.7656 16.0709L10.7656 4.14742L14.2996 4.14742C15.0952 4.14742 15.7454 4.75459 15.7454 5.50279L15.7454 14.7155Z" fill="#3B8B68"/>
<path d="M11.0207 4.38649L14.2997 4.38649C14.955 4.38649 15.4905 4.88609 15.4905 5.50283L15.4905 14.7156C15.4905 15.3299 14.9576 15.8319 14.2997 15.8319L11.0207 15.8319L11.0207 4.38649ZM10.5107 3.9084L10.5107 16.31L14.2997 16.31C15.2381 16.31 16.0005 15.5953 16.0005 14.7156L16.0005 5.50043C16.0005 4.62075 15.2406 3.90601 14.2997 3.90601L10.5107 3.90601L10.5107 3.9084Z" fill="white"/>
<path d="M13.3827 17.6916C13.3827 18.2677 12.8829 18.7386 12.2659 18.7386C12.2531 18.7386 12.2378 18.7386 12.2251 18.741L4.12181 20.0008C3.51495 19.9912 3.02539 19.5251 3.02539 18.9538L3.02539 17.1466C3.02539 16.5705 3.52515 16.0996 4.1422 16.0996L12.2684 16.0996C12.8829 16.0996 13.3852 16.5681 13.3852 17.1466L13.3852 17.6916L13.3827 17.6916Z" fill="#3B8B68"/>
<path d="M3.28047 17.149C3.28047 16.7044 3.66549 16.3411 4.1423 16.3411L12.2685 16.3411C12.7428 16.3411 13.1303 16.702 13.1303 17.149L13.1304 17.6917C13.1304 18.1363 12.7453 18.4996 12.2685 18.4996C12.2405 18.4996 12.2124 18.502 12.1844 18.5068L4.10405 19.7618C3.64764 19.7427 3.28047 19.3889 3.28047 18.9562L3.28047 17.149ZM2.77051 17.149L2.77051 18.9538C2.77051 19.6638 3.38501 20.2399 4.1423 20.2399L12.2685 18.9753C13.0258 18.9753 13.6403 18.3992 13.6403 17.6893L13.6403 17.1466C13.6403 16.4367 13.0258 15.8606 12.2685 15.8606L4.1423 15.8606C3.38501 15.863 2.77051 16.4391 2.77051 17.149Z" fill="white"/>
<path d="M13.3827 3.09087C13.3827 3.66696 12.8829 4.13788 12.2659 4.13788L4.1422 4.13788C3.5277 4.13788 3.02539 3.66935 3.02539 3.09087L3.02539 1.28369C3.02539 0.71238 3.51495 0.248636 4.12181 0.239074L12.2251 1.49883C12.2378 1.50122 12.2531 1.50123 12.2659 1.50123C12.8804 1.50123 13.3827 1.96975 13.3827 2.54824L13.3827 3.09087Z" fill="#3B8B68"/>
<path d="M3.28047 1.28373C3.28047 0.851056 3.64764 0.494881 4.10405 0.478148L12.1844 1.73552C12.2124 1.7403 12.2405 1.74269 12.2685 1.74269C12.7428 1.74269 13.1304 2.10365 13.1304 2.55066L13.1304 3.09329C13.1304 3.53791 12.7453 3.90126 12.2685 3.90126L4.1423 3.90126C3.66804 3.90126 3.28047 3.5403 3.28047 3.09329L3.28047 1.28373ZM2.77051 1.28373L2.77051 3.0909C2.77051 3.80086 3.38501 4.37695 4.1423 4.37695L12.2685 4.37695C13.0258 4.37695 13.6403 3.80086 13.6403 3.0909L13.6403 2.54827C13.6403 1.83831 13.0258 1.26221 12.2685 1.26221L4.1423 -0.00233036C3.38501 6.00546e-05 2.77051 0.573765 2.77051 1.28373Z" fill="white"/>
</g>
<defs>
<clipPath id="clip0_372_13802">
<rect width="20.2398" height="16" fill="white" transform="translate(0 20.2399) rotate(-90)"/>
</clipPath>
</defs>
</svg>
