<svg width="30" height="30" viewBox="0 0 30 30" fill="none" xmlns="http://www.w3.org/2000/svg">
<path d="M19.3004 19.305L22 22M21.1472 14.5625C21.1472 16.303 20.4546 17.9722 19.2218 19.2029C17.989 20.4336 16.317 21.125 14.5736 21.125C12.8302 21.125 11.1581 20.4336 9.92536 19.2029C8.69257 17.9722 8 16.303 8 14.5625C8 12.822 8.69257 11.1528 9.92536 9.92211C11.1581 8.6914 12.8302 8 14.5736 8C16.317 8 17.989 8.6914 19.2218 9.92211C20.4546 11.1528 21.1472 12.822 21.1472 14.5625Z" stroke="#919191" stroke-width="1.5" stroke-linecap="round" stroke-linejoin="round"/>
<rect x="0.75" y="0.75" width="28.5" height="28.5" rx="7.25" stroke="#919191" stroke-width="1.5"/>
</svg>
