<svg width="48" height="48" viewBox="0 0 48 48" fill="none" xmlns="http://www.w3.org/2000/svg">
<circle cx="24" cy="24" r="24" fill="#269A59"/>
<g clip-path="url(#clip0_1706_1663)">
<path d="M29.4203 34.6689C29.9523 35.7323 30.4732 36.7682 30.9804 37.8067C31.0603 37.9725 31.1265 38.1631 31.1292 38.3426C31.132 38.6547 30.8867 38.9171 30.5807 38.9779C30.2637 39.0414 29.9991 38.9365 29.831 38.6603C29.6711 38.3923 29.5416 38.1078 29.4037 37.8288C28.9186 36.8621 28.4418 35.8926 27.9456 34.9313C27.8933 34.8319 27.7417 34.7214 27.6342 34.7186C25.939 34.7048 24.2411 34.7103 22.546 34.7103C22.5019 34.7103 22.4605 34.7214 22.3889 34.7297C22.67 35.7821 22.9512 36.8234 23.2268 37.8675C23.2681 38.0277 23.315 38.1962 23.304 38.3592C23.2819 38.6962 23.0008 38.9586 22.67 38.9917C22.331 39.0276 22.0223 38.826 21.9175 38.4586C21.686 37.6438 21.4738 36.8234 21.2532 36.0058C21.1375 35.5777 21.0217 35.1495 20.9004 34.7076C20.3685 34.7076 19.8585 34.7076 19.3459 34.7076C17.8271 34.7076 16.3111 34.7131 14.7924 34.7021C14.536 34.6993 14.401 34.7656 14.2852 35.0059C13.7422 36.1301 13.1772 37.2433 12.6176 38.3592C12.5818 38.4282 12.5487 38.5 12.5101 38.5663C12.2924 38.953 11.912 39.0912 11.5509 38.9199C11.1816 38.7431 11.0383 38.326 11.2367 37.9255C11.7025 36.9753 12.1821 36.0307 12.6562 35.0832C12.7113 34.9755 12.761 34.8678 12.8381 34.7048C12.466 34.7048 12.138 34.7103 11.81 34.7048C10.3299 34.6689 9.11708 33.5281 9.00683 32.0725C8.89657 30.6168 9.88886 29.3158 11.3277 29.0424C11.5675 28.9982 11.8155 28.9982 12.0609 28.9982C14.3596 28.9954 16.6584 28.9954 18.9572 28.9954C19.0785 28.9954 19.197 28.9954 19.3707 28.9954C18.3591 25.2223 17.3613 21.4933 16.3525 17.7285C15.7488 17.8887 15.17 18.0378 14.5939 18.1925C13.1744 18.5737 11.7549 18.9549 10.3326 19.3333C9.68489 19.5073 9.36791 19.314 9.2108 18.6621C8.11653 14.0962 11.3304 9.53862 15.9997 9.05248C19.7896 8.66025 23.2736 10.9501 24.3707 14.5547C24.5884 15.2674 24.4203 15.5685 23.7064 15.759C21.8128 16.2673 19.9192 16.7755 18.0256 17.2838C17.9429 17.3059 17.8602 17.3362 17.7417 17.3722C17.9319 18.0848 18.1193 18.7809 18.304 19.4769C19.1254 22.543 19.9523 25.609 20.7626 28.6805C20.8315 28.9402 20.9363 29.0064 21.1899 29.0064C23.2874 28.9954 25.385 28.9982 27.4826 29.0064C27.7141 29.0064 27.8767 28.9402 28.0366 28.7772C30.0267 26.7746 32.0195 24.7748 34.0151 22.7777C34.9302 21.8607 36.132 21.6066 37.2345 22.0817C39.0289 22.8551 39.5553 25.1698 38.2268 26.6089C37.2207 27.6972 36.1458 28.7247 35.0983 29.7771C33.9269 30.9565 32.7499 32.1305 31.5785 33.3099C30.9776 33.9259 30.3051 34.4286 29.4203 34.6689ZM20.3822 33.2906C23.0366 33.2906 25.6937 33.263 28.3481 33.3072C29.2218 33.321 29.8751 33.0006 30.4567 32.4177C30.9693 31.904 31.4793 31.3902 31.9919 30.8764C33.6761 29.186 35.3602 27.49 37.0498 25.8023C37.4633 25.388 37.6397 24.9074 37.4908 24.3411C37.2014 23.239 35.8867 22.9324 35.0487 23.7721C32.9732 25.8493 30.8977 27.9237 28.8359 30.0119C28.5383 30.313 28.224 30.4373 27.7996 30.4345C22.568 30.4234 17.3337 30.4262 12.1022 30.4262C11.9782 30.4262 11.8569 30.4207 11.7328 30.4317C10.917 30.4953 10.3161 31.2659 10.4512 32.0752C10.5807 32.8376 11.1513 33.2878 12.0112 33.2878C14.8034 33.2933 17.5928 33.2906 20.3822 33.2906ZM22.8133 14.5216C21.8679 11.8119 18.5603 9.61873 14.9798 10.7153C11.245 11.8589 10.0377 15.6016 10.5476 17.8086C14.6298 16.7148 18.7119 15.6209 22.8133 14.5216Z" fill="white"/>
<path d="M29.7109 15.422C29.7137 13.8559 31.0009 12.5715 32.5665 12.5659C34.1404 12.5604 35.4496 13.8807 35.4303 15.4469C35.4111 17.0186 34.1156 18.2975 32.5582 18.2864C30.9926 18.2754 29.7082 16.9827 29.7109 15.422ZM32.5803 14.0078C31.781 14.0023 31.1553 14.621 31.1498 15.4165C31.1442 16.2175 31.7617 16.8445 32.5582 16.8473C33.3576 16.8528 33.986 16.2313 33.9888 15.4386C33.9943 14.6376 33.3769 14.0106 32.5803 14.0078Z" fill="white"/>
<path d="M31.8569 10.417C31.8569 10.1822 31.8432 9.9474 31.8597 9.71538C31.89 9.29277 32.1739 9.01102 32.5571 9.00274C32.9512 8.99445 33.2654 9.28448 33.2847 9.71814C33.304 10.196 33.3068 10.6766 33.282 11.1545C33.2627 11.5688 32.9485 11.8561 32.5708 11.8533C32.1932 11.8533 31.89 11.5633 31.8597 11.1489C31.8432 10.9059 31.8569 10.66 31.8569 10.417Z" fill="white"/>
<path d="M27.5669 16.143C27.3326 16.143 27.0983 16.1568 26.864 16.1402C26.4258 16.1098 26.1391 15.8115 26.1446 15.4138C26.1501 15.0298 26.4313 14.7315 26.8557 14.7149C27.3353 14.6956 27.815 14.6956 28.2918 14.7149C28.708 14.7343 28.9947 15.0436 28.9974 15.4221C29.0002 15.8005 28.7135 16.1043 28.3001 16.1375C28.0575 16.1568 27.8122 16.143 27.5669 16.143Z" fill="white"/>
<path d="M37.5735 14.7094C37.8078 14.7094 38.0421 14.6983 38.2764 14.7121C38.7119 14.7398 39.0041 15.0381 39.0013 15.4358C38.9958 15.8198 38.7174 16.1209 38.2957 16.1402C37.8161 16.1623 37.3365 16.1623 36.8596 16.1402C36.4434 16.1209 36.154 15.817 36.1485 15.4386C36.143 15.0491 36.4407 14.7425 36.8734 14.7149C37.1022 14.6983 37.3393 14.7094 37.5735 14.7094Z" fill="white"/>
<path d="M33.2892 20.4547C33.2892 20.6895 33.3058 20.9243 33.2865 21.1563C33.2534 21.5762 32.9557 21.8524 32.5726 21.8524C32.1894 21.8496 31.8835 21.5679 31.8642 21.1508C31.8421 20.6729 31.8421 20.1923 31.8642 19.7145C31.8807 19.2974 32.1839 19.0074 32.5615 18.9991C32.9502 18.9908 33.2617 19.2891 33.2892 19.72C33.3058 19.9658 33.292 20.2117 33.2892 20.4547Z" fill="white"/>
<path d="M29.4462 13.1073C29.3524 13.0576 29.1567 12.9941 29.0162 12.867C28.6854 12.5687 28.3739 12.2483 28.068 11.9251C27.7483 11.5881 27.74 11.1766 28.0322 10.8838C28.3243 10.591 28.7378 10.5965 29.0741 10.9169C29.4131 11.2401 29.7411 11.5743 30.0636 11.9141C30.2758 12.1378 30.3061 12.4113 30.1849 12.6902C30.0663 12.9637 29.8431 13.0908 29.4462 13.1073Z" fill="white"/>
<path d="M34.8359 18.3803C34.971 18.2091 35.0895 17.9771 35.277 17.8417C35.5085 17.6732 35.8062 17.6953 36.0212 17.8914C36.4236 18.2588 36.815 18.6427 37.1788 19.0488C37.4186 19.3167 37.369 19.7062 37.1209 19.9603C36.8729 20.2172 36.4815 20.2779 36.2141 20.0376C35.7979 19.6675 35.412 19.2642 35.0344 18.8582C34.9407 18.7643 34.9214 18.6041 34.8359 18.3803Z" fill="white"/>
<path d="M35.5354 13.1654C35.3617 13.0328 35.1302 12.9168 34.9924 12.7317C34.8215 12.5024 34.838 12.2014 35.0365 11.9859C35.4031 11.5826 35.7862 11.1932 36.1914 10.8258C36.4615 10.5827 36.8474 10.6297 37.1037 10.8755C37.3711 11.1296 37.4262 11.5329 37.1754 11.8119C36.8116 12.2179 36.4147 12.5936 36.015 12.9665C35.9185 13.0549 35.7559 13.0742 35.5354 13.1654Z" fill="white"/>
<path d="M30.2491 18.5737C30.205 18.6538 30.1471 18.8416 30.0259 18.9714C29.7199 19.3084 29.3919 19.6288 29.0611 19.9437C28.7276 20.2586 28.3087 20.2558 28.0192 19.9548C27.7408 19.6647 27.7464 19.2615 28.0523 18.9383C28.3831 18.593 28.7221 18.2533 29.0722 17.9273C29.2982 17.7174 29.5738 17.6953 29.8494 17.8224C30.1223 17.9494 30.2464 18.1732 30.2491 18.5737Z" fill="white"/>
</g>
<defs>
<clipPath id="clip0_1706_1663">
<rect width="30" height="30" fill="white" transform="translate(9 9)"/>
</clipPath>
</defs>
</svg>
