<svg width="48" height="48" viewBox="0 0 48 48" fill="none" xmlns="http://www.w3.org/2000/svg">
<circle cx="24" cy="24" r="24" fill="#269A59"/>
<g clip-path="url(#clip0_1706_1621)">
<path d="M35.4331 28.7312C27.7905 28.7312 20.1979 28.7312 12.5651 28.7312C12.5651 29.0273 12.5651 29.3029 12.5651 29.5785C12.5651 30.4383 12.5678 31.2973 12.5642 32.1562C12.5615 32.745 12.3156 32.991 11.7298 32.9955C11.0824 33 10.4358 33.0018 9.78832 32.9946C9.27231 32.9883 9.00134 32.719 9.00134 32.2054C8.99955 26.0667 8.99955 19.9288 9.00134 13.79C9.00134 13.2782 9.2741 13.0098 9.7919 13.0044C10.4277 12.9973 11.0636 13 11.6994 13.0035C12.3272 13.0062 12.5642 13.2451 12.5651 13.8786C12.5669 17.0146 12.566 20.1507 12.566 23.2876C12.566 23.4183 12.566 23.5489 12.566 23.6992C15.4349 23.6992 18.2627 23.6992 21.1369 23.6992C21.1369 23.5578 21.1369 23.4281 21.1369 23.2984C21.1369 21.6243 21.1369 19.9503 21.1369 18.2762C21.1369 17.5121 21.3542 17.2902 22.1036 17.2902C26.2541 17.2902 30.4045 17.2875 34.5549 17.2911C37.1555 17.2929 38.9978 19.1396 38.9987 21.7406C38.9996 25.1782 38.9987 28.6158 38.9987 32.0533C38.9987 32.77 38.7742 32.9964 38.0614 32.9973C37.448 32.9982 36.8345 33.0026 36.2201 32.9955C35.6978 32.9892 35.4385 32.7315 35.4349 32.2099C35.4286 31.1828 35.4331 30.1565 35.4322 29.1293C35.4331 29.0077 35.4331 28.8869 35.4331 28.7312ZM37.5633 31.563C37.5687 31.4548 37.5749 31.3787 37.5749 31.3027C37.5758 28.0897 37.5839 24.8758 37.5714 21.6628C37.5642 19.9189 36.3274 18.7155 34.5755 18.7146C30.6942 18.7128 26.8121 18.7137 22.9309 18.7137C22.8227 18.7137 22.7145 18.7137 22.5991 18.7137C22.5991 21.5885 22.5991 24.4257 22.5991 27.288C22.7538 27.288 22.8862 27.288 23.0176 27.288C27.3228 27.288 31.6288 27.288 35.9339 27.288C36.6154 27.288 36.8541 27.5305 36.855 28.2176C36.8559 29.0095 36.855 29.8022 36.855 30.594C36.855 30.9134 36.855 31.2329 36.855 31.563C37.1063 31.563 37.3156 31.563 37.5633 31.563ZM21.136 25.1433C20.9563 25.1433 20.8239 25.1433 20.6916 25.1433C17.8244 25.1433 14.9564 25.1433 12.0893 25.1433C11.3784 25.1433 11.1423 24.9098 11.1423 24.2047C11.1423 21.0794 11.1423 17.955 11.1423 14.8297C11.1423 14.7009 11.1423 14.5711 11.1423 14.4512C10.8785 14.4512 10.662 14.4512 10.4403 14.4512C10.4403 20.1641 10.4403 25.851 10.4403 31.5568C10.6746 31.5568 10.891 31.5568 11.1423 31.5568C11.1423 31.436 11.1423 31.3277 11.1423 31.2194C11.1423 30.237 11.1423 29.2555 11.1423 28.2731C11.1423 27.5009 11.3587 27.288 12.143 27.288C14.9994 27.288 17.8558 27.288 20.7121 27.288C20.8427 27.288 20.9733 27.288 21.1181 27.288C21.1262 27.1896 21.136 27.1251 21.136 27.0598C21.1369 26.4353 21.136 25.8117 21.136 25.1433Z" fill="white"/>
<path d="M13.2852 19.4197C13.2887 17.4531 14.9155 15.8336 16.8713 15.8506C18.8307 15.8676 20.4207 17.462 20.4306 19.417C20.4404 21.3774 18.8235 22.9968 16.8561 22.9977C14.8904 23.0004 13.2816 21.3881 13.2852 19.4197ZM16.8391 17.292C15.6667 17.2992 14.7107 18.2583 14.7098 19.4269C14.7098 20.6007 15.7042 21.5885 16.8713 21.5742C18.0589 21.559 19.0033 20.5873 18.9899 19.3946C18.9765 18.2172 18.0222 17.2849 16.8391 17.292Z" fill="white"/>
</g>
<defs>
<clipPath id="clip0_1706_1621">
<rect width="30" height="20" fill="white" transform="translate(9 13)"/>
</clipPath>
</defs>
</svg>
