<svg width="48" height="48" viewBox="0 0 48 48" fill="none" xmlns="http://www.w3.org/2000/svg">
<circle cx="24" cy="24" r="24" fill="#269A59"/>
<g clip-path="url(#clip0_1706_1722)">
<path d="M15.2476 30.8995C14.3344 30.8995 13.4585 30.9011 12.5826 30.8995C11.5886 30.898 11.0016 30.322 11.0016 29.3331C11 24.2147 10.9984 19.0979 11.0031 13.981C11.0062 12.2221 12.2223 11.0066 13.9788 11.005C19.5636 11.0004 25.1484 11.0004 30.7317 11.005C32.5053 11.0066 33.7104 12.2019 33.7151 13.9655C33.7229 17.3172 33.7182 20.6705 33.7167 24.0222C33.7167 24.6137 33.3563 24.9739 32.8811 24.8729C32.5456 24.8015 32.3251 24.5469 32.3049 24.1914C32.294 24.0036 32.3018 23.8142 32.3018 23.6248C32.3018 20.4174 32.3018 17.2086 32.3018 14.0012C32.3018 13.017 31.7365 12.4364 30.7643 12.4348C26.0461 12.4317 21.3279 12.4333 16.6097 12.4348C16.5211 12.4348 16.4342 12.4426 16.2913 12.4488C16.8364 13.3834 16.6578 14.3847 16.6594 15.3596C16.6702 22.063 16.6656 28.768 16.6656 35.473C16.6656 35.6049 16.6656 35.7385 16.6656 35.962C16.956 35.7726 17.2123 35.6344 17.4359 35.4528C17.8847 35.088 18.3009 35.0989 18.7591 35.4497C19.1629 35.7602 19.6086 36.0148 20.0264 36.3082C20.177 36.4153 20.2811 36.4169 20.4349 36.3098C20.907 35.9791 21.3993 35.6764 21.873 35.3472C22.2085 35.1128 22.5237 35.1144 22.8576 35.3426C23.3329 35.6686 23.8221 35.9775 24.2942 36.3067C24.4449 36.4107 24.5489 36.42 24.7042 36.3113C25.1764 35.9806 25.6687 35.6779 26.1424 35.3488C26.4778 35.1159 26.7915 35.1128 27.127 35.3426C27.5836 35.6562 28.0588 35.9449 28.5077 36.2725C28.7173 36.4262 28.8649 36.4107 29.059 36.2601C29.2951 36.0769 29.5513 35.9185 29.8076 35.7649C30.1819 35.5429 30.5888 35.6267 30.8047 35.9558C31.019 36.2834 30.9382 36.7041 30.5872 36.9509C30.1337 37.2692 29.6663 37.5688 29.2019 37.8731C28.9192 38.0578 28.6381 38.0392 28.3617 37.8544C27.8725 37.5284 27.3755 37.2133 26.8956 36.8733C26.717 36.7475 26.5943 36.7631 26.4266 36.8795C25.9808 37.19 25.5149 37.4725 25.0739 37.7892C24.6949 38.0594 24.3486 38.05 23.9743 37.7815C23.541 37.4725 23.0828 37.1978 22.6495 36.8888C22.4678 36.7584 22.3389 36.7475 22.1525 36.8811C21.7006 37.2024 21.2269 37.4927 20.7719 37.8094C20.4286 38.0469 20.1025 38.0531 19.7562 37.8156C19.2809 37.4881 18.8026 37.1651 18.3134 36.8624C18.2202 36.805 18.0338 36.8034 17.9422 36.8593C17.4607 37.1558 16.9917 37.4741 16.5258 37.7939C16.2525 37.9817 15.9714 38.0811 15.6561 37.9165C15.3362 37.7504 15.2694 37.4601 15.2694 37.1294C15.2725 35.1532 15.2709 33.1785 15.2694 31.2022C15.2647 31.1106 15.2554 31.0253 15.2476 30.8995ZM15.2647 29.4697C15.2647 29.316 15.2647 29.1949 15.2647 29.0754C15.2647 24.0719 15.2647 19.0699 15.2647 14.0664C15.2647 13.9671 15.2663 13.8662 15.2585 13.7668C15.215 13.1645 14.906 12.7391 14.35 12.528C13.3513 12.1492 12.4179 12.9331 12.4226 13.9686C12.4459 19.0265 12.4335 24.0859 12.4335 29.1437C12.4335 29.2493 12.4475 29.3548 12.4552 29.4697C13.3979 29.4697 14.3034 29.4697 15.2647 29.4697Z" fill="white"/>
<path d="M35.1676 30.1819C35.8292 30.1819 36.4489 30.1866 37.0685 30.1804C37.4195 30.1757 37.741 30.2223 37.9227 30.57C38.0951 30.9007 37.9631 31.1832 37.7736 31.4658C36.4162 33.4933 35.0635 35.5239 33.7124 37.556C33.5198 37.8448 33.293 38.0481 32.9218 37.9907C32.5382 37.9301 32.3224 37.6336 32.3193 37.1601C32.3146 36.1619 32.3177 35.1621 32.3177 34.1639C32.3177 34.0428 32.3177 33.9217 32.3177 33.7479C32.181 33.7479 32.0646 33.7479 31.9465 33.7479C31.3797 33.7479 30.8143 33.7603 30.249 33.7448C29.5967 33.7261 29.2753 33.1393 29.6325 32.6006C31.0271 30.4909 32.4326 28.3889 33.8382 26.2869C34.0556 25.9624 34.3476 25.8615 34.669 25.9655C34.9859 26.068 35.1629 26.3241 35.1645 26.7091C35.1707 27.8486 35.1676 28.9897 35.1676 30.1819ZM33.7527 29.1107C33.7248 29.1061 33.6984 29.0999 33.6704 29.0952C32.9684 30.1493 32.2665 31.2034 31.5614 32.2637C31.6204 32.2917 31.639 32.3072 31.6577 32.3072C32.035 32.3103 32.4109 32.3119 32.7883 32.3134C33.5074 32.315 33.7512 32.5556 33.7527 33.2666C33.7543 33.782 33.7527 34.2974 33.7527 34.8128C33.776 34.8191 33.7993 34.8268 33.8226 34.833C34.5215 33.782 35.2219 32.7326 35.9659 31.6148C35.4704 31.6148 35.0542 31.6164 34.6395 31.6148C34.0012 31.6102 33.7558 31.3649 33.7527 30.7268C33.7496 30.1881 33.7527 29.6494 33.7527 29.1107Z" fill="white"/>
<path d="M25.9101 22.3732C25.9101 21.8935 25.9101 21.4526 25.9101 20.9574C25.7874 20.9574 25.6709 20.9574 25.5545 20.9574C24.7779 20.9574 24.0014 20.9605 23.2249 20.9558C22.2573 20.9496 21.6703 20.3643 21.6625 19.4018C21.6594 19.0137 21.6594 18.6256 21.6625 18.2375C21.6718 17.2796 22.2433 16.7052 23.1938 16.6959C23.3802 16.6944 23.565 16.6959 23.7933 16.6959C23.7933 16.4537 23.7855 16.2457 23.7948 16.0392C23.8135 15.5844 24.1055 15.2739 24.5046 15.2708C24.9037 15.2677 25.2004 15.5782 25.2221 16.0315C25.2314 16.2395 25.2237 16.4475 25.2237 16.6959C25.6663 16.6959 26.0747 16.6944 26.4816 16.6959C27.0206 16.699 27.3482 16.966 27.3498 17.3976C27.3514 17.8323 27.019 18.1086 26.4879 18.1102C25.4784 18.1117 24.4689 18.1102 23.4594 18.1102C23.3507 18.1102 23.242 18.1102 23.113 18.1102C23.113 18.5868 23.113 19.0339 23.113 19.526C23.3196 19.526 23.5153 19.526 23.711 19.526C24.4316 19.526 25.1538 19.5167 25.8744 19.5291C26.7457 19.5431 27.3312 20.1284 27.3529 20.9977C27.3638 21.4293 27.3622 21.8624 27.3545 22.2956C27.3389 23.2037 26.7534 23.7766 25.8402 23.789C25.6539 23.7906 25.4659 23.789 25.2237 23.789C25.2237 24.0188 25.2299 24.2252 25.2221 24.4302C25.2035 24.9037 24.9022 25.2235 24.4937 25.2141C24.0946 25.2048 23.8119 24.8943 23.7933 24.4348C23.7855 24.2361 23.7917 24.0374 23.7917 23.7874C23.3165 23.7874 22.8661 23.7874 22.4157 23.7874C22.0803 23.7874 21.8364 23.6415 21.7153 23.3279C21.5289 22.842 21.8799 22.3794 22.4452 22.3747C23.4656 22.3685 24.486 22.3732 25.5079 22.3732C25.629 22.3732 25.7501 22.3732 25.9101 22.3732Z" fill="white"/>
<path d="M25.9325 27.3519C26.8193 27.3519 27.7076 27.3503 28.5944 27.3519C29.1551 27.3534 29.4921 27.6266 29.4828 28.0675C29.475 28.5007 29.1442 28.7661 28.6068 28.7661C26.7991 28.7677 24.9898 28.7692 23.182 28.7646C22.5701 28.763 22.202 28.2398 22.4567 27.7431C22.6043 27.4559 22.8527 27.3487 23.1696 27.3503C24.0905 27.355 25.0115 27.3519 25.9325 27.3519Z" fill="white"/>
<path d="M25.3826 32.3134C24.6604 32.3134 23.9398 32.3165 23.2176 32.3119C22.7004 32.3088 22.3836 32.0418 22.379 31.6148C22.3743 31.1802 22.7067 30.8992 23.2347 30.8976C24.7117 30.8961 26.1871 30.8945 27.664 30.8992C28.0647 30.9007 28.3474 31.1196 28.4219 31.4674C28.4856 31.7592 28.3427 32.093 28.0601 32.2203C27.9156 32.2855 27.7401 32.3072 27.5786 32.3088C26.8471 32.3181 26.1141 32.3134 25.3826 32.3134Z" fill="white"/>
<path d="M19.5586 28.0566C19.5586 27.6623 19.8506 27.3627 20.2435 27.3565C20.6426 27.3503 20.9719 27.667 20.9719 28.0566C20.9719 28.4447 20.6333 28.7738 20.245 28.7645C19.863 28.7552 19.5586 28.4416 19.5586 28.0566Z" fill="white"/>
<path d="M20.245 32.3088C19.8537 32.3026 19.5586 32.0014 19.5586 31.6086C19.5586 31.2066 19.877 30.8899 20.2746 30.9007C20.6535 30.91 20.9688 31.2314 20.9703 31.6055C20.9719 31.9967 20.6426 32.315 20.245 32.3088Z" fill="white"/>
</g>
<defs>
<clipPath id="clip0_1706_1722">
<rect width="27" height="27" fill="white" transform="translate(11 11)"/>
</clipPath>
</defs>
</svg>
