<svg width="48" height="48" viewBox="0 0 48 48" fill="none" xmlns="http://www.w3.org/2000/svg">
<circle cx="24" cy="24" r="24" fill="#269A59"/>
<g clip-path="url(#clip0_1706_1734)">
<path d="M36.1726 39C36.9342 38.8641 37.5739 38.4679 38.2315 38.0894C38.5408 37.9115 38.9346 37.8492 39.2983 37.8007C39.7351 37.7433 40.0095 37.5338 39.9997 37.1683C39.99 36.8011 39.705 36.5771 39.2658 36.5811C38.4434 36.5884 37.7314 36.9022 37.0714 37.3623C36.46 37.7885 35.7765 37.9034 35.0742 37.7133C34.6943 37.6098 34.3346 37.3939 33.9961 37.1812C32.9682 36.5358 31.8771 36.4032 30.7397 36.7817C30.3338 36.9167 29.9627 37.165 29.5909 37.3874C28.68 37.9349 27.7667 37.9559 26.872 37.3866C26.1965 36.9564 25.5065 36.6094 24.6832 36.5803C23.8105 36.5496 23.0205 36.7752 22.3134 37.2807C21.6769 37.736 20.9747 37.9147 20.2164 37.7222C19.8811 37.6373 19.5531 37.4731 19.2608 37.2847C17.7865 36.3304 16.3203 36.3175 14.8573 37.2888C13.8197 37.9778 12.7968 37.9697 11.7755 37.2669C11.152 36.8383 10.4692 36.5884 9.70525 36.5819C9.2912 36.5787 9.01111 36.8124 9.00137 37.1691C8.99163 37.5249 9.2636 37.7424 9.67278 37.8007C10.047 37.854 10.4505 37.9115 10.7688 38.0934C11.428 38.4687 12.0661 38.8666 12.8285 39.0016C13.1524 39.0016 13.4771 39.0016 13.8011 39.0016C14.5764 38.8795 15.2186 38.4719 15.8835 38.0886C16.6426 37.6511 17.4617 37.6503 18.2225 38.0894C18.8866 38.4727 19.5304 38.8795 20.3057 39.0008C20.6296 39.0008 20.9544 39.0008 21.2783 39.0008C22.0382 38.8658 22.6739 38.4663 23.3299 38.0886C24.0898 37.6503 24.9105 37.6486 25.6713 38.0894C26.3264 38.4695 26.9629 38.865 27.7228 39C28.0468 39 28.3715 39 28.6954 39C29.4708 38.8779 30.1129 38.4703 30.7778 38.087C31.5369 37.6494 32.3561 37.6486 33.1168 38.0886C33.7809 38.4719 34.4247 38.8787 35.2 39C35.524 39 35.8487 39 36.1726 39Z" fill="white"/>
<path d="M16.9008 14.1764C16.3918 14.1764 15.9176 14.1739 15.4435 14.1772C14.5066 14.1837 13.8636 14.8234 13.862 15.7623C13.8588 17.9216 13.858 20.0801 13.8661 22.2393C13.8669 22.4512 13.8052 22.5645 13.6095 22.6486C12.8886 22.9567 12.3 23.4047 12.0191 24.1754C11.7975 24.7844 11.838 25.3772 12.0556 25.9781C12.8927 28.2894 13.7224 30.604 14.5545 32.9169C14.5821 32.9929 14.6073 33.069 14.6455 33.1773C13.8799 33.6391 13.0899 33.6844 12.2789 33.3213C12.0321 33.2105 11.808 33.0471 11.5774 32.9016C11.0075 32.5425 10.3864 32.3549 9.7126 32.3444C9.29531 32.3379 9.01522 32.5676 9.00061 32.9226C8.98599 33.2776 9.25553 33.5502 9.66471 33.5494C10.2744 33.5485 10.7737 33.813 11.26 34.1381C12.1977 34.7649 13.2288 34.9274 14.3061 34.6298C14.7356 34.5109 15.1496 34.2869 15.5279 34.0443C16.5509 33.3876 17.5495 33.3714 18.5635 34.0451C20.037 35.0237 21.5154 35.0253 22.9889 34.0459C24.0281 33.3553 25.0454 33.386 26.0716 34.0839C27.222 34.866 28.4544 34.98 29.7355 34.4454C30.0221 34.3257 30.2818 34.1397 30.5481 33.9755C31.4948 33.3916 32.4414 33.3828 33.3702 33.9974C34.0326 34.4357 34.7292 34.7455 35.5403 34.7641C36.3334 34.7827 37.0674 34.5975 37.7225 34.1486C38.2421 33.7928 38.7844 33.5388 39.4364 33.5421C39.7782 33.5437 40.0177 33.2388 39.999 32.9137C39.9803 32.5886 39.7213 32.3476 39.369 32.3444C38.6066 32.3363 37.9287 32.5854 37.2817 32.9808C36.909 33.2081 36.4966 33.4119 36.0753 33.5089C35.481 33.6464 34.89 33.5405 34.3549 33.1676C34.7901 31.957 35.222 30.7544 35.6539 29.5526C36.0801 28.3679 36.508 27.1831 36.9334 25.9975C37.4262 24.6235 36.9651 23.4249 35.6474 22.7917C35.2423 22.5968 35.1197 22.372 35.1254 21.9296C35.1538 19.9021 35.1384 17.8739 35.1376 15.8464C35.1368 14.7926 34.5173 14.1796 33.4554 14.178C33.0121 14.1772 32.5697 14.178 32.098 14.178C32.098 13.6871 32.0996 13.2261 32.098 12.7643C32.0939 11.789 31.459 11.1534 30.4832 11.1509C29.3182 11.1485 28.1532 11.1501 26.9881 11.1501C26.8793 11.1501 26.7697 11.1501 26.6269 11.1501C26.6269 10.5436 26.6277 9.96211 26.6269 9.37983C26.626 8.4773 26.1479 8.00257 25.2394 8.00177C24.7328 8.00096 24.2262 8.00096 23.7196 8.00177C22.8582 8.00338 22.3735 8.49185 22.3711 9.358C22.3695 9.92329 22.3695 10.4878 22.367 11.0531C22.367 11.0717 22.3573 11.0911 22.3419 11.1501C22.2453 11.1501 22.1381 11.1501 22.0309 11.1501C20.8659 11.1501 19.7009 11.1485 18.5359 11.1501C17.5349 11.1517 16.9032 11.7785 16.8992 12.7716C16.8992 13.2245 16.9008 13.6774 16.9008 14.1764ZM15.0774 21.8867C15.0774 21.7573 15.0774 21.67 15.0774 21.5827C15.0774 19.6862 15.0774 17.7906 15.0774 15.8941C15.0774 15.4525 15.1423 15.3878 15.5872 15.3878C21.5316 15.3878 27.4761 15.3878 33.4213 15.3878C33.8565 15.3878 33.923 15.4566 33.923 15.9022C33.923 17.7881 33.923 19.6741 33.923 21.5608C33.923 21.6571 33.923 21.7533 33.923 21.894C33.7631 21.8172 33.647 21.7638 33.5333 21.7056C30.9459 20.3955 28.3561 19.0902 25.7736 17.7711C24.913 17.3312 24.0793 17.3328 23.2195 17.772C20.628 19.0958 18.0301 20.406 15.4338 21.721C15.329 21.7735 15.2211 21.8196 15.0774 21.8867ZM23.8779 22.5604C23.8779 25.8657 23.8779 29.1184 23.8779 32.3872C23.2292 32.4754 22.6967 32.7989 22.16 33.1264C21.9059 33.2817 21.6226 33.4183 21.3344 33.4855C20.6451 33.6472 19.9875 33.5413 19.3924 33.1345C18.8192 32.7422 18.2136 32.3953 17.5048 32.3735C16.9162 32.3557 16.3252 32.4309 15.6863 32.4673C15.1228 30.8992 14.5318 29.255 13.9343 27.5947C17.2605 25.911 20.5542 24.2426 23.8779 22.5604ZM35.0653 27.598C34.467 29.2607 33.8759 30.9048 33.2776 32.5676C31.8707 32.0936 30.6464 32.4139 29.4627 33.2064C28.6711 33.737 27.7854 33.6884 26.9605 33.2024C26.3776 32.8587 25.8199 32.4737 25.1257 32.3872C25.1257 29.1119 25.1257 25.86 25.1257 22.5628C28.4519 24.2482 31.7464 25.9166 35.0653 27.598ZM13.521 26.4431C13.3976 26.0986 13.2856 25.7969 13.1801 25.4928C12.9414 24.8022 13.163 24.2312 13.8198 23.898C17.163 22.2005 20.5103 20.5095 23.8544 18.8128C24.2952 18.5888 24.7166 18.5944 25.1582 18.8209C26.6066 19.5625 28.0614 20.2911 29.513 21.0263C31.4063 21.9854 33.2995 22.9454 35.192 23.9069C35.7895 24.211 36.0452 24.7561 35.8626 25.3618C35.7554 25.7169 35.6149 26.0622 35.4802 26.4391C35.369 26.3857 35.2796 26.3444 35.192 26.3008C31.9364 24.6526 28.6768 23.0125 25.4294 21.3498C24.7823 21.0182 24.201 21.023 23.558 21.3538C21.2491 22.5442 18.928 23.7088 16.6102 24.8831C15.5929 25.3982 14.574 25.9118 13.521 26.4431ZM30.8818 14.1553C26.6049 14.1553 22.3695 14.1553 18.117 14.1553C18.117 13.7219 18.117 13.3102 18.117 12.8978C18.117 12.4125 18.1697 12.36 18.656 12.36C22.5538 12.36 26.4515 12.36 30.3492 12.36C30.4199 12.36 30.4913 12.3576 30.5619 12.3616C30.7665 12.3745 30.8794 12.4878 30.881 12.6907C30.8851 13.1727 30.8818 13.6556 30.8818 14.1553ZM25.3904 9.22456C25.3904 9.8772 25.3904 10.5048 25.3904 11.1242C24.7783 11.1242 24.188 11.1242 23.6043 11.1242C23.6043 10.4789 23.6043 9.8586 23.6043 9.22456C24.2027 9.22456 24.7856 9.22456 25.3904 9.22456Z" fill="white"/>
</g>
<defs>
<clipPath id="clip0_1706_1734">
<rect width="31" height="31" fill="white" transform="matrix(-1 0 0 1 40 8)"/>
</clipPath>
</defs>
</svg>
