<svg width="48" height="48" viewBox="0 0 48 48" fill="none" xmlns="http://www.w3.org/2000/svg">
<circle cx="24" cy="24" r="24" fill="#F98340"/>
<g clip-path="url(#clip0_1706_1861)">
<path d="M40.001 33.9084C39.813 34.3785 39.6907 34.8968 39.4192 35.3127C38.9418 36.045 38.2048 36.4367 37.3396 36.4729C36.531 36.506 35.7135 36.5121 34.9079 36.4367C33.6517 36.3162 32.6015 35.1831 32.515 33.9114C32.4762 33.3599 32.509 32.8024 32.509 32.2299C26.8221 32.2299 21.1949 32.2299 15.5229 32.2299C15.5229 32.6698 15.5288 33.0978 15.5229 33.5257C15.505 34.7341 14.9888 35.6472 13.9087 36.1926C13.6461 36.3252 13.3418 36.4337 13.0494 36.4458C12.2289 36.4849 11.3994 36.5362 10.5879 36.4578C9.06619 36.3102 8.02488 35.1349 8.01593 33.595C7.99803 30.3434 8.00102 27.0949 8.01892 23.8433C8.02488 22.7404 8.41873 21.7519 9.26013 21.0528C10.1194 20.3356 10.6386 19.4617 10.9847 18.4039C11.5218 16.7706 12.1573 15.1704 12.751 13.5552C13.2493 12.1871 14.228 11.5 15.678 11.5C21.3739 11.5 27.0697 11.5 32.7656 11.5C34.2067 11.5 35.1943 12.1961 35.6956 13.5582C36.4415 15.5863 37.1814 17.6144 37.9393 19.6395C38.0378 19.9047 38.2078 20.1578 38.3958 20.3717C38.8553 20.8871 39.3744 21.3572 39.631 22.0201C39.7772 22.3968 39.8787 22.7916 39.998 23.1773C40.001 26.7543 40.001 30.3314 40.001 33.9084ZM24.0055 30.8316C27.3472 30.8316 30.6889 30.8316 34.0336 30.8316C35.0839 30.8316 36.1371 30.8437 37.1874 30.8226C38.0288 30.8045 38.6226 30.1656 38.6255 29.3158C38.6285 27.4655 38.6315 25.6122 38.6226 23.7619C38.6226 23.4937 38.5688 23.2195 38.5122 22.9543C38.357 22.2492 37.8199 21.8001 37.3784 21.2878C37.2143 21.098 37.0442 21.0257 36.7906 21.0257C28.3885 21.0317 19.9865 21.0317 11.5814 21.0317C11.5188 21.0317 11.4531 21.0196 11.3935 21.0347C11.298 21.0618 11.1906 21.089 11.1219 21.1522C10.8057 21.4415 10.5013 21.7429 10.191 22.0412C9.61519 22.5987 9.37351 23.2888 9.37649 24.0844C9.37948 25.787 9.37649 27.4926 9.37948 29.1953C9.37948 29.361 9.38544 29.5328 9.42423 29.6955C9.60325 30.4368 10.1672 30.8316 11.0414 30.8316C15.3647 30.8316 19.6851 30.8316 24.0055 30.8316ZM11.9663 19.6274C16.5463 19.6274 21.0815 19.6274 25.6107 19.6274C26.0732 17.1111 28.0663 15.6918 30.0833 15.6104C31.1574 15.5682 32.142 15.8726 33.0102 16.5115C34.0605 17.2829 34.6692 18.3376 34.8959 19.6304C35.4211 19.6304 35.9283 19.6304 36.4654 19.6304C36.4325 19.528 36.4116 19.4376 36.3788 19.3532C35.7194 17.5632 35.063 15.7701 34.4006 13.9831C34.1172 13.2177 33.6458 12.8862 32.8372 12.8862C27.0906 12.8862 21.344 12.8862 15.6005 12.8862C14.7949 12.8862 14.3294 13.2147 14.043 13.9892C13.7058 14.8932 13.3746 15.8003 13.0434 16.7043C12.6884 17.6656 12.3333 18.6299 11.9663 19.6274ZM14.1265 32.2118C13.7088 32.2118 13.315 32.2299 12.9211 32.2088C11.7426 32.1455 10.5282 32.4378 9.38544 31.8472C9.38544 32.5071 9.35859 33.1399 9.39141 33.7668C9.4302 34.481 10.0299 35.0746 10.74 35.1017C11.4263 35.1289 12.1125 35.1258 12.7988 35.1017C13.4462 35.0776 14.046 34.5563 14.1146 33.9174C14.1713 33.366 14.1265 32.8085 14.1265 32.2118ZM33.8666 32.2118C33.8666 32.7693 33.8397 33.2725 33.8725 33.7728C33.9233 34.5081 34.52 35.0806 35.254 35.1017C35.9074 35.1228 36.5638 35.1198 37.2202 35.1017C37.9244 35.0806 38.545 34.5442 38.6017 33.8421C38.6554 33.1882 38.6136 32.5282 38.6136 31.8743C38.3272 31.9677 38.0586 32.1093 37.7782 32.1334C37.1486 32.1907 36.5131 32.1967 35.8806 32.2088C35.2182 32.2208 34.5558 32.2118 33.8666 32.2118ZM33.4727 19.6334C33.1684 18.0514 31.7601 16.9514 30.1161 16.9906C28.6421 17.0237 27.2368 18.2201 27.028 19.6334C29.1702 19.6334 31.3095 19.6334 33.4727 19.6334Z" fill="white" stroke="white" stroke-width="0.3"/>
<path d="M14.4728 23.7981C15.2635 23.7981 16.0542 23.7951 16.8449 23.7981C17.4655 23.8011 17.7042 24.0331 17.7072 24.6479C17.7101 25.7418 17.7101 26.8327 17.7072 27.9266C17.7042 28.5022 17.4595 28.7583 16.8926 28.7613C15.2695 28.7674 13.6464 28.7674 12.0232 28.7613C11.4802 28.7583 11.2236 28.4931 11.2177 27.9417C11.2087 26.8267 11.2087 25.7147 11.2177 24.5997C11.2236 24.0512 11.4892 23.8011 12.0382 23.7981C12.8497 23.7951 13.6613 23.7981 14.4728 23.7981ZM12.5931 27.357C13.8552 27.357 15.0845 27.357 16.3197 27.357C16.3197 26.6217 16.3197 25.9136 16.3197 25.2024C15.0666 25.2024 13.8373 25.2024 12.5931 25.2024C12.5931 25.9317 12.5931 26.6308 12.5931 27.357Z" fill="white"/>
<path d="M33.5304 23.7981C34.3331 23.7981 35.1327 23.7951 35.9353 23.7981C36.5231 23.8011 36.7856 24.0482 36.7886 24.6298C36.7976 25.7328 36.7976 26.8357 36.7886 27.9417C36.7827 28.4931 36.5261 28.7583 35.983 28.7613C34.3599 28.7704 32.7368 28.7674 31.1137 28.7613C30.5468 28.7583 30.3021 28.4992 30.2991 27.9266C30.2961 26.8327 30.2961 25.7418 30.2991 24.6479C30.3021 24.0331 30.5408 23.8011 31.1584 23.7981C31.9491 23.7951 32.7398 23.7981 33.5304 23.7981ZM31.6776 27.3631C32.9277 27.3631 34.157 27.3631 35.4012 27.3631C35.4012 26.6308 35.4012 25.9226 35.4012 25.1994C34.151 25.1994 32.9218 25.1994 31.6776 25.1994C31.6776 25.9286 31.6776 26.6368 31.6776 27.3631Z" fill="white"/>
<path d="M23.9931 25.9377C22.9727 25.9377 21.9552 25.9407 20.9348 25.9347C20.7707 25.9347 20.5976 25.9196 20.4425 25.8684C20.1829 25.784 19.992 25.4615 20.0278 25.1933C20.0665 24.8829 20.2306 24.672 20.535 24.5846C20.6036 24.5635 20.6782 24.5575 20.7498 24.5575C22.913 24.5575 25.0761 24.5545 27.2423 24.5575C27.6242 24.5575 27.8599 24.7413 27.9465 25.0577C28.0509 25.4404 27.8361 25.8111 27.4512 25.8955C27.3199 25.9226 27.1826 25.9347 27.0484 25.9347C26.0309 25.9377 25.0135 25.9377 23.9931 25.9377Z" fill="white"/>
<path d="M24.0224 26.6971C25.0846 26.6971 26.1438 26.6911 27.206 26.7001C27.7669 26.7032 28.119 27.1281 27.925 27.5921C27.8475 27.776 27.6326 27.9176 27.4506 28.0321C27.3492 28.0954 27.1881 28.0773 27.0538 28.0773C25.0249 28.0803 22.996 28.0803 20.9671 28.0773C20.3495 28.0773 19.9914 27.8181 20.0213 27.3691C20.0451 27.0256 20.2271 26.673 20.9611 26.6911C21.9845 26.7152 23.0049 26.6971 24.0224 26.6971Z" fill="white"/>
</g>
<defs>
<clipPath id="clip0_1706_1861">
<rect width="32" height="25" fill="white" transform="translate(8 11.5)"/>
</clipPath>
</defs>
</svg>
