<svg width="48" height="48" viewBox="0 0 48 48" fill="none" xmlns="http://www.w3.org/2000/svg">
<circle cx="24" cy="24" r="24" fill="#F98340"/>
<g clip-path="url(#clip0_1706_1728)">
<path d="M32.4236 38.0001C31.1813 38.0001 29.9446 38.0001 28.7023 38.0001C28.2357 37.781 28.0727 37.4045 28.0952 36.8988C28.1233 36.2975 28.1008 35.6963 28.1008 35.0951C28.1008 35.0108 28.1008 34.9209 28.1008 34.8422C25.3463 34.8422 22.6312 34.8422 19.8936 34.8422C19.8936 35.539 19.8711 36.2189 19.8992 36.8988C19.9217 37.4101 19.7643 37.781 19.2921 38.0001C18.0498 38.0001 16.8131 38.0001 15.5708 38.0001C15.1042 37.7978 14.9356 37.4382 14.958 36.9325C14.9861 36.2526 14.9693 35.5671 14.958 34.8815C14.958 34.786 14.8962 34.6455 14.8231 34.6062C13.7888 34.078 13.3222 33.2408 13.3278 32.0888C13.3391 27.0485 13.3335 22.0138 13.3335 16.9734C13.3335 16.8723 13.3335 16.7655 13.3335 16.6307C12.7432 16.8217 12.1923 17.0015 11.6414 17.1813C11.6414 18.0355 11.6414 18.8671 11.6414 19.6931C11.6414 20.2438 11.3042 20.6146 10.8095 20.609C10.3317 20.6034 10 20.2381 10 19.7043C10 18.7322 10 17.7545 10 16.7824C10 16.1643 10.1686 15.9395 10.7589 15.7485C11.6133 15.4731 12.4678 15.1922 13.3391 14.9112C13.3391 14.3943 13.3335 13.8942 13.3391 13.3941C13.3616 11.5679 14.8793 10.017 16.7007 10.0114C21.5575 9.99451 26.4144 10.0001 31.2712 10.0114C32.8508 10.017 34.273 11.197 34.5485 12.7479C34.6609 13.366 34.6216 14.0178 34.6328 14.6528C34.6384 14.8382 34.6834 14.9225 34.8689 14.9787C35.6503 15.2203 36.426 15.49 37.2074 15.726C37.584 15.8384 37.8651 16.0238 38 16.4003C38 17.6028 38 18.8053 38 20.0078C37.9607 20.0752 37.9213 20.1426 37.8763 20.21C37.6908 20.5191 37.3198 20.6764 36.9825 20.5865C36.6115 20.4854 36.3642 20.182 36.3586 19.7886C36.3529 18.9233 36.3586 18.0579 36.3586 17.1757C35.7908 16.9959 35.2343 16.8161 34.6384 16.6194C34.6384 16.7824 34.6384 16.8948 34.6384 17.0128C34.6384 22.0025 34.6384 26.9923 34.6384 31.9821C34.6384 32.1001 34.6384 32.2181 34.6328 32.3361C34.5878 33.3531 34.11 34.0949 33.1994 34.5556C33.0644 34.6231 33.0195 34.7017 33.0251 34.8478C33.0307 35.539 33.0082 36.2301 33.0363 36.9213C33.0588 37.4382 32.8902 37.7922 32.4236 38.0001ZM14.9918 16.3216C14.9861 16.3778 14.9749 16.4115 14.9749 16.4452C14.9749 18.8334 14.9749 21.2159 14.9693 23.604C14.9693 23.7782 15.0592 23.8063 15.1885 23.8512C16.5152 24.2614 17.8418 24.6941 19.1741 25.0931C19.6519 25.2335 20.0341 25.4527 20.2927 25.891C20.422 26.1101 20.5794 26.3124 20.748 26.5034C20.8267 26.5934 20.9617 26.6776 21.0741 26.6776C23.0135 26.6889 24.9528 26.6889 26.8978 26.6776C27.0102 26.6776 27.1508 26.5934 27.2239 26.5034C27.4599 26.2169 27.6511 25.891 27.8984 25.61C28.0502 25.4414 28.2526 25.2785 28.4606 25.2111C29.8715 24.7503 31.2825 24.312 32.7047 23.8793C32.9239 23.8119 33.0026 23.722 33.0026 23.486C32.9914 21.199 32.997 18.912 32.997 16.6251C32.997 16.5295 32.997 16.4284 32.997 16.316C26.9821 16.3216 21.001 16.3216 14.9918 16.3216ZM14.9749 25.5032C14.9749 25.655 14.9749 25.7505 14.9749 25.8516C14.9749 27.9363 14.9749 30.0266 14.9749 32.1113C14.9749 32.8587 15.2953 33.1789 16.0373 33.1789C21.3327 33.1789 26.628 33.1789 31.9233 33.1789C32.6766 33.1789 32.997 32.8587 32.997 32.0945C32.997 30.0098 32.997 27.9195 32.997 25.8348C32.997 25.7392 32.997 25.6381 32.997 25.5145C32.8789 25.5482 32.8002 25.5651 32.7272 25.5875C31.5916 25.9472 30.4505 26.3012 29.3206 26.6664C29.1913 26.7057 29.0677 26.8069 28.9833 26.908C28.7135 27.2508 28.4606 27.6104 28.202 27.9588C28.0221 28.2004 27.786 28.3184 27.4768 28.3184C25.1552 28.3128 22.8279 28.3184 20.5063 28.3184C20.1971 28.3184 19.9611 28.2004 19.7812 27.9532C19.5282 27.6104 19.2865 27.2564 19.0167 26.9249C18.9155 26.8013 18.7637 26.6889 18.6119 26.6383C17.9767 26.4192 17.3303 26.2281 16.6894 26.0258C16.1273 25.8629 15.5708 25.6887 14.9749 25.5032ZM15.0199 14.6471C20.9954 14.6471 26.9878 14.6471 32.9857 14.6471C32.9857 14.1864 33.0082 13.7537 32.9801 13.3154C32.9183 12.377 32.1538 11.6465 31.215 11.6465C26.3975 11.6409 21.58 11.6409 16.7569 11.6465C15.9137 11.6465 15.166 12.2422 15.0367 13.0794C14.958 13.5851 15.0199 14.1077 15.0199 14.6471ZM18.2409 36.3481C18.2409 35.8255 18.2409 35.3367 18.2409 34.8366C17.6956 34.8366 17.1672 34.8366 16.6276 34.8366C16.6276 35.3479 16.6276 35.8424 16.6276 36.3481C17.1729 36.3481 17.6956 36.3481 18.2409 36.3481ZM31.3837 34.8422C30.844 34.8422 30.3044 34.8422 29.7647 34.8422C29.7647 35.3479 29.7647 35.848 29.7647 36.3369C30.3156 36.3369 30.8496 36.3369 31.3837 36.3369C31.3837 35.8312 31.3837 35.3535 31.3837 34.8422Z" fill="white"/>
<path d="M24.0133 29.9478C25.0983 29.9478 26.1776 29.9478 27.2625 29.9478C27.5885 29.9478 27.8415 30.0883 27.9989 30.3749C28.1563 30.6558 28.1394 30.9368 27.9652 31.2009C27.7796 31.4875 27.4986 31.583 27.1669 31.583C25.6267 31.5774 24.092 31.583 22.5518 31.583C21.9784 31.583 21.405 31.583 20.8316 31.583C20.2751 31.583 19.8985 31.2571 19.8985 30.7738C19.8929 30.285 20.2583 29.9534 20.8148 29.9534C21.8828 29.9422 22.9453 29.9478 24.0133 29.9478Z" fill="white"/>
<path d="M17.4213 31.5549C16.9604 31.5493 16.6062 31.1784 16.6174 30.7064C16.6287 30.2513 16.9941 29.8973 17.4494 29.9029C17.8935 29.9085 18.2589 30.2794 18.2589 30.7289C18.2533 31.1953 17.8879 31.5605 17.4213 31.5549Z" fill="white"/>
<path d="M31.3876 30.7401C31.382 31.2009 31.0278 31.5549 30.5725 31.5549C30.1115 31.5549 29.7405 31.184 29.7462 30.7177C29.7518 30.2681 30.1172 29.9029 30.5669 29.9029C31.0278 29.9029 31.3876 30.2738 31.3876 30.7401Z" fill="white"/>
</g>
<defs>
<clipPath id="clip0_1706_1728">
<rect width="28" height="28" fill="white" transform="translate(10 10)"/>
</clipPath>
</defs>
</svg>
