<svg width="48" height="48" viewBox="0 0 48 48" fill="none" xmlns="http://www.w3.org/2000/svg">
<circle cx="24" cy="24" r="24" fill="#269A59"/>
<g clip-path="url(#clip0_1706_1895)">
<path d="M26.7858 9C27.4832 9.05753 28.1846 9.09153 28.878 9.17914C29.9248 9.31382 30.9756 9.44589 32.0092 9.65118C33.8751 10.0238 35.2541 11.6623 35.2594 13.5373C35.2766 19.3561 35.274 25.1762 35.262 30.9949C35.2594 32.5327 34.2232 33.6703 32.6828 33.9135C32.6153 33.9239 32.5491 33.9409 32.43 33.9658C32.5226 34.0652 32.5901 34.1397 32.6589 34.2116C33.8143 35.4041 34.9696 36.5953 36.1249 37.7866C36.2003 37.8637 36.2744 37.9422 36.3446 38.0245C36.4968 38.2037 36.5417 38.4051 36.4478 38.6247C36.3499 38.8536 36.1686 38.9869 35.9211 38.9882C34.5183 38.9948 33.1142 39.0052 31.7114 38.9765C31.5261 38.9725 31.2972 38.7947 31.1715 38.6339C30.6236 37.9304 30.1128 37.1981 29.5728 36.4881C29.5 36.3914 29.3386 36.3077 29.2182 36.3077C25.7588 36.2985 22.2995 36.3011 18.8402 36.2959C18.6589 36.2959 18.557 36.36 18.4564 36.4999C17.9469 37.2086 17.4215 37.9042 16.9147 38.6143C16.7268 38.8758 16.5031 39.0026 16.1709 38.9987C14.8661 38.9869 13.5612 38.9908 12.2564 38.9961C11.948 38.9974 11.682 38.9372 11.547 38.63C11.4107 38.3174 11.5682 38.0899 11.78 37.8755C12.9657 36.6712 14.1475 35.4656 15.3306 34.2587C15.4113 34.1763 15.4894 34.09 15.5503 34.0246C15.1255 33.8769 14.6782 33.7827 14.2904 33.5774C13.2621 33.0335 12.754 32.1417 12.7341 31.0002C12.7129 29.741 12.7288 28.4818 12.7288 27.2212C12.7288 22.7977 12.7672 18.3741 12.7129 13.9518C12.6904 11.7224 14.1925 9.79632 16.568 9.52957C18.029 9.36612 19.49 9.20137 20.951 9.03661C21.0185 9.02877 21.0847 9.01308 21.1521 9C23.03 9 24.9079 9 26.7858 9ZM34.0829 22.306C34.0829 20.5395 34.0829 18.7716 34.0829 17.0051C34.0829 15.9015 34.0908 14.7992 34.0803 13.6956C34.0657 12.1748 33.0666 10.9941 31.5513 10.7561C30.3338 10.5652 29.111 10.3586 27.8829 10.2867C24.4871 10.0866 21.0886 10.0382 17.7087 10.5299C17.047 10.6266 16.3615 10.7129 15.7514 10.9601C14.4982 11.4674 13.9212 12.4782 13.9212 13.8054C13.9185 19.4672 13.9199 25.1304 13.9199 30.7923C13.9199 32.0776 14.6358 32.785 15.9354 32.785C21.311 32.785 26.6879 32.785 32.0634 32.785C33.3683 32.785 34.0829 32.0829 34.0829 30.7988C34.0829 27.9679 34.0829 25.1369 34.0829 22.306ZM19.4887 35.1034C22.5351 35.1034 25.5365 35.1034 28.5684 35.1034C28.309 34.7477 28.0814 34.4182 27.8313 34.1031C27.7704 34.0272 27.6407 33.9632 27.5414 33.9632C25.199 33.9553 22.858 33.9553 20.5156 33.9619C20.423 33.9619 20.2999 34.0129 20.2456 34.0822C19.9902 34.4038 19.7533 34.7399 19.4887 35.1034ZM13.5109 37.8232C14.3526 37.8232 15.14 37.8284 15.9261 37.8153C16.0068 37.814 16.1048 37.7133 16.163 37.6349C17.0192 36.4764 17.8702 35.3139 18.7211 34.1528C18.7581 34.1018 18.7873 34.0455 18.8415 33.9579C18.377 33.9579 17.9535 33.9423 17.5314 33.9671C17.3845 33.9749 17.2071 34.0482 17.1052 34.1502C15.9751 35.2838 14.8581 36.4306 13.7372 37.5734C13.6724 37.6388 13.6115 37.7107 13.5109 37.8232ZM29.1957 33.9579C30.1432 35.2511 31.0497 36.4894 31.9602 37.7251C31.9946 37.7722 32.07 37.8179 32.1256 37.8179C32.8998 37.8245 33.674 37.8219 34.4905 37.8219C34.4362 37.7499 34.4177 37.7186 34.3926 37.6924C33.2267 36.4881 32.0608 35.2825 30.8909 34.0822C30.8353 34.0246 30.7467 33.9645 30.6726 33.9632C30.2014 33.9527 29.7303 33.9579 29.1957 33.9579Z" fill="white"/>
<path d="M23.9986 24.5838C21.3108 24.5838 18.6217 24.5838 15.9339 24.5838C15.2921 24.5838 15.1055 24.3982 15.1055 23.7601C15.1055 20.6742 15.1055 17.5896 15.1055 14.5036C15.1055 13.8708 15.2934 13.6864 15.9405 13.6864C21.3174 13.6864 26.6943 13.6864 32.0699 13.6864C32.7117 13.6864 32.8957 13.8695 32.8957 14.5102C32.8957 17.5961 32.8957 20.6807 32.8957 23.7666C32.8957 24.4021 32.7104 24.5838 32.0633 24.5838C29.3755 24.5838 26.6877 24.5838 23.9986 24.5838ZM16.315 14.8698C16.315 17.7321 16.315 20.5643 16.315 23.3966C18.6852 23.3966 21.0329 23.3966 23.3912 23.3966C23.3912 20.5486 23.3912 17.7151 23.3912 14.8698C21.0263 14.8698 18.6786 14.8698 16.315 14.8698ZM24.6087 23.3913C26.9855 23.3913 29.3398 23.3913 31.6874 23.3913C31.6874 20.5382 31.6874 17.7046 31.6874 14.8737C29.3173 14.8737 26.9696 14.8737 24.6087 14.8737C24.6087 17.7151 24.6087 20.5421 24.6087 23.3913Z" fill="white"/>
<path d="M19.8497 28.6897C19.8458 29.962 18.7805 31.0172 17.4902 31.025C16.1999 31.0342 15.1041 29.9541 15.1094 28.6779C15.1147 27.4083 16.184 26.3504 17.4703 26.3426C18.7672 26.3347 19.8537 27.4083 19.8497 28.6897ZM18.664 28.6701C18.6574 28.0281 18.1108 27.5024 17.4597 27.5142C16.8218 27.5259 16.2965 28.0529 16.2965 28.6832C16.2965 29.3252 16.8377 29.8574 17.4875 29.8534C18.1386 29.8508 18.6706 29.3147 18.664 28.6701Z" fill="white"/>
<path d="M32.8953 28.6883C32.8926 29.9724 31.8008 31.042 30.5092 31.0263C29.2189 31.0106 28.1536 29.9475 28.1563 28.6818C28.1602 27.4016 29.2573 26.3281 30.545 26.3438C31.8379 26.3595 32.8979 27.4173 32.8953 28.6883ZM31.7082 28.6922C31.7122 28.0476 31.1775 27.5154 30.5264 27.5141C29.8767 27.5141 29.3367 28.0489 29.3407 28.6896C29.3447 29.3199 29.8714 29.8442 30.5092 29.8534C31.1617 29.8625 31.7042 29.3356 31.7082 28.6922Z" fill="white"/>
<path d="M24.0011 12.5148C23.2402 12.5148 22.4792 12.5201 21.7183 12.5135C21.2207 12.5083 20.9282 12.1382 21.0857 11.729C21.185 11.4701 21.3941 11.3485 21.6627 11.3472C23.2243 11.3432 24.7859 11.3406 26.3462 11.3485C26.7127 11.3498 26.9629 11.6087 26.9615 11.9316C26.9602 12.2638 26.7008 12.5096 26.3131 12.5135C25.5429 12.5201 24.7727 12.5148 24.0011 12.5148Z" fill="white"/>
<path d="M23.999 28.0987C23.238 28.0987 22.4771 28.1039 21.7162 28.096C21.2212 28.0908 20.9274 27.7182 21.0862 27.3102C21.1868 27.0513 21.3959 26.931 21.6632 26.9297C23.2248 26.9258 24.7864 26.9231 26.3467 26.931C26.7119 26.9336 26.962 27.1925 26.9607 27.5155C26.9594 27.8371 26.708 28.0882 26.3401 28.0934C25.5606 28.1052 24.7798 28.0974 23.999 28.0987Z" fill="white"/>
<path d="M23.9923 30.4418C23.2314 30.4418 22.4704 30.4483 21.7095 30.4392C21.2172 30.434 20.9247 30.0521 21.0888 29.6468C21.192 29.3892 21.4025 29.2728 21.6711 29.2728C23.2221 29.2689 24.7744 29.2663 26.3254 29.2741C26.7092 29.2754 26.9686 29.5343 26.962 29.8665C26.9554 30.1973 26.6947 30.4366 26.3043 30.4392C25.5341 30.447 24.7625 30.4418 23.9923 30.4418Z" fill="white"/>
<path d="M19.8438 11.9526C19.8306 12.2612 19.5421 12.5253 19.2337 12.5109C18.9214 12.4965 18.6528 12.2102 18.6686 11.9068C18.6845 11.5982 18.9743 11.3341 19.2814 11.3485C19.5937 11.3628 19.8584 11.6466 19.8438 11.9526Z" fill="white"/>
<path d="M29.3328 11.9342C29.3288 12.2428 29.0509 12.5135 28.7399 12.5095C28.4289 12.5056 28.1523 12.2284 28.1563 11.9224C28.1603 11.6151 28.4408 11.3432 28.7505 11.3471C29.0655 11.351 29.3367 11.6256 29.3328 11.9342Z" fill="white"/>
</g>
<defs>
<clipPath id="clip0_1706_1895">
<rect width="25" height="30" fill="white" transform="translate(11.5 9)"/>
</clipPath>
</defs>
</svg>
