<svg width="48" height="48" viewBox="0 0 48 48" fill="none" xmlns="http://www.w3.org/2000/svg">
<circle cx="24" cy="24" r="24" fill="#F98340"/>
<g clip-path="url(#clip0_1706_1653)">
<path d="M36.9456 19.7263C36.9456 21.1298 37.034 22.5444 36.9291 23.9424C36.6474 27.6597 35.0625 30.7738 32.3233 33.3178C31.2188 34.3431 29.932 35.0997 28.6122 35.8069C27.4966 36.41 26.3866 37.0186 25.2821 37.6381C24.415 38.1261 23.5756 38.1206 22.7086 37.6327C21.0463 36.6896 19.3233 35.8453 17.7162 34.8255C13.9223 32.4296 11.7298 28.97 11.1223 24.5455C11.0395 23.9424 11.0119 23.3284 11.0064 22.7253C10.9953 20.5103 11.0009 18.3008 11.0064 16.0858C11.0064 14.6712 11.8513 13.7666 13.2596 13.6076C16.5786 13.2293 19.6822 12.1931 22.5429 10.4715C23.189 10.0822 23.8462 9.87938 24.5918 10.0768C24.8182 10.1371 25.0446 10.2358 25.2489 10.3564C27.9936 12.0176 30.9537 13.0758 34.1347 13.5308C34.455 13.5747 34.7753 13.5966 35.0956 13.6569C36.2111 13.8653 36.9898 14.7809 37.0009 15.9048C37.0119 17.1768 37.0009 18.4488 37.0009 19.7208C36.9788 19.7263 36.9622 19.7263 36.9456 19.7263ZM13.0055 19.7592C13.0221 19.7592 13.0387 19.7592 13.0552 19.7592C13.0552 21.1243 12.9503 22.495 13.0718 23.8492C13.4363 27.8735 15.3692 31.0096 18.8042 33.1643C20.4112 34.1731 22.1122 35.0284 23.78 35.9385C23.907 36.0098 24.15 35.9769 24.2935 35.9001C25.8178 35.0777 27.3641 34.2827 28.8441 33.3891C32.7761 31.0206 34.8415 27.5226 34.9796 22.961C35.0514 20.6693 34.9907 18.372 34.9962 16.0803C34.9962 15.7787 34.8913 15.6362 34.5765 15.5868C33.6542 15.4498 32.7209 15.3182 31.8097 15.1208C29.1589 14.5451 26.6738 13.5418 24.3543 12.1382C24.1168 11.9957 23.918 11.9683 23.6695 12.1218C20.5217 14.0243 17.1088 15.1647 13.4529 15.5978C13.0552 15.6472 13 15.7129 13 16.1077C13 17.3194 13.0055 18.5365 13.0055 19.7592Z" fill="white"/>
<path d="M23.2711 24.5729C24.2099 23.5806 25.1211 22.6156 26.0323 21.6562C26.5404 21.1189 27.0429 20.5816 27.551 20.0497C27.9928 19.5892 28.6003 19.5453 29.02 19.9291C29.4508 20.3239 29.4452 20.9379 28.9924 21.4149C27.3798 23.1255 25.7617 24.8416 24.1436 26.5522C23.6521 27.0676 23.1109 27.0895 22.5807 26.6235C21.6364 25.7956 20.6976 24.9622 19.7587 24.1288C19.2672 23.6902 19.201 23.0871 19.5986 22.654C19.9907 22.2264 20.5871 22.2154 21.0731 22.6376C21.7965 23.2681 22.52 23.9095 23.2711 24.5729Z" fill="white"/>
</g>
<defs>
<clipPath id="clip0_1706_1653">
<rect width="26" height="28" fill="white" transform="translate(11 10)"/>
</clipPath>
</defs>
</svg>
