<svg width="48" height="48" viewBox="0 0 48 48" fill="none" xmlns="http://www.w3.org/2000/svg">
<circle cx="24" cy="24" r="24" fill="#F98340"/>
<g clip-path="url(#clip0_1706_1717)">
<path d="M32.5301 11C32.771 11.0745 33.0216 11.1247 33.2479 11.2284C34.3149 11.7142 34.8937 12.5532 34.9939 13.7241C34.9972 13.7598 34.9988 13.7938 34.9988 13.8294C34.9988 20.9394 35.0036 28.0493 34.9956 35.1593C34.9939 36.4161 34.1904 37.4898 33.0119 37.8542C32.7144 37.9466 32.3927 37.9951 32.0823 37.9951C26.6954 38.0032 21.307 38.0032 15.9202 38C14.2533 37.9984 13.0053 36.7513 13.0036 35.0815C12.9988 28.025 12.9988 20.9669 13.0036 13.9104C13.0053 12.4511 13.9494 11.3304 15.3818 11.0437C15.4141 11.0373 15.4416 11.0146 15.4723 11C21.1583 11 26.8442 11 32.5301 11ZM14.3261 24.504C14.3261 25.6118 14.3261 26.718 14.3261 27.8258C14.3261 30.2244 14.3245 32.623 14.3277 35.0216C14.3293 35.9933 14.9615 36.6703 15.8943 36.6719C21.2973 36.6768 26.7019 36.6752 32.1049 36.6736C32.4848 36.6736 32.8308 36.5586 33.1234 36.3092C33.5357 35.9593 33.6779 35.4994 33.6779 34.9714C33.6747 27.9959 33.6763 21.0187 33.6763 14.0432C33.6763 13.9897 33.6779 13.9379 33.6763 13.8845C33.6472 12.9743 33.0038 12.3281 32.0952 12.3264C26.7003 12.3232 21.3054 12.3216 15.9105 12.3345C15.6421 12.3345 15.3478 12.4155 15.1102 12.5418C14.5346 12.8479 14.3245 13.3775 14.3261 14.014C14.3293 17.5107 14.3261 21.0074 14.3261 24.504Z" fill="white"/>
<path d="M24.0162 14.4141C28.1921 14.4254 31.5856 17.8282 31.5775 21.9986C31.571 26.1868 28.1598 29.5814 23.9742 29.5685C19.8031 29.5555 16.4129 26.1431 16.4258 21.9694C16.4404 17.7941 19.8451 14.4044 24.0162 14.4141ZM21.7835 21.3135C23.2838 21.3135 24.7421 21.3135 26.2246 21.3135C26.202 21.0058 26.1874 20.7175 26.1583 20.4308C26.0355 19.2291 25.8156 18.0484 25.2546 16.9649C25.0687 16.6054 24.8149 16.2653 24.5303 15.977C24.194 15.6369 23.8303 15.6498 23.4795 15.9754C23.258 16.181 23.0543 16.424 22.9055 16.6864C22.0956 18.1132 21.887 19.6891 21.7835 21.3135ZM26.2214 22.6756C24.7227 22.6756 23.2644 22.6756 21.7803 22.6756C21.8029 22.9817 21.8159 23.2699 21.8466 23.5566C21.9695 24.7486 22.1813 25.9228 22.7422 26.995C22.946 27.3821 23.2305 27.7432 23.5377 28.0558C23.8174 28.3408 24.1633 28.3295 24.4624 28.0607C24.7065 27.842 24.9361 27.5845 25.0978 27.3011C25.9126 25.8775 26.1195 24.3 26.2214 22.6756ZM26.3798 16.241C27.1704 17.8476 27.4517 19.5579 27.5487 21.3183C28.4443 21.3183 29.3174 21.3183 30.192 21.3183C30.0174 19.0477 28.3279 16.9487 26.3798 16.241ZM21.6316 16.2313C19.4701 17.0556 17.9358 19.2858 17.8226 21.3151C18.6957 21.3151 19.5687 21.3151 20.4579 21.3151C20.5532 19.5562 20.8329 17.8508 21.6316 16.2313ZM26.4768 27.7141C28.5187 26.9286 30.0529 24.7389 30.1855 22.6707C29.3125 22.6707 28.4395 22.6707 27.6004 22.6707C27.4727 23.5469 27.3967 24.415 27.2076 25.2572C27.0184 26.0993 26.7193 26.9156 26.4768 27.7141ZM17.8081 22.6658C18.0474 25.2717 20.0214 27.2039 21.6203 27.727C20.8313 26.1285 20.5549 24.4166 20.4562 22.6658C19.5574 22.6658 18.6924 22.6658 17.8081 22.6658Z" fill="white"/>
<path d="M28.8307 32.325C28.8307 32.7639 28.8307 33.1818 28.8307 33.6158C25.6118 33.6158 22.4043 33.6158 19.1758 33.6158C19.1758 33.1947 19.1758 32.7688 19.1758 32.325C22.3833 32.325 25.5973 32.325 28.8307 32.325Z" fill="white"/>
</g>
<defs>
<clipPath id="clip0_1706_1717">
<rect width="22" height="27" fill="white" transform="translate(13 11)"/>
</clipPath>
</defs>
</svg>
