<svg width="48" height="48" viewBox="0 0 48 48" fill="none" xmlns="http://www.w3.org/2000/svg">
<circle cx="24" cy="24" r="24" fill="#F98340"/>
<g clip-path="url(#clip0_1706_1913)">
<path d="M18.7574 10C18.7764 10.0181 18.7925 10.0416 18.8144 10.0537C19.3855 10.3666 19.4535 10.8956 19.0352 11.3959C18.44 12.1071 17.8345 12.8168 17.3153 13.5862C16.5 14.7939 15.9808 16.152 15.6452 17.5827C15.6342 17.6288 15.6291 17.6757 15.6159 17.7203C15.5377 17.9924 15.3344 18.1352 15.1114 18.0778C14.8818 18.0181 14.7487 17.8027 14.8218 17.523C14.979 16.9244 15.1341 16.3221 15.3403 15.7401C15.9136 14.1205 16.7786 12.6785 17.8908 11.3929C17.9391 11.337 17.9866 11.2803 18.0159 11.2024C16.3369 12.126 14.9147 13.3655 13.7454 14.9171C12.5703 16.477 11.7192 18.2115 11.2811 20.1335C10.0877 25.3703 11.3301 29.939 14.8335 33.8645C14.8598 33.8599 14.8862 33.8554 14.9125 33.8509C14.9176 33.7715 14.9271 33.6929 14.9271 33.6136C14.9278 30.9268 14.9293 28.24 14.9227 25.5524C14.9227 25.4118 14.873 25.2599 14.8101 25.1322C14.5849 24.6787 14.533 24.2291 14.7297 23.7454C14.7831 23.6138 14.7684 23.4355 14.7399 23.2881C14.5235 22.1537 14.4467 21.0102 14.5015 19.8569C14.5235 19.4049 14.6748 19.2009 14.9564 19.2235C15.2335 19.2454 15.341 19.448 15.3205 19.8916C15.2752 20.8734 15.3264 21.8491 15.496 22.818C15.9647 22.7311 16.2572 22.385 16.2587 21.9262C16.2594 21.7471 16.2499 21.5664 16.2719 21.3896C16.3011 21.1523 16.4444 21.017 16.6821 21.0238C16.919 21.0306 17.0521 21.1712 17.0711 21.4115C17.0843 21.58 17.0974 21.7539 17.074 21.9194C17.0258 22.264 17.2027 22.4704 17.4499 22.6396C17.632 22.7644 17.8272 22.8702 18.0049 23.0009C18.7544 23.5549 18.9131 24.347 18.508 25.1904C18.3917 25.4323 18.4232 25.7489 18.3808 26.0784C18.7266 26.0784 19.014 26.0784 19.3021 26.0784C19.5837 26.0784 19.8652 26.0784 20.1847 26.0784C20.1847 25.6386 20.1847 25.2176 20.1847 24.7974C20.1847 24.684 20.1774 24.5707 20.1862 24.4581C20.2118 24.121 20.1328 23.8421 19.9332 23.5496C19.2305 22.5165 19.4038 21.2059 20.3332 20.1713C20.7866 19.6664 21.3218 19.2719 21.9353 19.0142C22.6337 18.7202 23.2114 18.2607 23.7459 17.7294C23.7854 17.6901 23.8073 17.6167 23.8117 17.557C23.8212 17.4255 23.8029 17.2918 23.8183 17.1618C23.8461 16.9131 23.7671 16.7635 23.5507 16.6138C22.9057 16.1687 22.7499 15.2451 23.1704 14.5838C23.3357 14.3238 23.5587 14.2467 23.7708 14.376C23.9828 14.5052 24.0223 14.7387 23.8775 15.0176C23.6881 15.3827 23.7496 15.7349 24.0391 15.9442C24.336 16.1588 24.679 16.0886 24.9517 15.756C25.1389 15.5278 25.3539 15.4824 25.5477 15.6298C25.7466 15.781 25.7941 16.0583 25.5908 16.2722C25.3802 16.4937 25.1221 16.6826 24.8559 16.8277C24.7075 16.9086 24.6373 16.9585 24.63 17.1414C24.6161 17.4641 24.6768 17.6991 24.9342 17.941C25.3451 18.3264 25.7736 18.662 26.2796 18.891C27.163 19.2908 27.9461 19.8198 28.4982 20.664C29.1264 21.6239 29.0935 22.8006 28.4222 23.7257C28.3381 23.8421 28.2825 24.0091 28.2789 24.1542C28.2635 24.7838 28.2723 25.4134 28.2723 26.0611C28.8661 26.0611 29.435 26.0611 30.0309 26.0611C30.02 25.7164 30.0865 25.3907 29.8964 25.0544C29.5549 24.449 29.6967 23.7257 30.2306 23.205C30.4265 23.0138 30.6671 22.8679 30.8974 22.719C31.209 22.5172 31.4444 22.2852 31.3771 21.8574C31.3559 21.7199 31.3676 21.5748 31.3793 21.4342C31.4013 21.1734 31.5512 21.0253 31.7801 21.0238C32.0104 21.0215 32.164 21.1674 32.1866 21.4266C32.1998 21.5763 32.2115 21.7312 32.1903 21.8786C32.1311 22.2814 32.3453 22.5089 32.6415 22.6994C32.8499 22.8331 33.0692 22.9571 33.2535 23.1218C33.8948 23.6955 34.0081 24.4331 33.606 25.2033C33.5533 25.3038 33.5343 25.4345 33.5336 25.5509C33.5285 26.5878 33.5394 27.6255 33.5211 28.6617C33.5182 28.8257 33.4305 29.0411 33.3105 29.1393C33.0685 29.3374 32.7351 29.1257 32.7131 28.7887C32.7043 28.6481 32.7102 28.506 32.7102 28.3647C32.7102 28.2339 32.7102 28.1039 32.7102 27.955C32.0916 27.955 31.4949 27.955 30.8792 27.955C30.8792 30.8338 30.8792 33.7111 30.8792 36.6601C31.3888 36.3495 31.8568 36.0457 32.3416 35.7758C32.6356 35.6118 32.7241 35.3995 32.7182 35.0563C32.697 33.7088 32.7095 32.3605 32.7095 31.0122C32.7095 30.9366 32.7073 30.861 32.7109 30.7862C32.7248 30.5156 32.8791 30.3509 33.1153 30.3509C33.3471 30.3509 33.516 30.5171 33.5263 30.7847C33.538 31.0953 33.5299 31.4067 33.5299 31.7181C33.5299 31.8095 33.5299 31.9002 33.5299 32.0763C34.0147 31.7664 34.4696 31.5261 34.8674 31.2087C35.5087 30.6978 36.1178 30.143 36.7306 29.5951C37.1905 29.1839 37.8618 29.3419 37.9861 29.9306C38.0278 30.1294 37.9737 30.3864 37.8808 30.5738C36.1602 34.0496 33.557 36.5626 30.0185 37.9268C25.3649 39.721 20.8589 39.2857 16.6828 36.4757C13.0939 34.061 10.9864 30.5663 10.2157 26.2152C10.1207 25.6794 10.0709 25.136 10 24.5956C10 23.9925 10 23.3886 10 22.7855C10.0775 22.1892 10.1199 21.5861 10.2391 20.9989C11.2541 15.9722 13.9772 12.2968 18.4283 10C18.538 10 18.6477 10 18.7574 10ZM27.4314 37.8414C27.4314 34.6112 27.4314 31.421 27.4314 28.2301C25.283 28.2301 23.1543 28.2301 21.0184 28.2301C21.0184 31.3583 21.0184 34.4661 21.0184 37.595C21.3577 37.6759 21.6896 37.7552 22.0509 37.8421C22.0509 37.7031 22.0509 37.6011 22.0509 37.499C22.0509 36.0661 22.0384 34.6331 22.0545 33.2009C22.0699 31.9085 22.6249 30.929 23.721 30.2874C24.0603 30.0886 24.3938 30.0879 24.7331 30.2866C25.8504 30.9404 26.3952 31.9418 26.4032 33.2561C26.412 34.7268 26.4054 36.1968 26.4054 37.6676C26.4054 37.7756 26.4054 37.8837 26.4054 38.0137C26.7747 37.951 27.0972 37.8973 27.4314 37.8414ZM24.2263 23.3017C25.3115 23.3017 26.3966 23.2979 27.4818 23.3055C27.6478 23.307 27.7487 23.2481 27.8394 23.109C28.2167 22.5285 28.2255 21.7856 27.8504 21.1916C27.4548 20.5643 26.9041 20.1252 26.2526 19.8191C25.5769 19.5017 24.9283 19.1502 24.4018 18.5894C24.3433 18.5267 24.1152 18.5252 24.0574 18.5872C23.5192 19.1638 22.8472 19.513 22.1576 19.8425C21.5163 20.1486 20.9716 20.5854 20.595 21.2127C20.2228 21.831 20.2425 22.4575 20.6016 23.081C20.6952 23.2435 20.8092 23.307 20.9986 23.3055C22.0743 23.2964 23.1499 23.3017 24.2263 23.3017ZM28.2847 26.9431C28.2847 30.5118 28.2847 34.0542 28.2847 37.66C28.8105 37.4733 29.3041 37.2882 29.805 37.1257C29.9995 37.0629 30.0426 36.9556 30.0419 36.7591C30.036 33.5818 30.0382 30.4038 30.0375 27.2265C30.0375 27.1358 30.028 27.0451 30.0229 26.9423C29.4393 26.9431 28.877 26.9431 28.2847 26.9431ZM25.5572 38.1082C25.5711 38.0077 25.5828 37.9623 25.5828 37.9177C25.5835 36.3162 25.5967 34.714 25.5762 33.1125C25.5652 32.2532 25.1784 31.585 24.4793 31.1089C24.306 30.991 24.1649 30.9797 23.9843 31.1021C23.294 31.5699 22.8955 32.2252 22.8808 33.0724C22.8545 34.6452 22.8728 36.2195 22.8691 37.793C22.8691 37.9313 22.9057 37.9971 23.0505 38.0061C23.487 38.0334 23.9221 38.0855 24.3587 38.1044C24.7572 38.1218 25.1557 38.1082 25.5572 38.1082ZM18.448 26.9423C18.4341 26.9899 18.4239 27.0073 18.4239 27.0254C18.4217 30.146 18.4203 33.2667 18.4239 36.3873C18.4239 36.4568 18.47 36.5634 18.5226 36.5891C19.0579 36.8445 19.5983 37.0864 20.1657 37.3448C20.1657 33.8411 20.1657 30.3985 20.1657 26.9431C19.5844 26.9423 19.0228 26.9423 18.448 26.9423ZM27.4365 24.1724C25.2874 24.1724 23.1529 24.1724 21.0308 24.1724C21.0308 25.2471 21.0308 26.2969 21.0308 27.3345C23.1828 27.3345 25.3108 27.3345 27.4365 27.3345C27.4365 26.2659 27.4365 25.2229 27.4365 24.1724ZM15.7732 27.9482C15.7629 27.9959 15.752 28.0223 15.752 28.0488C15.7505 30.2163 15.7483 32.3847 15.7563 34.5522C15.7563 34.6444 15.8265 34.7654 15.8997 34.8251C16.2726 35.1274 16.6543 35.4168 17.0389 35.7033C17.2035 35.8257 17.3819 35.9293 17.5815 36.06C17.5815 33.3211 17.5815 30.6411 17.5815 27.949C16.9724 27.9482 16.3823 27.9482 15.7732 27.9482ZM36.9214 30.6524C36.8732 30.6622 36.8519 30.6592 36.8417 30.669C35.8852 31.582 34.8249 32.3386 33.6564 32.9349C33.6023 32.9628 33.5358 33.0384 33.535 33.0936C33.5263 33.6634 33.5299 34.2325 33.5299 34.8674C34.9434 33.6544 36.0534 32.2743 36.9214 30.6524ZM31.7822 23.1233C31.5453 23.279 31.2974 23.4068 31.0927 23.5874C30.8916 23.7642 30.692 23.9713 30.5698 24.2086C30.4397 24.4618 30.6071 24.7475 30.8316 24.749C31.4678 24.7536 32.1047 24.7573 32.7402 24.7415C32.825 24.7392 32.9493 24.6379 32.9829 24.5525C33.108 24.2366 32.9369 23.8927 32.5435 23.6229C32.2941 23.4536 32.0396 23.2926 31.7822 23.1233ZM16.6733 23.1233C16.4137 23.2942 16.1395 23.4446 15.9004 23.6418C15.7286 23.7831 15.5648 23.9668 15.4697 24.1678C15.3139 24.4966 15.496 24.7513 15.8441 24.7513C16.4262 24.7513 17.0082 24.7445 17.5896 24.7551C17.7702 24.7581 17.8513 24.6878 17.8916 24.514C17.9625 24.2071 17.8206 23.895 17.4653 23.6463C17.21 23.4687 16.9461 23.3032 16.6733 23.1233ZM15.7644 25.6174C15.7644 26.1064 15.7644 26.5818 15.7644 27.0625C16.3794 27.0625 16.9819 27.0625 17.5837 27.0625C17.5837 26.5697 17.5837 26.1019 17.5837 25.6174C16.9717 25.6174 16.3757 25.6174 15.7644 25.6174ZM32.6897 27.0768C32.6897 26.5742 32.6897 26.0989 32.6897 25.6204C32.074 25.6204 31.4781 25.6204 30.877 25.6204C30.877 26.1162 30.877 26.5916 30.877 27.0768C31.4861 27.0768 32.0769 27.0768 32.6897 27.0768Z" fill="white" stroke="white" stroke-width="0.3"/>
<path d="M22.8141 25.7694C22.8141 25.91 22.8244 26.0513 22.8119 26.1911C22.7915 26.4201 22.6503 26.5509 22.4383 26.566C22.2233 26.5818 22.047 26.4639 22.0266 26.2425C21.9966 25.919 21.9959 25.588 22.0273 25.2645C22.0485 25.0438 22.2247 24.9267 22.4412 24.9441C22.654 24.9607 22.7929 25.0922 22.8127 25.3205C22.8244 25.4686 22.8141 25.619 22.8141 25.7694Z" fill="white"/>
<path d="M24.6254 25.761C24.6254 25.9114 24.64 26.0641 24.6217 26.2122C24.5932 26.4412 24.4433 26.5644 24.2283 26.5659C24.0258 26.5674 23.8591 26.4526 23.843 26.2394C23.8181 25.9129 23.8166 25.5804 23.8466 25.2546C23.8656 25.0438 24.0375 24.9349 24.2422 24.9425C24.4462 24.9501 24.591 25.068 24.6195 25.2819C24.6407 25.4391 24.6239 25.6015 24.6239 25.761C24.6239 25.761 24.6247 25.761 24.6254 25.761Z" fill="white"/>
<path d="M25.6446 25.7406C25.6446 25.6 25.6344 25.4587 25.6468 25.3196C25.6665 25.0914 25.804 24.9591 26.0175 24.9432C26.2332 24.9266 26.4087 25.0415 26.4292 25.2637C26.4592 25.5872 26.4585 25.9182 26.4299 26.2417C26.4102 26.4646 26.2332 26.581 26.0197 26.5651C25.8084 26.55 25.6665 26.4193 25.6475 26.1895C25.6351 26.0414 25.6453 25.8902 25.6446 25.7406Z" fill="white"/>
</g>
<defs>
<clipPath id="clip0_1706_1913">
<rect width="28" height="29" fill="white" transform="translate(10 10)"/>
</clipPath>
</defs>
</svg>
