<svg width="48" height="48" viewBox="0 0 48 48" fill="none" xmlns="http://www.w3.org/2000/svg">
<circle cx="24" cy="24" r="24" fill="#F98340"/>
<g clip-path="url(#clip0_1706_1620)">
<path d="M8 23.7177C8.48047 22.8553 8.96306 21.993 9.44353 21.1307C9.70063 20.6699 9.87343 20.5938 10.3855 20.7249C12.2105 21.1898 14.0333 21.6591 15.8583 22.1156C15.9974 22.1494 16.1765 22.1473 16.3029 22.0902C17.3608 21.602 18.4124 21.0968 19.4639 20.5959C19.5187 20.5706 19.5672 20.5346 19.6389 20.4902C18.857 19.9513 18.0963 19.4229 17.3334 18.8966C16.1322 18.0681 14.9311 17.2396 13.7299 16.4131C13.2199 16.0623 13.1356 15.8213 13.3021 15.2147C13.6561 13.9233 14.6634 13.3337 16.0374 13.7331C17.1122 14.0459 18.1532 14.4834 19.1984 14.8893C21.3606 15.7283 23.5185 16.5801 25.6743 17.4361C25.8829 17.5185 26.0557 17.5185 26.2622 17.4192C28.947 16.1489 31.6339 14.8956 34.3123 13.6232C35.4165 13.099 36.5587 12.8518 37.7662 13.0885C39.7429 13.4753 40.5879 15.4409 39.5596 17.2248C39.0538 18.1019 38.3247 18.7529 37.4227 19.1819C35.0077 20.3317 32.5843 21.4625 30.1587 22.5869C29.8974 22.7074 29.7667 22.8701 29.6782 23.1386C28.5023 26.6619 27.3243 30.181 26.1189 33.6917C25.9356 34.2264 25.6785 34.7611 25.3434 35.2113C24.5511 36.2766 23.293 36.1646 22.4227 35.4523C22.2772 35.3339 22.193 35.0444 22.2077 34.8436C22.2962 33.6663 22.4227 32.4933 22.5343 31.3202C22.7008 29.5744 22.8652 27.8286 23.0296 26.0807C23.0317 26.0532 23.019 26.0215 23.0064 25.9602C22.8757 26.0194 22.7535 26.0722 22.6355 26.1272C19.6852 27.5073 16.737 28.8896 13.7868 30.2719C13.1841 30.5551 12.967 30.4748 12.6867 29.8703C12.3264 29.0946 11.9639 28.3211 11.6078 27.5433C11.397 27.0825 11.4919 26.8268 11.9471 26.6069C12.1725 26.4992 12.4001 26.3956 12.6256 26.2878C12.6446 26.2793 12.6593 26.2624 12.7141 26.2223C12.6045 26.1737 12.516 26.1314 12.4254 26.0933C11.1378 25.5586 9.84603 25.0344 8.56688 24.4828C8.35193 24.3919 8.18755 24.1848 8 24.0305C8 23.9269 8 23.8234 8 23.7177ZM30.3147 21.2807C30.4011 21.249 30.439 21.2406 30.4748 21.2237C32.5653 20.2408 34.6579 19.2623 36.7463 18.271C37.585 17.8715 38.2741 17.3008 38.6871 16.4406C39.1634 15.4451 38.6998 14.4708 37.6229 14.2277C36.6346 14.0037 35.7094 14.2235 34.8075 14.6462C28.7594 17.4868 22.7071 20.3169 16.6612 23.1576C16.3704 23.2929 16.1027 23.3246 15.7908 23.2464C14.046 22.8025 12.299 22.3734 10.552 21.9444C10.4656 21.9233 10.3096 21.9254 10.2801 21.9719C9.96194 22.5045 9.66059 23.0498 9.3487 23.6035C9.50043 23.6712 9.61422 23.724 9.72802 23.7726C11.1694 24.3729 12.6088 24.9732 14.0523 25.5692C14.3579 25.696 14.6803 25.8059 14.6803 26.2096C14.6803 26.5964 14.3684 26.7169 14.0818 26.85C13.6519 27.0487 13.2241 27.2516 12.7752 27.4629C13.0492 28.0442 13.3021 28.5874 13.5507 29.1137C13.6055 29.1094 13.6182 29.1115 13.6266 29.1073C16.7455 27.6489 19.8664 26.1948 22.9832 24.728C23.078 24.6836 23.1644 24.5335 23.1792 24.4236C23.2424 23.9481 23.274 23.4683 23.3204 22.9906C23.3583 22.5827 23.5838 22.3375 23.9083 22.3502C24.2518 22.3629 24.4689 22.6355 24.4394 23.054C24.4057 23.5634 24.3509 24.0728 24.3024 24.5821C23.9926 27.8561 23.6807 31.1321 23.371 34.4061C23.3351 34.7865 23.4173 34.8943 23.8051 34.8711C23.9863 34.8605 24.2139 34.7907 24.3298 34.666C24.5447 34.4335 24.7513 34.1609 24.8587 33.8671C25.3245 32.5842 25.7565 31.2885 26.1927 29.995C27.318 26.645 28.4391 23.2929 29.5644 19.9407C29.712 19.5032 29.9859 19.3214 30.3168 19.4292C30.675 19.5455 30.7867 19.8477 30.6371 20.3064C30.5401 20.6128 30.4369 20.9172 30.3147 21.2807ZM24.5679 18.2097C24.4036 18.1399 24.3193 18.104 24.235 18.0702C22.6271 17.4403 21.0213 16.8105 19.4134 16.1849C18.2986 15.7516 17.1901 15.3035 16.0627 14.9083C15.7234 14.7899 15.3293 14.792 14.9627 14.811C14.6508 14.828 14.4611 15.0964 14.4295 15.3838C14.4169 15.498 14.6149 15.667 14.7519 15.76C16.4294 16.9225 18.1131 18.0765 19.7969 19.2305C20.1404 19.4652 20.4755 19.8562 20.8358 19.8836C21.2088 19.9111 21.6092 19.5877 21.9949 19.4102C22.8294 19.0255 23.6639 18.6324 24.5679 18.2097Z" fill="white" stroke="white" stroke-width="0.2"/>
</g>
<defs>
<clipPath id="clip0_1706_1620">
<rect width="32" height="23" fill="white" transform="translate(8 13)"/>
</clipPath>
</defs>
</svg>
