<svg width="48" height="48" viewBox="0 0 48 48" fill="none" xmlns="http://www.w3.org/2000/svg">
<circle cx="24" cy="24" r="24" fill="#269A59"/>
<g clip-path="url(#clip0_1706_1882)">
<path d="M15.2765 38.0003C14.8668 37.8311 14.4144 37.7234 14.0538 37.478C13.326 36.9822 13.0031 36.2278 13.0031 35.3473C12.9998 28.0715 12.9982 20.7924 13.0031 13.515C13.0047 12.1321 13.8882 11.1721 15.2274 10.8902C16.3567 10.6531 17.4631 10.2999 18.5761 9.98984C22.0035 9.03312 25.4292 8.0681 28.8566 7.11137C30.6137 6.62057 32.1561 7.81275 32.1659 9.6632C32.1676 10.0462 32.1659 10.4292 32.1659 10.8587C32.5724 10.8587 32.9658 10.8537 33.3609 10.8604C34.2296 10.872 34.9508 11.1969 35.4851 11.905C35.8638 12.4074 35.9998 12.986 35.9998 13.6078C35.9998 17.201 35.9998 20.7941 35.9998 24.3889C35.9998 28.0118 35.9998 31.6364 35.9998 35.2594C35.9998 36.377 35.5425 37.2276 34.5427 37.7366C34.2902 37.866 33.9985 37.9157 33.7247 38.0036C27.5748 38.0003 21.4265 38.0003 15.2765 38.0003ZM34.7262 24.4602C34.7262 20.8554 34.7262 17.2507 34.7279 13.646C34.7279 13.2066 34.6426 12.807 34.305 12.4936C33.9952 12.2067 33.6215 12.1437 33.2232 12.1437C29.5909 12.1454 25.957 12.1454 22.3247 12.1454C20.1283 12.1454 17.9335 12.147 15.7371 12.1437C15.2274 12.1437 14.7586 12.2697 14.5094 12.7406C14.3619 13.0192 14.2865 13.3707 14.2865 13.6907C14.2734 19.0829 14.2767 24.4734 14.2767 29.8656C14.2767 31.653 14.2783 33.4405 14.2751 35.2263C14.2751 35.7038 14.3898 36.1233 14.7783 36.4317C15.0799 36.6721 15.429 36.7119 15.7961 36.7119C20.3676 36.7103 24.9391 36.7119 29.5106 36.7103C30.7678 36.7103 32.025 36.7086 33.2838 36.7103C33.7215 36.7103 34.1099 36.6025 34.4099 36.2543C34.6787 35.9426 34.7295 35.5728 34.7295 35.1798C34.7262 31.6083 34.7262 28.035 34.7262 24.4602ZM30.8924 10.8471C30.8924 10.4309 30.8973 10.0495 30.8907 9.66651C30.8776 8.65009 30.1531 8.09628 29.186 8.3649C27.0355 8.96347 24.8883 9.56537 22.7394 10.1656C21.9772 10.3795 21.2134 10.5917 20.4512 10.8056C20.4545 10.8189 20.4561 10.8322 20.4594 10.8454C23.9245 10.8471 27.3879 10.8471 30.8924 10.8471Z" fill="white"/>
<path d="M24.5008 28.955C20.6341 28.955 17.469 25.7466 17.4805 21.8368C17.4903 17.912 20.6522 14.7218 24.5156 14.7367C28.3806 14.7517 31.5113 17.9253 31.5211 21.8368C31.5326 25.7466 28.3675 28.955 24.5008 28.955ZM26.3415 21.1835C26.3579 21.1453 26.3727 21.1271 26.371 21.1089C26.3235 19.8321 26.1317 18.5819 25.6465 17.3964C25.5072 17.0564 25.3154 16.7298 25.1024 16.4297C24.7352 15.909 24.2894 15.909 23.9075 16.4098C23.7616 16.5988 23.637 16.8094 23.5272 17.0216C23.1043 17.844 22.8928 18.7344 22.7666 19.6447C22.6961 20.1488 22.6568 20.6579 22.6027 21.1835C23.8894 21.1835 25.1204 21.1835 26.3415 21.1835ZM22.5863 22.4901C22.6716 23.1898 22.7191 23.8447 22.8388 24.4881C23.0223 25.4713 23.2764 26.438 23.8911 27.2571C24.2844 27.7811 24.7319 27.791 25.104 27.2538C25.3368 26.9189 25.5449 26.5541 25.6941 26.1744C26.1547 25.0021 26.3333 23.7718 26.3776 22.4901C26.2547 22.4901 26.158 22.4901 26.0596 22.4901C24.9237 22.4901 23.7878 22.4901 22.5863 22.4901ZM30.1672 21.1868C29.9345 18.8406 28.2036 17.0166 26.7497 16.5441C26.9562 17.2687 27.2135 18.0181 27.3742 18.7892C27.5397 19.5718 27.6102 20.376 27.7249 21.1868C28.5248 21.1868 29.3378 21.1868 30.1672 21.1868ZM22.2667 16.4943C20.3047 17.4196 19.1524 18.9699 18.8197 21.1785C19.6704 21.1785 20.4883 21.1785 21.2783 21.1785C21.3931 20.3644 21.4635 19.5701 21.6258 18.7941C21.7897 18.0231 22.0471 17.272 22.2667 16.4943ZM30.1852 22.5116C29.3345 22.5116 28.5117 22.5116 27.6807 22.5116C27.5774 24.1316 27.3463 25.7035 26.6349 27.2389C28.6986 26.2772 29.8443 24.7186 30.1852 22.5116ZM21.3193 22.5083C20.4784 22.5083 19.6572 22.5083 18.818 22.5083C19.1573 24.7169 20.303 26.2772 22.3716 27.2389C21.6471 25.6985 21.4291 24.1216 21.3193 22.5083Z" fill="white"/>
<path d="M24.354 30.2849C26.3997 30.2849 28.4453 30.2849 30.4909 30.2849C31.0662 30.2849 31.3645 30.5004 31.376 30.915C31.3858 31.3411 31.0711 31.5749 30.486 31.5749C26.3947 31.5749 22.3019 31.5749 18.2107 31.5716C18.0533 31.5716 17.8894 31.56 17.7386 31.5135C17.478 31.434 17.3059 31.1438 17.3305 30.8785C17.3583 30.5916 17.5534 30.3578 17.8271 30.3081C17.9632 30.2832 18.1058 30.2816 18.2451 30.2816C20.2809 30.2799 22.3166 30.2799 24.3524 30.2799C24.354 30.2832 24.354 30.2849 24.354 30.2849Z" fill="white"/>
<path d="M24.3819 32.8615C25.5686 32.8615 26.7553 32.8599 27.942 32.8632C28.0797 32.8632 28.2223 32.8748 28.3551 32.908C28.6435 32.9793 28.8238 33.2379 28.8156 33.5347C28.8075 33.8183 28.6206 34.0604 28.3452 34.1217C28.2108 34.1515 28.0682 34.1615 27.9305 34.1615C25.5473 34.1632 23.164 34.1632 20.7807 34.1632C20.7201 34.1632 20.6611 34.1648 20.6021 34.1615C20.1611 34.1333 19.8858 33.8796 19.8907 33.5065C19.8956 33.1335 20.1759 32.8715 20.6135 32.8649C21.2921 32.8549 21.9691 32.8615 22.6477 32.8615C23.2246 32.8615 23.8032 32.8615 24.3819 32.8615Z" fill="white"/>
</g>
<defs>
<clipPath id="clip0_1706_1882">
<rect width="23" height="31" fill="white" transform="translate(13 7)"/>
</clipPath>
</defs>
</svg>
