<svg width="18" height="18" viewBox="0 0 18 18" fill="none" xmlns="http://www.w3.org/2000/svg">
<g clip-path="url(#clip0_2875_8017)">
<path d="M8.51484 11.5502C9.92317 11.5502 11.0648 10.4085 11.0648 9.0002C11.0648 7.59187 9.92317 6.4502 8.51484 6.4502C7.10652 6.4502 5.96484 7.59187 5.96484 9.0002C5.96484 10.4085 7.10652 11.5502 8.51484 11.5502Z" stroke="white" stroke-width="1.2"/>
<path d="M10.5912 0.6292C10.2604 0.5 9.84025 0.5 9 0.5C8.15975 0.5 7.73963 0.5 7.40876 0.6292C7.18985 0.714636 6.99094 0.839911 6.8234 0.997865C6.65587 1.15582 6.523 1.34335 6.43238 1.54975C6.34944 1.7393 6.31608 1.96115 6.30346 2.2833C6.29759 2.51614 6.22917 2.74377 6.10461 2.9449C5.98005 3.14603 5.80342 3.31409 5.59123 3.43335C5.37559 3.54706 5.13287 3.60732 4.8858 3.60851C4.63872 3.6097 4.39536 3.55177 4.1785 3.44015C3.87558 3.28885 3.6565 3.20555 3.43923 3.17835C2.9653 3.11959 2.48602 3.24066 2.10673 3.51495C1.82365 3.7215 1.61268 4.06405 1.19256 4.75C0.772435 5.43595 0.561472 5.7785 0.515493 6.11425C0.484511 6.33563 0.500094 6.56061 0.561352 6.77631C0.62261 6.99202 0.728341 7.19423 0.872508 7.3714C1.00594 7.5346 1.19256 7.67145 1.48196 7.84315C1.90839 8.0956 2.18246 8.5257 2.18246 9C2.18246 9.4743 1.90839 9.9044 1.48196 10.156C1.19256 10.3285 1.00504 10.4654 0.872508 10.6286C0.728341 10.8058 0.62261 11.008 0.561352 11.2237C0.500094 11.4394 0.484511 11.6644 0.515493 11.8858C0.562374 12.2207 0.772436 12.5641 1.19166 13.25C1.61268 13.936 1.82274 14.2785 2.10673 14.485C2.29465 14.621 2.50913 14.7207 2.73791 14.7784C2.9667 14.8362 3.20532 14.8509 3.44013 14.8217C3.6565 14.7945 3.87558 14.7112 4.1785 14.5599C4.39536 14.4482 4.63872 14.3903 4.8858 14.3915C5.13287 14.3927 5.37559 14.4529 5.59123 14.5667C6.02668 14.8047 6.28543 15.2424 6.30346 15.7167C6.31608 16.0397 6.34854 16.2607 6.43238 16.4502C6.523 16.6566 6.65587 16.8442 6.8234 17.0021C6.99094 17.1601 7.18985 17.2854 7.40876 17.3708C7.73963 17.5 8.15975 17.5 9 17.5C9.84025 17.5 10.2604 17.5 10.5912 17.3708C10.8102 17.2854 11.0091 17.1601 11.1766 17.0021C11.3441 16.8442 11.477 16.6566 11.5676 16.4502C11.6506 16.2607 11.6839 16.0397 11.6965 15.7167C11.7146 15.2424 11.9733 14.8038 12.4088 14.5667C12.6244 14.4529 12.8671 14.3927 13.1142 14.3915C13.3613 14.3903 13.6046 14.4482 13.8215 14.5599C14.1244 14.7112 14.3435 14.7945 14.5599 14.8217C14.7947 14.8509 15.0333 14.8362 15.2621 14.7784C15.4909 14.7207 15.7054 14.621 15.8933 14.485C16.1773 14.2793 16.3873 13.936 16.8074 13.25C17.2276 12.5641 17.4385 12.2215 17.4845 11.8858C17.5155 11.6644 17.4999 11.4394 17.4386 11.2237C17.3774 11.008 17.2717 10.8058 17.1275 10.6286C16.9941 10.4654 16.8074 10.3286 16.518 10.1569C16.307 10.0356 16.1321 9.86593 16.0095 9.6636C15.887 9.46128 15.821 9.23295 15.8175 9C15.8175 8.5257 16.0916 8.0956 16.518 7.844C16.8074 7.67145 16.995 7.5346 17.1275 7.3714C17.2717 7.19423 17.3774 6.99202 17.4386 6.77631C17.4999 6.56061 17.5155 6.33563 17.4845 6.11425C17.4376 5.77935 17.2276 5.43595 16.8083 4.75C16.3873 4.06405 16.1773 3.7215 15.8933 3.51495C15.7054 3.37903 15.4909 3.27934 15.2621 3.22159C15.0333 3.16383 14.7947 3.14914 14.5599 3.17835C14.3435 3.20555 14.1244 3.28885 13.8206 3.44015C13.6038 3.55162 13.3607 3.60947 13.1138 3.60828C12.8669 3.60709 12.6243 3.5469 12.4088 3.43335C12.1966 3.31409 12.0199 3.14603 11.8954 2.9449C11.7708 2.74377 11.7024 2.51614 11.6965 2.2833C11.6839 1.9603 11.6515 1.7393 11.5676 1.54975C11.477 1.34335 11.3441 1.15582 11.1766 0.997865C11.0091 0.839911 10.8102 0.714636 10.5912 0.6292Z" stroke="white" stroke-width="1.2"/>
</g>
<defs>
<clipPath id="clip0_2875_8017">
<rect width="18" height="18" fill="white"/>
</clipPath>
</defs>
</svg>
