<svg width="16" height="16" viewBox="0 0 16 16" fill="none" xmlns="http://www.w3.org/2000/svg">
<path d="M7.60041 9.69988C8.83055 9.69988 9.82778 8.75968 9.82778 7.59988C9.82778 6.44008 8.83055 5.49988 7.60041 5.49988C6.37027 5.49988 5.37305 6.44008 5.37305 7.59988C5.37305 8.75968 6.37027 9.69988 7.60041 9.69988Z" stroke="#697586" stroke-width="1.2"/>
<path d="M8.91053 0.706376C8.63805 0.599976 8.29207 0.599976 7.6001 0.599976C6.90813 0.599976 6.56215 0.599976 6.28967 0.706376C6.10938 0.776735 5.94558 0.879902 5.80761 1.00998C5.66964 1.14006 5.56021 1.2945 5.48559 1.46448C5.41728 1.62058 5.38981 1.80328 5.37942 2.06858C5.37458 2.26033 5.31824 2.44779 5.21566 2.61342C5.11308 2.77906 4.96762 2.91746 4.79288 3.01568C4.61529 3.10932 4.4154 3.15895 4.21193 3.15993C4.00846 3.16091 3.80805 3.1132 3.62945 3.02128C3.37999 2.89668 3.19957 2.82808 3.02064 2.80568C2.63034 2.75728 2.23564 2.85699 1.92329 3.08288C1.69016 3.25298 1.51642 3.53508 1.17044 4.09998C0.824456 4.66488 0.650722 4.94698 0.612857 5.22348C0.587342 5.40579 0.600175 5.59106 0.650623 5.7687C0.70107 5.94634 0.788143 6.11287 0.906869 6.25878C1.01675 6.39318 1.17044 6.50588 1.40877 6.64728C1.75995 6.85518 1.98566 7.20938 1.98566 7.59998C1.98566 7.99058 1.75995 8.34478 1.40877 8.55198C1.17044 8.69408 1.01601 8.80678 0.906869 8.94118C0.788143 9.08708 0.70107 9.25361 0.650623 9.43125C0.600175 9.60889 0.587342 9.79416 0.612857 9.97648C0.651464 10.2523 0.824456 10.5351 1.1697 11.1C1.51642 11.6649 1.68942 11.947 1.92329 12.1171C2.07804 12.229 2.25467 12.3111 2.44309 12.3587C2.6315 12.4062 2.82801 12.4183 3.02138 12.3943C3.19957 12.3719 3.37999 12.3033 3.62945 12.1787C3.80805 12.0868 4.00846 12.039 4.21193 12.04C4.4154 12.041 4.61529 12.0906 4.79288 12.1843C5.15148 12.3803 5.36457 12.7408 5.37942 13.1314C5.38981 13.3974 5.41654 13.5794 5.48559 13.7355C5.56021 13.9054 5.66964 14.0599 5.80761 14.19C5.94558 14.32 6.10938 14.4232 6.28967 14.4936C6.56215 14.6 6.90813 14.6 7.6001 14.6C8.29207 14.6 8.63805 14.6 8.91053 14.4936C9.09081 14.4232 9.25462 14.32 9.39259 14.19C9.53056 14.0599 9.63998 13.9054 9.71461 13.7355C9.78291 13.5794 9.81039 13.3974 9.82078 13.1314C9.83563 12.7408 10.0487 12.3796 10.4073 12.1843C10.5849 12.0906 10.7848 12.041 10.9883 12.04C11.1917 12.039 11.3922 12.0868 11.5707 12.1787C11.8202 12.3033 12.0006 12.3719 12.1788 12.3943C12.3722 12.4183 12.5687 12.4062 12.7571 12.3587C12.9455 12.3111 13.1222 12.229 13.2769 12.1171C13.5108 11.9477 13.6838 11.6649 14.0298 11.1C14.3757 10.5351 14.5495 10.253 14.5873 9.97648C14.6129 9.79416 14.6 9.60889 14.5496 9.43125C14.4991 9.25361 14.4121 9.08708 14.2933 8.94118C14.1834 8.80678 14.0298 8.69408 13.7914 8.55268C13.6176 8.45285 13.4736 8.31309 13.3727 8.14647C13.2718 7.97985 13.2174 7.79182 13.2145 7.59998C13.2145 7.20938 13.4402 6.85518 13.7914 6.64798C14.0298 6.50588 14.1842 6.39318 14.2933 6.25878C14.4121 6.11287 14.4991 5.94634 14.5496 5.7687C14.6 5.59106 14.6129 5.40579 14.5873 5.22348C14.5487 4.94768 14.3757 4.66488 14.0305 4.09998C13.6838 3.53508 13.5108 3.25298 13.2769 3.08288C13.1222 2.97094 12.9455 2.88884 12.7571 2.84128C12.5687 2.79372 12.3722 2.78162 12.1788 2.80568C12.0006 2.82808 11.8202 2.89668 11.57 3.02128C11.3915 3.11308 11.1912 3.16071 10.9879 3.15973C10.7846 3.15875 10.5848 3.10919 10.4073 3.01568C10.2326 2.91746 10.0871 2.77906 9.98453 2.61342C9.88196 2.44779 9.82561 2.26033 9.82078 2.06858C9.81039 1.80258 9.78366 1.62058 9.71461 1.46448C9.63998 1.2945 9.53056 1.14006 9.39259 1.00998C9.25462 0.879902 9.09081 0.776735 8.91053 0.706376Z" stroke="#697586" stroke-width="1.2"/>
</svg>
