<svg width="30" height="30" viewBox="0 0 30 30" fill="none" xmlns="http://www.w3.org/2000/svg">
<path d="M12.25 13.9167L17.75 11.0833M12.25 16.0833L17.75 18.9167M7.5 15C7.5 15.663 7.76339 16.2989 8.23223 16.7678C8.70107 17.2366 9.33696 17.5 10 17.5C10.663 17.5 11.2989 17.2366 11.7678 16.7678C12.2366 16.2989 12.5 15.663 12.5 15C12.5 14.337 12.2366 13.7011 11.7678 13.2322C11.2989 12.7634 10.663 12.5 10 12.5C9.33696 12.5 8.70107 12.7634 8.23223 13.2322C7.76339 13.7011 7.5 14.337 7.5 15ZM17.5 10C17.5 10.663 17.7634 11.2989 18.2322 11.7678C18.7011 12.2366 19.337 12.5 20 12.5C20.663 12.5 21.2989 12.2366 21.7678 11.7678C22.2366 11.2989 22.5 10.663 22.5 10C22.5 9.33696 22.2366 8.70107 21.7678 8.23223C21.2989 7.76339 20.663 7.5 20 7.5C19.337 7.5 18.7011 7.76339 18.2322 8.23223C17.7634 8.70107 17.5 9.33696 17.5 10ZM17.5 20C17.5 20.663 17.7634 21.2989 18.2322 21.7678C18.7011 22.2366 19.337 22.5 20 22.5C20.663 22.5 21.2989 22.2366 21.7678 21.7678C22.2366 21.2989 22.5 20.663 22.5 20C22.5 19.337 22.2366 18.7011 21.7678 18.2322C21.2989 17.7634 20.663 17.5 20 17.5C19.337 17.5 18.7011 17.7634 18.2322 18.2322C17.7634 18.7011 17.5 19.337 17.5 20Z" stroke="#919191" stroke-width="1.5" stroke-linecap="round" stroke-linejoin="round"/>
<rect x="0.75" y="0.75" width="28.5" height="28.5" rx="7.25" stroke="#919191" stroke-width="1.5"/>
</svg>
