<svg width="35" height="34" viewBox="0 0 35 34" fill="none" xmlns="http://www.w3.org/2000/svg">
<path d="M18.7263 -0.00028468C19.3426 0.0875182 19.9622 0.159353 20.5744 0.265508C24.2847 0.911237 27.4534 2.55948 30.0724 5.18389C32.5887 7.70533 34.1846 10.7081 34.7516 14.1762C35.5487 19.0466 34.4286 23.4893 31.3199 27.4044C28.7206 30.6769 25.3136 32.8025 21.1406 33.6142C15.2362 34.762 9.99577 33.3476 5.54835 29.3862C2.64422 26.7994 0.90946 23.5595 0.23068 19.7905C0.135355 19.2606 0.0761888 18.7242 -0.000238736 18.191C-0.000238805 17.3944 -0.000238875 16.5978 -0.000238945 15.8005C0.0745443 15.2665 0.132066 14.7293 0.228216 14.1985C0.914391 10.3824 2.70585 7.13942 5.63299 4.50703C8.13035 2.26096 11.0624 0.840201 14.4185 0.262319C15.0316 0.156957 15.6504 0.0859201 16.2659 -0.00108174C17.086 -0.000284536 17.9061 -0.000284608 18.7263 -0.00028468ZM17.5067 32.2788C26.2126 32.2725 33.2338 25.4401 33.2272 16.9802C33.2206 8.54182 26.1929 1.7158 17.5076 1.71341C8.81078 1.71101 1.76492 8.553 1.76492 17.0009C1.76493 25.456 8.80174 32.2852 17.5067 32.2788Z" fill="#9C9C9C"/>
<path d="M14.4629 16.9982C15.449 17.837 16.4063 18.6512 17.3637 19.4661C18.4427 20.384 19.5233 21.3003 20.6007 22.2198C21.0535 22.6062 21.1225 23.1202 20.7814 23.5025C20.4396 23.8856 19.9013 23.892 19.4494 23.5081C17.1772 21.5813 14.9066 19.6521 12.6361 17.7229C12.1052 17.2719 12.1003 16.7236 12.627 16.2758C14.8968 14.3458 17.1681 12.4174 19.4403 10.4906C19.898 10.1019 20.424 10.1019 20.7732 10.4818C21.1274 10.8674 21.0551 11.3854 20.5834 11.7861C18.6317 13.4479 16.6783 15.1081 14.7258 16.7691C14.6502 16.8345 14.5754 16.9016 14.4629 16.9982Z" fill="#9C9C9C"/>
</svg>
