<svg width="35" height="34" viewBox="0 0 35 34" fill="none" xmlns="http://www.w3.org/2000/svg">
<path d="M16.2733 34.0003C15.6569 33.9125 15.0373 33.8406 14.4251 33.7345C10.7148 33.0888 7.54606 31.4405 4.92708 28.8161C2.41082 26.2947 0.814948 23.2919 0.247927 19.8238C-0.54919 14.9534 0.570882 10.5107 3.67964 6.59563C6.2789 3.3231 9.68595 1.19755 13.8589 0.385803C19.7633 -0.761977 25.0037 0.652395 29.4512 4.61375C32.3553 7.20065 34.0901 10.4405 34.7688 14.2095C34.8642 14.7394 34.9233 15.2758 34.9998 15.809C34.9998 16.6056 34.9998 17.4022 34.9998 18.1995C34.925 18.7335 34.8674 19.2707 34.7713 19.8015C34.0851 23.6176 32.2937 26.8606 29.3665 29.493C26.8692 31.739 23.9371 33.1598 20.581 33.7377C19.9679 33.843 19.3491 33.9141 18.7336 34.0011C17.9135 34.0003 17.0934 34.0003 16.2733 34.0003ZM17.4928 1.72116C8.78694 1.72754 1.76574 8.55995 1.77231 17.0198C1.77888 25.4582 8.80666 32.2842 17.4919 32.2866C26.1887 32.289 33.2346 25.447 33.2346 16.9991C33.2346 8.54398 26.1978 1.71477 17.4928 1.72116Z" fill="#9C9C9C"/>
<path d="M20.5367 17.0018C19.5505 16.163 18.5932 15.3488 17.6358 14.5339C16.5568 13.616 15.4762 12.6997 14.3989 11.7802C13.9461 11.3938 13.877 10.8798 14.2181 10.4975C14.5599 10.1144 15.0982 10.108 15.5502 10.4919C17.8223 12.4187 20.0929 14.3479 22.3635 16.2771C22.8943 16.7281 22.8992 17.2764 22.3725 17.7242C20.1028 19.6542 17.8314 21.5826 15.5592 23.5094C15.1015 23.8981 14.5755 23.8981 14.2263 23.5182C13.8721 23.1326 13.9444 22.6146 14.4161 22.2139C16.3678 20.5521 18.3212 18.8919 20.2737 17.2309C20.3493 17.1655 20.4241 17.0984 20.5367 17.0018Z" fill="#9C9C9C"/>
</svg>
