<svg width="6" height="8" viewBox="0 0 6 8" fill="none" xmlns="http://www.w3.org/2000/svg">
<path d="M3.4 0.5C3.4 0.279086 3.22091 0.1 3 0.1C2.77909 0.1 2.6 0.279086 2.6 0.5L3.4 0.5ZM2.71716 7.78284C2.87337 7.93905 3.12663 7.93905 3.28284 7.78284L5.82843 5.23726C5.98464 5.08105 5.98464 4.82778 5.82843 4.67157C5.67222 4.51536 5.41895 4.51536 5.26274 4.67157L3 6.93431L0.737258 4.67157C0.581048 4.51536 0.327783 4.51536 0.171573 4.67157C0.0153632 4.82778 0.0153632 5.08105 0.171573 5.23726L2.71716 7.78284ZM3 0.5H2.6L2.6 7.5H3H3.4L3.4 0.5L3 0.5Z" fill="#269A59"/>
</svg>
