<svg width="10" height="12" viewBox="0 0 10 12" fill="none" xmlns="http://www.w3.org/2000/svg">
<path d="M6.88824 9.60315C6.91553 9.56428 6.93787 9.52282 6.97012 9.48913C7.67484 8.75062 8.38204 8.01469 9.08923 7.27617C9.28526 7.07146 9.53588 7.03518 9.74928 7.1803C10.0371 7.37205 10.0867 7.74779 9.86094 8.0121C9.83117 8.04838 9.79891 8.07947 9.76665 8.11316C8.81628 9.10562 7.86591 10.0981 6.91553 11.0905C6.85102 11.1579 6.79146 11.2279 6.73439 11.3004C6.58303 11.4896 6.3597 11.5492 6.12397 11.4585C5.91305 11.3782 5.79395 11.1968 5.79395 10.9558C5.79395 7.65968 5.79395 4.36616 5.79395 1.07005C5.79395 0.722818 5.99246 0.507741 6.31504 0.50515C6.63514 0.502559 6.84357 0.717635 6.85102 1.05968C6.8535 1.21516 6.85102 1.36805 6.85102 1.52352C6.85102 4.15886 6.85102 6.7916 6.85102 9.42694C6.85102 9.47617 6.85102 9.528 6.85102 9.57723C6.86094 9.58501 6.87335 9.59537 6.88824 9.60315Z" fill="#F28B24"/>
<path d="M3.15633 2.38634C3.10174 2.44076 3.06948 2.46926 3.03971 2.50295C2.33003 3.24405 1.62035 3.98257 0.913157 4.72368C0.756829 4.88693 0.575688 4.94134 0.372214 4.87397C0.16874 4.8066 0.0446705 4.64594 0.00744966 4.42827C-0.0248084 4.23911 0.0471519 4.08363 0.171221 3.95147C0.431767 3.6768 0.694795 3.40471 0.95534 3.13263C1.67494 2.38116 2.39703 1.62709 3.11663 0.87562C3.16626 0.823794 3.21092 0.769377 3.25559 0.712369C3.39951 0.523205 3.64517 0.45324 3.87594 0.538753C4.09182 0.619083 4.21092 0.797881 4.21092 1.05183C4.21092 4.33757 4.21092 7.62591 4.21092 10.9117C4.21092 11.3159 3.96775 11.5388 3.58313 11.4843C3.33996 11.4506 3.17618 11.2589 3.15633 10.9816C3.15385 10.9298 3.15385 10.878 3.15385 10.8261C3.15385 8.07161 3.15385 5.31708 3.15385 2.56255C3.15633 2.51331 3.15633 2.46667 3.15633 2.38634Z" fill="#F28B24"/>
</svg>
