<svg width="10" height="12" viewBox="0 0 10 12" fill="none" xmlns="http://www.w3.org/2000/svg">
<path d="M6.88824 9.60321C6.91553 9.56434 6.93787 9.52288 6.97012 9.48919C7.67484 8.75068 8.38204 8.01475 9.08923 7.27624C9.28526 7.07152 9.53588 7.03525 9.74928 7.18036C10.0371 7.37211 10.0867 7.74785 9.86094 8.01216C9.83117 8.04844 9.79891 8.07953 9.76665 8.11322C8.81628 9.10568 7.86591 10.0981 6.91553 11.0906C6.85102 11.158 6.79146 11.2279 6.73439 11.3005C6.58303 11.4897 6.3597 11.5493 6.12397 11.4586C5.91305 11.3782 5.79395 11.1968 5.79395 10.9559C5.79395 7.65975 5.79395 4.36622 5.79395 1.07011C5.79395 0.722879 5.99246 0.507802 6.31504 0.505211C6.63514 0.50262 6.84357 0.717696 6.85102 1.05975C6.8535 1.21522 6.85102 1.36811 6.85102 1.52359C6.85102 4.15892 6.85102 6.79167 6.85102 9.427C6.85102 9.47624 6.85102 9.52806 6.85102 9.5773C6.86094 9.58507 6.87335 9.59544 6.88824 9.60321Z" fill="#4A4A4A"/>
<path d="M3.15658 2.38646C3.10199 2.44088 3.06973 2.46938 3.03995 2.50307C2.33027 3.24418 1.6206 3.98269 0.913401 4.7238C0.757073 4.88705 0.575932 4.94147 0.372458 4.87409C0.168984 4.80672 0.0449146 4.64606 0.0076938 4.42839C-0.0245643 4.23923 0.047396 4.08375 0.171466 3.9516C0.432011 3.67692 0.695039 3.40483 0.955585 3.13275C1.67519 2.38128 2.39727 1.62721 3.11687 0.875742C3.1665 0.823916 3.21117 0.769499 3.25583 0.712491C3.39975 0.523327 3.64541 0.453362 3.87618 0.538875C4.09206 0.619205 4.21117 0.798003 4.21117 1.05195C4.21117 4.3377 4.21117 7.62604 4.21117 10.9118C4.21117 11.316 3.96799 11.5389 3.58338 11.4845C3.3402 11.4508 3.17643 11.259 3.15658 10.9817C3.1541 10.9299 3.1541 10.8781 3.1541 10.8263C3.1541 8.07174 3.1541 5.3172 3.1541 2.56267C3.15658 2.51343 3.15658 2.46679 3.15658 2.38646Z" fill="#4A4A4A"/>
</svg>
