<svg width="16" height="21" viewBox="0 0 16 21" fill="none" xmlns="http://www.w3.org/2000/svg">
<g clip-path="url(#clip0_369_12371)">
<path d="M10.7652 16.6171L1.70062 16.6171C0.902532 16.6171 0.254883 16.01 0.254883 15.2617L0.254882 4.99481C0.254882 4.249 0.902532 3.63944 1.70062 3.63944L10.7652 3.63944L10.7652 16.6171Z" fill="#7AB242"/>
<path d="M0.50996 4.99724C0.50996 4.38289 1.04287 3.8809 1.70072 3.8809L10.5103 3.8809L10.5103 16.3781L1.70072 16.3781C1.04542 16.3781 0.50996 15.8785 0.50996 15.2618L0.50996 4.99724ZM-5.18372e-07 4.99724L-6.96944e-08 15.2618C-3.12423e-08 16.1415 0.759841 16.8562 1.70072 16.8562L11.0202 16.8562L11.0202 3.40281L1.70072 3.40281C0.75984 3.40281 -5.56928e-07 4.11516 -5.18372e-07 4.99724Z" fill="white"/>
<path d="M15.7454 14.7167C15.7454 15.4625 15.0977 16.0721 14.2996 16.0721L10.7656 16.0721L10.7656 4.14858L14.2996 4.14858C15.0952 4.14858 15.7454 4.75575 15.7454 5.50395L15.7454 14.7167Z" fill="#7AB242"/>
<path d="M11.0207 4.38765L14.2997 4.38765C14.955 4.38765 15.4905 4.88725 15.4905 5.50399L15.4905 14.7167C15.4905 15.3311 14.9576 15.8331 14.2997 15.8331L11.0207 15.8331L11.0207 4.38765ZM10.5107 3.90956L10.5107 16.3112L14.2997 16.3112C15.2381 16.3112 16.0005 15.5964 16.0005 14.7167L16.0005 5.50159C16.0005 4.62191 15.2406 3.90717 14.2997 3.90717L10.5107 3.90717L10.5107 3.90956Z" fill="white"/>
<path d="M13.3827 17.6928C13.3827 18.2689 12.8829 18.7398 12.2659 18.7398C12.2531 18.7398 12.2378 18.7398 12.2251 18.7422L4.12181 20.002C3.51495 19.9924 3.02539 19.5263 3.02539 18.9549L3.02539 17.1478C3.02539 16.5717 3.52515 16.1008 4.1422 16.1008L12.2684 16.1008C12.8829 16.1008 13.3852 16.5693 13.3852 17.1478L13.3852 17.6928L13.3827 17.6928Z" fill="#7AB242"/>
<path d="M3.28047 17.1502C3.28047 16.7056 3.66549 16.3422 4.1423 16.3422L12.2685 16.3422C12.7428 16.3422 13.1303 16.7032 13.1303 17.1502L13.1304 17.6928C13.1304 18.1374 12.7453 18.5008 12.2685 18.5008C12.2405 18.5008 12.2124 18.5032 12.1844 18.508L4.10405 19.7629C3.64764 19.7438 3.28047 19.39 3.28047 18.9574L3.28047 17.1502ZM2.77051 17.1502L2.77051 18.955C2.77051 19.6649 3.38501 20.241 4.1423 20.241L12.2685 18.9765C13.0258 18.9765 13.6403 18.4004 13.6403 17.6904L13.6403 17.1478C13.6403 16.4378 13.0258 15.8617 12.2685 15.8617L4.1423 15.8617C3.38501 15.8641 2.77051 16.4402 2.77051 17.1502Z" fill="white"/>
<path d="M13.3827 3.09203C13.3827 3.66812 12.8829 4.13904 12.2659 4.13904L4.1422 4.13904C3.5277 4.13904 3.02539 3.67051 3.02539 3.09203L3.02539 1.28485C3.02539 0.71354 3.51495 0.249796 4.12181 0.240234L12.2251 1.49999C12.2378 1.50238 12.2531 1.50238 12.2659 1.50238C12.8804 1.50238 13.3827 1.97091 13.3827 2.5494L13.3827 3.09203Z" fill="#7AB242"/>
<path d="M3.28047 1.28488C3.28047 0.852215 3.64764 0.496041 4.10405 0.479308L12.1844 1.73668C12.2124 1.74146 12.2405 1.74385 12.2685 1.74385C12.7428 1.74385 13.1304 2.10481 13.1304 2.55182L13.1304 3.09445C13.1304 3.53907 12.7453 3.90242 12.2685 3.90242L4.1423 3.90242C3.66804 3.90242 3.28047 3.54146 3.28047 3.09445L3.28047 1.28488ZM2.77051 1.28488L2.77051 3.09206C2.77051 3.80202 3.38501 4.37811 4.1423 4.37811L12.2685 4.37811C13.0258 4.37811 13.6403 3.80202 13.6403 3.09206L13.6403 2.54943C13.6403 1.83947 13.0258 1.26337 12.2685 1.26337L4.1423 -0.0011707C3.38501 0.00121972 2.77051 0.574924 2.77051 1.28488Z" fill="white"/>
</g>
<defs>
<clipPath id="clip0_369_12371">
<rect width="20.2398" height="16" fill="white" transform="translate(0 20.241) rotate(-90)"/>
</clipPath>
</defs>
</svg>
