<svg width="54" height="47" viewBox="0 0 54 47" fill="none" xmlns="http://www.w3.org/2000/svg">
<path d="M30.5875 46.2004C43.511 46.2004 53.9875 35.8581 53.9875 23.1002C53.9875 10.3423 43.511 0 30.5875 0C17.664 0 7.1875 10.3423 7.1875 23.1002C7.1875 35.8581 17.664 46.2004 30.5875 46.2004Z" fill="#FD985F"/>
<path d="M23.874 46.0106C11.292 46.0165 1.00797 35.7755 1.21197 23.2066C1.40997 11.1116 11.376 1.16071 23.904 1.15479C36.528 1.15479 46.674 11.3544 46.566 23.8048C46.458 36.0361 36.36 46.0106 23.868 46.0106H23.874Z" fill="white"/>
<path d="M11.826 23.5979C11.646 23.4202 11.472 23.2425 11.43 22.9819V22.8456C11.442 22.8042 11.448 22.7627 11.466 22.7212C11.616 22.2474 12.162 22.0756 12.564 22.3777C12.642 22.4369 12.72 22.5021 12.792 22.5732C14.334 24.0895 15.87 25.6117 17.412 27.134C18.216 27.9277 19.02 28.7214 19.818 29.5151C20.154 29.8468 20.472 30.1903 20.76 30.5635C20.772 30.5753 20.784 30.5871 20.796 30.6049C21.036 30.3739 21.282 30.1488 21.522 29.9238C22.062 29.4144 22.602 28.905 23.142 28.3897C23.658 27.904 24.174 27.4124 24.69 26.9267C25.236 26.4113 25.782 25.896 26.328 25.3748C26.772 24.9543 27.216 24.5337 27.66 24.1132C28.188 23.6097 28.722 23.1122 29.25 22.6087C29.694 22.1882 30.144 21.7617 30.588 21.3411C31.146 20.814 31.704 20.2868 32.268 19.7597C32.736 19.3154 33.204 18.8771 33.672 18.4329C34.29 17.8524 34.908 17.266 35.538 16.6915C35.73 16.5138 35.964 16.3835 36.228 16.3361C36.228 16.3361 36.234 16.3361 36.24 16.3302H36.33C36.504 16.3598 36.636 16.4605 36.738 16.5967C36.816 16.6974 36.858 16.8159 36.894 16.9343V17.1061C36.828 17.3845 36.63 17.574 36.432 17.7577C35.886 18.273 35.346 18.7824 34.8 19.2977C34.2 19.8663 33.6 20.429 33 20.9976C32.556 21.4122 32.118 21.8328 31.68 22.2474C31.146 22.7568 30.606 23.2602 30.072 23.7696C29.616 24.202 29.154 24.6403 28.698 25.0727C28.176 25.5703 27.648 26.0619 27.126 26.5594C26.598 27.0629 26.064 27.5604 25.536 28.0639C24.954 28.6088 24.372 29.1597 23.796 29.7046C23.316 30.1548 22.842 30.6049 22.368 31.0551C22.068 31.3394 21.762 31.6237 21.462 31.908C21.312 32.0502 21.144 32.1745 20.934 32.2219H20.76C20.616 32.1805 20.49 32.1153 20.376 32.0205C20.316 31.9672 20.25 31.9139 20.19 31.8547C19.518 31.1913 18.852 30.5279 18.18 29.8704C17.688 29.3848 17.196 28.8991 16.704 28.4134C16.2 27.9158 15.696 27.4124 15.186 26.9148C14.706 26.435 14.22 25.9612 13.74 25.4814C13.104 24.8536 12.474 24.2257 11.838 23.5979H11.826ZM11.946 11.2778C13.188 10.1168 14.574 9.1632 16.104 8.40504C17.142 7.88973 18.222 7.48103 19.338 7.16119C19.566 7.09603 19.794 7.02495 20.016 6.93611C20.28 6.82949 20.4 6.61626 20.382 6.33787C20.364 6.06541 20.184 5.8344 19.926 5.76333C19.74 5.71002 19.56 5.73371 19.38 5.7811C17.922 6.17202 16.518 6.69918 15.18 7.39219C13.38 8.32212 11.778 9.51267 10.38 10.9579C9.522 11.8405 8.76 12.8 8.088 13.8247C7.896 14.1209 7.686 14.4111 7.596 14.7606V14.8198C7.608 14.8672 7.614 14.9146 7.626 14.9619C7.716 15.2344 7.896 15.4062 8.19 15.4417C8.196 15.4417 8.202 15.4476 8.208 15.4536H8.286C8.286 15.4536 8.298 15.4417 8.31 15.4417C8.472 15.4239 8.61 15.3529 8.718 15.2285C8.802 15.1337 8.88 15.033 8.946 14.9264C9.798 13.5878 10.788 12.3617 11.952 11.2778H11.946ZM25.494 6.58072C25.95 6.63995 26.406 6.69918 26.868 6.75249C27.018 6.77026 27.168 6.79395 27.318 6.7821C27.708 6.74657 27.954 6.43264 27.906 6.04764C27.87 5.75148 27.66 5.53825 27.342 5.49086C26.826 5.41386 26.31 5.35463 25.788 5.28948C25.686 5.27763 25.584 5.26578 25.476 5.25394H25.314C25.314 5.25394 25.29 5.26579 25.272 5.26579C24.96 5.31317 24.726 5.55602 24.708 5.85217C24.69 6.18387 24.876 6.45041 25.2 6.53333C25.296 6.55703 25.398 6.56887 25.5 6.58072H25.494ZM47.508 22.3303C47.508 22.1645 47.508 21.9986 47.496 21.8328C47.454 21.199 47.382 20.5652 47.28 19.9314C47.088 18.6935 46.794 17.4793 46.404 16.2887C45.648 13.9965 44.538 11.876 43.116 9.92136C42.852 9.55413 42.552 9.21059 42.264 8.86112C42.156 8.72489 42.012 8.64197 41.832 8.64197C41.544 8.64197 41.316 8.76635 41.172 9.02105C41.034 9.26389 41.064 9.50082 41.22 9.71998C41.376 9.94506 41.526 10.1761 41.688 10.3952C42.582 11.6035 43.386 12.8711 44.04 14.2216C45.078 16.3598 45.756 18.5987 46.026 20.9561C46.11 21.6847 46.152 22.4132 46.164 23.1477C46.17 23.6038 46.152 24.0658 46.134 24.5278C46.11 25.203 46.038 25.8723 45.942 26.5417C45.816 27.4124 45.642 28.2712 45.42 29.1182C45.036 30.5694 44.526 31.9732 43.854 33.3177C43.224 34.5853 42.474 35.7758 41.604 36.9012C40.578 38.228 39.414 39.4304 38.112 40.4965C36.684 41.6634 35.13 42.6348 33.462 43.4344C30.99 44.6131 28.386 45.2943 25.656 45.5253C24.756 45.6023 23.856 45.626 22.956 45.5904C22.356 45.5667 21.762 45.5193 21.162 45.4483C20.424 45.3594 19.686 45.2232 18.96 45.0633C16.986 44.619 15.096 43.9497 13.296 43.0198C11.19 41.9299 9.324 40.5202 7.692 38.8203C6.696 37.7837 5.808 36.6643 5.022 35.4678C3.684 33.4362 2.718 31.2505 2.136 28.8931C1.878 27.8447 1.698 26.7845 1.602 25.7124C1.536 25.0372 1.5 24.356 1.5 23.6808C1.5 23.2484 1.506 22.8219 1.536 22.3895C1.566 21.8446 1.608 21.2997 1.674 20.7548C1.77 19.9255 1.938 19.1022 2.142 18.2907C2.58 16.5553 3.198 14.8909 4.038 13.3035C5.232 11.0468 6.798 9.06843 8.694 7.3448C10.326 5.86402 12.144 4.66163 14.142 3.71985C16.554 2.58261 19.08 1.87183 21.744 1.62306C22.62 1.54014 23.502 1.49868 24.384 1.52829C24.888 1.54606 25.386 1.57568 25.89 1.61122C26.658 1.67045 27.42 1.78299 28.176 1.93107C30.108 2.31015 31.956 2.92615 33.714 3.79685C34.962 4.40693 36.138 5.12955 37.254 5.94694C37.362 6.02987 37.482 6.10095 37.602 6.1661C37.704 6.21941 37.818 6.26679 37.932 6.28456C38.208 6.32602 38.448 6.18387 38.598 5.91733C38.742 5.65671 38.712 5.39609 38.496 5.19471C38.322 5.03478 38.142 4.8867 37.956 4.75047C37.674 4.54909 37.386 4.35955 37.098 4.16408C36.114 3.50069 35.094 2.89653 34.02 2.38122C32.562 1.68229 31.05 1.14329 29.478 0.758286C28.596 0.545054 27.708 0.385129 26.808 0.278513C26.214 0.207435 25.626 0.16005 25.026 0.142281C24.996 0.142281 24.972 0.130435 24.942 0.124512H23.208C23.124 0.130435 23.046 0.142281 22.962 0.148204C22.416 0.189666 21.864 0.213359 21.318 0.27259C20.76 0.331821 20.202 0.408822 19.65 0.497669C18.684 0.65167 17.742 0.888595 16.806 1.1729C15.534 1.55199 14.304 2.03176 13.122 2.61815C11.304 3.51846 9.636 4.64386 8.112 5.97656C6.894 7.04272 5.79 8.2155 4.812 9.50082C3.342 11.4377 2.202 13.5522 1.386 15.8386C0.93 17.118 0.582 18.427 0.36 19.7597C0.204 20.6896 0.108 21.6314 0.072 22.5732C0.072 22.7212 0.06 22.8693 0.048 23.0174C0.048 23.0589 0.018 23.1003 0 23.1359C0 23.4083 0 23.6808 0 23.9532C0.054 23.9769 0.048 24.0243 0.048 24.0717C0.072 24.5159 0.096 24.9543 0.12 25.3985C0.156 25.9849 0.234 26.5653 0.33 27.1458C0.522 28.3245 0.804 29.4795 1.176 30.6168C1.86 32.7254 2.802 34.7096 4.05 36.5577C4.818 37.7008 5.688 38.767 6.654 39.7621C7.878 41.0237 9.222 42.1432 10.698 43.1027C12.342 44.1748 14.1 45.0218 15.96 45.6674C17.094 46.0583 18.258 46.3664 19.44 46.5796C20.262 46.7336 21.096 46.8461 21.93 46.8876C22.362 46.9113 22.794 46.935 23.22 46.9646C23.25 46.9646 23.274 46.9764 23.304 46.9824H24.414C24.45 46.9764 24.486 46.9646 24.522 46.9587C25.146 46.9172 25.776 46.8757 26.4 46.8284C27 46.781 27.6 46.6862 28.194 46.5796C29.304 46.3841 30.396 46.1057 31.464 45.7444C32.436 45.4187 33.384 45.0336 34.308 44.5894C36.27 43.6417 38.07 42.4512 39.69 41C41.82 39.0987 43.56 36.8953 44.898 34.3898C45.69 32.9031 46.314 31.3572 46.752 29.7342C47.016 28.7569 47.226 27.7618 47.346 26.7549C47.412 26.21 47.46 25.6591 47.514 25.1142C47.532 24.9424 47.514 24.7647 47.526 24.5929C47.526 24.5515 47.538 24.5159 47.55 24.4745V22.4132C47.544 22.3836 47.532 22.354 47.526 22.3244L47.508 22.3303Z" fill="black"/>
</svg>
