<svg width="17" height="15" viewBox="0 0 17 15" fill="none" xmlns="http://www.w3.org/2000/svg">
<path d="M16.3307 2.30387C16.3307 5.89897 16.3307 9.48871 16.3307 13.0838C16.3253 13.0999 16.3146 13.1106 16.3092 13.1267C16.2074 13.8446 15.5913 14.3643 14.8197 14.359C10.3835 14.3536 5.94183 14.359 1.50555 14.3536C1.36089 14.3536 1.21623 14.3429 1.08228 14.3054C0.391121 14.1125 0 13.5767 0 12.8213C0 9.38156 0 5.94183 0 2.5021C0 2.08955 0.176808 1.9181 0.594719 1.9181C1.93953 1.9181 3.28435 1.9181 4.62916 1.9181C4.6881 1.9181 4.75239 1.9181 4.81669 1.9181C4.81669 1.75201 4.81669 1.61806 4.81669 1.47876C4.8274 0.626866 5.43819 0.0107156 6.29009 0.00535776C7.53846 -6.13753e-08 8.78683 -0.00535776 10.0352 0.0107157C10.2549 0.0107157 10.496 0.0642943 10.6942 0.160735C11.2407 0.417911 11.4925 0.878684 11.5086 1.47876C11.514 1.62342 11.5086 1.77344 11.5086 1.92346C11.5997 1.92346 11.664 1.92346 11.7229 1.92346C13.0517 1.92346 14.3804 1.92882 15.7091 1.9181C16.0199 1.9181 16.2342 2.00383 16.3307 2.30387ZM0.98584 5.43819C0.975124 5.43819 0.964409 5.44355 0.959051 5.44355C0.959051 5.49177 0.959051 5.54535 0.959051 5.59357C0.959051 7.99388 0.959051 10.3995 0.959051 12.7998C0.959051 13.2392 1.12514 13.4053 1.56984 13.4053C5.96862 13.4053 10.3728 13.4053 14.7715 13.4053C15.2109 13.4053 15.377 13.2392 15.377 12.7998C15.377 10.4049 15.377 8.00459 15.377 5.60964C15.377 5.55607 15.377 5.49713 15.377 5.44355C15.3341 5.48106 15.3234 5.51856 15.3073 5.55607C15.0876 6.21508 14.868 6.87409 14.6483 7.5331C14.4018 8.26713 13.9089 8.62074 13.132 8.62074C12.3337 8.62074 11.5354 8.62074 10.7424 8.62074C10.6835 8.62074 10.6299 8.62074 10.5656 8.62074C10.5656 8.77612 10.5656 8.91542 10.5656 9.05473C10.5603 9.38691 10.3728 9.57979 10.0352 9.57979C8.79219 9.57979 7.54918 9.57979 6.30616 9.57979C5.97398 9.57979 5.78645 9.38691 5.78109 9.05473C5.78109 8.91542 5.78109 8.77076 5.78109 8.6261C5.70073 8.6261 5.64179 8.6261 5.58285 8.6261C4.76847 8.6261 3.95408 8.6261 3.14504 8.6261C2.4646 8.6261 1.95561 8.26713 1.72522 7.62419C1.60199 7.28129 1.48948 6.92767 1.37696 6.58477C1.23766 6.19901 1.10907 5.8186 0.98584 5.43819ZM1.15193 2.88787C1.16265 2.92002 1.16801 2.9468 1.17336 2.97359C1.65557 4.41485 2.13242 5.85075 2.61462 7.292C2.7057 7.56525 2.86108 7.66705 3.15576 7.66705C3.98622 7.66705 4.81133 7.66705 5.64179 7.66705C5.68465 7.66705 5.72216 7.66169 5.77038 7.65633C5.77038 7.51167 5.77038 7.37237 5.77038 7.23307C5.77574 6.90088 5.96862 6.708 6.3008 6.708C7.54382 6.708 8.78684 6.708 10.0299 6.708C10.362 6.708 10.5496 6.90088 10.5549 7.23307C10.5549 7.37237 10.5549 7.51703 10.5549 7.66169C11.4282 7.66169 12.2801 7.66169 13.132 7.66169C13.491 7.66169 13.6303 7.55989 13.7428 7.22235C14.209 5.82932 14.6697 4.43628 15.1359 3.03789C15.1519 2.98967 15.168 2.93609 15.1841 2.88251C10.496 2.88787 5.82931 2.88787 1.15193 2.88787ZM5.77038 1.91274C7.37773 1.91274 8.95829 1.91274 10.5549 1.91274C10.5549 1.76808 10.5549 1.6395 10.5549 1.50555C10.5549 1.15193 10.362 0.964409 10.0138 0.964409C9.53693 0.964409 9.06008 0.964409 8.57788 0.964409C7.81171 0.964409 7.0509 0.964409 6.28473 0.964409C5.97398 0.964409 5.77574 1.16265 5.77038 1.46804C5.77038 1.61271 5.77038 1.75737 5.77038 1.91274ZM6.73479 8.61003C7.69384 8.61003 8.64217 8.61003 9.58515 8.61003C9.58515 8.28856 9.58515 7.9778 9.58515 7.67241C8.6261 7.67241 7.68312 7.67241 6.73479 7.67241C6.73479 7.98852 6.73479 8.29392 6.73479 8.61003Z" fill="#4A4A4A"/>
</svg>
