<svg width="47" height="47" viewBox="0 0 47 47" fill="none" xmlns="http://www.w3.org/2000/svg">
<g clip-path="url(#clip0_65_32)">
<path d="M22.8649 47.0001C22.3819 46.8212 21.8695 46.6962 21.4208 46.4534C19.7843 45.5721 18.8943 43.6869 19.24 41.9316C19.6065 40.0647 21.0837 38.6183 22.86 38.3866C24.8005 38.1341 26.6173 39.0914 27.4141 40.8357C27.5808 41.201 27.7622 41.3113 28.1557 41.3113C29.644 41.315 31.1162 41.2623 32.5321 40.7254C36.0577 39.3881 38.3231 36.1238 38.3415 32.2418C38.3648 27.4098 38.3722 22.5765 38.3415 17.7433C38.2962 10.8005 33.8217 4.97681 27.2498 3.24601C18.8869 1.04451 10.3524 6.5458 8.90953 15.0907C8.75016 16.0345 8.68274 17.0041 8.67784 17.9627C8.65455 22.6427 8.66803 27.3227 8.6668 32.0015C8.6668 33.258 8.17891 33.7421 6.91381 33.7421C5.17061 33.7434 3.42619 33.7176 1.68423 33.7519C0.658171 33.7716 -0.00747801 33.1403 -0.000122765 32.0604C0.0366534 27.3043 0.0145877 22.5483 0.0158136 17.7911C0.0158136 16.7676 0.53681 16.2343 1.55919 16.2282C2.8439 16.2209 4.12862 16.2258 5.41334 16.2258C5.57883 16.2258 5.74432 16.2258 5.93556 16.2258C6.51172 10.7612 8.95611 6.384 13.4109 3.20433C16.749 0.82387 20.5173 -0.214364 24.6032 0.0369208C33.1757 0.562779 40.2711 7.27759 41.0691 16.2062C41.2236 16.2135 41.3854 16.227 41.5472 16.227C42.7853 16.2282 44.0259 16.2564 45.2628 16.2184C46.0952 16.1927 46.6824 16.4795 46.9986 17.264C46.9986 22.4037 46.9986 27.5434 46.9986 32.6831C46.6836 33.497 46.0682 33.7875 45.226 33.7507C44.5248 33.7201 43.82 33.7446 43.1175 33.7446C42.4335 33.7446 41.7495 33.7446 41.0593 33.7446C41.0139 33.9395 40.9747 34.0854 40.9477 34.2337C40.1448 38.5312 37.7102 41.5234 33.7028 43.2346C31.9094 44.0007 30.008 44.1294 28.0871 44.0534C27.7549 44.0399 27.5845 44.1245 27.4374 44.4518C26.8882 45.6763 25.9467 46.4743 24.6534 46.8494C24.5124 46.8898 24.3776 46.9499 24.2391 47.0014C23.7818 47.0001 23.3233 47.0001 22.8649 47.0001ZM5.86446 30.9363C5.86446 26.9317 5.86446 22.9798 5.86446 19.0316C4.81756 19.0316 3.80376 19.0316 2.7961 19.0316C2.7961 23.019 2.7961 26.9709 2.7961 30.9363C3.83073 30.9363 4.83472 30.9363 5.86446 30.9363ZM44.2331 19.0303C43.1764 19.0303 42.1626 19.0303 41.1463 19.0303C41.1463 23.0141 41.1463 26.966 41.1463 30.9228C42.1895 30.9228 43.2046 30.9228 44.2331 30.9228C44.2331 26.9489 44.2331 23.008 44.2331 19.0303ZM23.5244 41.1176C22.6503 41.1115 21.9467 41.8004 21.943 42.667C21.9393 43.5214 22.6626 44.2495 23.5109 44.2458C24.3433 44.2421 25.0555 43.5373 25.0702 42.7026C25.0849 41.8359 24.3911 41.1238 23.5244 41.1176Z" fill="black"/>
<path d="M15.0991 29.4835C15.3565 29.4835 15.5183 29.4835 15.6789 29.4835C17.2836 29.4835 18.8895 29.4774 20.4942 29.4872C21.2321 29.4921 21.8083 29.9787 21.9297 30.659C22.0388 31.2756 21.6649 31.9375 21.0519 32.1545C20.8411 32.2293 20.6045 32.2575 20.3789 32.2575C18.04 32.2648 15.701 32.2673 13.362 32.2587C12.2747 32.255 11.7292 31.6102 11.8223 30.5156C11.9302 29.242 12.4524 28.1744 13.3522 27.2771C15.1935 25.4421 17.0237 23.5986 18.8723 21.7709C19.131 21.516 19.2107 21.2794 19.1408 20.9227C18.903 19.7116 17.9235 18.9308 16.678 19.0007C15.5662 19.0632 14.6676 19.9948 14.5879 21.1691C14.5242 22.0994 13.9492 22.6964 13.1389 22.6706C12.3973 22.6474 11.7954 22.0234 11.8015 21.2585C11.804 20.9546 11.8321 20.6457 11.891 20.3466C12.4108 17.7001 14.751 16.0024 17.5079 16.2611C19.9474 16.4903 21.888 18.7261 21.9579 21.2941C21.9824 22.2061 21.7176 22.8827 21.0556 23.5201C19.1727 25.333 17.3449 27.2036 15.4975 29.052C15.3835 29.166 15.2793 29.2886 15.0991 29.4835Z" fill="black"/>
<path d="M34.485 25.0096C35.4841 25.2474 35.9757 25.7512 35.9561 26.4781C35.9365 27.2049 35.4204 27.7124 34.485 27.8644C34.485 28.0752 34.485 28.2983 34.485 28.5214C34.485 29.2863 34.501 30.0512 34.4789 30.8149C34.4532 31.6741 33.8586 32.2662 33.074 32.2564C32.2883 32.2466 31.7096 31.6398 31.6974 30.7842C31.6839 29.822 31.6949 28.8597 31.6949 27.8301C31.5012 27.8301 31.3394 27.8301 31.1776 27.8301C29.4197 27.8301 27.6618 27.8325 25.9027 27.8289C24.8411 27.8264 24.2882 27.2601 24.3458 26.1949C24.4157 24.8882 24.9514 23.7826 25.8745 22.8608C27.907 20.8284 29.9444 18.7998 31.9708 16.7613C32.4354 16.2943 32.96 16.092 33.5865 16.3286C34.2448 16.5775 34.4826 17.1156 34.4838 17.7836C34.485 20.001 34.485 22.2173 34.485 24.4347C34.485 24.6161 34.485 24.8 34.485 25.0096ZM31.6508 25.0488C31.6508 23.6955 31.6508 22.3852 31.6508 21.1851C30.3685 22.4526 29.0532 23.7519 27.7427 25.0488C29.0189 25.0488 30.3232 25.0488 31.6508 25.0488Z" fill="black"/>
<path d="M5.86457 30.9363C4.83361 30.9363 3.83084 30.9363 2.7962 30.9363C2.7962 26.9721 2.7962 23.0189 2.7962 19.0315C3.80387 19.0315 4.8189 19.0315 5.86457 19.0315C5.86457 22.981 5.86457 26.9329 5.86457 30.9363Z" fill="#F28B24"/>
<path d="M44.2332 19.0303C44.2332 23.0079 44.2332 26.9488 44.2332 30.9228C43.2047 30.9228 42.1909 30.9228 41.1465 30.9228C41.1465 26.966 41.1465 23.0141 41.1465 19.0303C42.1627 19.0303 43.1765 19.0303 44.2332 19.0303Z" fill="#F28B24"/>
<path d="M23.5245 41.1175C24.3912 41.1236 25.0863 41.8358 25.0703 42.7024C25.0556 43.5372 24.3446 44.2408 23.511 44.2457C22.6627 44.2493 21.9395 43.5212 21.9431 42.6669C21.9468 41.8002 22.6505 41.1113 23.5245 41.1175Z" fill="white"/>
</g>
<defs>
<clipPath id="clip0_65_32">
<rect width="47" height="47" fill="white"/>
</clipPath>
</defs>
</svg>
