<svg width="12" height="13" viewBox="0 0 12 13" fill="none" xmlns="http://www.w3.org/2000/svg">
<path d="M1.0022 9.98023C1.02681 9.74215 1.03911 9.62311 1.07262 9.51184C1.10235 9.41312 1.14435 9.31918 1.19749 9.23256C1.25738 9.13492 1.33617 9.05023 1.49374 8.88084L8.56746 1.2768C9.15911 0.640805 10.1183 0.640805 10.71 1.2768C11.3016 1.9128 11.3016 2.94396 10.71 3.57996L3.63627 11.184C3.4787 11.3534 3.39991 11.4381 3.30909 11.5025C3.22851 11.5596 3.14111 11.6047 3.04928 11.6367C2.94578 11.6727 2.83504 11.6859 2.61356 11.7124L0.800781 11.9289L1.0022 9.98023Z" stroke="#4B5565" stroke-width="1.6" stroke-linecap="round" stroke-linejoin="round"/>
</svg>
