<svg width="13" height="15" viewBox="0 0 13 15" fill="none" xmlns="http://www.w3.org/2000/svg">
<path d="M2.4415 14.2002C2.0575 14.2002 1.73065 14.0605 1.46093 13.7812C1.19122 13.5018 1.05636 13.1636 1.05636 12.7665V1.77153H0.199219V0.883772H3.62779V0.200195H8.77065V0.883772H12.1992V1.77153H11.3421V12.7665C11.3421 13.1748 11.2101 13.516 10.9461 13.79C10.6821 14.0641 10.3524 14.2008 9.95693 14.2002H2.4415ZM10.4849 1.77153H1.9135V12.7665C1.9135 12.9257 1.96293 13.0565 2.06179 13.1588C2.16065 13.2612 2.28722 13.3124 2.4415 13.3124H9.95779C10.0892 13.3124 10.2101 13.2556 10.3204 13.142C10.4306 13.0283 10.4855 12.9029 10.4849 12.7656V1.77153ZM4.32036 11.5369H5.1775V3.54706H4.32036V11.5369ZM7.22093 11.5369H8.07808V3.54706H7.22093V11.5369Z" fill="#4B5565"/>
<path d="M1.9135 1.77153H10.4849V12.7656C10.4855 12.9029 10.4306 13.0283 10.3204 13.142C10.2101 13.2556 10.0892 13.3124 9.95779 13.3124H2.4415C2.28722 13.3124 2.16065 13.2612 2.06179 13.1588C1.96293 13.0565 1.9135 12.9257 1.9135 12.7665V1.77153ZM1.9135 1.77153V13.3124M2.4415 14.2002C2.0575 14.2002 1.73065 14.0605 1.46093 13.7812C1.19122 13.5018 1.05636 13.1636 1.05636 12.7665V1.77153H0.199219V0.883772H3.62779V0.200195H8.77065V0.883772H12.1992V1.77153H11.3421V12.7665C11.3421 13.1748 11.2101 13.516 10.9461 13.79C10.6821 14.0641 10.3524 14.2008 9.95693 14.2002H2.4415ZM4.32036 11.5369H5.1775V3.54706H4.32036V11.5369ZM7.22093 11.5369H8.07808V3.54706H7.22093V11.5369Z" stroke="#4B5565" stroke-width="0.4"/>
</svg>
