<svg width="35" height="34" viewBox="0 0 35 34" fill="none" xmlns="http://www.w3.org/2000/svg">
<path d="M18.7264 0.000203602C19.3427 0.0880064 19.9623 0.159841 20.5745 0.265996C24.2848 0.911725 27.4536 2.55996 30.0725 5.18437C32.5888 7.70582 34.1847 10.7086 34.7517 14.1766C35.5488 19.0471 34.4288 23.4898 31.32 27.4049C28.7207 30.6774 25.3137 32.8029 21.1407 33.6147C15.2363 34.7625 9.99589 33.3481 5.54847 29.3867C2.64434 26.7998 0.909579 23.56 0.230799 19.791C0.135474 19.261 0.0763079 18.7247 -0.000119638 18.1915C-0.000119707 17.3949 -0.000119777 16.5983 -0.000119847 15.8009C0.0746634 15.267 0.132185 14.7298 0.228335 14.199C0.914511 10.3829 2.70597 7.13991 5.63311 4.50752C8.13047 2.26145 11.0625 0.840689 14.4187 0.262808C15.0317 0.157446 15.6505 0.0864084 16.266 -0.000593455C17.0861 0.000203745 17.9062 0.000203673 18.7264 0.000203602ZM17.5069 32.2793C26.2127 32.2729 33.2339 25.4405 33.2273 16.9806C33.2207 8.54231 26.193 1.71629 17.5077 1.7139C8.8109 1.7115 1.76504 8.55348 1.76504 17.0014C1.76504 25.4565 8.80186 32.2857 17.5069 32.2793Z" fill="#F28B24"/>
<path d="M14.4631 16.9989C15.4492 17.8378 16.4066 18.6519 17.3639 19.4669C18.4429 20.3848 19.5236 21.3011 20.6009 22.2206C21.0537 22.6069 21.1227 23.1209 20.7817 23.5032C20.4398 23.8864 19.9016 23.8928 19.4496 23.5088C17.1774 21.582 14.9069 19.6528 12.6363 17.7236C12.1054 17.2727 12.1005 16.7243 12.6273 16.2765C14.897 14.3465 17.1684 12.4181 19.4406 10.4913C19.8983 10.1026 20.4242 10.1026 20.7735 10.4826C21.1277 10.8681 21.0553 11.3861 20.5836 11.7868C18.6319 13.4486 16.6786 15.1088 14.7261 16.7698C14.6505 16.8353 14.5757 16.9023 14.4631 16.9989Z" fill="#F28B24"/>
</svg>
