<svg width="35" height="34" viewBox="0 0 35 34" fill="none" xmlns="http://www.w3.org/2000/svg">
<path d="M16.2736 33.9998C15.6573 33.912 15.0377 33.8402 14.4255 33.734C10.7152 33.0883 7.54643 31.44 4.92745 28.8156C2.41119 26.2942 0.815314 23.2914 0.248293 19.8234C-0.548824 14.9529 0.571248 10.5102 3.68 6.59514C6.27926 3.32261 9.68632 1.19706 13.8593 0.385315C19.7637 -0.762465 25.0041 0.651906 29.4515 4.61327C32.3557 7.20016 34.0904 10.44 34.7692 14.209C34.8645 14.739 34.9237 15.2753 35.0001 15.8085C35.0001 16.6051 35.0001 17.4017 35.0001 18.1991C34.9253 18.733 34.8678 19.2702 34.7717 19.801C34.0855 23.6171 32.294 26.8601 29.3669 29.4925C26.8695 31.7386 23.9375 33.1593 20.5813 33.7372C19.9683 33.8426 19.3495 33.9136 18.734 34.0006C17.9139 33.9998 17.0938 33.9998 16.2736 33.9998ZM17.4931 1.72067C8.7873 1.72705 1.7661 8.55946 1.77268 17.0194C1.77925 25.4577 8.80702 32.2837 17.4923 32.2861C26.1891 32.2885 33.235 25.4465 33.235 16.9986C33.235 8.5435 26.1981 1.71428 17.4931 1.72067Z" fill="#F28B24"/>
<path d="M20.5369 17.0011C19.5508 16.1622 18.5934 15.3481 17.6361 14.5331C16.5571 13.6152 15.4764 12.6989 14.3991 11.7794C13.9463 11.3931 13.8773 10.8791 14.2183 10.4968C14.5602 10.1136 15.0984 10.1072 15.5504 10.4912C17.8226 12.418 20.0931 14.3472 22.3637 16.2764C22.8946 16.7273 22.8995 17.2757 22.3727 17.7235C20.103 19.6535 17.8316 21.5819 15.5594 23.5087C15.1017 23.8974 14.5758 23.8974 14.2265 23.5174C13.8723 23.1319 13.9447 22.6139 14.4164 22.2132C16.3681 20.5514 18.3214 18.8912 20.2739 17.2302C20.3495 17.1647 20.4243 17.0977 20.5369 17.0011Z" fill="#F28B24"/>
</svg>
