<svg width="29" height="29" viewBox="0 0 29 29" fill="none" xmlns="http://www.w3.org/2000/svg">
<circle cx="14.5" cy="14.5" r="14.5" fill="#FD985F"/>
<path d="M20.6 9H9.4C8.63 9 8.007 9.61875 8.007 10.375L8 18.625C8 19.3813 8.63 20 9.4 20H20.6C21.37 20 22 19.3813 22 18.625V10.375C22 9.61875 21.37 9 20.6 9ZM20.32 11.9219L15.371 14.9606C15.147 15.0981 14.853 15.0981 14.629 14.9606L9.68 11.9219C9.60981 11.8832 9.54834 11.8309 9.49932 11.7682C9.4503 11.7055 9.41474 11.6337 9.3948 11.5571C9.37486 11.4805 9.37095 11.4007 9.38331 11.3226C9.39567 11.2445 9.42404 11.1696 9.4667 11.1026C9.50936 11.0355 9.56543 10.9777 9.63151 10.9326C9.69759 10.8874 9.77231 10.8559 9.85115 10.84C9.92998 10.824 10.0113 10.8239 10.0902 10.8397C10.169 10.8555 10.2438 10.8869 10.31 10.9319L15 13.8125L19.69 10.9319C19.7562 10.8869 19.831 10.8555 19.9098 10.8397C19.9887 10.8239 20.07 10.824 20.1489 10.84C20.2277 10.8559 20.3024 10.8874 20.3685 10.9326C20.4346 10.9777 20.4906 11.0355 20.5333 11.1026C20.576 11.1696 20.6043 11.2445 20.6167 11.3226C20.629 11.4007 20.6251 11.4805 20.6052 11.5571C20.5853 11.6337 20.5497 11.7055 20.5007 11.7682C20.4517 11.8309 20.3902 11.8832 20.32 11.9219Z" fill="white"/>
</svg>
