<svg width="29" height="29" viewBox="0 0 29 29" fill="none" xmlns="http://www.w3.org/2000/svg">
<circle cx="14.5" cy="14.5" r="14.5" fill="#FD985F"/>
<path d="M17.7664 16.3399L17.4125 16.6863C17.4125 16.6863 16.5702 17.5092 14.2718 15.2625C11.9735 13.0157 12.8159 12.1929 12.8159 12.1929L13.0383 11.9742C13.5882 11.4374 13.6403 10.5748 13.1604 9.94465L12.1804 8.65764C11.5862 7.87763 10.439 7.77439 9.75843 8.43969L8.53733 9.63264C8.20055 9.963 7.975 10.3897 8.00222 10.8638C8.07222 12.0774 8.63066 14.6874 11.7449 17.7325C15.0481 20.9611 18.1475 21.0896 19.4145 20.9733C19.8158 20.9366 20.1643 20.7363 20.445 20.461L21.5495 19.3812C22.2961 18.6524 22.0861 17.4021 21.131 16.8921L19.6455 16.0975C19.0186 15.7633 18.2564 15.8612 17.7664 16.3399Z" fill="white"/>
</svg>
