<svg width="33" height="33" viewBox="0 0 33 33" fill="none" xmlns="http://www.w3.org/2000/svg">
<circle cx="16.5" cy="16.5" r="16.5" fill="#269A59"/>
<path d="M7 23.0716C8.81243 24.2882 10.9731 25 13.292 25C20.9137 25 25.2113 18.2712 24.9581 12.2376C25.7574 11.6334 26.4539 10.8802 27.0079 10.0195C26.2719 10.3588 25.4804 10.5906 24.6494 10.6981C25.4962 10.1685 26.1452 9.32425 26.4539 8.32278C25.6624 8.8111 24.7839 9.17527 23.85 9.36563C23.0902 8.52142 22.0297 8 20.8425 8C18.1911 8 16.2442 10.5823 16.8457 13.2722C13.4424 13.0901 10.4191 11.3851 8.39296 8.78627C7.31658 10.7147 7.83894 13.239 9.65928 14.5136C8.98655 14.4888 8.35338 14.2984 7.79937 13.9757C7.75188 15.962 9.12109 17.8242 11.0918 18.2381C10.514 18.4036 9.88089 18.4367 9.23981 18.3126C9.76217 20.0175 11.2738 21.259 13.0704 21.2921C11.353 22.7074 9.17649 23.3364 7 23.0716Z" fill="white"/>
</svg>
