<svg width="12" height="15" viewBox="0 0 12 15" fill="none" xmlns="http://www.w3.org/2000/svg">
<path d="M9.75 5.24949H3.75V3.74941C3.74891 3.30402 3.88001 2.86833 4.12669 2.49752C4.37338 2.1267 4.72456 1.83744 5.13576 1.66637C5.54696 1.49529 5.99967 1.4501 6.43657 1.53652C6.87346 1.62294 7.27489 1.83708 7.59 2.15182C7.8714 2.44031 8.07299 2.79699 8.175 3.18688C8.19962 3.28242 8.24282 3.37217 8.30213 3.45102C8.36144 3.52987 8.4357 3.59626 8.52066 3.6464C8.60563 3.69655 8.69964 3.72947 8.79733 3.74328C8.89501 3.75709 8.99446 3.75153 9.09 3.7269C9.18554 3.70228 9.27529 3.65908 9.35413 3.59977C9.43297 3.54045 9.49936 3.46619 9.5495 3.38122C9.59965 3.29625 9.63256 3.20224 9.64638 3.10455C9.66019 3.00685 9.65462 2.9074 9.63 2.81186C9.45881 2.16306 9.11997 1.57071 8.6475 1.09427C8.12263 0.571012 7.4545 0.215021 6.72747 0.0712436C6.00043 -0.0725338 5.2471 0.00235019 4.56259 0.28644C3.87809 0.570529 3.2931 1.05108 2.88151 1.66743C2.46991 2.28377 2.25016 3.00825 2.25 3.74941V5.24949C1.65326 5.24949 1.08097 5.48655 0.65901 5.90853C0.237053 6.33051 0 6.90284 0 7.4996V12.7499C0 13.3467 0.237053 13.919 0.65901 14.341C1.08097 14.7629 1.65326 15 2.25 15H9.75C10.3467 15 10.919 14.7629 11.341 14.341C11.7629 13.919 12 13.3467 12 12.7499V7.4996C12 6.90284 11.7629 6.33051 11.341 5.90853C10.919 5.48655 10.3467 5.24949 9.75 5.24949ZM10.5 12.7499C10.5 12.9488 10.421 13.1396 10.2803 13.2802C10.1397 13.4209 9.94891 13.4999 9.75 13.4999H2.25C2.05109 13.4999 1.86032 13.4209 1.71967 13.2802C1.57902 13.1396 1.5 12.9488 1.5 12.7499V7.4996C1.5 7.30068 1.57902 7.10991 1.71967 6.96925C1.86032 6.82859 2.05109 6.74956 2.25 6.74956H9.75C9.94891 6.74956 10.1397 6.82859 10.2803 6.96925C10.421 7.10991 10.5 7.30068 10.5 7.4996V12.7499Z" fill="#4B5565"/>
</svg>
