<svg width="21" height="23" viewBox="0 0 21 23" fill="none" xmlns="http://www.w3.org/2000/svg">
<g clip-path="url(#clip0_500_7863)">
<path d="M8.39652 17.2431C8.39652 17.5846 8.39995 17.8919 8.39652 18.1992C8.39309 18.5884 8.2043 18.807 7.87821 18.807C7.55556 18.807 7.34961 18.5782 7.34961 18.206C7.34961 14.0847 7.34961 9.96344 7.34961 5.84215C7.34961 5.47339 7.55899 5.23096 7.87478 5.23096C8.19057 5.23096 8.39309 5.46314 8.39652 5.84215C8.39995 6.14945 8.39652 6.46017 8.39652 6.79821C8.51322 6.79821 8.60934 6.79821 8.70544 6.79821C12.2581 6.79821 15.8107 6.79821 19.3633 6.79821C20.1665 6.79821 20.7878 7.27282 20.9629 8.02059C20.9972 8.16059 21.0006 8.31083 21.0006 8.45765C21.0041 10.8307 21.0041 13.2072 21.0006 15.5803C21.0006 16.5944 20.345 17.2431 19.3187 17.2431C15.8004 17.2465 12.2787 17.2431 8.76036 17.2431C8.65396 17.2431 8.54755 17.2431 8.39652 17.2431ZM8.41025 16.1881C8.47204 16.1949 8.51322 16.1983 8.55098 16.1983C12.1585 16.1983 15.7695 16.1983 19.3771 16.1983C19.7546 16.1983 19.9503 15.9968 19.9537 15.6178C19.9572 15.0647 19.9537 14.5081 19.9537 13.955C19.9537 13.6647 19.9537 13.3745 19.9537 13.0775C16.0887 13.0775 12.2546 13.0775 8.40682 13.0775C8.41025 14.1189 8.41025 15.1432 8.41025 16.1881ZM8.41025 12.0087C12.2718 12.0087 16.1059 12.0087 19.94 12.0087C19.94 11.4897 19.94 10.9844 19.94 10.4722C16.0922 10.4722 12.2581 10.4722 8.41025 10.4722C8.41025 10.9844 8.41025 11.4863 8.41025 12.0087ZM19.9537 9.39663C19.9537 9.08592 19.9537 8.80251 19.9537 8.5157C19.9537 8.01377 19.7787 7.83621 19.2741 7.83621C15.7386 7.83621 12.2032 7.83621 8.66769 7.83621C8.58187 7.83621 8.49606 7.84646 8.41368 7.84987C8.41368 8.38253 8.41368 8.88446 8.41368 9.39322C12.2649 9.39663 16.0922 9.39663 19.9537 9.39663Z" fill="#FD985F"/>
<path d="M11.5435 1.07898C11.5435 1.26336 11.5503 1.44091 11.5435 1.61847C11.5126 2.4516 10.8707 3.11743 10.0366 3.12767C8.59153 3.14474 7.14645 3.14474 5.70481 3.12767C4.87757 3.11743 4.22197 2.43453 4.20137 1.61164C4.19794 1.43409 4.20137 1.25653 4.20137 1.06874C3.41533 1.06874 2.65332 1.04142 1.89474 1.07898C1.44165 1.09947 1.0881 1.53652 1.05034 2.00089C1.04348 2.07601 1.04691 2.14771 1.04691 2.22283C1.04691 8.40989 1.04691 14.5969 1.04691 20.7874C1.04691 20.8933 1.04691 21.0025 1.06751 21.105C1.16705 21.6171 1.56865 21.9449 2.12128 21.9449C5.95195 21.9483 9.78604 21.9483 13.6167 21.9449C14.2757 21.9449 14.6876 21.5249 14.6945 20.8694C14.7014 20.2479 14.6945 19.6299 14.6979 19.0085C14.6979 18.9368 14.6945 18.8616 14.7048 18.7899C14.7391 18.4963 14.9451 18.3051 15.2231 18.3051C15.5046 18.3051 15.7414 18.4895 15.7449 18.7831C15.7517 19.6162 15.786 20.4528 15.7037 21.2757C15.6007 22.2864 14.6602 22.9966 13.5481 23C11.4714 23.0034 9.39474 23 7.31808 23C5.61213 23 3.90275 23.0034 2.1968 23C1.10183 22.9966 0.257437 22.341 0.0411899 21.3201C0.00343249 21.1459 0 20.965 0 20.784C0 14.5935 0 8.40647 0 2.21942C0 0.880938 0.892449 0.00341449 2.24142 0C6 0 9.75858 0 13.5172 0C14.8593 0 15.7517 0.891182 15.7551 2.22966C15.7586 3.19938 15.7586 4.17251 15.7551 5.14564C15.7551 5.47343 15.6076 5.67147 15.3433 5.73293C15.1133 5.78756 14.8627 5.68171 14.77 5.46318C14.722 5.34709 14.7048 5.21051 14.7048 5.08417C14.6979 4.15202 14.7014 3.22328 14.7014 2.29112C14.7014 2.1921 14.7014 2.0965 14.6945 1.99748C14.6636 1.55018 14.3444 1.11654 13.905 1.08922C13.1293 1.04483 12.3501 1.07898 11.5435 1.07898ZM10.476 1.06874C8.7357 1.06874 7.00229 1.06874 5.24485 1.06874C5.24485 1.18824 5.24485 1.29068 5.24485 1.39653C5.24485 1.92919 5.41304 2.09308 5.95195 2.09308C7.15675 2.09308 8.36156 2.06918 9.56636 2.09991C10.5275 2.12381 10.5309 1.81309 10.4966 1.10971C10.4931 1.10629 10.4897 1.09947 10.476 1.06874Z" fill="#FD985F"/>
</g>
<defs>
<clipPath id="clip0_500_7863">
<rect width="21" height="23" fill="white"/>
</clipPath>
</defs>
</svg>
