<svg width="45" height="46" viewBox="0 0 45 46" fill="none" xmlns="http://www.w3.org/2000/svg">
<g clip-path="url(#clip0_1418_1463)">
<path d="M0 22.51C0.03 12.39 6.73 3.57002 16.47 0.830016C18.4 0.290016 20.37 1.58576e-05 22.37 0.0100159C23.3 0.0100159 23.96 0.610016 23.98 1.46002C24 2.35002 23.36 2.99002 22.41 3.00002C17.63 3.10002 13.38 4.63002 9.76 7.79002C6.03 11.05 3.83 15.16 3.2 20.09C2.13 28.43 6.57 36.38 13.88 39.99C17.02 41.54 20.34 42.28 23.83 41.93C32.33 41.09 38.03 36.56 40.97 28.56C41.69 26.61 41.92 24.56 41.95 22.49C41.96 21.74 42.51 21.12 43.21 21.02C43.97 20.92 44.65 21.34 44.88 22.07C44.93 22.24 44.94 22.44 44.94 22.62C44.9 28.04 43.14 32.85 39.67 36.99C36.16 41.17 31.68 43.77 26.31 44.69C20.4 45.69 14.89 44.53 9.92 41.15C4.66 37.57 1.5 32.58 0.33 26.32C0.24 25.85 0.17 25.36 0.13 24.88C0.08 24.1 0.05 23.3 0 22.51Z" fill="black"/>
<path d="M22.5199 36.87C15.4799 36.77 9.5999 31.74 8.4399 24.75C7.1599 17.04 12.4899 9.66997 20.2299 8.44997C20.9699 8.32997 21.7199 8.28997 22.4599 8.26997C23.3299 8.24997 23.9799 8.90997 23.9799 9.75997C23.9799 10.61 23.3499 11.24 22.4699 11.26C17.6399 11.4 13.6599 14.16 11.9999 18.53C9.4799 25.15 13.6799 32.46 20.6599 33.6C26.9199 34.62 32.7099 30.35 33.6099 24.04C33.6799 23.53 33.6999 23.01 33.7199 22.5C33.7599 21.63 34.3899 21 35.2499 21.01C36.0699 21.02 36.6999 21.67 36.7099 22.52C36.8099 28.97 32.0799 34.99 25.7899 36.37C24.7199 36.61 23.6099 36.71 22.5199 36.87Z" fill="black"/>
<path d="M22.3809 20.94C22.5909 20.58 22.7509 20.16 23.0309 19.87C24.5109 18.35 26.0109 16.85 27.5209 15.36C27.7509 15.13 27.8009 14.94 27.6909 14.64C27.2209 13.3 26.8009 11.95 26.3309 10.61C26.0609 9.82996 26.2109 9.19996 26.8109 8.60996C29.4909 5.94996 32.1509 3.26996 34.8209 0.599959C35.8109 -0.390041 37.0709 -0.100041 37.5209 1.22996C38.0009 2.65996 38.4809 4.09996 38.9409 5.53996C39.0309 5.80996 39.1609 5.93996 39.4209 6.02996C40.8409 6.48996 42.2509 6.96996 43.6709 7.43996C45.0609 7.90996 45.3709 9.14996 44.3309 10.19C41.6609 12.87 38.9909 15.53 36.3309 18.22C35.7509 18.8 35.1309 18.94 34.3709 18.67C33.0209 18.2 31.6609 17.76 30.3009 17.29C30.0309 17.2 29.8609 17.23 29.6509 17.44C28.1309 18.99 26.6009 20.52 25.0509 22.05C24.2009 22.89 22.8809 22.58 22.5309 21.48C22.4809 21.33 22.4709 21.18 22.4409 21.02C22.4409 20.99 22.4109 20.96 22.3809 20.94ZM35.3809 4.30996C33.4109 6.28996 31.4909 8.19996 29.5809 10.14C29.4909 10.23 29.4909 10.48 29.5409 10.63C29.8909 11.73 30.2509 12.82 30.6409 13.91C30.7109 14.09 30.9009 14.29 31.0909 14.36C32.1609 14.74 33.2409 15.08 34.3109 15.46C34.6209 15.57 34.8109 15.51 35.0309 15.28C36.7709 13.51 38.5309 11.76 40.2909 10.01C40.4109 9.88996 40.5809 9.82996 40.7309 9.73996C39.6009 9.24996 38.5809 8.89996 37.5609 8.56996C36.9809 8.37996 36.6109 8.01996 36.4209 7.42996C36.0909 6.39996 35.7409 5.38996 35.3809 4.30996Z" fill="#F28B24"/>
</g>
<defs>
<clipPath id="clip0_1418_1463">
<rect width="44.96" height="45.04" fill="white"/>
</clipPath>
</defs>
</svg>
