<svg width="45" height="45" viewBox="0 0 45 45" fill="none" xmlns="http://www.w3.org/2000/svg">
<g clip-path="url(#clip0_1419_1480)">
<path d="M44.9788 5.04586C44.9254 3.83738 44.8186 2.6395 44.7119 1.40982C44.6585 0.741971 44.1887 0.27554 43.4841 0.211935L43.0998 0.169533C42.5126 0.105928 41.9254 0.042324 41.3382 0.0211226C37.3453 -0.116687 33.7261 0.402748 30.2884 1.63243C25.5054 3.32854 21.5232 5.7349 18.0962 8.96812C18.0321 9.03172 17.9147 9.09533 17.8506 9.07413C15.9396 8.88331 14.2635 8.95752 12.7154 9.30734C8.38089 10.3144 5.06061 12.742 2.83997 16.537C1.68694 18.53 0.960963 20.4381 0.640678 22.3674C0.52324 23.0565 0.758116 23.4699 0.982315 23.6925C1.19584 23.9151 1.60153 24.1695 2.29548 24.0741L3.52324 23.9257C5.41292 23.6925 7.3026 23.4593 9.19228 23.2367C9.21363 23.2367 9.23498 23.2367 9.25634 23.2367C9.29904 23.2367 9.33107 23.2367 9.32039 23.2261C9.60865 23.4805 9.8969 23.7455 10.1745 24.0105C10.4094 24.2331 10.6336 24.4452 10.8898 24.6784C10.5161 25.3886 10.1638 26.1095 9.8115 26.8303C9.20295 28.0812 9.4058 29.3003 10.3667 30.2649C11.8186 31.7172 13.2706 33.1695 14.7332 34.6006C15.7047 35.5547 16.9325 35.7455 18.1923 35.1519L18.4272 35.0459C19.057 34.749 19.6869 34.4522 20.2955 34.1236C20.3809 34.0812 20.4022 34.0706 20.4022 34.1236C20.7866 34.537 21.1923 34.9292 21.598 35.3215L22.0891 35.8091C22.8471 36.5618 23.1887 36.6042 24.1069 36.0953C27.5873 34.166 30.7368 31.9186 33.4805 29.4169C33.3631 35.6289 28.2065 40.0282 23.9147 41.1625L23.9894 40.5688C24.0535 40.0812 24.1175 39.6042 24.1496 39.1165C24.1923 38.6077 24.0108 38.2791 23.8613 38.0989C23.6478 37.8444 23.3275 37.696 22.9538 37.6748C22.1745 37.6218 21.63 38.0777 21.5232 38.8621C21.3524 40.113 21.1923 41.3639 21.0428 42.6148C20.9788 43.1236 21.1282 43.5582 21.4378 43.855C21.6834 44.0883 22.025 44.2155 22.4094 44.2155C22.5161 44.2155 22.6336 44.2049 22.751 44.1837C25.1958 43.749 27.3097 42.8904 29.1994 41.5653C34.3773 37.9292 36.6834 33.0105 36.0428 26.9575C36.0428 26.9363 36.0642 26.8833 36.0962 26.8515C36.3845 26.4911 36.6941 26.1307 36.993 25.7702C37.3773 25.3144 37.7617 24.8586 38.1247 24.3921C39.8542 22.219 41.3062 19.7596 42.4592 17.0671C44.3595 12.6678 45.1496 8.85151 44.9788 5.04586ZM18.3311 32.1519C17.872 32.3851 17.4022 32.6183 16.9432 32.7879C16.8791 32.8091 16.7083 32.7561 16.6549 32.7243C15.3951 31.5158 14.1674 30.2967 12.9396 29.0671L12.2457 28.378C12.0962 28.2296 12.1282 28.166 12.1603 28.0918C12.3844 27.636 12.6086 27.1801 12.8328 26.7349L18.3311 32.1519ZM15.5232 15.5724L15.63 15.4452C15.7154 15.3391 15.8008 15.2331 15.8862 15.1271C16.356 14.4805 16.2706 13.7596 15.6727 13.2826C15.3738 13.0388 15.0321 12.9328 14.7012 12.9752C14.4663 12.9964 14.114 13.113 13.7937 13.5158L13.4627 13.9292C12.8435 14.7031 12.1923 15.5088 11.6158 16.3568C11.0713 17.1519 10.5588 17.9681 10.0357 18.7844C9.67271 19.3568 9.30972 19.9186 8.94673 20.4805C8.9147 20.5335 8.80794 20.5971 8.76523 20.6077C7.3026 20.8091 5.83997 20.9893 4.37733 21.1695L3.67271 21.2543C3.70474 21.1695 3.73676 21.0741 3.76879 20.9893C4.0357 20.2897 4.29192 19.6218 4.58018 18.9752C6.19228 15.3497 9.02146 12.9964 13.0037 11.9999C14.5731 11.6077 16.2172 11.5335 18.0428 11.7879C18.63 11.8621 19.1104 11.7137 19.5161 11.3215C22.1638 8.7349 25.2279 6.67837 28.8578 5.02466C32.8613 3.20133 37.0143 2.44868 41.541 2.7137C41.7759 2.7243 42.1175 2.7455 42.1389 2.7243C42.1709 2.78791 42.1923 3.05292 42.2136 3.30734L42.2243 3.42395C42.7688 9.24374 41.2848 14.8303 37.6869 20.5017C37.4307 20.9045 37.1318 21.2967 36.8328 21.6784C36.6193 21.9434 36.4165 22.219 36.2136 22.4946C34.1958 25.3356 31.5695 27.8692 27.7047 30.6996C26.7012 31.431 25.6763 32.1307 24.6086 32.8515C24.2243 33.1059 23.84 33.3709 23.4556 33.636L11.3702 21.6042C12.598 19.4946 13.9965 17.4593 15.5232 15.5724Z" fill="black"/>
<path d="M12.5018 36.1484C12.064 34.4947 10.7295 33.0848 9.11742 32.5654C7.59073 32.0778 5.99999 32.4276 4.63344 33.5407C4.15301 33.9329 3.8007 34.2827 3.50177 34.6219C1.95372 36.4347 0.950165 38.417 0.512443 40.5053C0.277568 41.6184 0.117425 42.5937 0.0106636 43.4841C-0.0533933 44.046 0.138778 44.3852 0.309596 44.576C0.491091 44.7668 0.811375 44.9894 1.39856 44.9894C1.41992 44.9894 1.45194 44.9894 1.4733 44.9894C2.88255 44.947 4.32383 44.6184 5.9039 43.993C7.9644 43.1661 9.48041 42.2545 10.6868 41.1096C11.5836 40.2615 12.6192 39.0212 12.6406 37.0601V37.0177L12.6085 36.8163C12.5979 36.6361 12.5658 36.3923 12.5018 36.1484ZM9.05337 39.0212C7.64411 40.3145 5.99999 41.2474 4.17436 41.8092C3.74732 41.9364 3.3096 42.053 2.85052 42.159C3.19216 39.7633 4.25977 37.6643 6.0854 35.7456C6.56582 35.2474 7.08896 35.0036 7.65479 35.0036C7.88967 35.0036 8.12454 35.046 8.35942 35.1308C9.26689 35.4382 9.79002 36.053 9.92881 36.9753C10.0463 37.7174 9.76867 38.3746 9.05337 39.0212Z" fill="black"/>
<path d="M29.5728 22.2509C29.6583 22.2509 29.733 22.2509 29.8077 22.2509C31.4091 22.2509 32.9465 21.6361 34.1422 20.4912C35.5408 19.1661 36.3736 17.2368 36.3842 15.3393C36.3949 13.569 35.6903 11.8941 34.4091 10.6114C33.096 9.29688 31.3558 8.56543 29.5088 8.56543C29.5088 8.56543 29.5088 8.56543 29.4981 8.56543C25.7615 8.56543 22.7294 11.576 22.7188 15.2757C22.7188 17.1626 23.4234 18.9223 24.6938 20.2262C25.975 21.5301 27.7045 22.2403 29.5728 22.2509ZM29.701 19.6326C29.6903 19.6326 29.6689 19.6326 29.6583 19.6326C27.3308 19.6008 25.3664 17.6608 25.3558 15.3817C25.4412 12.9541 27.1387 11.2262 29.4981 11.1944C30.5657 11.1944 31.6227 11.629 32.4341 12.4241C33.2668 13.2403 33.7472 14.3322 33.7472 15.4241C33.7472 16.4842 33.2454 17.6184 32.3913 18.4453C31.6227 19.2191 30.6618 19.6326 29.701 19.6326Z" fill="#FD985F"/>
</g>
<defs>
<clipPath id="clip0_1419_1480">
<rect width="45" height="45" fill="white"/>
</clipPath>
</defs>
</svg>
