<svg width="19" height="19" viewBox="0 0 19 19" fill="none" xmlns="http://www.w3.org/2000/svg">
<path d="M14.9907 4.01061C15.469 4.01061 15.9117 4.00999 16.355 4.01061C17.3586 4.01249 17.9851 4.64028 17.9863 5.64699C17.9876 6.73124 17.987 7.81549 17.9857 8.89973C17.9857 9.01228 17.9876 9.0992 18.1226 9.15735C18.6998 9.40559 18.9768 9.86768 18.9886 10.483C19.0018 11.1539 19.0061 11.8248 18.9874 12.4951C18.9711 13.096 18.6885 13.5537 18.1439 13.8245C18.0157 13.8883 17.9832 13.9614 17.9838 14.0927C17.9882 15.177 17.9588 16.2625 17.9945 17.3455C18.0245 18.2484 17.3092 19.0031 16.3325 19C11.77 18.9837 7.20743 18.9937 2.64489 18.9925C1.32058 18.9925 0.33642 18.2396 0.0750602 17.0191C0.0250392 16.7852 0.0137844 16.5389 0.0137844 16.2988C0.0100329 11.696 0.0244139 7.09328 2.86651e-05 2.49117C-0.00497344 1.49571 0.644675 0.364567 1.95335 0.0900663C2.21033 0.0362916 2.47857 0.0112801 2.74181 0.0106548C6.27517 0.00565253 9.8079 0.0181583 13.3413 2.49499e-05C14.3054 -0.00497735 15.042 0.742866 14.997 1.65829C14.9632 2.34297 14.9901 3.03079 14.9901 3.71736C14.9907 3.80177 14.9907 3.88681 14.9907 4.01061ZM1.02796 4.51585C1.02296 4.61714 1.01796 4.67154 1.01796 4.72594C1.01733 8.62711 1.01608 12.5276 1.01921 16.4288C1.01983 17.348 1.67573 17.9858 2.61175 17.9858C7.19806 17.9877 11.7844 17.987 16.3713 17.9864C16.8415 17.9864 16.9915 17.8363 16.9922 17.3742C16.9928 16.3213 16.9928 15.2677 16.9922 14.2147C16.9922 14.1471 16.9847 14.0796 16.979 13.9958C16.1624 13.9958 15.3609 13.9983 14.5587 13.9952C13.6677 13.9914 13.0111 13.3386 13.003 12.4439C12.9974 11.8198 12.9986 11.1958 13.0024 10.5717C13.0086 9.65195 13.6608 9.00416 14.5868 8.99853C15.2965 8.99415 16.0061 8.9979 16.7164 8.9979C16.8002 8.9979 16.884 8.9979 16.9922 8.9979C16.9922 8.8916 16.9922 8.80782 16.9922 8.72403C16.9922 7.70981 16.9922 6.6956 16.9922 5.68138C16.9922 5.13863 16.859 5.0067 16.3131 5.0067C11.8907 5.0067 7.46754 5.00169 3.04506 5.0117C2.33851 5.0117 1.6601 4.9573 1.02796 4.51585ZM13.9722 4.01061C13.9853 3.96184 13.9928 3.94684 13.9928 3.93183C13.994 3.17523 13.9953 2.41863 13.9953 1.66204C13.9953 1.15118 13.8577 1.01424 13.34 1.01424C9.80728 1.01361 6.27392 1.01424 2.74118 1.01424C2.64739 1.01424 2.55423 1.01549 2.46044 1.02112C2.09654 1.043 1.7739 1.17369 1.51442 1.42818C1.10987 1.82461 0.909161 2.29358 1.06673 2.86759C1.21241 3.39971 1.46877 3.83866 2.06215 3.95434C2.26723 3.99436 2.47982 4.00811 2.68928 4.00811C6.35458 4.01124 10.0205 4.01061 13.6858 4.01061C13.7789 4.01061 13.8709 4.01061 13.9722 4.01061ZM16.0011 10.004C15.5097 10.004 15.0182 9.99961 14.5274 10.0052C14.1672 10.0096 13.9997 10.1803 13.9972 10.5411C13.9934 11.1727 13.994 11.8048 13.9972 12.4364C13.999 12.8084 14.1679 12.9935 14.5343 12.9966C15.5091 13.0035 16.4838 13.0041 17.4586 12.9966C17.8169 12.9941 17.9826 12.8159 17.9851 12.4539C17.9901 11.8223 17.9895 11.1902 17.9857 10.5586C17.9832 10.1634 17.8256 10.0077 17.4286 10.0046C16.9522 10.0009 16.4763 10.004 16.0011 10.004Z" fill="black"/>
</svg>
