<svg width="19" height="16" viewBox="0 0 19 16" fill="none" xmlns="http://www.w3.org/2000/svg">
<g clip-path="url(#clip0_634_5173)">
<path d="M19.0003 4.66207C18.9904 4.91231 18.8517 5.17787 18.5396 5.31575C18.2276 5.45364 17.9304 5.41279 17.6827 5.15744C16.7169 4.1718 15.6322 3.35469 14.3989 2.75718C12.7643 1.9605 11.0456 1.59281 9.2427 1.64387C6.1817 1.72559 3.55161 2.86443 1.38217 5.10637C1.03545 5.46386 0.579769 5.47918 0.247913 5.14723C-0.088896 4.81017 -0.0789898 4.33012 0.272679 3.96242C2.22914 1.90943 4.58681 0.612275 7.34567 0.183293C11.7093 -0.501035 15.5182 0.7042 18.6981 3.90624C18.9408 4.15138 19.0052 4.29948 19.0003 4.66207Z" fill="#525252"/>
<path d="M9.3714 5.53516C11.5953 5.57601 13.4131 6.29609 14.904 7.82817C15.1368 8.06819 15.2557 8.33375 15.1814 8.67081C15.117 8.96701 14.9436 9.18661 14.6563 9.26832C14.3641 9.35003 14.0867 9.30917 13.8589 9.06915C12.4819 7.6341 10.8028 7.04681 8.86618 7.22555C7.42979 7.35833 6.21629 7.99159 5.191 9.02829C4.96316 9.26321 4.69074 9.36535 4.38365 9.27343C4.07656 9.1815 3.88339 8.9568 3.819 8.62995C3.75956 8.34907 3.85862 8.11415 4.04189 7.92009C4.96316 6.92424 6.07265 6.23991 7.3555 5.862C7.67249 5.77007 7.9994 5.69347 8.3263 5.6424C8.71264 5.58112 9.10888 5.55558 9.3714 5.53516Z" fill="#525252"/>
<path d="M9.51502 15.9993C8.16778 16.0045 7.13754 14.9473 7.13259 13.5685C7.12763 12.1794 8.16283 11.1018 9.51006 11.0967C10.8424 11.0916 11.8875 12.164 11.8925 13.5378C11.8925 14.932 10.8722 15.9942 9.51502 15.9993ZM8.72748 13.5429C8.72748 14.0383 9.02961 14.3549 9.50511 14.3549C9.98556 14.36 10.2926 14.0434 10.2976 13.5531C10.2976 13.0629 9.98556 12.736 9.51997 12.7309C9.04943 12.7258 8.72748 13.0578 8.72748 13.5429Z" fill="#525252"/>
</g>
<defs>
<clipPath id="clip0_634_5173">
<rect width="19" height="16" fill="white"/>
</clipPath>
</defs>
</svg>
